G04*
G04 #@! TF.GenerationSoftware,Altium Limited,Altium Designer,20.1.11 (218)*
G04*
G04 Layer_Physical_Order=2*
G04 Layer_Color=36540*
%FSLAX25Y25*%
%MOIN*%
G70*
G04*
G04 #@! TF.SameCoordinates,79C4E474-355B-46CA-A0E8-57BC19F8BC65*
G04*
G04*
G04 #@! TF.FilePolarity,Positive*
G04*
G01*
G75*
%ADD75C,0.06378*%
%ADD76O,0.08858X0.17717*%
%ADD77O,0.17717X0.08858*%
%ADD80C,0.03000*%
%ADD82C,0.01000*%
G36*
X576953Y146814D02*
X178840D01*
X178840Y409194D01*
X576953Y409194D01*
Y146814D01*
D02*
G37*
%LPC*%
G36*
X391066Y397499D02*
X390676Y397422D01*
X390345Y397200D01*
X390124Y396870D01*
X390046Y396480D01*
X390124Y396089D01*
X390345Y395759D01*
X390676Y395538D01*
X391066Y395460D01*
X391456Y395538D01*
X391787Y395759D01*
X392008Y396089D01*
X392085Y396480D01*
X392008Y396870D01*
X391787Y397200D01*
X391456Y397422D01*
X391066Y397499D01*
D02*
G37*
G36*
X355940Y397429D02*
X355550Y397351D01*
X355219Y397130D01*
X354998Y396799D01*
X354920Y396409D01*
X354998Y396019D01*
X355219Y395688D01*
X355550Y395467D01*
X355940Y395390D01*
X356330Y395467D01*
X356661Y395688D01*
X356882Y396019D01*
X356959Y396409D01*
X356882Y396799D01*
X356661Y397130D01*
X356330Y397351D01*
X355940Y397429D01*
D02*
G37*
G36*
X388707Y386700D02*
X388317Y386622D01*
X387986Y386401D01*
X387765Y386070D01*
X387688Y385680D01*
X387765Y385290D01*
X387986Y384959D01*
X388317Y384738D01*
X388707Y384660D01*
X389097Y384738D01*
X389428Y384959D01*
X389649Y385290D01*
X389727Y385680D01*
X389649Y386070D01*
X389428Y386401D01*
X389097Y386622D01*
X388707Y386700D01*
D02*
G37*
G36*
X353592Y385702D02*
X353202Y385624D01*
X352871Y385403D01*
X352650Y385072D01*
X352573Y384682D01*
X352650Y384292D01*
X352871Y383961D01*
X353202Y383740D01*
X353592Y383663D01*
X353982Y383740D01*
X354313Y383961D01*
X354534Y384292D01*
X354612Y384682D01*
X354534Y385072D01*
X354313Y385403D01*
X353982Y385624D01*
X353592Y385702D01*
D02*
G37*
G36*
X526680Y383845D02*
X526290Y383767D01*
X525959Y383546D01*
X525738Y383215D01*
X525660Y382825D01*
X525738Y382435D01*
X525959Y382104D01*
X526290Y381883D01*
X526680Y381805D01*
X527070Y381883D01*
X527401Y382104D01*
X527622Y382435D01*
X527700Y382825D01*
X527622Y383215D01*
X527401Y383546D01*
X527070Y383767D01*
X526680Y383845D01*
D02*
G37*
G36*
X505459Y383757D02*
X505069Y383679D01*
X504738Y383458D01*
X504517Y383127D01*
X504439Y382737D01*
X504517Y382347D01*
X504738Y382016D01*
X505069Y381795D01*
X505459Y381718D01*
X505849Y381795D01*
X506180Y382016D01*
X506401Y382347D01*
X506479Y382737D01*
X506401Y383127D01*
X506180Y383458D01*
X505849Y383679D01*
X505459Y383757D01*
D02*
G37*
G36*
X386191Y383189D02*
X385801Y383112D01*
X385470Y382890D01*
X385249Y382560D01*
X385172Y382170D01*
X385249Y381779D01*
X385470Y381449D01*
X385801Y381227D01*
X386191Y381150D01*
X386581Y381227D01*
X386912Y381449D01*
X387133Y381779D01*
X387211Y382170D01*
X387133Y382560D01*
X386912Y382890D01*
X386581Y383112D01*
X386191Y383189D01*
D02*
G37*
G36*
X475106Y380771D02*
X474716Y380694D01*
X474385Y380473D01*
X474164Y380142D01*
X474086Y379752D01*
X474164Y379362D01*
X474385Y379031D01*
X474716Y378810D01*
X475106Y378732D01*
X475496Y378810D01*
X475827Y379031D01*
X476048Y379362D01*
X476126Y379752D01*
X476048Y380142D01*
X475827Y380473D01*
X475496Y380694D01*
X475106Y380771D01*
D02*
G37*
G36*
X371191Y378189D02*
X370801Y378112D01*
X370470Y377890D01*
X370249Y377560D01*
X370171Y377169D01*
X370249Y376779D01*
X370470Y376448D01*
X370801Y376227D01*
X371191Y376150D01*
X371581Y376227D01*
X371912Y376448D01*
X372133Y376779D01*
X372211Y377169D01*
X372133Y377560D01*
X371912Y377890D01*
X371581Y378112D01*
X371191Y378189D01*
D02*
G37*
G36*
X475634Y374111D02*
X475244Y374033D01*
X474914Y373812D01*
X474692Y373482D01*
X474615Y373091D01*
X474692Y372701D01*
X474914Y372371D01*
X475244Y372149D01*
X475634Y372072D01*
X476025Y372149D01*
X476355Y372371D01*
X476577Y372701D01*
X476654Y373091D01*
X476577Y373482D01*
X476355Y373812D01*
X476025Y374033D01*
X475634Y374111D01*
D02*
G37*
G36*
X381191Y373189D02*
X380801Y373112D01*
X380470Y372890D01*
X380249Y372560D01*
X380171Y372169D01*
X380249Y371779D01*
X380470Y371448D01*
X380801Y371228D01*
X381191Y371150D01*
X381581Y371228D01*
X381912Y371448D01*
X382133Y371779D01*
X382211Y372169D01*
X382133Y372560D01*
X381912Y372890D01*
X381581Y373112D01*
X381191Y373189D01*
D02*
G37*
G36*
X366191D02*
X365801Y373112D01*
X365470Y372890D01*
X365249Y372560D01*
X365172Y372169D01*
X365249Y371779D01*
X365470Y371448D01*
X365801Y371228D01*
X366191Y371150D01*
X366581Y371228D01*
X366912Y371448D01*
X367133Y371779D01*
X367211Y372169D01*
X367133Y372560D01*
X366912Y372890D01*
X366581Y373112D01*
X366191Y373189D01*
D02*
G37*
G36*
X351191D02*
X350801Y373112D01*
X350470Y372890D01*
X350249Y372560D01*
X350171Y372169D01*
X350249Y371779D01*
X350470Y371448D01*
X350801Y371228D01*
X351191Y371150D01*
X351581Y371228D01*
X351912Y371448D01*
X352133Y371779D01*
X352211Y372169D01*
X352133Y372560D01*
X351912Y372890D01*
X351581Y373112D01*
X351191Y373189D01*
D02*
G37*
G36*
X401264Y373166D02*
X400874Y373088D01*
X400543Y372867D01*
X400322Y372536D01*
X400244Y372146D01*
X400322Y371756D01*
X400543Y371425D01*
X400874Y371204D01*
X401264Y371126D01*
X401654Y371204D01*
X401985Y371425D01*
X402206Y371756D01*
X402284Y372146D01*
X402206Y372536D01*
X401985Y372867D01*
X401654Y373088D01*
X401264Y373166D01*
D02*
G37*
G36*
X381191Y368189D02*
X380801Y368111D01*
X380470Y367890D01*
X380249Y367560D01*
X380171Y367169D01*
X380249Y366779D01*
X380470Y366448D01*
X380801Y366228D01*
X381191Y366150D01*
X381581Y366228D01*
X381912Y366448D01*
X382133Y366779D01*
X382211Y367169D01*
X382133Y367560D01*
X381912Y367890D01*
X381581Y368111D01*
X381191Y368189D01*
D02*
G37*
G36*
X366191D02*
X365801Y368111D01*
X365470Y367890D01*
X365249Y367560D01*
X365172Y367169D01*
X365249Y366779D01*
X365470Y366448D01*
X365801Y366228D01*
X366191Y366150D01*
X366581Y366228D01*
X366912Y366448D01*
X367133Y366779D01*
X367211Y367169D01*
X367133Y367560D01*
X366912Y367890D01*
X366581Y368111D01*
X366191Y368189D01*
D02*
G37*
G36*
X351191D02*
X350801Y368111D01*
X350470Y367890D01*
X350249Y367560D01*
X350171Y367169D01*
X350249Y366779D01*
X350470Y366448D01*
X350801Y366228D01*
X351191Y366150D01*
X351581Y366228D01*
X351912Y366448D01*
X352133Y366779D01*
X352211Y367169D01*
X352133Y367560D01*
X351912Y367890D01*
X351581Y368111D01*
X351191Y368189D01*
D02*
G37*
G36*
X401264Y368166D02*
X400874Y368088D01*
X400543Y367867D01*
X400322Y367536D01*
X400244Y367146D01*
X400322Y366756D01*
X400543Y366425D01*
X400874Y366204D01*
X401264Y366126D01*
X401654Y366204D01*
X401985Y366425D01*
X402206Y366756D01*
X402284Y367146D01*
X402206Y367536D01*
X401985Y367867D01*
X401654Y368088D01*
X401264Y368166D01*
D02*
G37*
G36*
X381191Y363189D02*
X380801Y363111D01*
X380470Y362890D01*
X380249Y362560D01*
X380171Y362170D01*
X380249Y361779D01*
X380470Y361449D01*
X380801Y361227D01*
X381191Y361150D01*
X381581Y361227D01*
X381912Y361449D01*
X382133Y361779D01*
X382211Y362170D01*
X382133Y362560D01*
X381912Y362890D01*
X381581Y363111D01*
X381191Y363189D01*
D02*
G37*
G36*
X366191D02*
X365801Y363111D01*
X365470Y362890D01*
X365249Y362560D01*
X365172Y362170D01*
X365249Y361779D01*
X365470Y361449D01*
X365801Y361227D01*
X366191Y361150D01*
X366581Y361227D01*
X366912Y361449D01*
X367133Y361779D01*
X367211Y362170D01*
X367133Y362560D01*
X366912Y362890D01*
X366581Y363111D01*
X366191Y363189D01*
D02*
G37*
G36*
X351191D02*
X350801Y363111D01*
X350470Y362890D01*
X350249Y362560D01*
X350171Y362170D01*
X350249Y361779D01*
X350470Y361449D01*
X350801Y361227D01*
X351191Y361150D01*
X351581Y361227D01*
X351912Y361449D01*
X352133Y361779D01*
X352211Y362170D01*
X352133Y362560D01*
X351912Y362890D01*
X351581Y363111D01*
X351191Y363189D01*
D02*
G37*
G36*
X401264Y363166D02*
X400874Y363088D01*
X400543Y362867D01*
X400322Y362536D01*
X400244Y362146D01*
X400322Y361756D01*
X400543Y361425D01*
X400874Y361204D01*
X401264Y361126D01*
X401654Y361204D01*
X401985Y361425D01*
X402206Y361756D01*
X402284Y362146D01*
X402206Y362536D01*
X401985Y362867D01*
X401654Y363088D01*
X401264Y363166D01*
D02*
G37*
G36*
X356188Y363142D02*
X355798Y363064D01*
X355467Y362843D01*
X355246Y362512D01*
X355169Y362122D01*
X355246Y361732D01*
X355467Y361401D01*
X355798Y361180D01*
X356188Y361103D01*
X356578Y361180D01*
X356909Y361401D01*
X357130Y361732D01*
X357208Y362122D01*
X357130Y362512D01*
X356909Y362843D01*
X356578Y363064D01*
X356188Y363142D01*
D02*
G37*
G36*
X245704Y367999D02*
X235861D01*
X234446Y367812D01*
X233127Y367266D01*
X231995Y366397D01*
X231126Y365265D01*
X230580Y363946D01*
X230393Y362530D01*
X230580Y361115D01*
X231126Y359797D01*
X231995Y358664D01*
X233127Y357795D01*
X234446Y357249D01*
X235861Y357062D01*
X245704D01*
X247119Y357249D01*
X248438Y357795D01*
X249570Y358664D01*
X250439Y359797D01*
X250986Y361115D01*
X251172Y362530D01*
X250986Y363946D01*
X250439Y365265D01*
X249570Y366397D01*
X248438Y367266D01*
X247119Y367812D01*
X245704Y367999D01*
D02*
G37*
G36*
X346168Y358116D02*
X345777Y358038D01*
X345447Y357818D01*
X345226Y357487D01*
X345148Y357097D01*
X345226Y356706D01*
X345447Y356376D01*
X345777Y356155D01*
X346168Y356077D01*
X346558Y356155D01*
X346888Y356376D01*
X347110Y356706D01*
X347187Y357097D01*
X347110Y357487D01*
X346888Y357818D01*
X346558Y358038D01*
X346168Y358116D01*
D02*
G37*
G36*
X342560Y355646D02*
X342170Y355569D01*
X341839Y355348D01*
X341618Y355017D01*
X341540Y354627D01*
X341618Y354237D01*
X341839Y353906D01*
X342170Y353685D01*
X342560Y353607D01*
X342950Y353685D01*
X343281Y353906D01*
X343502Y354237D01*
X343579Y354627D01*
X343502Y355017D01*
X343281Y355348D01*
X342950Y355569D01*
X342560Y355646D01*
D02*
G37*
G36*
X356227Y353146D02*
X355837Y353068D01*
X355506Y352847D01*
X355285Y352516D01*
X355207Y352126D01*
X355285Y351736D01*
X355506Y351405D01*
X355837Y351184D01*
X356227Y351106D01*
X356617Y351184D01*
X356948Y351405D01*
X357169Y351736D01*
X357247Y352126D01*
X357169Y352516D01*
X356948Y352847D01*
X356617Y353068D01*
X356227Y353146D01*
D02*
G37*
G36*
X391168Y353116D02*
X390777Y353039D01*
X390447Y352818D01*
X390226Y352487D01*
X390148Y352097D01*
X390226Y351706D01*
X390447Y351376D01*
X390777Y351155D01*
X391168Y351077D01*
X391558Y351155D01*
X391888Y351376D01*
X392109Y351706D01*
X392187Y352097D01*
X392109Y352487D01*
X391888Y352818D01*
X391558Y353039D01*
X391168Y353116D01*
D02*
G37*
G36*
X376168D02*
X375777Y353039D01*
X375447Y352818D01*
X375226Y352487D01*
X375148Y352097D01*
X375226Y351706D01*
X375447Y351376D01*
X375777Y351155D01*
X376168Y351077D01*
X376558Y351155D01*
X376888Y351376D01*
X377110Y351706D01*
X377187Y352097D01*
X377110Y352487D01*
X376888Y352818D01*
X376558Y353039D01*
X376168Y353116D01*
D02*
G37*
G36*
X361168D02*
X360777Y353039D01*
X360447Y352818D01*
X360226Y352487D01*
X360148Y352097D01*
X360226Y351706D01*
X360447Y351376D01*
X360777Y351155D01*
X361168Y351077D01*
X361558Y351155D01*
X361889Y351376D01*
X362109Y351706D01*
X362187Y352097D01*
X362109Y352487D01*
X361889Y352818D01*
X361558Y353039D01*
X361168Y353116D01*
D02*
G37*
G36*
X346168D02*
X345777Y353039D01*
X345447Y352818D01*
X345226Y352487D01*
X345148Y352097D01*
X345226Y351706D01*
X345447Y351376D01*
X345777Y351155D01*
X346168Y351077D01*
X346558Y351155D01*
X346888Y351376D01*
X347110Y351706D01*
X347187Y352097D01*
X347110Y352487D01*
X346888Y352818D01*
X346558Y353039D01*
X346168Y353116D01*
D02*
G37*
G36*
X405313Y352897D02*
X404923Y352819D01*
X404593Y352599D01*
X404372Y352268D01*
X404294Y351878D01*
X404372Y351487D01*
X404593Y351157D01*
X404923Y350936D01*
X405313Y350858D01*
X405704Y350936D01*
X406034Y351157D01*
X406255Y351487D01*
X406333Y351878D01*
X406255Y352268D01*
X406034Y352599D01*
X405704Y352819D01*
X405313Y352897D01*
D02*
G37*
G36*
X342657Y350342D02*
X342267Y350265D01*
X341936Y350044D01*
X341715Y349713D01*
X341638Y349323D01*
X341715Y348933D01*
X341936Y348602D01*
X342267Y348381D01*
X342657Y348303D01*
X343048Y348381D01*
X343378Y348602D01*
X343599Y348933D01*
X343677Y349323D01*
X343599Y349713D01*
X343378Y350044D01*
X343048Y350265D01*
X342657Y350342D01*
D02*
G37*
G36*
X391168Y348116D02*
X390777Y348039D01*
X390447Y347817D01*
X390226Y347487D01*
X390148Y347097D01*
X390226Y346706D01*
X390447Y346376D01*
X390777Y346155D01*
X391168Y346077D01*
X391558Y346155D01*
X391888Y346376D01*
X392109Y346706D01*
X392187Y347097D01*
X392109Y347487D01*
X391888Y347817D01*
X391558Y348039D01*
X391168Y348116D01*
D02*
G37*
G36*
X386168D02*
X385777Y348039D01*
X385447Y347817D01*
X385226Y347487D01*
X385148Y347097D01*
X385226Y346706D01*
X385447Y346376D01*
X385777Y346155D01*
X386168Y346077D01*
X386558Y346155D01*
X386889Y346376D01*
X387109Y346706D01*
X387187Y347097D01*
X387109Y347487D01*
X386889Y347817D01*
X386558Y348039D01*
X386168Y348116D01*
D02*
G37*
G36*
X376168D02*
X375777Y348039D01*
X375447Y347817D01*
X375226Y347487D01*
X375148Y347097D01*
X375226Y346706D01*
X375447Y346376D01*
X375777Y346155D01*
X376168Y346077D01*
X376558Y346155D01*
X376888Y346376D01*
X377110Y346706D01*
X377187Y347097D01*
X377110Y347487D01*
X376888Y347817D01*
X376558Y348039D01*
X376168Y348116D01*
D02*
G37*
G36*
X371168D02*
X370777Y348039D01*
X370447Y347817D01*
X370226Y347487D01*
X370148Y347097D01*
X370226Y346706D01*
X370447Y346376D01*
X370777Y346155D01*
X371168Y346077D01*
X371558Y346155D01*
X371888Y346376D01*
X372110Y346706D01*
X372187Y347097D01*
X372110Y347487D01*
X371888Y347817D01*
X371558Y348039D01*
X371168Y348116D01*
D02*
G37*
G36*
X361168D02*
X360777Y348039D01*
X360447Y347817D01*
X360226Y347487D01*
X360148Y347097D01*
X360226Y346706D01*
X360447Y346376D01*
X360777Y346155D01*
X361168Y346077D01*
X361558Y346155D01*
X361889Y346376D01*
X362109Y346706D01*
X362187Y347097D01*
X362109Y347487D01*
X361889Y347817D01*
X361558Y348039D01*
X361168Y348116D01*
D02*
G37*
G36*
X356168D02*
X355777Y348039D01*
X355447Y347817D01*
X355226Y347487D01*
X355148Y347097D01*
X355226Y346706D01*
X355447Y346376D01*
X355777Y346155D01*
X356168Y346077D01*
X356558Y346155D01*
X356889Y346376D01*
X357109Y346706D01*
X357187Y347097D01*
X357109Y347487D01*
X356889Y347817D01*
X356558Y348039D01*
X356168Y348116D01*
D02*
G37*
G36*
X346168D02*
X345777Y348039D01*
X345447Y347817D01*
X345226Y347487D01*
X345148Y347097D01*
X345226Y346706D01*
X345447Y346376D01*
X345777Y346155D01*
X346168Y346077D01*
X346558Y346155D01*
X346888Y346376D01*
X347110Y346706D01*
X347187Y347097D01*
X347110Y347487D01*
X346888Y347817D01*
X346558Y348039D01*
X346168Y348116D01*
D02*
G37*
G36*
X405391Y348110D02*
X405001Y348032D01*
X404670Y347811D01*
X404449Y347480D01*
X404372Y347090D01*
X404449Y346700D01*
X404670Y346369D01*
X405001Y346148D01*
X405391Y346070D01*
X405782Y346148D01*
X406112Y346369D01*
X406333Y346700D01*
X406411Y347090D01*
X406333Y347480D01*
X406112Y347811D01*
X405782Y348032D01*
X405391Y348110D01*
D02*
G37*
G36*
X335452Y348015D02*
X335062Y347938D01*
X334731Y347717D01*
X334510Y347386D01*
X334433Y346996D01*
X334510Y346606D01*
X334731Y346275D01*
X335062Y346054D01*
X335452Y345976D01*
X335842Y346054D01*
X336173Y346275D01*
X336394Y346606D01*
X336472Y346996D01*
X336394Y347386D01*
X336173Y347717D01*
X335842Y347938D01*
X335452Y348015D01*
D02*
G37*
G36*
X410996Y346747D02*
X410606Y346670D01*
X410275Y346449D01*
X410054Y346118D01*
X409977Y345728D01*
X410054Y345338D01*
X410275Y345007D01*
X410606Y344786D01*
X410996Y344708D01*
X411386Y344786D01*
X411717Y345007D01*
X411938Y345338D01*
X412016Y345728D01*
X411938Y346118D01*
X411717Y346449D01*
X411386Y346670D01*
X410996Y346747D01*
D02*
G37*
G36*
X357866Y345268D02*
X357476Y345190D01*
X357145Y344969D01*
X356924Y344638D01*
X356846Y344248D01*
X356924Y343858D01*
X357145Y343527D01*
X357476Y343306D01*
X357866Y343228D01*
X358256Y343306D01*
X358587Y343527D01*
X358808Y343858D01*
X358886Y344248D01*
X358808Y344638D01*
X358587Y344969D01*
X358256Y345190D01*
X357866Y345268D01*
D02*
G37*
G36*
X389939Y344217D02*
X389549Y344140D01*
X389218Y343919D01*
X388997Y343588D01*
X388919Y343198D01*
X388997Y342808D01*
X389218Y342477D01*
X389549Y342256D01*
X389939Y342178D01*
X390329Y342256D01*
X390660Y342477D01*
X390881Y342808D01*
X390958Y343198D01*
X390881Y343588D01*
X390660Y343919D01*
X390329Y344140D01*
X389939Y344217D01*
D02*
G37*
G36*
X354130Y344153D02*
X353740Y344076D01*
X353409Y343855D01*
X353188Y343524D01*
X353111Y343134D01*
X353188Y342744D01*
X353409Y342413D01*
X353740Y342192D01*
X354130Y342114D01*
X354521Y342192D01*
X354851Y342413D01*
X355072Y342744D01*
X355150Y343134D01*
X355072Y343524D01*
X354851Y343855D01*
X354521Y344076D01*
X354130Y344153D01*
D02*
G37*
G36*
X398230Y344101D02*
X397839Y344023D01*
X397509Y343802D01*
X397288Y343471D01*
X397210Y343081D01*
X397288Y342691D01*
X397509Y342360D01*
X397839Y342139D01*
X398230Y342061D01*
X398620Y342139D01*
X398950Y342360D01*
X399171Y342691D01*
X399249Y343081D01*
X399171Y343471D01*
X398950Y343802D01*
X398620Y344023D01*
X398230Y344101D01*
D02*
G37*
G36*
X337484Y343542D02*
X337093Y343464D01*
X336763Y343243D01*
X336542Y342912D01*
X336464Y342522D01*
X336542Y342132D01*
X336763Y341801D01*
X337093Y341580D01*
X337484Y341502D01*
X337874Y341580D01*
X338205Y341801D01*
X338425Y342132D01*
X338503Y342522D01*
X338425Y342912D01*
X338205Y343243D01*
X337874Y343464D01*
X337484Y343542D01*
D02*
G37*
G36*
X380257Y343360D02*
X379867Y343283D01*
X379536Y343062D01*
X379315Y342731D01*
X379237Y342341D01*
X379315Y341951D01*
X379536Y341620D01*
X379867Y341399D01*
X380257Y341321D01*
X380647Y341399D01*
X380978Y341620D01*
X381199Y341951D01*
X381276Y342341D01*
X381199Y342731D01*
X380978Y343062D01*
X380647Y343283D01*
X380257Y343360D01*
D02*
G37*
G36*
X408739Y343244D02*
X408349Y343167D01*
X408018Y342946D01*
X407797Y342615D01*
X407719Y342225D01*
X407797Y341834D01*
X408018Y341504D01*
X408349Y341283D01*
X408739Y341205D01*
X409129Y341283D01*
X409460Y341504D01*
X409681Y341834D01*
X409758Y342225D01*
X409681Y342615D01*
X409460Y342946D01*
X409129Y343167D01*
X408739Y343244D01*
D02*
G37*
G36*
X342723Y343184D02*
X342332Y343106D01*
X342002Y342885D01*
X341780Y342554D01*
X341703Y342164D01*
X341780Y341774D01*
X342002Y341443D01*
X342332Y341222D01*
X342723Y341144D01*
X343113Y341222D01*
X343443Y341443D01*
X343665Y341774D01*
X343742Y342164D01*
X343665Y342554D01*
X343443Y342885D01*
X343113Y343106D01*
X342723Y343184D01*
D02*
G37*
G36*
X383916Y343168D02*
X383526Y343090D01*
X383195Y342869D01*
X382974Y342539D01*
X382897Y342148D01*
X382974Y341758D01*
X383195Y341427D01*
X383526Y341206D01*
X383916Y341129D01*
X384306Y341206D01*
X384637Y341427D01*
X384858Y341758D01*
X384936Y342148D01*
X384858Y342539D01*
X384637Y342869D01*
X384306Y343090D01*
X383916Y343168D01*
D02*
G37*
G36*
X359577Y343158D02*
X359187Y343080D01*
X358856Y342859D01*
X358635Y342529D01*
X358558Y342138D01*
X358635Y341748D01*
X358856Y341417D01*
X359187Y341196D01*
X359577Y341119D01*
X359967Y341196D01*
X360298Y341417D01*
X360519Y341748D01*
X360597Y342138D01*
X360519Y342529D01*
X360298Y342859D01*
X359967Y343080D01*
X359577Y343158D01*
D02*
G37*
G36*
X351127Y341391D02*
X350737Y341313D01*
X350406Y341092D01*
X350185Y340761D01*
X350107Y340371D01*
X350185Y339981D01*
X350406Y339650D01*
X350737Y339429D01*
X351127Y339352D01*
X351517Y339429D01*
X351848Y339650D01*
X352069Y339981D01*
X352147Y340371D01*
X352069Y340761D01*
X351848Y341092D01*
X351517Y341313D01*
X351127Y341391D01*
D02*
G37*
G36*
X354458Y340352D02*
X354068Y340275D01*
X353737Y340054D01*
X353516Y339723D01*
X353438Y339333D01*
X353516Y338943D01*
X353737Y338612D01*
X354068Y338391D01*
X354458Y338313D01*
X354848Y338391D01*
X355179Y338612D01*
X355400Y338943D01*
X355478Y339333D01*
X355400Y339723D01*
X355179Y340054D01*
X354848Y340275D01*
X354458Y340352D01*
D02*
G37*
G36*
X334765Y339975D02*
X334374Y339897D01*
X334044Y339676D01*
X333823Y339346D01*
X333745Y338955D01*
X333823Y338565D01*
X334044Y338234D01*
X334374Y338013D01*
X334765Y337936D01*
X335155Y338013D01*
X335486Y338234D01*
X335707Y338565D01*
X335784Y338955D01*
X335707Y339346D01*
X335486Y339676D01*
X335155Y339897D01*
X334765Y339975D01*
D02*
G37*
G36*
X339371Y339897D02*
X338981Y339820D01*
X338650Y339598D01*
X338429Y339268D01*
X338351Y338878D01*
X338429Y338487D01*
X338650Y338157D01*
X338981Y337936D01*
X339371Y337858D01*
X339761Y337936D01*
X340092Y338157D01*
X340313Y338487D01*
X340390Y338878D01*
X340313Y339268D01*
X340092Y339598D01*
X339761Y339820D01*
X339371Y339897D01*
D02*
G37*
G36*
X398203Y339831D02*
X397813Y339754D01*
X397482Y339532D01*
X397261Y339202D01*
X397183Y338811D01*
X397261Y338421D01*
X397482Y338091D01*
X397813Y337870D01*
X398203Y337792D01*
X398593Y337870D01*
X398924Y338091D01*
X399145Y338421D01*
X399223Y338811D01*
X399145Y339202D01*
X398924Y339532D01*
X398593Y339754D01*
X398203Y339831D01*
D02*
G37*
G36*
X401293Y339742D02*
X400903Y339665D01*
X400572Y339444D01*
X400351Y339113D01*
X400273Y338723D01*
X400351Y338332D01*
X400572Y338002D01*
X400903Y337781D01*
X401293Y337703D01*
X401683Y337781D01*
X402014Y338002D01*
X402235Y338332D01*
X402313Y338723D01*
X402235Y339113D01*
X402014Y339444D01*
X401683Y339665D01*
X401293Y339742D01*
D02*
G37*
G36*
X386083Y337716D02*
X385693Y337639D01*
X385363Y337418D01*
X385141Y337087D01*
X385064Y336697D01*
X385141Y336306D01*
X385363Y335976D01*
X385693Y335755D01*
X386083Y335677D01*
X386474Y335755D01*
X386804Y335976D01*
X387025Y336306D01*
X387103Y336697D01*
X387025Y337087D01*
X386804Y337418D01*
X386474Y337639D01*
X386083Y337716D01*
D02*
G37*
G36*
X354458Y336813D02*
X354068Y336736D01*
X353737Y336515D01*
X353516Y336184D01*
X353438Y335794D01*
X353516Y335403D01*
X353737Y335073D01*
X354068Y334852D01*
X354458Y334774D01*
X354848Y334852D01*
X355179Y335073D01*
X355400Y335403D01*
X355478Y335794D01*
X355400Y336184D01*
X355179Y336515D01*
X354848Y336736D01*
X354458Y336813D01*
D02*
G37*
G36*
X398247Y336808D02*
X397857Y336730D01*
X397527Y336509D01*
X397305Y336178D01*
X397228Y335788D01*
X397305Y335398D01*
X397527Y335067D01*
X397857Y334846D01*
X398247Y334769D01*
X398638Y334846D01*
X398968Y335067D01*
X399189Y335398D01*
X399267Y335788D01*
X399189Y336178D01*
X398968Y336509D01*
X398638Y336730D01*
X398247Y336808D01*
D02*
G37*
G36*
X401271Y336763D02*
X400881Y336686D01*
X400550Y336465D01*
X400329Y336134D01*
X400251Y335744D01*
X400329Y335354D01*
X400550Y335023D01*
X400881Y334802D01*
X401271Y334724D01*
X401661Y334802D01*
X401992Y335023D01*
X402213Y335354D01*
X402290Y335744D01*
X402213Y336134D01*
X401992Y336465D01*
X401661Y336686D01*
X401271Y336763D01*
D02*
G37*
G36*
X531923Y336145D02*
X531533Y336067D01*
X531202Y335846D01*
X530981Y335515D01*
X530903Y335125D01*
X530981Y334735D01*
X531202Y334404D01*
X531533Y334183D01*
X531923Y334106D01*
X532313Y334183D01*
X532644Y334404D01*
X532865Y334735D01*
X532942Y335125D01*
X532865Y335515D01*
X532644Y335846D01*
X532313Y336067D01*
X531923Y336145D01*
D02*
G37*
G36*
X517699Y335606D02*
X517309Y335528D01*
X516978Y335308D01*
X516757Y334977D01*
X516679Y334587D01*
X516757Y334196D01*
X516978Y333866D01*
X517309Y333645D01*
X517699Y333567D01*
X518089Y333645D01*
X518420Y333866D01*
X518641Y334196D01*
X518718Y334587D01*
X518641Y334977D01*
X518420Y335308D01*
X518089Y335528D01*
X517699Y335606D01*
D02*
G37*
G36*
X405503Y334414D02*
X405113Y334337D01*
X404782Y334116D01*
X404561Y333785D01*
X404483Y333395D01*
X404561Y333005D01*
X404782Y332674D01*
X405113Y332453D01*
X405503Y332375D01*
X405893Y332453D01*
X406224Y332674D01*
X406445Y333005D01*
X406522Y333395D01*
X406445Y333785D01*
X406224Y334116D01*
X405893Y334337D01*
X405503Y334414D01*
D02*
G37*
G36*
X341678Y333886D02*
X341287Y333808D01*
X340957Y333587D01*
X340736Y333257D01*
X340658Y332866D01*
X340736Y332476D01*
X340957Y332146D01*
X341287Y331925D01*
X341678Y331847D01*
X342068Y331925D01*
X342399Y332146D01*
X342620Y332476D01*
X342697Y332866D01*
X342620Y333257D01*
X342399Y333587D01*
X342068Y333808D01*
X341678Y333886D01*
D02*
G37*
G36*
X335008Y333830D02*
X334617Y333753D01*
X334286Y333532D01*
X334066Y333201D01*
X333988Y332811D01*
X334066Y332421D01*
X334286Y332090D01*
X334617Y331869D01*
X335008Y331791D01*
X335398Y331869D01*
X335728Y332090D01*
X335949Y332421D01*
X336027Y332811D01*
X335949Y333201D01*
X335728Y333532D01*
X335398Y333753D01*
X335008Y333830D01*
D02*
G37*
G36*
X398025Y333581D02*
X397635Y333503D01*
X397304Y333282D01*
X397083Y332951D01*
X397005Y332561D01*
X397083Y332171D01*
X397304Y331840D01*
X397635Y331619D01*
X398025Y331541D01*
X398415Y331619D01*
X398746Y331840D01*
X398967Y332171D01*
X399044Y332561D01*
X398967Y332951D01*
X398746Y333282D01*
X398415Y333503D01*
X398025Y333581D01*
D02*
G37*
G36*
X356029Y332919D02*
X355639Y332842D01*
X355308Y332621D01*
X355087Y332290D01*
X355010Y331900D01*
X355087Y331509D01*
X355308Y331179D01*
X355639Y330958D01*
X356029Y330880D01*
X356419Y330958D01*
X356750Y331179D01*
X356971Y331509D01*
X357049Y331900D01*
X356971Y332290D01*
X356750Y332621D01*
X356419Y332842D01*
X356029Y332919D01*
D02*
G37*
G36*
X384865Y332661D02*
X384475Y332584D01*
X384144Y332363D01*
X383924Y332032D01*
X383846Y331642D01*
X383924Y331252D01*
X384144Y330921D01*
X384475Y330700D01*
X384865Y330622D01*
X385256Y330700D01*
X385586Y330921D01*
X385807Y331252D01*
X385885Y331642D01*
X385807Y332032D01*
X385586Y332363D01*
X385256Y332584D01*
X384865Y332661D01*
D02*
G37*
G36*
X381792Y332609D02*
X381402Y332531D01*
X381071Y332310D01*
X380850Y331979D01*
X380773Y331589D01*
X380850Y331199D01*
X381071Y330868D01*
X381402Y330647D01*
X381792Y330570D01*
X382183Y330647D01*
X382513Y330868D01*
X382734Y331199D01*
X382812Y331589D01*
X382734Y331979D01*
X382513Y332310D01*
X382183Y332531D01*
X381792Y332609D01*
D02*
G37*
G36*
X337953Y330273D02*
X337563Y330195D01*
X337232Y329974D01*
X337012Y329644D01*
X336934Y329253D01*
X337012Y328863D01*
X337232Y328533D01*
X337563Y328311D01*
X337953Y328234D01*
X338344Y328311D01*
X338674Y328533D01*
X338895Y328863D01*
X338973Y329253D01*
X338895Y329644D01*
X338674Y329974D01*
X338344Y330195D01*
X337953Y330273D01*
D02*
G37*
G36*
X326169Y330162D02*
X325779Y330084D01*
X325448Y329863D01*
X325227Y329532D01*
X325150Y329142D01*
X325227Y328752D01*
X325448Y328421D01*
X325779Y328200D01*
X326169Y328123D01*
X326560Y328200D01*
X326890Y328421D01*
X327112Y328752D01*
X327189Y329142D01*
X327112Y329532D01*
X326890Y329863D01*
X326560Y330084D01*
X326169Y330162D01*
D02*
G37*
G36*
X331172Y330106D02*
X330782Y330029D01*
X330451Y329808D01*
X330230Y329477D01*
X330153Y329087D01*
X330230Y328696D01*
X330451Y328366D01*
X330782Y328145D01*
X331172Y328067D01*
X331562Y328145D01*
X331893Y328366D01*
X332114Y328696D01*
X332192Y329087D01*
X332114Y329477D01*
X331893Y329808D01*
X331562Y330029D01*
X331172Y330106D01*
D02*
G37*
G36*
X356225Y329620D02*
X355835Y329542D01*
X355504Y329321D01*
X355283Y328990D01*
X355205Y328600D01*
X355283Y328210D01*
X355504Y327879D01*
X355835Y327658D01*
X356225Y327581D01*
X356615Y327658D01*
X356946Y327879D01*
X357167Y328210D01*
X357245Y328600D01*
X357167Y328990D01*
X356946Y329321D01*
X356615Y329542D01*
X356225Y329620D01*
D02*
G37*
G36*
X348875Y329032D02*
X348485Y328954D01*
X348154Y328733D01*
X347933Y328402D01*
X347855Y328012D01*
X347933Y327622D01*
X348154Y327291D01*
X348485Y327070D01*
X348875Y326993D01*
X349265Y327070D01*
X349596Y327291D01*
X349817Y327622D01*
X349894Y328012D01*
X349817Y328402D01*
X349596Y328733D01*
X349265Y328954D01*
X348875Y329032D01*
D02*
G37*
G36*
X352534Y328999D02*
X352143Y328922D01*
X351813Y328700D01*
X351592Y328370D01*
X351514Y327979D01*
X351592Y327589D01*
X351813Y327259D01*
X352143Y327038D01*
X352534Y326960D01*
X352924Y327038D01*
X353255Y327259D01*
X353476Y327589D01*
X353553Y327979D01*
X353476Y328370D01*
X353255Y328700D01*
X352924Y328922D01*
X352534Y328999D01*
D02*
G37*
G36*
X398856Y328936D02*
X398466Y328858D01*
X398135Y328637D01*
X397914Y328306D01*
X397836Y327916D01*
X397914Y327526D01*
X398135Y327195D01*
X398466Y326974D01*
X398856Y326897D01*
X399246Y326974D01*
X399577Y327195D01*
X399798Y327526D01*
X399875Y327916D01*
X399798Y328306D01*
X399577Y328637D01*
X399246Y328858D01*
X398856Y328936D01*
D02*
G37*
G36*
X390066Y328853D02*
X389676Y328775D01*
X389345Y328554D01*
X389124Y328223D01*
X389047Y327833D01*
X389124Y327443D01*
X389345Y327112D01*
X389676Y326891D01*
X390066Y326814D01*
X390456Y326891D01*
X390787Y327112D01*
X391008Y327443D01*
X391086Y327833D01*
X391008Y328223D01*
X390787Y328554D01*
X390456Y328775D01*
X390066Y328853D01*
D02*
G37*
G36*
X381897D02*
X381507Y328775D01*
X381176Y328554D01*
X380955Y328223D01*
X380878Y327833D01*
X380955Y327443D01*
X381176Y327112D01*
X381507Y326891D01*
X381897Y326814D01*
X382288Y326891D01*
X382618Y327112D01*
X382839Y327443D01*
X382917Y327833D01*
X382839Y328223D01*
X382618Y328554D01*
X382288Y328775D01*
X381897Y328853D01*
D02*
G37*
G36*
X385995Y328721D02*
X385605Y328644D01*
X385274Y328423D01*
X385053Y328092D01*
X384975Y327702D01*
X385053Y327312D01*
X385274Y326981D01*
X385605Y326760D01*
X385995Y326682D01*
X386385Y326760D01*
X386716Y326981D01*
X386937Y327312D01*
X387015Y327702D01*
X386937Y328092D01*
X386716Y328423D01*
X386385Y328644D01*
X385995Y328721D01*
D02*
G37*
G36*
X331117Y326271D02*
X330726Y326193D01*
X330396Y325972D01*
X330174Y325641D01*
X330097Y325251D01*
X330174Y324861D01*
X330396Y324530D01*
X330726Y324309D01*
X331117Y324232D01*
X331507Y324309D01*
X331838Y324530D01*
X332059Y324861D01*
X332136Y325251D01*
X332059Y325641D01*
X331838Y325972D01*
X331507Y326193D01*
X331117Y326271D01*
D02*
G37*
G36*
X337953Y326215D02*
X337563Y326138D01*
X337232Y325917D01*
X337012Y325586D01*
X336934Y325196D01*
X337012Y324805D01*
X337232Y324475D01*
X337563Y324254D01*
X337953Y324176D01*
X338344Y324254D01*
X338674Y324475D01*
X338895Y324805D01*
X338973Y325196D01*
X338895Y325586D01*
X338674Y325917D01*
X338344Y326138D01*
X337953Y326215D01*
D02*
G37*
G36*
X326114Y326104D02*
X325724Y326027D01*
X325393Y325805D01*
X325172Y325475D01*
X325094Y325085D01*
X325172Y324694D01*
X325393Y324364D01*
X325724Y324143D01*
X326114Y324065D01*
X326504Y324143D01*
X326835Y324364D01*
X327056Y324694D01*
X327133Y325085D01*
X327056Y325475D01*
X326835Y325805D01*
X326504Y326027D01*
X326114Y326104D01*
D02*
G37*
G36*
X356356Y325667D02*
X355966Y325589D01*
X355635Y325368D01*
X355414Y325038D01*
X355336Y324647D01*
X355414Y324257D01*
X355635Y323926D01*
X355966Y323705D01*
X356356Y323628D01*
X356746Y323705D01*
X357077Y323926D01*
X357298Y324257D01*
X357375Y324647D01*
X357298Y325038D01*
X357077Y325368D01*
X356746Y325589D01*
X356356Y325667D01*
D02*
G37*
G36*
X352468Y325536D02*
X352078Y325459D01*
X351747Y325238D01*
X351526Y324907D01*
X351449Y324517D01*
X351526Y324127D01*
X351747Y323796D01*
X352078Y323575D01*
X352468Y323497D01*
X352858Y323575D01*
X353189Y323796D01*
X353410Y324127D01*
X353488Y324517D01*
X353410Y324907D01*
X353189Y325238D01*
X352858Y325459D01*
X352468Y325536D01*
D02*
G37*
G36*
X529322Y322961D02*
X528931Y322883D01*
X528601Y322662D01*
X528380Y322332D01*
X528302Y321941D01*
X528380Y321551D01*
X528601Y321220D01*
X528931Y320999D01*
X529322Y320922D01*
X529712Y320999D01*
X530043Y321220D01*
X530264Y321551D01*
X530341Y321941D01*
X530264Y322332D01*
X530043Y322662D01*
X529712Y322883D01*
X529322Y322961D01*
D02*
G37*
G36*
X370727Y321827D02*
X370337Y321750D01*
X370006Y321529D01*
X369785Y321198D01*
X369708Y320808D01*
X369785Y320417D01*
X370006Y320087D01*
X370337Y319866D01*
X370727Y319788D01*
X371117Y319866D01*
X371448Y320087D01*
X371669Y320417D01*
X371747Y320808D01*
X371669Y321198D01*
X371448Y321529D01*
X371117Y321750D01*
X370727Y321827D01*
D02*
G37*
G36*
X437019Y319768D02*
X436628Y319690D01*
X436298Y319469D01*
X436077Y319139D01*
X435999Y318748D01*
X436077Y318358D01*
X436298Y318027D01*
X436628Y317806D01*
X437019Y317729D01*
X437409Y317806D01*
X437740Y318027D01*
X437960Y318358D01*
X438038Y318748D01*
X437960Y319139D01*
X437740Y319469D01*
X437409Y319690D01*
X437019Y319768D01*
D02*
G37*
G36*
X387868Y318951D02*
X387477Y318873D01*
X387147Y318652D01*
X386926Y318321D01*
X386848Y317931D01*
X386926Y317541D01*
X387147Y317210D01*
X387477Y316989D01*
X387868Y316912D01*
X388258Y316989D01*
X388589Y317210D01*
X388810Y317541D01*
X388887Y317931D01*
X388810Y318321D01*
X388589Y318652D01*
X388258Y318873D01*
X387868Y318951D01*
D02*
G37*
G36*
X503246Y315651D02*
X502856Y315573D01*
X502525Y315352D01*
X502304Y315021D01*
X502226Y314631D01*
X502304Y314241D01*
X502525Y313910D01*
X502856Y313689D01*
X503246Y313611D01*
X503636Y313689D01*
X503967Y313910D01*
X504188Y314241D01*
X504265Y314631D01*
X504188Y315021D01*
X503967Y315352D01*
X503636Y315573D01*
X503246Y315651D01*
D02*
G37*
G36*
X398742Y315223D02*
X398352Y315145D01*
X398021Y314925D01*
X397800Y314594D01*
X397722Y314204D01*
X397800Y313813D01*
X398021Y313483D01*
X398352Y313262D01*
X398742Y313184D01*
X399132Y313262D01*
X399463Y313483D01*
X399684Y313813D01*
X399762Y314204D01*
X399684Y314594D01*
X399463Y314925D01*
X399132Y315145D01*
X398742Y315223D01*
D02*
G37*
G36*
X375855Y311904D02*
X375497Y311833D01*
X375192Y311629D01*
X374989Y311325D01*
X374917Y310966D01*
X374989Y310607D01*
X375192Y310303D01*
X375497Y310100D01*
X375855Y310028D01*
X376214Y310100D01*
X376519Y310303D01*
X376722Y310607D01*
X376794Y310966D01*
X376722Y311325D01*
X376519Y311629D01*
X376214Y311833D01*
X375855Y311904D01*
D02*
G37*
G36*
X507935Y311788D02*
X507545Y311710D01*
X507214Y311489D01*
X506993Y311158D01*
X506915Y310768D01*
X506993Y310378D01*
X507214Y310047D01*
X507545Y309826D01*
X507935Y309749D01*
X508325Y309826D01*
X508656Y310047D01*
X508877Y310378D01*
X508955Y310768D01*
X508877Y311158D01*
X508656Y311489D01*
X508325Y311710D01*
X507935Y311788D01*
D02*
G37*
G36*
X335072Y311686D02*
X334682Y311608D01*
X334351Y311387D01*
X334130Y311057D01*
X334052Y310666D01*
X334130Y310276D01*
X334351Y309946D01*
X334682Y309724D01*
X335072Y309647D01*
X335462Y309724D01*
X335793Y309946D01*
X336014Y310276D01*
X336091Y310666D01*
X336014Y311057D01*
X335793Y311387D01*
X335462Y311608D01*
X335072Y311686D01*
D02*
G37*
G36*
X425659Y309071D02*
X425300Y309000D01*
X424996Y308797D01*
X424792Y308492D01*
X424721Y308133D01*
X424792Y307774D01*
X424996Y307470D01*
X425300Y307267D01*
X425659Y307195D01*
X426018Y307267D01*
X426322Y307470D01*
X426526Y307774D01*
X426597Y308133D01*
X426526Y308492D01*
X426322Y308797D01*
X426018Y309000D01*
X425659Y309071D01*
D02*
G37*
G36*
X346179Y303889D02*
X345789Y303812D01*
X345458Y303591D01*
X345237Y303260D01*
X345159Y302870D01*
X345237Y302480D01*
X345458Y302149D01*
X345789Y301928D01*
X346179Y301850D01*
X346569Y301928D01*
X346900Y302149D01*
X347121Y302480D01*
X347198Y302870D01*
X347121Y303260D01*
X346900Y303591D01*
X346569Y303812D01*
X346179Y303889D01*
D02*
G37*
G36*
X522347Y302851D02*
X521957Y302774D01*
X521626Y302553D01*
X521405Y302222D01*
X521327Y301832D01*
X521405Y301442D01*
X521626Y301111D01*
X521957Y300890D01*
X522347Y300812D01*
X522737Y300890D01*
X523068Y301111D01*
X523289Y301442D01*
X523367Y301832D01*
X523289Y302222D01*
X523068Y302553D01*
X522737Y302774D01*
X522347Y302851D01*
D02*
G37*
G36*
X414372Y301009D02*
X414013Y300937D01*
X413708Y300734D01*
X413505Y300430D01*
X413434Y300071D01*
X413505Y299712D01*
X413708Y299407D01*
X414013Y299204D01*
X414372Y299133D01*
X414731Y299204D01*
X415035Y299407D01*
X415238Y299712D01*
X415310Y300071D01*
X415238Y300430D01*
X415035Y300734D01*
X414731Y300937D01*
X414372Y301009D01*
D02*
G37*
G36*
X408073D02*
X407714Y300937D01*
X407409Y300734D01*
X407206Y300430D01*
X407134Y300071D01*
X407206Y299712D01*
X407409Y299407D01*
X407714Y299204D01*
X408073Y299133D01*
X408431Y299204D01*
X408736Y299407D01*
X408939Y299712D01*
X409011Y300071D01*
X408939Y300430D01*
X408736Y300734D01*
X408431Y300937D01*
X408073Y301009D01*
D02*
G37*
G36*
X398624D02*
X398265Y300937D01*
X397960Y300734D01*
X397757Y300430D01*
X397686Y300071D01*
X397757Y299712D01*
X397960Y299407D01*
X398265Y299204D01*
X398624Y299133D01*
X398983Y299204D01*
X399287Y299407D01*
X399490Y299712D01*
X399562Y300071D01*
X399490Y300430D01*
X399287Y300734D01*
X398983Y300937D01*
X398624Y301009D01*
D02*
G37*
G36*
X414378Y297873D02*
X414019Y297801D01*
X413715Y297598D01*
X413512Y297294D01*
X413440Y296935D01*
X413512Y296576D01*
X413715Y296272D01*
X414019Y296068D01*
X414378Y295997D01*
X414737Y296068D01*
X415042Y296272D01*
X415245Y296576D01*
X415316Y296935D01*
X415245Y297294D01*
X415042Y297598D01*
X414737Y297801D01*
X414378Y297873D01*
D02*
G37*
G36*
X401773Y297859D02*
X401414Y297788D01*
X401110Y297584D01*
X400907Y297280D01*
X400835Y296921D01*
X400907Y296562D01*
X401110Y296258D01*
X401414Y296054D01*
X401773Y295983D01*
X402132Y296054D01*
X402437Y296258D01*
X402640Y296562D01*
X402711Y296921D01*
X402640Y297280D01*
X402437Y297584D01*
X402132Y297788D01*
X401773Y297859D01*
D02*
G37*
G36*
X398624D02*
X398265Y297788D01*
X397960Y297584D01*
X397757Y297280D01*
X397686Y296921D01*
X397757Y296562D01*
X397960Y296258D01*
X398265Y296054D01*
X398624Y295983D01*
X398983Y296054D01*
X399287Y296258D01*
X399490Y296562D01*
X399562Y296921D01*
X399490Y297280D01*
X399287Y297584D01*
X398983Y297788D01*
X398624Y297859D01*
D02*
G37*
G36*
X404889Y294751D02*
X404530Y294680D01*
X404226Y294477D01*
X404023Y294172D01*
X403951Y293813D01*
X404023Y293454D01*
X404226Y293150D01*
X404530Y292947D01*
X404889Y292875D01*
X405248Y292947D01*
X405553Y293150D01*
X405756Y293454D01*
X405827Y293813D01*
X405756Y294172D01*
X405553Y294477D01*
X405248Y294680D01*
X404889Y294751D01*
D02*
G37*
G36*
X426970Y294709D02*
X426611Y294638D01*
X426307Y294435D01*
X426103Y294130D01*
X426032Y293772D01*
X426103Y293412D01*
X426307Y293108D01*
X426611Y292905D01*
X426970Y292833D01*
X427329Y292905D01*
X427633Y293108D01*
X427837Y293412D01*
X427908Y293772D01*
X427837Y294130D01*
X427633Y294435D01*
X427329Y294638D01*
X426970Y294709D01*
D02*
G37*
G36*
X420671Y294709D02*
X420312Y294638D01*
X420008Y294435D01*
X419804Y294130D01*
X419733Y293772D01*
X419804Y293412D01*
X420008Y293108D01*
X420312Y292905D01*
X420671Y292833D01*
X421030Y292905D01*
X421334Y293108D01*
X421538Y293412D01*
X421609Y293772D01*
X421538Y294130D01*
X421334Y294435D01*
X421030Y294638D01*
X420671Y294709D01*
D02*
G37*
G36*
X411222D02*
X410863Y294638D01*
X410559Y294435D01*
X410356Y294130D01*
X410284Y293772D01*
X410356Y293412D01*
X410559Y293108D01*
X410863Y292905D01*
X411222Y292833D01*
X411581Y292905D01*
X411885Y293108D01*
X412089Y293412D01*
X412160Y293772D01*
X412089Y294130D01*
X411885Y294435D01*
X411581Y294638D01*
X411222Y294709D01*
D02*
G37*
G36*
X408073D02*
X407714Y294638D01*
X407409Y294435D01*
X407206Y294130D01*
X407134Y293772D01*
X407206Y293412D01*
X407409Y293108D01*
X407714Y292905D01*
X408073Y292833D01*
X408431Y292905D01*
X408736Y293108D01*
X408939Y293412D01*
X409011Y293772D01*
X408939Y294130D01*
X408736Y294435D01*
X408431Y294638D01*
X408073Y294709D01*
D02*
G37*
G36*
X398624D02*
X398265Y294638D01*
X397960Y294435D01*
X397757Y294130D01*
X397686Y293772D01*
X397757Y293412D01*
X397960Y293108D01*
X398265Y292905D01*
X398624Y292833D01*
X398983Y292905D01*
X399287Y293108D01*
X399490Y293412D01*
X399562Y293772D01*
X399490Y294130D01*
X399287Y294435D01*
X398983Y294638D01*
X398624Y294709D01*
D02*
G37*
G36*
X417534Y294704D02*
X417176Y294633D01*
X416871Y294429D01*
X416668Y294125D01*
X416597Y293766D01*
X416668Y293407D01*
X416871Y293103D01*
X417176Y292899D01*
X417534Y292828D01*
X417894Y292899D01*
X418198Y293103D01*
X418401Y293407D01*
X418472Y293766D01*
X418401Y294125D01*
X418198Y294429D01*
X417894Y294633D01*
X417534Y294704D01*
D02*
G37*
G36*
X356107Y292807D02*
X355717Y292729D01*
X355386Y292508D01*
X355165Y292177D01*
X355087Y291787D01*
X355165Y291397D01*
X355386Y291066D01*
X355717Y290845D01*
X356107Y290768D01*
X356497Y290845D01*
X356828Y291066D01*
X357049Y291397D01*
X357126Y291787D01*
X357049Y292177D01*
X356828Y292508D01*
X356497Y292729D01*
X356107Y292807D01*
D02*
G37*
G36*
X417521Y291560D02*
X417162Y291489D01*
X416858Y291285D01*
X416655Y290981D01*
X416583Y290622D01*
X416655Y290263D01*
X416858Y289959D01*
X417162Y289755D01*
X417521Y289684D01*
X417880Y289755D01*
X418185Y289959D01*
X418388Y290263D01*
X418459Y290622D01*
X418388Y290981D01*
X418185Y291285D01*
X417880Y291489D01*
X417521Y291560D01*
D02*
G37*
G36*
X411222D02*
X410863Y291489D01*
X410559Y291285D01*
X410356Y290981D01*
X410284Y290622D01*
X410356Y290263D01*
X410559Y289959D01*
X410863Y289755D01*
X411222Y289684D01*
X411581Y289755D01*
X411885Y289959D01*
X412089Y290263D01*
X412160Y290622D01*
X412089Y290981D01*
X411885Y291285D01*
X411581Y291489D01*
X411222Y291560D01*
D02*
G37*
G36*
X395474D02*
X395115Y291489D01*
X394811Y291285D01*
X394607Y290981D01*
X394536Y290622D01*
X394607Y290263D01*
X394811Y289959D01*
X395115Y289755D01*
X395474Y289684D01*
X395833Y289755D01*
X396137Y289959D01*
X396341Y290263D01*
X396412Y290622D01*
X396341Y290981D01*
X396137Y291285D01*
X395833Y291489D01*
X395474Y291560D01*
D02*
G37*
G36*
X459468Y289111D02*
X459078Y289034D01*
X458747Y288812D01*
X458526Y288482D01*
X458448Y288091D01*
X458526Y287701D01*
X458747Y287371D01*
X459078Y287150D01*
X459468Y287072D01*
X459858Y287150D01*
X460189Y287371D01*
X460410Y287701D01*
X460487Y288091D01*
X460410Y288482D01*
X460189Y288812D01*
X459858Y289034D01*
X459468Y289111D01*
D02*
G37*
G36*
X404923Y288410D02*
X404564Y288339D01*
X404260Y288136D01*
X404056Y287831D01*
X403985Y287472D01*
X404056Y287113D01*
X404260Y286809D01*
X404564Y286606D01*
X404923Y286534D01*
X405282Y286606D01*
X405586Y286809D01*
X405790Y287113D01*
X405861Y287472D01*
X405790Y287831D01*
X405586Y288136D01*
X405282Y288339D01*
X404923Y288410D01*
D02*
G37*
G36*
X414372Y288410D02*
X414013Y288339D01*
X413708Y288136D01*
X413505Y287831D01*
X413434Y287472D01*
X413505Y287113D01*
X413708Y286809D01*
X414013Y286606D01*
X414372Y286534D01*
X414731Y286606D01*
X415035Y286809D01*
X415238Y287113D01*
X415310Y287472D01*
X415238Y287831D01*
X415035Y288136D01*
X414731Y288339D01*
X414372Y288410D01*
D02*
G37*
G36*
X408073D02*
X407714Y288339D01*
X407409Y288136D01*
X407206Y287831D01*
X407134Y287472D01*
X407206Y287113D01*
X407409Y286809D01*
X407714Y286606D01*
X408073Y286534D01*
X408431Y286606D01*
X408736Y286809D01*
X408939Y287113D01*
X409011Y287472D01*
X408939Y287831D01*
X408736Y288136D01*
X408431Y288339D01*
X408073Y288410D01*
D02*
G37*
G36*
X398624D02*
X398265Y288339D01*
X397960Y288136D01*
X397757Y287831D01*
X397686Y287472D01*
X397757Y287113D01*
X397960Y286809D01*
X398265Y286606D01*
X398624Y286534D01*
X398983Y286606D01*
X399287Y286809D01*
X399490Y287113D01*
X399562Y287472D01*
X399490Y287831D01*
X399287Y288136D01*
X398983Y288339D01*
X398624Y288410D01*
D02*
G37*
G36*
X434830Y286837D02*
X434471Y286765D01*
X434166Y286562D01*
X433963Y286258D01*
X433892Y285899D01*
X433963Y285540D01*
X434166Y285235D01*
X434471Y285032D01*
X434830Y284961D01*
X435189Y285032D01*
X435493Y285235D01*
X435696Y285540D01*
X435768Y285899D01*
X435696Y286258D01*
X435493Y286562D01*
X435189Y286765D01*
X434830Y286837D01*
D02*
G37*
G36*
X423820Y285261D02*
X423462Y285189D01*
X423157Y284986D01*
X422954Y284682D01*
X422883Y284323D01*
X422954Y283964D01*
X423157Y283659D01*
X423462Y283456D01*
X423820Y283385D01*
X424180Y283456D01*
X424484Y283659D01*
X424687Y283964D01*
X424759Y284323D01*
X424687Y284682D01*
X424484Y284986D01*
X424180Y285189D01*
X423820Y285261D01*
D02*
G37*
G36*
X417521D02*
X417162Y285189D01*
X416858Y284986D01*
X416655Y284682D01*
X416583Y284323D01*
X416655Y283964D01*
X416858Y283659D01*
X417162Y283456D01*
X417521Y283385D01*
X417880Y283456D01*
X418185Y283659D01*
X418388Y283964D01*
X418459Y284323D01*
X418388Y284682D01*
X418185Y284986D01*
X417880Y285189D01*
X417521Y285261D01*
D02*
G37*
G36*
X411222D02*
X410863Y285189D01*
X410559Y284986D01*
X410356Y284682D01*
X410284Y284323D01*
X410356Y283964D01*
X410559Y283659D01*
X410863Y283456D01*
X411222Y283385D01*
X411581Y283456D01*
X411885Y283659D01*
X412089Y283964D01*
X412160Y284323D01*
X412089Y284682D01*
X411885Y284986D01*
X411581Y285189D01*
X411222Y285261D01*
D02*
G37*
G36*
X401773D02*
X401414Y285189D01*
X401110Y284986D01*
X400907Y284682D01*
X400835Y284323D01*
X400907Y283964D01*
X401110Y283659D01*
X401414Y283456D01*
X401773Y283385D01*
X402132Y283456D01*
X402437Y283659D01*
X402640Y283964D01*
X402711Y284323D01*
X402640Y284682D01*
X402437Y284986D01*
X402132Y285189D01*
X401773Y285261D01*
D02*
G37*
G36*
X395474D02*
X395115Y285189D01*
X394811Y284986D01*
X394607Y284682D01*
X394536Y284323D01*
X394607Y283964D01*
X394811Y283659D01*
X395115Y283456D01*
X395474Y283385D01*
X395833Y283456D01*
X396137Y283659D01*
X396341Y283964D01*
X396412Y284323D01*
X396341Y284682D01*
X396137Y284986D01*
X395833Y285189D01*
X395474Y285261D01*
D02*
G37*
G36*
X497210Y284640D02*
X496820Y284562D01*
X496489Y284341D01*
X496268Y284010D01*
X496190Y283620D01*
X496268Y283230D01*
X496489Y282899D01*
X496820Y282678D01*
X497210Y282600D01*
X497600Y282678D01*
X497931Y282899D01*
X498152Y283230D01*
X498230Y283620D01*
X498152Y284010D01*
X497931Y284341D01*
X497600Y284562D01*
X497210Y284640D01*
D02*
G37*
G36*
X511560Y283865D02*
X511170Y283788D01*
X510839Y283567D01*
X510618Y283236D01*
X510540Y282846D01*
X510618Y282456D01*
X510839Y282125D01*
X511170Y281904D01*
X511560Y281826D01*
X511950Y281904D01*
X512281Y282125D01*
X512502Y282456D01*
X512580Y282846D01*
X512502Y283236D01*
X512281Y283567D01*
X511950Y283788D01*
X511560Y283865D01*
D02*
G37*
G36*
X423820Y282111D02*
X423462Y282040D01*
X423157Y281836D01*
X422954Y281532D01*
X422883Y281173D01*
X422954Y280814D01*
X423157Y280510D01*
X423462Y280306D01*
X423820Y280235D01*
X424180Y280306D01*
X424484Y280510D01*
X424687Y280814D01*
X424759Y281173D01*
X424687Y281532D01*
X424484Y281836D01*
X424180Y282040D01*
X423820Y282111D01*
D02*
G37*
G36*
X420671D02*
X420312Y282040D01*
X420008Y281836D01*
X419804Y281532D01*
X419733Y281173D01*
X419804Y280814D01*
X420008Y280510D01*
X420312Y280306D01*
X420671Y280235D01*
X421030Y280306D01*
X421334Y280510D01*
X421538Y280814D01*
X421609Y281173D01*
X421538Y281532D01*
X421334Y281836D01*
X421030Y282040D01*
X420671Y282111D01*
D02*
G37*
G36*
X414372D02*
X414013Y282040D01*
X413708Y281836D01*
X413505Y281532D01*
X413434Y281173D01*
X413505Y280814D01*
X413708Y280510D01*
X414013Y280306D01*
X414372Y280235D01*
X414731Y280306D01*
X415035Y280510D01*
X415238Y280814D01*
X415310Y281173D01*
X415238Y281532D01*
X415035Y281836D01*
X414731Y282040D01*
X414372Y282111D01*
D02*
G37*
G36*
X408073D02*
X407714Y282040D01*
X407409Y281836D01*
X407206Y281532D01*
X407134Y281173D01*
X407206Y280814D01*
X407409Y280510D01*
X407714Y280306D01*
X408073Y280235D01*
X408431Y280306D01*
X408736Y280510D01*
X408939Y280814D01*
X409011Y281173D01*
X408939Y281532D01*
X408736Y281836D01*
X408431Y282040D01*
X408073Y282111D01*
D02*
G37*
G36*
X401773D02*
X401414Y282040D01*
X401110Y281836D01*
X400907Y281532D01*
X400835Y281173D01*
X400907Y280814D01*
X401110Y280510D01*
X401414Y280306D01*
X401773Y280235D01*
X402132Y280306D01*
X402437Y280510D01*
X402640Y280814D01*
X402711Y281173D01*
X402640Y281532D01*
X402437Y281836D01*
X402132Y282040D01*
X401773Y282111D01*
D02*
G37*
G36*
X398624D02*
X398265Y282040D01*
X397960Y281836D01*
X397757Y281532D01*
X397686Y281173D01*
X397757Y280814D01*
X397960Y280510D01*
X398265Y280306D01*
X398624Y280235D01*
X398983Y280306D01*
X399287Y280510D01*
X399490Y280814D01*
X399562Y281173D01*
X399490Y281532D01*
X399287Y281836D01*
X398983Y282040D01*
X398624Y282111D01*
D02*
G37*
G36*
X282569Y279711D02*
X282179Y279633D01*
X281848Y279412D01*
X281627Y279081D01*
X281550Y278691D01*
X281627Y278301D01*
X281848Y277970D01*
X282179Y277749D01*
X282569Y277672D01*
X282959Y277749D01*
X283290Y277970D01*
X283511Y278301D01*
X283589Y278691D01*
X283511Y279081D01*
X283290Y279412D01*
X282959Y279633D01*
X282569Y279711D01*
D02*
G37*
G36*
X408073Y278961D02*
X407714Y278890D01*
X407409Y278687D01*
X407206Y278382D01*
X407134Y278023D01*
X407206Y277664D01*
X407409Y277360D01*
X407714Y277157D01*
X408073Y277085D01*
X408431Y277157D01*
X408736Y277360D01*
X408939Y277664D01*
X409011Y278023D01*
X408939Y278382D01*
X408736Y278687D01*
X408431Y278890D01*
X408073Y278961D01*
D02*
G37*
G36*
X423820Y275812D02*
X423462Y275741D01*
X423157Y275537D01*
X422954Y275233D01*
X422883Y274874D01*
X422954Y274515D01*
X423157Y274211D01*
X423462Y274007D01*
X423820Y273936D01*
X424180Y274007D01*
X424484Y274211D01*
X424687Y274515D01*
X424759Y274874D01*
X424687Y275233D01*
X424484Y275537D01*
X424180Y275741D01*
X423820Y275812D01*
D02*
G37*
G36*
X417521D02*
X417162Y275741D01*
X416858Y275537D01*
X416655Y275233D01*
X416583Y274874D01*
X416655Y274515D01*
X416858Y274211D01*
X417162Y274007D01*
X417521Y273936D01*
X417880Y274007D01*
X418185Y274211D01*
X418388Y274515D01*
X418459Y274874D01*
X418388Y275233D01*
X418185Y275537D01*
X417880Y275741D01*
X417521Y275812D01*
D02*
G37*
G36*
X411222D02*
X410863Y275741D01*
X410559Y275537D01*
X410356Y275233D01*
X410284Y274874D01*
X410356Y274515D01*
X410559Y274211D01*
X410863Y274007D01*
X411222Y273936D01*
X411581Y274007D01*
X411885Y274211D01*
X412089Y274515D01*
X412160Y274874D01*
X412089Y275233D01*
X411885Y275537D01*
X411581Y275741D01*
X411222Y275812D01*
D02*
G37*
G36*
X395474D02*
X395115Y275741D01*
X394811Y275537D01*
X394607Y275233D01*
X394536Y274874D01*
X394607Y274515D01*
X394811Y274211D01*
X395115Y274007D01*
X395474Y273936D01*
X395833Y274007D01*
X396137Y274211D01*
X396341Y274515D01*
X396412Y274874D01*
X396341Y275233D01*
X396137Y275537D01*
X395833Y275741D01*
X395474Y275812D01*
D02*
G37*
G36*
X426970Y272662D02*
X426611Y272591D01*
X426307Y272388D01*
X426103Y272083D01*
X426032Y271724D01*
X426103Y271365D01*
X426307Y271061D01*
X426611Y270858D01*
X426970Y270786D01*
X427329Y270858D01*
X427633Y271061D01*
X427837Y271365D01*
X427908Y271724D01*
X427837Y272083D01*
X427633Y272388D01*
X427329Y272591D01*
X426970Y272662D01*
D02*
G37*
G36*
X423820D02*
X423462Y272591D01*
X423157Y272388D01*
X422954Y272083D01*
X422883Y271724D01*
X422954Y271365D01*
X423157Y271061D01*
X423462Y270858D01*
X423820Y270786D01*
X424180Y270858D01*
X424484Y271061D01*
X424687Y271365D01*
X424759Y271724D01*
X424687Y272083D01*
X424484Y272388D01*
X424180Y272591D01*
X423820Y272662D01*
D02*
G37*
G36*
X420671D02*
X420312Y272591D01*
X420008Y272388D01*
X419804Y272083D01*
X419733Y271724D01*
X419804Y271365D01*
X420008Y271061D01*
X420312Y270858D01*
X420671Y270786D01*
X421030Y270858D01*
X421334Y271061D01*
X421538Y271365D01*
X421609Y271724D01*
X421538Y272083D01*
X421334Y272388D01*
X421030Y272591D01*
X420671Y272662D01*
D02*
G37*
G36*
X398624D02*
X398265Y272591D01*
X397960Y272388D01*
X397757Y272083D01*
X397686Y271724D01*
X397757Y271365D01*
X397960Y271061D01*
X398265Y270858D01*
X398624Y270786D01*
X398983Y270858D01*
X399287Y271061D01*
X399490Y271365D01*
X399562Y271724D01*
X399490Y272083D01*
X399287Y272388D01*
X398983Y272591D01*
X398624Y272662D01*
D02*
G37*
G36*
X414372Y272662D02*
X414013Y272591D01*
X413708Y272388D01*
X413505Y272083D01*
X413434Y271724D01*
X413505Y271365D01*
X413708Y271061D01*
X414013Y270858D01*
X414372Y270786D01*
X414731Y270858D01*
X415035Y271061D01*
X415238Y271365D01*
X415310Y271724D01*
X415238Y272083D01*
X415035Y272388D01*
X414731Y272591D01*
X414372Y272662D01*
D02*
G37*
G36*
X392268Y272577D02*
X391909Y272506D01*
X391605Y272303D01*
X391401Y271998D01*
X391330Y271639D01*
X391401Y271280D01*
X391605Y270976D01*
X391909Y270773D01*
X392268Y270701D01*
X392627Y270773D01*
X392931Y270976D01*
X393134Y271280D01*
X393206Y271639D01*
X393134Y271998D01*
X392931Y272303D01*
X392627Y272506D01*
X392268Y272577D01*
D02*
G37*
G36*
X444713Y271753D02*
X444323Y271675D01*
X443992Y271454D01*
X443771Y271123D01*
X443693Y270733D01*
X443771Y270343D01*
X443992Y270012D01*
X444323Y269791D01*
X444713Y269714D01*
X445103Y269791D01*
X445434Y270012D01*
X445655Y270343D01*
X445733Y270733D01*
X445655Y271123D01*
X445434Y271454D01*
X445103Y271675D01*
X444713Y271753D01*
D02*
G37*
G36*
X440714Y271276D02*
X440324Y271199D01*
X439993Y270978D01*
X439772Y270647D01*
X439695Y270257D01*
X439772Y269867D01*
X439993Y269536D01*
X440324Y269315D01*
X440714Y269237D01*
X441105Y269315D01*
X441435Y269536D01*
X441656Y269867D01*
X441734Y270257D01*
X441656Y270647D01*
X441435Y270978D01*
X441105Y271199D01*
X440714Y271276D01*
D02*
G37*
G36*
X426970Y269513D02*
X426611Y269441D01*
X426307Y269238D01*
X426103Y268934D01*
X426032Y268575D01*
X426103Y268216D01*
X426307Y267911D01*
X426611Y267708D01*
X426970Y267637D01*
X427329Y267708D01*
X427633Y267911D01*
X427837Y268216D01*
X427908Y268575D01*
X427837Y268934D01*
X427633Y269238D01*
X427329Y269441D01*
X426970Y269513D01*
D02*
G37*
G36*
X423820D02*
X423462Y269441D01*
X423157Y269238D01*
X422954Y268934D01*
X422883Y268575D01*
X422954Y268216D01*
X423157Y267911D01*
X423462Y267708D01*
X423820Y267637D01*
X424180Y267708D01*
X424484Y267911D01*
X424687Y268216D01*
X424759Y268575D01*
X424687Y268934D01*
X424484Y269238D01*
X424180Y269441D01*
X423820Y269513D01*
D02*
G37*
G36*
X420671D02*
X420312Y269441D01*
X420008Y269238D01*
X419804Y268934D01*
X419733Y268575D01*
X419804Y268216D01*
X420008Y267911D01*
X420312Y267708D01*
X420671Y267637D01*
X421030Y267708D01*
X421334Y267911D01*
X421538Y268216D01*
X421609Y268575D01*
X421538Y268934D01*
X421334Y269238D01*
X421030Y269441D01*
X420671Y269513D01*
D02*
G37*
G36*
X411222D02*
X410863Y269441D01*
X410559Y269238D01*
X410356Y268934D01*
X410284Y268575D01*
X410356Y268216D01*
X410559Y267911D01*
X410863Y267708D01*
X411222Y267637D01*
X411581Y267708D01*
X411885Y267911D01*
X412089Y268216D01*
X412160Y268575D01*
X412089Y268934D01*
X411885Y269238D01*
X411581Y269441D01*
X411222Y269513D01*
D02*
G37*
G36*
X395474D02*
X395115Y269441D01*
X394811Y269238D01*
X394607Y268934D01*
X394536Y268575D01*
X394607Y268216D01*
X394811Y267911D01*
X395115Y267708D01*
X395474Y267637D01*
X395833Y267708D01*
X396137Y267911D01*
X396341Y268216D01*
X396412Y268575D01*
X396341Y268934D01*
X396137Y269238D01*
X395833Y269441D01*
X395474Y269513D01*
D02*
G37*
G36*
X382876D02*
X382517Y269441D01*
X382212Y269238D01*
X382009Y268934D01*
X381938Y268575D01*
X382009Y268216D01*
X382212Y267911D01*
X382517Y267708D01*
X382876Y267637D01*
X383235Y267708D01*
X383539Y267911D01*
X383742Y268216D01*
X383814Y268575D01*
X383742Y268934D01*
X383539Y269238D01*
X383235Y269441D01*
X382876Y269513D01*
D02*
G37*
G36*
X514365Y267239D02*
X513975Y267161D01*
X513644Y266940D01*
X513423Y266609D01*
X513345Y266219D01*
X513423Y265829D01*
X513644Y265498D01*
X513975Y265277D01*
X514365Y265199D01*
X514755Y265277D01*
X515086Y265498D01*
X515307Y265829D01*
X515384Y266219D01*
X515307Y266609D01*
X515086Y266940D01*
X514755Y267161D01*
X514365Y267239D01*
D02*
G37*
G36*
X426970Y266363D02*
X426611Y266292D01*
X426307Y266088D01*
X426103Y265784D01*
X426032Y265425D01*
X426103Y265066D01*
X426307Y264762D01*
X426611Y264558D01*
X426970Y264487D01*
X427329Y264558D01*
X427633Y264762D01*
X427837Y265066D01*
X427908Y265425D01*
X427837Y265784D01*
X427633Y266088D01*
X427329Y266292D01*
X426970Y266363D01*
D02*
G37*
G36*
X420671D02*
X420312Y266292D01*
X420008Y266088D01*
X419804Y265784D01*
X419733Y265425D01*
X419804Y265066D01*
X420008Y264762D01*
X420312Y264558D01*
X420671Y264487D01*
X421030Y264558D01*
X421334Y264762D01*
X421538Y265066D01*
X421609Y265425D01*
X421538Y265784D01*
X421334Y266088D01*
X421030Y266292D01*
X420671Y266363D01*
D02*
G37*
G36*
X414372D02*
X414013Y266292D01*
X413708Y266088D01*
X413505Y265784D01*
X413434Y265425D01*
X413505Y265066D01*
X413708Y264762D01*
X414013Y264558D01*
X414372Y264487D01*
X414731Y264558D01*
X415035Y264762D01*
X415238Y265066D01*
X415310Y265425D01*
X415238Y265784D01*
X415035Y266088D01*
X414731Y266292D01*
X414372Y266363D01*
D02*
G37*
G36*
X408073D02*
X407714Y266292D01*
X407409Y266088D01*
X407206Y265784D01*
X407134Y265425D01*
X407206Y265066D01*
X407409Y264762D01*
X407714Y264558D01*
X408073Y264487D01*
X408431Y264558D01*
X408736Y264762D01*
X408939Y265066D01*
X409011Y265425D01*
X408939Y265784D01*
X408736Y266088D01*
X408431Y266292D01*
X408073Y266363D01*
D02*
G37*
G36*
X398624D02*
X398265Y266292D01*
X397960Y266088D01*
X397757Y265784D01*
X397686Y265425D01*
X397757Y265066D01*
X397960Y264762D01*
X398265Y264558D01*
X398624Y264487D01*
X398983Y264558D01*
X399287Y264762D01*
X399490Y265066D01*
X399562Y265425D01*
X399490Y265784D01*
X399287Y266088D01*
X398983Y266292D01*
X398624Y266363D01*
D02*
G37*
G36*
X434037Y263213D02*
X433678Y263142D01*
X433373Y262939D01*
X433170Y262634D01*
X433099Y262275D01*
X433170Y261916D01*
X433373Y261612D01*
X433678Y261409D01*
X434037Y261337D01*
X434396Y261409D01*
X434700Y261612D01*
X434903Y261916D01*
X434975Y262275D01*
X434903Y262634D01*
X434700Y262939D01*
X434396Y263142D01*
X434037Y263213D01*
D02*
G37*
G36*
X426970D02*
X426611Y263142D01*
X426307Y262939D01*
X426103Y262634D01*
X426032Y262275D01*
X426103Y261916D01*
X426307Y261612D01*
X426611Y261409D01*
X426970Y261337D01*
X427329Y261409D01*
X427633Y261612D01*
X427837Y261916D01*
X427908Y262275D01*
X427837Y262634D01*
X427633Y262939D01*
X427329Y263142D01*
X426970Y263213D01*
D02*
G37*
G36*
X423820D02*
X423462Y263142D01*
X423157Y262939D01*
X422954Y262634D01*
X422883Y262275D01*
X422954Y261916D01*
X423157Y261612D01*
X423462Y261409D01*
X423820Y261337D01*
X424180Y261409D01*
X424484Y261612D01*
X424687Y261916D01*
X424759Y262275D01*
X424687Y262634D01*
X424484Y262939D01*
X424180Y263142D01*
X423820Y263213D01*
D02*
G37*
G36*
X420671D02*
X420312Y263142D01*
X420008Y262939D01*
X419804Y262634D01*
X419733Y262275D01*
X419804Y261916D01*
X420008Y261612D01*
X420312Y261409D01*
X420671Y261337D01*
X421030Y261409D01*
X421334Y261612D01*
X421538Y261916D01*
X421609Y262275D01*
X421538Y262634D01*
X421334Y262939D01*
X421030Y263142D01*
X420671Y263213D01*
D02*
G37*
G36*
X417521D02*
X417162Y263142D01*
X416858Y262939D01*
X416655Y262634D01*
X416583Y262275D01*
X416655Y261916D01*
X416858Y261612D01*
X417162Y261409D01*
X417521Y261337D01*
X417880Y261409D01*
X418185Y261612D01*
X418388Y261916D01*
X418459Y262275D01*
X418388Y262634D01*
X418185Y262939D01*
X417880Y263142D01*
X417521Y263213D01*
D02*
G37*
G36*
X411222D02*
X410863Y263142D01*
X410559Y262939D01*
X410356Y262634D01*
X410284Y262275D01*
X410356Y261916D01*
X410559Y261612D01*
X410863Y261409D01*
X411222Y261337D01*
X411581Y261409D01*
X411885Y261612D01*
X412089Y261916D01*
X412160Y262275D01*
X412089Y262634D01*
X411885Y262939D01*
X411581Y263142D01*
X411222Y263213D01*
D02*
G37*
G36*
X401773D02*
X401414Y263142D01*
X401110Y262939D01*
X400907Y262634D01*
X400835Y262275D01*
X400907Y261916D01*
X401110Y261612D01*
X401414Y261409D01*
X401773Y261337D01*
X402132Y261409D01*
X402437Y261612D01*
X402640Y261916D01*
X402711Y262275D01*
X402640Y262634D01*
X402437Y262939D01*
X402132Y263142D01*
X401773Y263213D01*
D02*
G37*
G36*
X395474D02*
X395115Y263142D01*
X394811Y262939D01*
X394607Y262634D01*
X394536Y262275D01*
X394607Y261916D01*
X394811Y261612D01*
X395115Y261409D01*
X395474Y261337D01*
X395833Y261409D01*
X396137Y261612D01*
X396341Y261916D01*
X396412Y262275D01*
X396341Y262634D01*
X396137Y262939D01*
X395833Y263142D01*
X395474Y263213D01*
D02*
G37*
G36*
X520913Y262719D02*
X520523Y262642D01*
X520192Y262421D01*
X519971Y262090D01*
X519894Y261700D01*
X519971Y261310D01*
X520192Y260979D01*
X520523Y260758D01*
X520913Y260680D01*
X521303Y260758D01*
X521634Y260979D01*
X521855Y261310D01*
X521933Y261700D01*
X521855Y262090D01*
X521634Y262421D01*
X521303Y262642D01*
X520913Y262719D01*
D02*
G37*
G36*
X426970Y260064D02*
X426611Y259992D01*
X426307Y259789D01*
X426103Y259485D01*
X426032Y259126D01*
X426103Y258767D01*
X426307Y258463D01*
X426611Y258259D01*
X426970Y258188D01*
X427329Y258259D01*
X427633Y258463D01*
X427837Y258767D01*
X427908Y259126D01*
X427837Y259485D01*
X427633Y259789D01*
X427329Y259992D01*
X426970Y260064D01*
D02*
G37*
G36*
X423820D02*
X423462Y259992D01*
X423157Y259789D01*
X422954Y259485D01*
X422883Y259126D01*
X422954Y258767D01*
X423157Y258463D01*
X423462Y258259D01*
X423820Y258188D01*
X424180Y258259D01*
X424484Y258463D01*
X424687Y258767D01*
X424759Y259126D01*
X424687Y259485D01*
X424484Y259789D01*
X424180Y259992D01*
X423820Y260064D01*
D02*
G37*
G36*
X420671D02*
X420312Y259992D01*
X420008Y259789D01*
X419804Y259485D01*
X419733Y259126D01*
X419804Y258767D01*
X420008Y258463D01*
X420312Y258259D01*
X420671Y258188D01*
X421030Y258259D01*
X421334Y258463D01*
X421538Y258767D01*
X421609Y259126D01*
X421538Y259485D01*
X421334Y259789D01*
X421030Y259992D01*
X420671Y260064D01*
D02*
G37*
G36*
X417521D02*
X417162Y259992D01*
X416858Y259789D01*
X416655Y259485D01*
X416583Y259126D01*
X416655Y258767D01*
X416858Y258463D01*
X417162Y258259D01*
X417521Y258188D01*
X417880Y258259D01*
X418185Y258463D01*
X418388Y258767D01*
X418459Y259126D01*
X418388Y259485D01*
X418185Y259789D01*
X417880Y259992D01*
X417521Y260064D01*
D02*
G37*
G36*
X414372D02*
X414013Y259992D01*
X413708Y259789D01*
X413505Y259485D01*
X413434Y259126D01*
X413505Y258767D01*
X413708Y258463D01*
X414013Y258259D01*
X414372Y258188D01*
X414731Y258259D01*
X415035Y258463D01*
X415238Y258767D01*
X415310Y259126D01*
X415238Y259485D01*
X415035Y259789D01*
X414731Y259992D01*
X414372Y260064D01*
D02*
G37*
G36*
X411222D02*
X410863Y259992D01*
X410559Y259789D01*
X410356Y259485D01*
X410284Y259126D01*
X410356Y258767D01*
X410559Y258463D01*
X410863Y258259D01*
X411222Y258188D01*
X411581Y258259D01*
X411885Y258463D01*
X412089Y258767D01*
X412160Y259126D01*
X412089Y259485D01*
X411885Y259789D01*
X411581Y259992D01*
X411222Y260064D01*
D02*
G37*
G36*
X398624D02*
X398265Y259992D01*
X397960Y259789D01*
X397757Y259485D01*
X397686Y259126D01*
X397757Y258767D01*
X397960Y258463D01*
X398265Y258259D01*
X398624Y258188D01*
X398983Y258259D01*
X399287Y258463D01*
X399490Y258767D01*
X399562Y259126D01*
X399490Y259485D01*
X399287Y259789D01*
X398983Y259992D01*
X398624Y260064D01*
D02*
G37*
G36*
X386025D02*
X385666Y259992D01*
X385362Y259789D01*
X385159Y259485D01*
X385087Y259126D01*
X385159Y258767D01*
X385362Y258463D01*
X385666Y258259D01*
X386025Y258188D01*
X386384Y258259D01*
X386688Y258463D01*
X386892Y258767D01*
X386963Y259126D01*
X386892Y259485D01*
X386688Y259789D01*
X386384Y259992D01*
X386025Y260064D01*
D02*
G37*
G36*
X373118Y258466D02*
X372759Y258395D01*
X372455Y258192D01*
X372252Y257887D01*
X372180Y257528D01*
X372252Y257170D01*
X372455Y256865D01*
X372759Y256662D01*
X373118Y256590D01*
X373477Y256662D01*
X373781Y256865D01*
X373985Y257170D01*
X374056Y257528D01*
X373985Y257887D01*
X373781Y258192D01*
X373477Y258395D01*
X373118Y258466D01*
D02*
G37*
G36*
X348411Y257090D02*
X348021Y257012D01*
X347690Y256791D01*
X347469Y256460D01*
X347391Y256070D01*
X347469Y255680D01*
X347690Y255349D01*
X348021Y255128D01*
X348411Y255051D01*
X348801Y255128D01*
X349132Y255349D01*
X349353Y255680D01*
X349430Y256070D01*
X349353Y256460D01*
X349132Y256791D01*
X348801Y257012D01*
X348411Y257090D01*
D02*
G37*
G36*
X420671Y256914D02*
X420312Y256843D01*
X420008Y256640D01*
X419804Y256335D01*
X419733Y255976D01*
X419804Y255617D01*
X420008Y255313D01*
X420312Y255110D01*
X420671Y255038D01*
X421030Y255110D01*
X421334Y255313D01*
X421538Y255617D01*
X421609Y255976D01*
X421538Y256335D01*
X421334Y256640D01*
X421030Y256843D01*
X420671Y256914D01*
D02*
G37*
G36*
X417521D02*
X417162Y256843D01*
X416858Y256640D01*
X416655Y256335D01*
X416583Y255976D01*
X416655Y255617D01*
X416858Y255313D01*
X417162Y255110D01*
X417521Y255038D01*
X417880Y255110D01*
X418185Y255313D01*
X418388Y255617D01*
X418459Y255976D01*
X418388Y256335D01*
X418185Y256640D01*
X417880Y256843D01*
X417521Y256914D01*
D02*
G37*
G36*
X411222D02*
X410863Y256843D01*
X410559Y256640D01*
X410356Y256335D01*
X410284Y255976D01*
X410356Y255617D01*
X410559Y255313D01*
X410863Y255110D01*
X411222Y255038D01*
X411581Y255110D01*
X411885Y255313D01*
X412089Y255617D01*
X412160Y255976D01*
X412089Y256335D01*
X411885Y256640D01*
X411581Y256843D01*
X411222Y256914D01*
D02*
G37*
G36*
X401773D02*
X401414Y256843D01*
X401110Y256640D01*
X400907Y256335D01*
X400835Y255976D01*
X400907Y255617D01*
X401110Y255313D01*
X401414Y255110D01*
X401773Y255038D01*
X402132Y255110D01*
X402437Y255313D01*
X402640Y255617D01*
X402711Y255976D01*
X402640Y256335D01*
X402437Y256640D01*
X402132Y256843D01*
X401773Y256914D01*
D02*
G37*
G36*
X435002Y255339D02*
X434643Y255268D01*
X434338Y255065D01*
X434135Y254760D01*
X434064Y254401D01*
X434135Y254042D01*
X434338Y253738D01*
X434643Y253535D01*
X435002Y253463D01*
X435361Y253535D01*
X435665Y253738D01*
X435868Y254042D01*
X435940Y254401D01*
X435868Y254760D01*
X435665Y255065D01*
X435361Y255268D01*
X435002Y255339D01*
D02*
G37*
G36*
X401773Y253765D02*
X401414Y253693D01*
X401110Y253490D01*
X400907Y253186D01*
X400835Y252827D01*
X400907Y252468D01*
X401110Y252163D01*
X401414Y251960D01*
X401773Y251889D01*
X402132Y251960D01*
X402437Y252163D01*
X402640Y252468D01*
X402711Y252827D01*
X402640Y253186D01*
X402437Y253490D01*
X402132Y253693D01*
X401773Y253765D01*
D02*
G37*
G36*
X390787Y249375D02*
X390428Y249304D01*
X390124Y249101D01*
X389921Y248796D01*
X389849Y248437D01*
X389921Y248078D01*
X390124Y247774D01*
X390428Y247571D01*
X390787Y247499D01*
X391146Y247571D01*
X391451Y247774D01*
X391654Y248078D01*
X391725Y248437D01*
X391654Y248796D01*
X391451Y249101D01*
X391146Y249304D01*
X390787Y249375D01*
D02*
G37*
G36*
X422135Y247712D02*
X421776Y247640D01*
X421472Y247437D01*
X421268Y247133D01*
X421197Y246774D01*
X421268Y246415D01*
X421472Y246111D01*
X421776Y245907D01*
X422135Y245836D01*
X422494Y245907D01*
X422798Y246111D01*
X423002Y246415D01*
X423073Y246774D01*
X423002Y247133D01*
X422798Y247437D01*
X422494Y247640D01*
X422135Y247712D01*
D02*
G37*
G36*
X358281Y247694D02*
X357891Y247617D01*
X357560Y247396D01*
X357339Y247065D01*
X357261Y246675D01*
X357339Y246284D01*
X357560Y245954D01*
X357891Y245733D01*
X358281Y245655D01*
X358671Y245733D01*
X359002Y245954D01*
X359223Y246284D01*
X359301Y246675D01*
X359223Y247065D01*
X359002Y247396D01*
X358671Y247617D01*
X358281Y247694D01*
D02*
G37*
G36*
X397350Y240633D02*
X396959Y240555D01*
X396629Y240334D01*
X396408Y240003D01*
X396330Y239613D01*
X396408Y239223D01*
X396629Y238892D01*
X396959Y238671D01*
X397350Y238593D01*
X397740Y238671D01*
X398071Y238892D01*
X398292Y239223D01*
X398369Y239613D01*
X398292Y240003D01*
X398071Y240334D01*
X397740Y240555D01*
X397350Y240633D01*
D02*
G37*
G36*
X528291Y240498D02*
X527901Y240420D01*
X527570Y240199D01*
X527350Y239868D01*
X527272Y239478D01*
X527350Y239088D01*
X527570Y238757D01*
X527901Y238536D01*
X528291Y238458D01*
X528682Y238536D01*
X529012Y238757D01*
X529233Y239088D01*
X529311Y239478D01*
X529233Y239868D01*
X529012Y240199D01*
X528682Y240420D01*
X528291Y240498D01*
D02*
G37*
G36*
X381274Y239841D02*
X380884Y239763D01*
X380553Y239542D01*
X380332Y239212D01*
X380255Y238821D01*
X380332Y238431D01*
X380553Y238101D01*
X380884Y237879D01*
X381274Y237802D01*
X381664Y237879D01*
X381995Y238101D01*
X382216Y238431D01*
X382294Y238821D01*
X382216Y239212D01*
X381995Y239542D01*
X381664Y239763D01*
X381274Y239841D01*
D02*
G37*
G36*
X508362Y239350D02*
X507972Y239272D01*
X507641Y239051D01*
X507420Y238721D01*
X507342Y238330D01*
X507420Y237940D01*
X507641Y237610D01*
X507972Y237388D01*
X508362Y237311D01*
X508752Y237388D01*
X509083Y237610D01*
X509304Y237940D01*
X509382Y238330D01*
X509304Y238721D01*
X509083Y239051D01*
X508752Y239272D01*
X508362Y239350D01*
D02*
G37*
G36*
X540762Y238674D02*
X540371Y238596D01*
X540041Y238375D01*
X539820Y238045D01*
X539742Y237654D01*
X539820Y237264D01*
X540041Y236933D01*
X540371Y236712D01*
X540762Y236635D01*
X541152Y236712D01*
X541482Y236933D01*
X541704Y237264D01*
X541781Y237654D01*
X541704Y238045D01*
X541482Y238375D01*
X541152Y238596D01*
X540762Y238674D01*
D02*
G37*
G36*
X508315Y235161D02*
X507925Y235084D01*
X507594Y234863D01*
X507373Y234532D01*
X507296Y234142D01*
X507373Y233752D01*
X507594Y233421D01*
X507925Y233200D01*
X508315Y233122D01*
X508705Y233200D01*
X509036Y233421D01*
X509257Y233752D01*
X509335Y234142D01*
X509257Y234532D01*
X509036Y234863D01*
X508705Y235084D01*
X508315Y235161D01*
D02*
G37*
G36*
X377751Y232554D02*
X377361Y232476D01*
X377030Y232255D01*
X376809Y231925D01*
X376732Y231534D01*
X376809Y231144D01*
X377030Y230814D01*
X377361Y230592D01*
X377751Y230515D01*
X378141Y230592D01*
X378472Y230814D01*
X378693Y231144D01*
X378771Y231534D01*
X378693Y231925D01*
X378472Y232255D01*
X378141Y232476D01*
X377751Y232554D01*
D02*
G37*
G36*
X508386Y230815D02*
X507996Y230737D01*
X507665Y230516D01*
X507444Y230185D01*
X507366Y229795D01*
X507444Y229405D01*
X507665Y229074D01*
X507996Y228853D01*
X508386Y228776D01*
X508776Y228853D01*
X509107Y229074D01*
X509328Y229405D01*
X509406Y229795D01*
X509328Y230185D01*
X509107Y230516D01*
X508776Y230737D01*
X508386Y230815D01*
D02*
G37*
G36*
X412679Y230684D02*
X412289Y230606D01*
X411958Y230385D01*
X411737Y230054D01*
X411660Y229664D01*
X411737Y229274D01*
X411958Y228943D01*
X412289Y228722D01*
X412679Y228645D01*
X413069Y228722D01*
X413400Y228943D01*
X413621Y229274D01*
X413699Y229664D01*
X413621Y230054D01*
X413400Y230385D01*
X413069Y230606D01*
X412679Y230684D01*
D02*
G37*
G36*
X321252Y229879D02*
X320861Y229801D01*
X320531Y229580D01*
X320309Y229249D01*
X320232Y228859D01*
X320309Y228469D01*
X320531Y228138D01*
X320861Y227917D01*
X321252Y227839D01*
X321642Y227917D01*
X321972Y228138D01*
X322194Y228469D01*
X322271Y228859D01*
X322194Y229249D01*
X321972Y229580D01*
X321642Y229801D01*
X321252Y229879D01*
D02*
G37*
G36*
X371164Y228150D02*
X370774Y228072D01*
X370443Y227851D01*
X370222Y227520D01*
X370144Y227130D01*
X370222Y226740D01*
X370443Y226409D01*
X370774Y226188D01*
X371164Y226110D01*
X371554Y226188D01*
X371885Y226409D01*
X372106Y226740D01*
X372184Y227130D01*
X372106Y227520D01*
X371885Y227851D01*
X371554Y228072D01*
X371164Y228150D01*
D02*
G37*
G36*
X508419Y226686D02*
X508029Y226608D01*
X507698Y226387D01*
X507477Y226056D01*
X507399Y225666D01*
X507477Y225276D01*
X507698Y224945D01*
X508029Y224724D01*
X508419Y224646D01*
X508809Y224724D01*
X509140Y224945D01*
X509361Y225276D01*
X509439Y225666D01*
X509361Y226056D01*
X509140Y226387D01*
X508809Y226608D01*
X508419Y226686D01*
D02*
G37*
G36*
X394861Y223933D02*
X394471Y223855D01*
X394140Y223634D01*
X393919Y223303D01*
X393841Y222913D01*
X393919Y222523D01*
X394140Y222192D01*
X394471Y221971D01*
X394861Y221893D01*
X395251Y221971D01*
X395582Y222192D01*
X395803Y222523D01*
X395881Y222913D01*
X395803Y223303D01*
X395582Y223634D01*
X395251Y223855D01*
X394861Y223933D01*
D02*
G37*
G36*
X508474Y222429D02*
X508084Y222351D01*
X507753Y222130D01*
X507532Y221799D01*
X507455Y221409D01*
X507532Y221019D01*
X507753Y220688D01*
X508084Y220467D01*
X508474Y220390D01*
X508864Y220467D01*
X509195Y220688D01*
X509416Y221019D01*
X509494Y221409D01*
X509416Y221799D01*
X509195Y222130D01*
X508864Y222351D01*
X508474Y222429D01*
D02*
G37*
G36*
X426364Y221662D02*
X425974Y221585D01*
X425643Y221364D01*
X425422Y221033D01*
X425345Y220643D01*
X425422Y220252D01*
X425643Y219922D01*
X425974Y219701D01*
X426364Y219623D01*
X426755Y219701D01*
X427085Y219922D01*
X427306Y220252D01*
X427384Y220643D01*
X427306Y221033D01*
X427085Y221364D01*
X426755Y221585D01*
X426364Y221662D01*
D02*
G37*
G36*
X371450Y219940D02*
X371060Y219863D01*
X370729Y219642D01*
X370508Y219311D01*
X370431Y218921D01*
X370508Y218531D01*
X370729Y218200D01*
X371060Y217979D01*
X371450Y217901D01*
X371840Y217979D01*
X372171Y218200D01*
X372392Y218531D01*
X372470Y218921D01*
X372392Y219311D01*
X372171Y219642D01*
X371840Y219863D01*
X371450Y219940D01*
D02*
G37*
G36*
X546268Y219030D02*
X545877Y218952D01*
X545546Y218731D01*
X545326Y218401D01*
X545248Y218010D01*
X545326Y217620D01*
X545546Y217289D01*
X545877Y217068D01*
X546268Y216991D01*
X546658Y217068D01*
X546988Y217289D01*
X547210Y217620D01*
X547287Y218010D01*
X547210Y218401D01*
X546988Y218731D01*
X546658Y218952D01*
X546268Y219030D01*
D02*
G37*
G36*
X382681Y218434D02*
X382290Y218356D01*
X381960Y218135D01*
X381738Y217805D01*
X381661Y217414D01*
X381738Y217024D01*
X381960Y216693D01*
X382290Y216472D01*
X382681Y216395D01*
X383071Y216472D01*
X383401Y216693D01*
X383623Y217024D01*
X383700Y217414D01*
X383623Y217805D01*
X383401Y218135D01*
X383071Y218356D01*
X382681Y218434D01*
D02*
G37*
G36*
X389137Y217084D02*
X388747Y217007D01*
X388416Y216786D01*
X388195Y216455D01*
X388117Y216065D01*
X388195Y215674D01*
X388416Y215344D01*
X388747Y215123D01*
X389137Y215045D01*
X389527Y215123D01*
X389858Y215344D01*
X390079Y215674D01*
X390157Y216065D01*
X390079Y216455D01*
X389858Y216786D01*
X389527Y217007D01*
X389137Y217084D01*
D02*
G37*
G36*
X433182Y216285D02*
X432792Y216208D01*
X432461Y215987D01*
X432240Y215656D01*
X432162Y215266D01*
X432240Y214875D01*
X432461Y214545D01*
X432792Y214324D01*
X433182Y214246D01*
X433572Y214324D01*
X433903Y214545D01*
X434124Y214875D01*
X434201Y215266D01*
X434124Y215656D01*
X433903Y215987D01*
X433572Y216208D01*
X433182Y216285D01*
D02*
G37*
G36*
X397159Y211444D02*
X396769Y211367D01*
X396438Y211146D01*
X396217Y210815D01*
X396139Y210425D01*
X396217Y210035D01*
X396438Y209704D01*
X396769Y209483D01*
X397159Y209405D01*
X397549Y209483D01*
X397880Y209704D01*
X398101Y210035D01*
X398178Y210425D01*
X398101Y210815D01*
X397880Y211146D01*
X397549Y211367D01*
X397159Y211444D01*
D02*
G37*
G36*
X374213Y210528D02*
X373823Y210451D01*
X373492Y210230D01*
X373271Y209899D01*
X373194Y209509D01*
X373271Y209119D01*
X373492Y208788D01*
X373823Y208567D01*
X374213Y208489D01*
X374603Y208567D01*
X374934Y208788D01*
X375155Y209119D01*
X375233Y209509D01*
X375155Y209899D01*
X374934Y210230D01*
X374603Y210451D01*
X374213Y210528D01*
D02*
G37*
G36*
X451804Y200846D02*
X451414Y200768D01*
X451083Y200547D01*
X450862Y200216D01*
X450785Y199826D01*
X450862Y199436D01*
X451083Y199105D01*
X451414Y198884D01*
X451804Y198807D01*
X452194Y198884D01*
X452525Y199105D01*
X452746Y199436D01*
X452824Y199826D01*
X452746Y200216D01*
X452525Y200547D01*
X452194Y200768D01*
X451804Y200846D01*
D02*
G37*
G36*
X401228Y198850D02*
X400838Y198773D01*
X400507Y198552D01*
X400286Y198221D01*
X400208Y197831D01*
X400286Y197441D01*
X400507Y197110D01*
X400838Y196889D01*
X401228Y196811D01*
X401618Y196889D01*
X401949Y197110D01*
X402170Y197441D01*
X402247Y197831D01*
X402170Y198221D01*
X401949Y198552D01*
X401618Y198773D01*
X401228Y198850D01*
D02*
G37*
G36*
X453754Y196872D02*
X453364Y196794D01*
X453033Y196573D01*
X452812Y196242D01*
X452734Y195852D01*
X452812Y195462D01*
X453033Y195131D01*
X453364Y194910D01*
X453754Y194832D01*
X454144Y194910D01*
X454475Y195131D01*
X454696Y195462D01*
X454774Y195852D01*
X454696Y196242D01*
X454475Y196573D01*
X454144Y196794D01*
X453754Y196872D01*
D02*
G37*
G36*
X324104Y192160D02*
X323714Y192082D01*
X323383Y191861D01*
X323162Y191531D01*
X323084Y191140D01*
X323162Y190750D01*
X323383Y190419D01*
X323714Y190198D01*
X324104Y190121D01*
X324494Y190198D01*
X324825Y190419D01*
X325046Y190750D01*
X325123Y191140D01*
X325046Y191531D01*
X324825Y191861D01*
X324494Y192082D01*
X324104Y192160D01*
D02*
G37*
G36*
X252070Y189228D02*
X251680Y189150D01*
X251349Y188929D01*
X251128Y188598D01*
X251050Y188208D01*
X251128Y187818D01*
X251349Y187487D01*
X251680Y187266D01*
X252070Y187189D01*
X252460Y187266D01*
X252791Y187487D01*
X253012Y187818D01*
X253089Y188208D01*
X253012Y188598D01*
X252791Y188929D01*
X252460Y189150D01*
X252070Y189228D01*
D02*
G37*
G36*
X545995Y186963D02*
X545604Y186885D01*
X545274Y186664D01*
X545053Y186334D01*
X544975Y185943D01*
X545053Y185553D01*
X545274Y185222D01*
X545604Y185001D01*
X545995Y184924D01*
X546385Y185001D01*
X546716Y185222D01*
X546937Y185553D01*
X547014Y185943D01*
X546937Y186334D01*
X546716Y186664D01*
X546385Y186885D01*
X545995Y186963D01*
D02*
G37*
G36*
X509338Y181921D02*
X508948Y181844D01*
X508617Y181623D01*
X508396Y181292D01*
X508319Y180902D01*
X508396Y180511D01*
X508617Y180181D01*
X508948Y179960D01*
X509338Y179882D01*
X509728Y179960D01*
X510059Y180181D01*
X510280Y180511D01*
X510358Y180902D01*
X510280Y181292D01*
X510059Y181623D01*
X509728Y181844D01*
X509338Y181921D01*
D02*
G37*
G36*
X295468Y174882D02*
X294798Y174794D01*
X294174Y174535D01*
X293637Y174124D01*
X293226Y173587D01*
X292967Y172963D01*
X292879Y172293D01*
X292967Y171623D01*
X293226Y170998D01*
X293637Y170462D01*
X294174Y170051D01*
X294798Y169792D01*
X295468Y169704D01*
X296138Y169792D01*
X296763Y170051D01*
X297299Y170462D01*
X297710Y170998D01*
X297969Y171623D01*
X298057Y172293D01*
X297969Y172963D01*
X297710Y173587D01*
X297299Y174124D01*
X296763Y174535D01*
X296138Y174794D01*
X295468Y174882D01*
D02*
G37*
G36*
X256098D02*
X255428Y174794D01*
X254803Y174535D01*
X254267Y174124D01*
X253856Y173587D01*
X253597Y172963D01*
X253509Y172293D01*
X253597Y171623D01*
X253856Y170998D01*
X254267Y170462D01*
X254803Y170051D01*
X255428Y169792D01*
X256098Y169704D01*
X256768Y169792D01*
X257393Y170051D01*
X257929Y170462D01*
X258340Y170998D01*
X258599Y171623D01*
X258687Y172293D01*
X258599Y172963D01*
X258340Y173587D01*
X257929Y174124D01*
X257393Y174535D01*
X256768Y174794D01*
X256098Y174882D01*
D02*
G37*
G36*
X497562Y175015D02*
X496598Y174889D01*
X495701Y174517D01*
X494931Y173926D01*
X494339Y173155D01*
X493967Y172258D01*
X493841Y171295D01*
X493967Y170332D01*
X494339Y169434D01*
X494931Y168664D01*
X495701Y168072D01*
X496598Y167701D01*
X497562Y167574D01*
X498525Y167701D01*
X499422Y168072D01*
X500193Y168664D01*
X500784Y169434D01*
X501156Y170332D01*
X501282Y171295D01*
X501156Y172258D01*
X500784Y173155D01*
X500193Y173926D01*
X499422Y174517D01*
X498525Y174889D01*
X497562Y175015D01*
D02*
G37*
G36*
X487562D02*
X486598Y174889D01*
X485701Y174517D01*
X484931Y173926D01*
X484339Y173155D01*
X483967Y172258D01*
X483841Y171295D01*
X483967Y170332D01*
X484339Y169434D01*
X484931Y168664D01*
X485701Y168072D01*
X486598Y167701D01*
X487562Y167574D01*
X488525Y167701D01*
X489422Y168072D01*
X490193Y168664D01*
X490784Y169434D01*
X491156Y170332D01*
X491282Y171295D01*
X491156Y172258D01*
X490784Y173155D01*
X490193Y173926D01*
X489422Y174517D01*
X488525Y174889D01*
X487562Y175015D01*
D02*
G37*
G36*
X477562D02*
X476599Y174889D01*
X475701Y174517D01*
X474930Y173926D01*
X474339Y173155D01*
X473968Y172258D01*
X473841Y171295D01*
X473968Y170332D01*
X474339Y169434D01*
X474930Y168664D01*
X475701Y168072D01*
X476599Y167701D01*
X477562Y167574D01*
X478525Y167701D01*
X479422Y168072D01*
X480193Y168664D01*
X480784Y169434D01*
X481156Y170332D01*
X481282Y171295D01*
X481156Y172258D01*
X480784Y173155D01*
X480193Y173926D01*
X479422Y174517D01*
X478525Y174889D01*
X477562Y175015D01*
D02*
G37*
G36*
X467562D02*
X466599Y174889D01*
X465701Y174517D01*
X464930Y173926D01*
X464339Y173155D01*
X463968Y172258D01*
X463841Y171295D01*
X463968Y170332D01*
X464339Y169434D01*
X464930Y168664D01*
X465701Y168072D01*
X466599Y167701D01*
X467562Y167574D01*
X468525Y167701D01*
X469422Y168072D01*
X470193Y168664D01*
X470784Y169434D01*
X471156Y170332D01*
X471282Y171295D01*
X471156Y172258D01*
X470784Y173155D01*
X470193Y173926D01*
X469422Y174517D01*
X468525Y174889D01*
X467562Y175015D01*
D02*
G37*
G36*
X457562D02*
X456599Y174889D01*
X455701Y174517D01*
X454930Y173926D01*
X454339Y173155D01*
X453968Y172258D01*
X453841Y171295D01*
X453968Y170332D01*
X454339Y169434D01*
X454930Y168664D01*
X455701Y168072D01*
X456599Y167701D01*
X457562Y167574D01*
X458525Y167701D01*
X459422Y168072D01*
X460193Y168664D01*
X460784Y169434D01*
X461156Y170332D01*
X461282Y171295D01*
X461156Y172258D01*
X460784Y173155D01*
X460193Y173926D01*
X459422Y174517D01*
X458525Y174889D01*
X457562Y175015D01*
D02*
G37*
G36*
X380663Y169491D02*
X380273Y169413D01*
X379942Y169192D01*
X379721Y168861D01*
X379644Y168471D01*
X379721Y168081D01*
X379942Y167750D01*
X380273Y167529D01*
X380663Y167451D01*
X381053Y167529D01*
X381384Y167750D01*
X381605Y168081D01*
X381683Y168471D01*
X381605Y168861D01*
X381384Y169192D01*
X381053Y169413D01*
X380663Y169491D01*
D02*
G37*
%LPD*%
D75*
X447562Y171295D02*
D03*
D76*
X222279Y374342D02*
D03*
D77*
X240783Y386153D02*
D03*
D80*
X263155Y206584D02*
D03*
X247344Y201862D02*
D03*
X228454Y153404D02*
D03*
X229276Y172910D02*
D03*
Y192416D02*
D03*
X228865Y209048D02*
D03*
X209975Y201656D02*
D03*
X209359Y180918D02*
D03*
Y161207D02*
D03*
X187594Y152994D02*
D03*
X188210Y172089D02*
D03*
X188416Y190979D02*
D03*
X189237Y211307D02*
D03*
Y235946D02*
D03*
X189442Y255862D02*
D03*
X189237Y277011D02*
D03*
Y298981D02*
D03*
X189442Y322388D02*
D03*
X190058Y348464D02*
D03*
Y373104D02*
D03*
X206279Y364069D02*
D03*
Y383986D02*
D03*
X316950Y348054D02*
D03*
X294159Y347849D02*
D03*
X274653Y348054D02*
D03*
X256584Y348259D02*
D03*
X237489Y348670D02*
D03*
X227838Y343126D02*
D03*
X246523Y342715D02*
D03*
X265002Y342510D02*
D03*
X284098D02*
D03*
X304899Y342855D02*
D03*
D82*
X462903Y188582D02*
D03*
X453731Y193092D02*
D03*
X400667Y239632D02*
D03*
X391120Y317970D02*
D03*
X526315Y371164D02*
D03*
X385674Y215798D02*
D03*
X415794Y229158D02*
D03*
X425715Y310916D02*
D03*
X411222Y296921D02*
D03*
X398624Y306370D02*
D03*
X382876Y252827D02*
D03*
X376576Y293772D02*
D03*
X395474Y281173D02*
D03*
X398624Y268575D02*
D03*
X401773D02*
D03*
X389175Y265425D02*
D03*
X408073Y290622D02*
D03*
X398624Y274874D02*
D03*
X401773Y271724D02*
D03*
X426970Y255976D02*
D03*
X382876Y290622D02*
D03*
X395474Y296921D02*
D03*
X386025D02*
D03*
X389175Y300071D02*
D03*
X408073Y274874D02*
D03*
X382876Y296921D02*
D03*
X389175Y290622D02*
D03*
X374342Y279605D02*
D03*
X386025Y274874D02*
D03*
X408073Y271724D02*
D03*
X411222Y265425D02*
D03*
X382876Y284323D02*
D03*
X398624Y262275D02*
D03*
X389175Y293772D02*
D03*
X411222Y287472D02*
D03*
X389175Y284323D02*
D03*
X420671Y296921D02*
D03*
X401773Y274874D02*
D03*
X414372Y262275D02*
D03*
X401773Y259126D02*
D03*
X392324Y255976D02*
D03*
X417521Y252827D02*
D03*
X382876Y300071D02*
D03*
X379726D02*
D03*
X426970Y281173D02*
D03*
X411222Y278023D02*
D03*
X436912Y270235D02*
D03*
X434988Y305804D02*
D03*
X386025Y287472D02*
D03*
X408073Y284323D02*
D03*
X395474Y271724D02*
D03*
Y265425D02*
D03*
X401773D02*
D03*
X395474Y293772D02*
D03*
X376576Y306370D02*
D03*
X389175D02*
D03*
X382876Y287472D02*
D03*
X401773D02*
D03*
X411222Y271724D02*
D03*
X408073Y268575D02*
D03*
X423820Y265425D02*
D03*
X392324Y290622D02*
D03*
X426970D02*
D03*
X379726Y284323D02*
D03*
X386025D02*
D03*
X435002Y251252D02*
D03*
X386025Y290622D02*
D03*
X376576Y284323D02*
D03*
X417521Y271724D02*
D03*
X406498Y247945D02*
D03*
X404923Y290622D02*
D03*
X379726Y293772D02*
D03*
X392324Y300071D02*
D03*
X395474Y303220D02*
D03*
X420671Y274874D02*
D03*
X395474Y287472D02*
D03*
X411222Y281173D02*
D03*
X417521Y265425D02*
D03*
X435002Y301645D02*
D03*
X398624Y303220D02*
D03*
X409640Y307954D02*
D03*
X386025Y303220D02*
D03*
X392324Y306370D02*
D03*
X417521Y287472D02*
D03*
X392324Y284323D02*
D03*
X382876Y281173D02*
D03*
X379726Y306370D02*
D03*
X398624Y284323D02*
D03*
X414372D02*
D03*
X376576Y249677D02*
D03*
X389175Y287472D02*
D03*
X392324D02*
D03*
X375444Y273317D02*
D03*
X395474Y300071D02*
D03*
X376576D02*
D03*
X417521Y281173D02*
D03*
X414372Y268575D02*
D03*
X392324Y293772D02*
D03*
X386025Y300071D02*
D03*
X382876Y303220D02*
D03*
X379726Y262275D02*
D03*
X395474Y306370D02*
D03*
X351191Y377158D02*
D03*
X344535Y370083D02*
D03*
X346191Y367169D02*
D03*
X381191Y352169D02*
D03*
Y357170D02*
D03*
X396191Y352169D02*
D03*
Y357170D02*
D03*
X360081Y302226D02*
D03*
X354266Y246368D02*
D03*
X344816Y256070D02*
D03*
X366129Y396493D02*
D03*
X360857Y396482D02*
D03*
X338455Y390523D02*
D03*
X328740Y378137D02*
D03*
X375924Y396304D02*
D03*
X381127Y396421D02*
D03*
X386097Y396450D02*
D03*
X396474Y396392D02*
D03*
X391191Y362170D02*
D03*
Y367169D02*
D03*
X351191Y352169D02*
D03*
Y357170D02*
D03*
X391264Y372146D02*
D03*
X376168Y357097D02*
D03*
Y362097D02*
D03*
X376191Y372169D02*
D03*
X376240Y367073D02*
D03*
X371191Y382170D02*
D03*
X361191Y372169D02*
D03*
Y367169D02*
D03*
Y362170D02*
D03*
X366191Y357170D02*
D03*
Y352169D02*
D03*
X396945Y325000D02*
D03*
X379739Y310914D02*
D03*
X374751Y320718D02*
D03*
X517807Y330171D02*
D03*
X544426Y292758D02*
D03*
X503161Y319372D02*
D03*
X549252Y167330D02*
D03*
X553166Y260427D02*
D03*
X538837Y239527D02*
D03*
X546362Y214171D02*
D03*
X546215Y182536D02*
D03*
X451925Y181648D02*
D03*
X452221Y188634D02*
D03*
X425155Y172823D02*
D03*
X313043Y167072D02*
D03*
X299405Y155940D02*
D03*
X291531D02*
D03*
X283657D02*
D03*
X275783D02*
D03*
X267909D02*
D03*
X260035D02*
D03*
X252155Y155934D02*
D03*
X239387Y233112D02*
D03*
X219567Y232430D02*
D03*
X295070Y277793D02*
D03*
X211758Y338053D02*
D03*
X210723Y326706D02*
D03*
X318019Y228979D02*
D03*
X320851Y225852D02*
D03*
X324408Y229102D02*
D03*
X321624Y232400D02*
D03*
X343800Y305100D02*
D03*
X350727Y298432D02*
D03*
X348267Y300763D02*
D03*
X410918Y348686D02*
D03*
X376607Y342341D02*
D03*
X335611Y350593D02*
D03*
X362989Y341703D02*
D03*
X324298Y168043D02*
D03*
X331028Y165903D02*
D03*
X362268Y161906D02*
D03*
X362010Y182146D02*
D03*
X362051Y191687D02*
D03*
X371585Y215056D02*
D03*
X369518Y257568D02*
D03*
X392331Y274871D02*
D03*
X387667Y248282D02*
D03*
X401810Y249119D02*
D03*
X401773Y300071D02*
D03*
X437309Y315804D02*
D03*
X417521Y300071D02*
D03*
X411222D02*
D03*
X422077Y243687D02*
D03*
X389188Y259115D02*
D03*
X381191Y377158D02*
D03*
X401252Y377146D02*
D03*
X366191Y377158D02*
D03*
X529241Y318824D02*
D03*
X426364Y223468D02*
D03*
X404410Y197834D02*
D03*
X478883Y372990D02*
D03*
M02*
