G04*
G04 #@! TF.GenerationSoftware,Altium Limited,Altium Designer,20.1.11 (218)*
G04*
G04 Layer_Color=65535*
%FSLAX25Y25*%
%MOIN*%
G70*
G04*
G04 #@! TF.SameCoordinates,79C4E474-355B-46CA-A0E8-57BC19F8BC65*
G04*
G04*
G04 #@! TF.FilePolarity,Positive*
G04*
G01*
G75*
%ADD10C,0.00787*%
%ADD11C,0.00600*%
%ADD12C,0.02362*%
%ADD13C,0.00984*%
%ADD14C,0.00394*%
%ADD15C,0.01575*%
%ADD16C,0.02400*%
%ADD17C,0.00300*%
%ADD18C,0.00500*%
%ADD19C,0.00787*%
%ADD20C,0.00100*%
%ADD21C,0.00197*%
%ADD22C,0.01000*%
%ADD23C,0.00400*%
G36*
X323942Y175524D02*
X324542D01*
X324242Y175024D01*
X323942Y175524D01*
D02*
G37*
G36*
X445562Y177968D02*
X447648Y175881D01*
X450062Y177968D01*
X445562D01*
D02*
G37*
G36*
X377539Y307551D02*
X375395Y305408D01*
Y307551D01*
X377539D01*
D02*
G37*
D10*
X527403Y292541D02*
G03*
X527403Y292541I-394J0D01*
G01*
X399610Y164608D02*
X426382D01*
X399610Y205946D02*
X426382D01*
Y164608D02*
Y205946D01*
X399610Y164608D02*
Y205946D01*
X375395Y305408D02*
X377539Y307551D01*
X375395Y248496D02*
Y307551D01*
X434450Y248496D02*
Y307551D01*
X375395D02*
X434450D01*
X375395Y248496D02*
X434450D01*
D11*
X453286Y193128D02*
G03*
X453286Y195528I0J1200D01*
G01*
X494307Y387989D02*
G03*
X496707Y387989I1200J0D01*
G01*
X453286Y195528D02*
Y196728D01*
Y193128D02*
Y195528D01*
Y191928D02*
Y193128D01*
X418113Y345490D02*
Y349427D01*
X413389Y345490D02*
Y349427D01*
X474007Y387989D02*
X494307D01*
X496707D01*
X517007D01*
X474007Y356189D02*
X517007D01*
X376533Y339931D02*
X380470D01*
X376533Y335206D02*
X380470D01*
X333145Y346953D02*
Y350890D01*
X328420Y346953D02*
Y350890D01*
X360203Y334893D02*
X364140D01*
X360203Y339617D02*
X364140D01*
X205536Y340689D02*
X209473D01*
X205536Y345413D02*
X209473D01*
D12*
X404728Y202009D02*
G03*
X404728Y202009I-1181J0D01*
G01*
D13*
X394787Y206124D02*
G03*
X394787Y206124I-492J0D01*
G01*
X373328Y306960D02*
G03*
X373328Y306960I-492J0D01*
G01*
D14*
X352063Y163738D02*
G03*
X352063Y163738I-197J0D01*
G01*
X441467Y217365D02*
G03*
X441467Y217365I-197J0D01*
G01*
X406443Y339621D02*
X408243D01*
X406443Y336021D02*
X408243D01*
X388025Y333784D02*
Y335583D01*
X391625Y333784D02*
Y335583D01*
X348967Y333665D02*
Y335465D01*
X352567Y333665D02*
Y335465D01*
X328955Y334948D02*
Y336748D01*
X332555Y334948D02*
Y336748D01*
X527462Y235030D02*
X529262D01*
X527462Y238630D02*
X529262D01*
D15*
X241570Y354656D02*
G03*
X241570Y354656I-787J0D01*
G01*
D16*
X252397Y155757D02*
G03*
X252397Y155757I-433J0D01*
G01*
D17*
X398400Y237518D02*
X399000D01*
X398400Y235318D02*
X399000D01*
X438042Y216407D02*
X438642D01*
X438042Y214207D02*
X438642D01*
X520165Y299582D02*
Y300182D01*
X517965Y299582D02*
Y300182D01*
X511850Y333504D02*
X512450D01*
X511850Y335704D02*
X512450D01*
X511747Y331214D02*
X512347D01*
X511747Y329014D02*
X512347D01*
X497489Y320507D02*
X498089D01*
X497489Y318307D02*
X498089D01*
X497563Y313436D02*
X498163D01*
X497563Y315636D02*
X498163D01*
X509067Y305401D02*
Y306001D01*
X506867Y305401D02*
Y306001D01*
X499252Y302641D02*
X499852D01*
X499252Y304840D02*
X499852D01*
X498974Y298343D02*
X499574D01*
X498974Y300543D02*
X499574D01*
X498954Y289631D02*
X499554D01*
X498954Y291831D02*
X499554D01*
X499163Y285800D02*
X499763D01*
X499163Y288000D02*
X499763D01*
X507298Y284606D02*
Y285206D01*
X509498Y284606D02*
Y285206D01*
X543684Y183759D02*
Y184359D01*
X541484Y183759D02*
Y184359D01*
X449441Y194034D02*
Y194634D01*
X451641Y194034D02*
Y194634D01*
X456537Y180377D02*
X457137D01*
X456537Y182577D02*
X457137D01*
X428522Y221760D02*
Y222360D01*
X430723Y221760D02*
Y222360D01*
X414050Y232112D02*
X414650D01*
X414050Y234312D02*
X414650D01*
X399092Y212049D02*
Y212649D01*
X401292Y212049D02*
Y212649D01*
X390420Y220543D02*
Y221143D01*
X392620Y220543D02*
Y221143D01*
X388049Y220543D02*
Y221143D01*
X385849Y220543D02*
Y221143D01*
X371095Y234006D02*
X371695D01*
X371095Y236206D02*
X371695D01*
X360930Y215194D02*
X361530D01*
X360930Y212994D02*
X361530D01*
X376239Y228122D02*
X376839D01*
X376239Y225922D02*
X376839D01*
X376408Y223382D02*
X377008D01*
X376408Y221182D02*
X377008D01*
X376251Y216300D02*
X376851D01*
X376251Y218500D02*
X376851D01*
X376251Y213684D02*
X376851D01*
X376251Y211484D02*
X376851D01*
X382363Y166488D02*
X382963D01*
X382363Y164287D02*
X382963D01*
X344566Y162977D02*
X345166D01*
X344566Y160776D02*
X345166D01*
X336138Y166966D02*
X336738D01*
X336138Y164766D02*
X336738D01*
X325199Y185785D02*
Y186385D01*
X322999Y185785D02*
Y186385D01*
X311887Y171745D02*
Y172345D01*
X314087Y171745D02*
Y172345D01*
X269828Y196188D02*
Y196788D01*
X267628Y196188D02*
Y196788D01*
X276129Y193442D02*
X276729D01*
X276129Y195642D02*
X276729D01*
X395426Y390896D02*
Y391496D01*
X397625Y390896D02*
Y391496D01*
X389949Y391022D02*
Y391622D01*
X392149Y391022D02*
Y391622D01*
X384911Y390934D02*
Y391534D01*
X387111Y390934D02*
Y391534D01*
X380001Y391022D02*
Y391622D01*
X382201Y391022D02*
Y391622D01*
X374838Y391022D02*
Y391622D01*
X377038Y391022D02*
Y391622D01*
X364998Y390967D02*
Y391567D01*
X367198Y390967D02*
Y391567D01*
X359828Y391028D02*
Y391628D01*
X362028Y391028D02*
Y391628D01*
X354831Y390981D02*
Y391581D01*
X357031Y390981D02*
Y391581D01*
X330505Y373582D02*
X331105D01*
X330505Y375782D02*
X331105D01*
X343838Y389393D02*
X344438D01*
X343838Y391593D02*
X344438D01*
X294617Y195843D02*
Y196443D01*
X292417Y195843D02*
Y196443D01*
X534459Y238400D02*
Y239000D01*
X536659Y238400D02*
Y239000D01*
X544016Y215869D02*
Y216470D01*
X541816Y215869D02*
Y216470D01*
X430082Y230566D02*
Y231166D01*
X427882Y230566D02*
Y231166D01*
X333291Y308500D02*
Y309100D01*
X331091Y308500D02*
Y309100D01*
X286901Y276384D02*
Y276984D01*
X284701Y276384D02*
Y276984D01*
X293189Y279443D02*
Y280043D01*
X290989Y279443D02*
Y280043D01*
D18*
X526616Y302678D02*
Y323466D01*
X547206Y302678D02*
Y323466D01*
X223066Y359775D02*
X230743D01*
X223066Y384381D02*
Y416468D01*
X251216Y359775D02*
X258499D01*
X223066D02*
Y364302D01*
X258499Y359775D02*
Y416468D01*
X223066D02*
X258499D01*
X243007Y159891D02*
Y184694D01*
X308559Y159891D02*
Y184694D01*
D19*
X440790Y164622D02*
Y177968D01*
Y164622D02*
X504334D01*
Y177968D01*
X440790D02*
X504334D01*
D20*
X323742Y175824D02*
Y176024D01*
X323642Y175924D02*
X323842D01*
X324242Y174324D02*
Y176124D01*
D21*
X323742Y173924D02*
Y174224D01*
X324842D01*
Y173924D02*
Y174224D01*
X323742Y173924D02*
X324842D01*
X323742D02*
Y174024D01*
X324742D01*
Y174124D01*
X323842D02*
X324742D01*
D22*
X362923Y320023D02*
X446923D01*
Y236023D02*
Y320023D01*
X362923Y236023D02*
X446923D01*
X362923D02*
Y320023D01*
X228178Y304725D02*
Y316725D01*
Y327725D01*
X201178Y324225D02*
Y327225D01*
Y324225D02*
X207678D01*
Y327225D01*
X262178Y304725D02*
Y327725D01*
X194178D02*
X262178D01*
X194178Y304725D02*
Y327725D01*
Y304725D02*
X262178D01*
X192678Y316725D02*
X202678D01*
X253678D02*
X263678D01*
X228178Y227110D02*
Y239110D01*
Y250110D01*
X201178Y246610D02*
Y249610D01*
Y246610D02*
X207678D01*
Y249610D01*
X262178Y227110D02*
Y250110D01*
X194178D02*
X262178D01*
X194178Y227110D02*
Y250110D01*
Y227110D02*
X262178D01*
X192678Y239110D02*
X202678D01*
X253678D02*
X263678D01*
X342220Y344936D02*
Y384306D01*
X405212D01*
Y344936D02*
Y384306D01*
X342220Y344936D02*
X405212D01*
D23*
X441906Y175168D02*
X442572D01*
X442239D01*
Y177167D01*
X441906Y176834D01*
X503209Y176725D02*
X502542Y176392D01*
X501876Y175725D01*
Y175059D01*
X502209Y174726D01*
X502876D01*
X503209Y175059D01*
Y175392D01*
X502876Y175725D01*
X501876D01*
X338403Y345393D02*
Y346726D01*
X339070Y347393D01*
X339736Y346726D01*
Y345393D01*
Y346393D01*
X338403D01*
X340402Y345393D02*
X341069D01*
X340736D01*
Y347393D01*
X340402Y347060D01*
X402567Y381889D02*
Y379889D01*
X403900D01*
X404567Y381889D02*
X405899D01*
Y381556D01*
X404567Y380223D01*
Y379889D01*
X400887Y348255D02*
Y346256D01*
X402219D01*
X402886D02*
X403552D01*
X403219D01*
Y348255D01*
X402886Y347922D01*
X469258Y391908D02*
Y390242D01*
X469592Y389908D01*
X470258D01*
X470591Y390242D01*
Y391908D01*
X472591D02*
X471924Y391575D01*
X471258Y390908D01*
Y390242D01*
X471591Y389908D01*
X472257D01*
X472591Y390242D01*
Y390575D01*
X472257Y390908D01*
X471258D01*
X462814Y199315D02*
Y197649D01*
X463147Y197316D01*
X463814D01*
X464147Y197649D01*
Y199315D01*
X466146D02*
X464813D01*
Y198315D01*
X465480Y198648D01*
X465813D01*
X466146Y198315D01*
Y197649D01*
X465813Y197316D01*
X465147D01*
X464813Y197649D01*
X461734Y180817D02*
Y182816D01*
X462734D01*
X463067Y182483D01*
Y181817D01*
X462734Y181483D01*
X461734D01*
X462401D02*
X463067Y180817D01*
X465066Y182816D02*
X464400Y182483D01*
X463734Y181817D01*
Y181150D01*
X464067Y180817D01*
X464733D01*
X465066Y181150D01*
Y181483D01*
X464733Y181817D01*
X463734D01*
X465733Y182483D02*
X466066Y182816D01*
X466733D01*
X467066Y182483D01*
Y182150D01*
X466733Y181817D01*
X467066Y181483D01*
Y181150D01*
X466733Y180817D01*
X466066D01*
X465733Y181150D01*
Y181483D01*
X466066Y181817D01*
X465733Y182150D01*
Y182483D01*
X466066Y181817D02*
X466733D01*
X444066Y163239D02*
X443400D01*
X443733D01*
Y161573D01*
X443400Y161240D01*
X443067D01*
X442733Y161573D01*
X446066Y163239D02*
X445399Y162906D01*
X444733Y162240D01*
Y161573D01*
X445066Y161240D01*
X445732D01*
X446066Y161573D01*
Y161906D01*
X445732Y162240D01*
X444733D01*
X442965Y195057D02*
X442631Y195390D01*
X441965D01*
X441632Y195057D01*
Y193724D01*
X441965Y193391D01*
X442631D01*
X442965Y193724D01*
X444964Y195390D02*
X444298Y195057D01*
X443631Y194391D01*
Y193724D01*
X443964Y193391D01*
X444631D01*
X444964Y193724D01*
Y194058D01*
X444631Y194391D01*
X443631D01*
X445631Y195057D02*
X445964Y195390D01*
X446630D01*
X446963Y195057D01*
Y193724D01*
X446630Y193391D01*
X445964D01*
X445631Y193724D01*
Y195057D01*
X488041Y318424D02*
Y320423D01*
X489041D01*
X489374Y320090D01*
Y319424D01*
X489041Y319090D01*
X488041D01*
X488708D02*
X489374Y318424D01*
X491373Y320423D02*
X490707Y320090D01*
X490041Y319424D01*
Y318757D01*
X490374Y318424D01*
X491040D01*
X491373Y318757D01*
Y319090D01*
X491040Y319424D01*
X490041D01*
X492040Y320423D02*
X493373D01*
Y320090D01*
X492040Y318757D01*
Y318424D01*
X292091Y284464D02*
Y286463D01*
X293090D01*
X293423Y286130D01*
Y285464D01*
X293090Y285130D01*
X292091D01*
X292757D02*
X293423Y284464D01*
X295423Y286463D02*
X294756Y286130D01*
X294090Y285464D01*
Y284797D01*
X294423Y284464D01*
X295090D01*
X295423Y284797D01*
Y285130D01*
X295090Y285464D01*
X294090D01*
X297422Y286463D02*
X296756Y286130D01*
X296089Y285464D01*
Y284797D01*
X296422Y284464D01*
X297089D01*
X297422Y284797D01*
Y285130D01*
X297089Y285464D01*
X296089D01*
X279388Y269689D02*
Y271689D01*
X280388D01*
X280721Y271356D01*
Y270689D01*
X280388Y270356D01*
X279388D01*
X280054D02*
X280721Y269689D01*
X282720Y271689D02*
X282054Y271356D01*
X281387Y270689D01*
Y270023D01*
X281720Y269689D01*
X282387D01*
X282720Y270023D01*
Y270356D01*
X282387Y270689D01*
X281387D01*
X284719Y271689D02*
X283387D01*
Y270689D01*
X284053Y271022D01*
X284386D01*
X284719Y270689D01*
Y270023D01*
X284386Y269689D01*
X283720D01*
X283387Y270023D01*
X330386Y313382D02*
Y315382D01*
X331386D01*
X331719Y315049D01*
Y314382D01*
X331386Y314049D01*
X330386D01*
X331053D02*
X331719Y313382D01*
X333718Y315382D02*
X333052Y315049D01*
X332385Y314382D01*
Y313716D01*
X332719Y313382D01*
X333385D01*
X333718Y313716D01*
Y314049D01*
X333385Y314382D01*
X332385D01*
X335384Y313382D02*
Y315382D01*
X334385Y314382D01*
X335718D01*
X203333Y350066D02*
X203000Y350399D01*
X202333D01*
X202000Y350066D01*
Y348733D01*
X202333Y348400D01*
X203000D01*
X203333Y348733D01*
X205332Y350399D02*
X203999D01*
Y349400D01*
X204666Y349733D01*
X204999D01*
X205332Y349400D01*
Y348733D01*
X204999Y348400D01*
X204333D01*
X203999Y348733D01*
X205999D02*
X206332Y348400D01*
X206998D01*
X207332Y348733D01*
Y350066D01*
X206998Y350399D01*
X206332D01*
X205999Y350066D01*
Y349733D01*
X206332Y349400D01*
X207332D01*
X332596Y387424D02*
Y385758D01*
X332929Y385424D01*
X333596D01*
X333929Y385758D01*
Y387424D01*
X335595Y385424D02*
Y387424D01*
X334595Y386424D01*
X335928D01*
X524500Y241300D02*
Y243299D01*
X525500D01*
X525833Y242966D01*
Y242300D01*
X525500Y241966D01*
X524500D01*
X525166D02*
X525833Y241300D01*
X527832Y243299D02*
X527166Y242966D01*
X526499Y242300D01*
Y241633D01*
X526833Y241300D01*
X527499D01*
X527832Y241633D01*
Y241966D01*
X527499Y242300D01*
X526499D01*
X528499Y242966D02*
X528832Y243299D01*
X529498D01*
X529832Y242966D01*
Y242633D01*
X529498Y242300D01*
X529165D01*
X529498D01*
X529832Y241966D01*
Y241633D01*
X529498Y241300D01*
X528832D01*
X528499Y241633D01*
X409148Y331655D02*
Y333654D01*
X410147D01*
X410480Y333321D01*
Y332655D01*
X410147Y332322D01*
X409148D01*
X409814D02*
X410480Y331655D01*
X412480Y333654D02*
X411813Y333321D01*
X411147Y332655D01*
Y331988D01*
X411480Y331655D01*
X412147D01*
X412480Y331988D01*
Y332322D01*
X412147Y332655D01*
X411147D01*
X414479Y331655D02*
X413146D01*
X414479Y332988D01*
Y333321D01*
X414146Y333654D01*
X413479D01*
X413146Y333321D01*
X395319Y333504D02*
X393320D01*
Y334503D01*
X393653Y334837D01*
X394319D01*
X394652Y334503D01*
Y333504D01*
Y334170D02*
X395319Y334837D01*
X393320Y336836D02*
X393653Y336169D01*
X394319Y335503D01*
X394986D01*
X395319Y335836D01*
Y336503D01*
X394986Y336836D01*
X394652D01*
X394319Y336503D01*
Y335503D01*
X395319Y337502D02*
Y338169D01*
Y337836D01*
X393320D01*
X393653Y337502D01*
X346890Y331830D02*
X344891D01*
Y332829D01*
X345224Y333162D01*
X345891D01*
X346224Y332829D01*
Y331830D01*
Y332496D02*
X346890Y333162D01*
X344891Y335162D02*
X345224Y334495D01*
X345891Y333829D01*
X346557D01*
X346890Y334162D01*
Y334828D01*
X346557Y335162D01*
X346224D01*
X345891Y334828D01*
Y333829D01*
X345224Y335828D02*
X344891Y336161D01*
Y336828D01*
X345224Y337161D01*
X346557D01*
X346890Y336828D01*
Y336161D01*
X346557Y335828D01*
X345224D01*
X327060Y333257D02*
X325061D01*
Y334257D01*
X325394Y334590D01*
X326060D01*
X326394Y334257D01*
Y333257D01*
Y333924D02*
X327060Y334590D01*
X325061Y336590D02*
Y335257D01*
X326060D01*
X325727Y335923D01*
Y336256D01*
X326060Y336590D01*
X326727D01*
X327060Y336256D01*
Y335590D01*
X326727Y335257D01*
Y337256D02*
X327060Y337589D01*
Y338256D01*
X326727Y338589D01*
X325394D01*
X325061Y338256D01*
Y337589D01*
X325394Y337256D01*
X325727D01*
X326060Y337589D01*
Y338589D01*
X412897Y238745D02*
X412564Y239078D01*
X411897D01*
X411564Y238745D01*
Y237412D01*
X411897Y237078D01*
X412564D01*
X412897Y237412D01*
X413563Y238745D02*
X413896Y239078D01*
X414563D01*
X414896Y238745D01*
Y238411D01*
X414563Y238078D01*
X414230D01*
X414563D01*
X414896Y237745D01*
Y237412D01*
X414563Y237078D01*
X413896D01*
X413563Y237412D01*
X416895Y239078D02*
X416229Y238745D01*
X415562Y238078D01*
Y237412D01*
X415896Y237078D01*
X416562D01*
X416895Y237412D01*
Y237745D01*
X416562Y238078D01*
X415562D01*
X216052Y392462D02*
X215386D01*
X215719D01*
Y390796D01*
X215386Y390462D01*
X215053D01*
X214720Y390796D01*
X217719Y390462D02*
Y392462D01*
X216719Y391462D01*
X218052D01*
X424090Y233470D02*
X426089D01*
Y232470D01*
X425756Y232137D01*
X425089D01*
X424756Y232470D01*
Y233470D01*
Y232804D02*
X424090Y232137D01*
X426089Y230138D02*
Y231471D01*
X425089D01*
X425422Y230804D01*
Y230471D01*
X425089Y230138D01*
X424423D01*
X424090Y230471D01*
Y231137D01*
X424423Y231471D01*
X425756Y229471D02*
X426089Y229138D01*
Y228471D01*
X425756Y228138D01*
X425422D01*
X425089Y228471D01*
X424756Y228138D01*
X424423D01*
X424090Y228471D01*
Y229138D01*
X424423Y229471D01*
X424756D01*
X425089Y229138D01*
X425422Y229471D01*
X425756D01*
X425089Y229138D02*
Y228471D01*
X436368Y210013D02*
Y212012D01*
X437367D01*
X437701Y211679D01*
Y211012D01*
X437367Y210679D01*
X436368D01*
X437034D02*
X437701Y210013D01*
X439700Y212012D02*
X438367D01*
Y211012D01*
X439033Y211345D01*
X439367D01*
X439700Y211012D01*
Y210346D01*
X439367Y210013D01*
X438700D01*
X438367Y210346D01*
X440366Y212012D02*
X441699D01*
Y211679D01*
X440366Y210346D01*
Y210013D01*
X193933Y254999D02*
X193266D01*
X193600D01*
Y253333D01*
X193266Y253000D01*
X192933D01*
X192600Y253333D01*
X194599Y254666D02*
X194933Y254999D01*
X195599D01*
X195932Y254666D01*
Y254333D01*
X195599Y254000D01*
X195266D01*
X195599D01*
X195932Y253666D01*
Y253333D01*
X195599Y253000D01*
X194933D01*
X194599Y253333D01*
X193933Y332599D02*
X193266D01*
X193600D01*
Y330933D01*
X193266Y330600D01*
X192933D01*
X192600Y330933D01*
X195932Y330600D02*
X194599D01*
X195932Y331933D01*
Y332266D01*
X195599Y332599D01*
X194933D01*
X194599Y332266D01*
X420447Y222858D02*
X420114Y223191D01*
X419447D01*
X419114Y222858D01*
Y221525D01*
X419447Y221192D01*
X420114D01*
X420447Y221525D01*
X422446Y221192D02*
X421113D01*
X422446Y222525D01*
Y222858D01*
X422113Y223191D01*
X421446D01*
X421113Y222858D01*
X424112Y221192D02*
Y223191D01*
X423112Y222192D01*
X424445D01*
X367159Y398742D02*
X365160D01*
Y399742D01*
X365493Y400075D01*
X366160D01*
X366493Y399742D01*
Y398742D01*
Y399408D02*
X367159Y400075D01*
X365493Y400741D02*
X365160Y401075D01*
Y401741D01*
X365493Y402074D01*
X365826D01*
X366160Y401741D01*
Y401408D01*
Y401741D01*
X366493Y402074D01*
X366826D01*
X367159Y401741D01*
Y401075D01*
X366826Y400741D01*
X365493Y402741D02*
X365160Y403074D01*
Y403740D01*
X365493Y404074D01*
X366826D01*
X367159Y403740D01*
Y403074D01*
X366826Y402741D01*
X365493D01*
X386943Y399102D02*
X384944D01*
Y400102D01*
X385277Y400435D01*
X385944D01*
X386277Y400102D01*
Y399102D01*
Y399769D02*
X386943Y400435D01*
X385277Y401102D02*
X384944Y401435D01*
Y402102D01*
X385277Y402435D01*
X385610D01*
X385944Y402102D01*
Y401768D01*
Y402102D01*
X386277Y402435D01*
X386610D01*
X386943Y402102D01*
Y401435D01*
X386610Y401102D01*
X386943Y404434D02*
Y403101D01*
X385610Y404434D01*
X385277D01*
X384944Y404101D01*
Y403435D01*
X385277Y403101D01*
X356676Y399027D02*
X354677D01*
Y400027D01*
X355010Y400360D01*
X355676D01*
X356010Y400027D01*
Y399027D01*
Y399693D02*
X356676Y400360D01*
X355010Y401026D02*
X354677Y401360D01*
Y402026D01*
X355010Y402359D01*
X355343D01*
X355676Y402026D01*
Y401693D01*
Y402026D01*
X356010Y402359D01*
X356343D01*
X356676Y402026D01*
Y401360D01*
X356343Y401026D01*
X356676Y404025D02*
X354677D01*
X355676Y403026D01*
Y404358D01*
X335839Y393532D02*
Y395531D01*
X336839D01*
X337172Y395198D01*
Y394531D01*
X336839Y394198D01*
X335839D01*
X336506D02*
X337172Y393532D01*
X339172D02*
X337839D01*
X339172Y394865D01*
Y395198D01*
X338839Y395531D01*
X338172D01*
X337839Y395198D01*
X339838Y393865D02*
X340171Y393532D01*
X340838D01*
X341171Y393865D01*
Y395198D01*
X340838Y395531D01*
X340171D01*
X339838Y395198D01*
Y394865D01*
X340171Y394531D01*
X341171D01*
X391945Y399050D02*
X389946D01*
Y400050D01*
X390279Y400383D01*
X390946D01*
X391279Y400050D01*
Y399050D01*
Y399717D02*
X391945Y400383D01*
X390279Y401050D02*
X389946Y401383D01*
Y402049D01*
X390279Y402383D01*
X390613D01*
X390946Y402049D01*
Y401716D01*
Y402049D01*
X391279Y402383D01*
X391612D01*
X391945Y402049D01*
Y401383D01*
X391612Y401050D01*
X390279Y403049D02*
X389946Y403382D01*
Y404049D01*
X390279Y404382D01*
X390613D01*
X390946Y404049D01*
Y403716D01*
Y404049D01*
X391279Y404382D01*
X391612D01*
X391945Y404049D01*
Y403382D01*
X391612Y403049D01*
X382087Y399255D02*
X380087D01*
Y400254D01*
X380420Y400588D01*
X381087D01*
X381420Y400254D01*
Y399255D01*
Y399921D02*
X382087Y400588D01*
X380420Y401254D02*
X380087Y401587D01*
Y402254D01*
X380420Y402587D01*
X380754D01*
X381087Y402254D01*
Y401921D01*
Y402254D01*
X381420Y402587D01*
X381753D01*
X382087Y402254D01*
Y401587D01*
X381753Y401254D01*
X382087Y403254D02*
Y403920D01*
Y403587D01*
X380087D01*
X380420Y403254D01*
X361073Y332623D02*
X360740Y332956D01*
X360074D01*
X359740Y332623D01*
Y331290D01*
X360074Y330957D01*
X360740D01*
X361073Y331290D01*
X361740Y330957D02*
X362406D01*
X362073D01*
Y332956D01*
X361740Y332623D01*
X364739Y332956D02*
X364072Y332623D01*
X363406Y331957D01*
Y331290D01*
X363739Y330957D01*
X364406D01*
X364739Y331290D01*
Y331623D01*
X364406Y331957D01*
X363406D01*
X324997Y348630D02*
X324664Y348297D01*
Y347630D01*
X324997Y347297D01*
X326330D01*
X326663Y347630D01*
Y348297D01*
X326330Y348630D01*
X326663Y349296D02*
Y349963D01*
Y349630D01*
X324664D01*
X324997Y349296D01*
Y350963D02*
X324664Y351296D01*
Y351962D01*
X324997Y352295D01*
X325330D01*
X325664Y351962D01*
Y351629D01*
Y351962D01*
X325997Y352295D01*
X326330D01*
X326663Y351962D01*
Y351296D01*
X326330Y350963D01*
X375266Y332767D02*
X374932Y333100D01*
X374266D01*
X373933Y332767D01*
Y331434D01*
X374266Y331101D01*
X374932D01*
X375266Y331434D01*
X375932Y331101D02*
X376598D01*
X376265D01*
Y333100D01*
X375932Y332767D01*
X377598Y331434D02*
X377931Y331101D01*
X378598D01*
X378931Y331434D01*
Y332767D01*
X378598Y333100D01*
X377931D01*
X377598Y332767D01*
Y332434D01*
X377931Y332100D01*
X378931D01*
X414340Y357011D02*
X414007Y357344D01*
X413340D01*
X413007Y357011D01*
Y355678D01*
X413340Y355345D01*
X414007D01*
X414340Y355678D01*
X416339Y355345D02*
X415006D01*
X416339Y356678D01*
Y357011D01*
X416006Y357344D01*
X415340D01*
X415006Y357011D01*
X418339Y355345D02*
X417006D01*
X418339Y356678D01*
Y357011D01*
X418006Y357344D01*
X417339D01*
X417006Y357011D01*
X320738Y375554D02*
X320405Y375888D01*
X319738D01*
X319405Y375554D01*
Y374221D01*
X319738Y373888D01*
X320405D01*
X320738Y374221D01*
X321404Y373888D02*
X322071D01*
X321737D01*
Y375888D01*
X321404Y375554D01*
X324070Y373888D02*
Y375888D01*
X323070Y374888D01*
X324403D01*
X360081Y400303D02*
X359747Y399970D01*
Y399303D01*
X360081Y398970D01*
X361414D01*
X361747Y399303D01*
Y399970D01*
X361414Y400303D01*
X361747Y400969D02*
Y401636D01*
Y401302D01*
X359747D01*
X360081Y400969D01*
X359747Y402635D02*
Y403968D01*
X360081D01*
X361414Y402635D01*
X361747D01*
X395750Y400331D02*
X395417Y399998D01*
Y399331D01*
X395750Y398998D01*
X397083D01*
X397417Y399331D01*
Y399998D01*
X397083Y400331D01*
X397417Y402330D02*
Y400998D01*
X396084Y402330D01*
X395750D01*
X395417Y401997D01*
Y401331D01*
X395750Y400998D01*
Y402997D02*
X395417Y403330D01*
Y403997D01*
X395750Y404330D01*
X396084D01*
X396417Y403997D01*
Y403663D01*
Y403997D01*
X396750Y404330D01*
X397083D01*
X397417Y403997D01*
Y403330D01*
X397083Y402997D01*
X375236Y400303D02*
X374903Y399970D01*
Y399303D01*
X375236Y398970D01*
X376569D01*
X376902Y399303D01*
Y399970D01*
X376569Y400303D01*
X376902Y402302D02*
Y400969D01*
X375569Y402302D01*
X375236D01*
X374903Y401969D01*
Y401302D01*
X375236Y400969D01*
Y402969D02*
X374903Y403302D01*
Y403968D01*
X375236Y404302D01*
X376569D01*
X376902Y403968D01*
Y403302D01*
X376569Y402969D01*
X375236D01*
X444633Y228713D02*
X445966Y226714D01*
Y228713D02*
X444633Y226714D01*
X446633D02*
X447299D01*
X446966D01*
Y228713D01*
X446633Y228380D01*
X404879Y233041D02*
X405212Y232708D01*
X405878D01*
X406212Y233041D01*
Y234374D01*
X405878Y234707D01*
X405212D01*
X404879Y234374D01*
X404212D02*
X403879Y234707D01*
X403212D01*
X402879Y234374D01*
Y233041D01*
X403212Y232708D01*
X403879D01*
X404212Y233041D01*
Y233374D01*
X403879Y233707D01*
X402879D01*
X389438Y209949D02*
Y208283D01*
X389772Y207950D01*
X390438D01*
X390771Y208283D01*
Y209949D01*
X392771Y207950D02*
X391438D01*
X392771Y209282D01*
Y209616D01*
X392437Y209949D01*
X391771D01*
X391438Y209616D01*
X402638Y215184D02*
Y217183D01*
X403638D01*
X403971Y216850D01*
Y216183D01*
X403638Y215850D01*
X402638D01*
X403305D02*
X403971Y215184D01*
X405970D02*
X404638D01*
X405970Y216517D01*
Y216850D01*
X405637Y217183D01*
X404971D01*
X404638Y216850D01*
X381043Y160822D02*
Y162821D01*
X382043D01*
X382376Y162488D01*
Y161822D01*
X382043Y161488D01*
X381043D01*
X381709D02*
X382376Y160822D01*
X383042Y162488D02*
X383376Y162821D01*
X384042D01*
X384375Y162488D01*
Y162155D01*
X384042Y161822D01*
X383709D01*
X384042D01*
X384375Y161488D01*
Y161155D01*
X384042Y160822D01*
X383376D01*
X383042Y161155D01*
X351406Y213499D02*
Y215498D01*
X352406D01*
X352739Y215165D01*
Y214499D01*
X352406Y214165D01*
X351406D01*
X352073D02*
X352739Y213499D01*
X354738D02*
X353405D01*
X354738Y214832D01*
Y215165D01*
X354405Y215498D01*
X353739D01*
X353405Y215165D01*
X356405Y213499D02*
Y215498D01*
X355405Y214499D01*
X356738D01*
X333323Y169093D02*
Y171092D01*
X334323D01*
X334656Y170759D01*
Y170092D01*
X334323Y169759D01*
X333323D01*
X333990D02*
X334656Y169093D01*
X336655D02*
X335322D01*
X336655Y170426D01*
Y170759D01*
X336322Y171092D01*
X335656D01*
X335322Y170759D01*
X337322D02*
X337655Y171092D01*
X338322D01*
X338655Y170759D01*
Y170426D01*
X338322Y170092D01*
X338655Y169759D01*
Y169426D01*
X338322Y169093D01*
X337655D01*
X337322Y169426D01*
Y169759D01*
X337655Y170092D01*
X337322Y170426D01*
Y170759D01*
X337655Y170092D02*
X338322D01*
X353212Y167415D02*
Y165415D01*
X354212D01*
X354545Y165749D01*
Y167081D01*
X354212Y167415D01*
X353212D01*
X356544Y165415D02*
X355211D01*
X356544Y166748D01*
Y167081D01*
X356211Y167415D01*
X355544D01*
X355211Y167081D01*
X536693Y184778D02*
X536359Y185111D01*
X535693D01*
X535360Y184778D01*
Y183445D01*
X535693Y183112D01*
X536359D01*
X536693Y183445D01*
X538692Y185111D02*
X538026Y184778D01*
X537359Y184112D01*
Y183445D01*
X537692Y183112D01*
X538359D01*
X538692Y183445D01*
Y183778D01*
X538359Y184112D01*
X537359D01*
X543133Y223566D02*
X542800Y223899D01*
X542133D01*
X541800Y223566D01*
Y222233D01*
X542133Y221900D01*
X542800D01*
X543133Y222233D01*
X545132Y223899D02*
X543799D01*
Y222900D01*
X544466Y223233D01*
X544799D01*
X545132Y222900D01*
Y222233D01*
X544799Y221900D01*
X544133D01*
X543799Y222233D01*
X535733Y246066D02*
X535400Y246399D01*
X534733D01*
X534400Y246066D01*
Y244733D01*
X534733Y244400D01*
X535400D01*
X535733Y244733D01*
X537399Y244400D02*
Y246399D01*
X536399Y245400D01*
X537732D01*
X344389Y166444D02*
X344055Y166777D01*
X343389D01*
X343056Y166444D01*
Y165111D01*
X343389Y164777D01*
X344055D01*
X344389Y165111D01*
X345055Y166777D02*
X346388D01*
Y166444D01*
X345055Y165111D01*
Y164777D01*
X521316Y322647D02*
Y320981D01*
X521650Y320648D01*
X522316D01*
X522649Y320981D01*
Y322647D01*
X523316Y322314D02*
X523649Y322647D01*
X524316D01*
X524649Y322314D01*
Y321981D01*
X524316Y321648D01*
X523982D01*
X524316D01*
X524649Y321314D01*
Y320981D01*
X524316Y320648D01*
X523649D01*
X523316Y320981D01*
X243433Y191699D02*
X242766D01*
X243100D01*
Y190033D01*
X242766Y189700D01*
X242433D01*
X242100Y190033D01*
X244099Y189700D02*
X244766D01*
X244433D01*
Y191699D01*
X244099Y191366D01*
X342133Y209866D02*
X341800Y210199D01*
X341133D01*
X340800Y209866D01*
Y209533D01*
X341133Y209200D01*
X341800D01*
X342133Y208866D01*
Y208533D01*
X341800Y208200D01*
X341133D01*
X340800Y208533D01*
X342799Y210199D02*
Y208200D01*
X343466Y208866D01*
X344132Y208200D01*
Y210199D01*
X344799Y208200D02*
X345465D01*
X345132D01*
Y210199D01*
X344799Y209866D01*
X509399Y325464D02*
Y327463D01*
X510399D01*
X510732Y327130D01*
Y326464D01*
X510399Y326130D01*
X509399D01*
X510066D02*
X510732Y325464D01*
X512732D02*
X511399D01*
X512732Y326797D01*
Y327130D01*
X512398Y327463D01*
X511732D01*
X511399Y327130D01*
X513398Y327463D02*
X514731D01*
Y327130D01*
X513398Y325797D01*
Y325464D01*
X365090Y216012D02*
Y218012D01*
X366090D01*
X366423Y217679D01*
Y217012D01*
X366090Y216679D01*
X365090D01*
X365757D02*
X366423Y216012D01*
X368422D02*
X367089D01*
X368422Y217345D01*
Y217679D01*
X368089Y218012D01*
X367423D01*
X367089Y217679D01*
X370422Y218012D02*
X369755Y217679D01*
X369089Y217012D01*
Y216346D01*
X369422Y216012D01*
X370088D01*
X370422Y216346D01*
Y216679D01*
X370088Y217012D01*
X369089D01*
X383478Y225212D02*
Y227211D01*
X384478D01*
X384811Y226878D01*
Y226212D01*
X384478Y225878D01*
X383478D01*
X384145D02*
X384811Y225212D01*
X386811D02*
X385478D01*
X386811Y226545D01*
Y226878D01*
X386477Y227211D01*
X385811D01*
X385478Y226878D01*
X388810Y227211D02*
X387477D01*
Y226212D01*
X388144Y226545D01*
X388477D01*
X388810Y226212D01*
Y225545D01*
X388477Y225212D01*
X387810D01*
X387477Y225545D01*
X509318Y337136D02*
Y339136D01*
X510317D01*
X510650Y338802D01*
Y338136D01*
X510317Y337803D01*
X509318D01*
X509984D02*
X510650Y337136D01*
X512650D02*
X511317D01*
X512650Y338469D01*
Y338802D01*
X512317Y339136D01*
X511650D01*
X511317Y338802D01*
X513316D02*
X513650Y339136D01*
X514316D01*
X514649Y338802D01*
Y338469D01*
X514316Y338136D01*
X513983D01*
X514316D01*
X514649Y337803D01*
Y337469D01*
X514316Y337136D01*
X513650D01*
X513316Y337469D01*
X365649Y210706D02*
Y212706D01*
X366648D01*
X366982Y212373D01*
Y211706D01*
X366648Y211373D01*
X365649D01*
X366315D02*
X366982Y210706D01*
X368981D02*
X367648D01*
X368981Y212039D01*
Y212373D01*
X368648Y212706D01*
X367981D01*
X367648Y212373D01*
X370980Y210706D02*
X369647D01*
X370980Y212039D01*
Y212373D01*
X370647Y212706D01*
X369981D01*
X369647Y212373D01*
X391329Y225212D02*
Y227211D01*
X392329D01*
X392662Y226878D01*
Y226212D01*
X392329Y225878D01*
X391329D01*
X391996D02*
X392662Y225212D01*
X394661D02*
X393328D01*
X394661Y226545D01*
Y226878D01*
X394328Y227211D01*
X393662D01*
X393328Y226878D01*
X395328Y225212D02*
X395994D01*
X395661D01*
Y227211D01*
X395328Y226878D01*
X311195Y162941D02*
Y164940D01*
X312195D01*
X312528Y164607D01*
Y163941D01*
X312195Y163608D01*
X311195D01*
X311862D02*
X312528Y162941D01*
X314528D02*
X313195D01*
X314528Y164274D01*
Y164607D01*
X314194Y164940D01*
X313528D01*
X313195Y164607D01*
X315194D02*
X315527Y164940D01*
X316194D01*
X316527Y164607D01*
Y163274D01*
X316194Y162941D01*
X315527D01*
X315194Y163274D01*
Y164607D01*
X292600Y201800D02*
Y203799D01*
X293600D01*
X293933Y203466D01*
Y202800D01*
X293600Y202467D01*
X292600D01*
X293266D02*
X293933Y201800D01*
X294599D02*
X295266D01*
X294933D01*
Y203799D01*
X294599Y203466D01*
X296266Y202133D02*
X296599Y201800D01*
X297265D01*
X297598Y202133D01*
Y203466D01*
X297265Y203799D01*
X296599D01*
X296266Y203466D01*
Y203133D01*
X296599Y202800D01*
X297598D01*
X274463Y197184D02*
Y199183D01*
X275462D01*
X275795Y198850D01*
Y198184D01*
X275462Y197851D01*
X274463D01*
X275129D02*
X275795Y197184D01*
X276462D02*
X277128D01*
X276795D01*
Y199183D01*
X276462Y198850D01*
X278128D02*
X278461Y199183D01*
X279128D01*
X279461Y198850D01*
Y198517D01*
X279128Y198184D01*
X279461Y197851D01*
Y197517D01*
X279128Y197184D01*
X278461D01*
X278128Y197517D01*
Y197851D01*
X278461Y198184D01*
X278128Y198517D01*
Y198850D01*
X278461Y198184D02*
X279128D01*
X266021Y201204D02*
Y203203D01*
X267021D01*
X267354Y202870D01*
Y202204D01*
X267021Y201870D01*
X266021D01*
X266687D02*
X267354Y201204D01*
X268020D02*
X268687D01*
X268354D01*
Y203203D01*
X268020Y202870D01*
X269686Y203203D02*
X271019D01*
Y202870D01*
X269686Y201537D01*
Y201204D01*
X488095Y313465D02*
Y315464D01*
X489095D01*
X489428Y315131D01*
Y314465D01*
X489095Y314131D01*
X488095D01*
X488762D02*
X489428Y313465D01*
X490094D02*
X490761D01*
X490428D01*
Y315464D01*
X490094Y315131D01*
X493093Y315464D02*
X492427Y315131D01*
X491761Y314465D01*
Y313798D01*
X492094Y313465D01*
X492760D01*
X493093Y313798D01*
Y314131D01*
X492760Y314465D01*
X491761D01*
X490217Y302690D02*
Y304690D01*
X491217D01*
X491550Y304357D01*
Y303690D01*
X491217Y303357D01*
X490217D01*
X490884D02*
X491550Y302690D01*
X492217D02*
X492883D01*
X492550D01*
Y304690D01*
X492217Y304357D01*
X495216Y304690D02*
X493883D01*
Y303690D01*
X494549Y304023D01*
X494882D01*
X495216Y303690D01*
Y303024D01*
X494882Y302690D01*
X494216D01*
X493883Y303024D01*
X489809Y285876D02*
Y287875D01*
X490809D01*
X491142Y287542D01*
Y286875D01*
X490809Y286542D01*
X489809D01*
X490476D02*
X491142Y285876D01*
X491809D02*
X492475D01*
X492142D01*
Y287875D01*
X491809Y287542D01*
X494474Y285876D02*
Y287875D01*
X493475Y286875D01*
X494808D01*
X490054Y289957D02*
Y291956D01*
X491054D01*
X491387Y291623D01*
Y290957D01*
X491054Y290623D01*
X490054D01*
X490721D02*
X491387Y289957D01*
X492053D02*
X492720D01*
X492387D01*
Y291956D01*
X492053Y291623D01*
X495052Y289957D02*
X493720D01*
X495052Y291290D01*
Y291623D01*
X494719Y291956D01*
X494053D01*
X493720Y291623D01*
X490625Y298201D02*
Y300200D01*
X491625D01*
X491958Y299867D01*
Y299201D01*
X491625Y298868D01*
X490625D01*
X491292D02*
X491958Y298201D01*
X492625D02*
X493291D01*
X492958D01*
Y300200D01*
X492625Y299867D01*
X494291Y298201D02*
X494957D01*
X494624D01*
Y300200D01*
X494291Y299867D01*
X368969Y230539D02*
Y232538D01*
X369968D01*
X370302Y232205D01*
Y231539D01*
X369968Y231206D01*
X368969D01*
X369635D02*
X370302Y230539D01*
X370968D02*
X371635D01*
X371301D01*
Y232538D01*
X370968Y232205D01*
X372634D02*
X372967Y232538D01*
X373634D01*
X373967Y232205D01*
Y230872D01*
X373634Y230539D01*
X372967D01*
X372634Y230872D01*
Y232205D01*
X510705Y307588D02*
Y309587D01*
X511705D01*
X512038Y309254D01*
Y308588D01*
X511705Y308254D01*
X510705D01*
X511372D02*
X512038Y307588D01*
X512705Y307921D02*
X513038Y307588D01*
X513704D01*
X514038Y307921D01*
Y309254D01*
X513704Y309587D01*
X513038D01*
X512705Y309254D01*
Y308921D01*
X513038Y308588D01*
X514038D01*
X502869Y280652D02*
Y282651D01*
X503869D01*
X504202Y282318D01*
Y281651D01*
X503869Y281318D01*
X502869D01*
X503536D02*
X504202Y280652D01*
X504869Y282318D02*
X505202Y282651D01*
X505868D01*
X506202Y282318D01*
Y281985D01*
X505868Y281651D01*
X506202Y281318D01*
Y280985D01*
X505868Y280652D01*
X505202D01*
X504869Y280985D01*
Y281318D01*
X505202Y281651D01*
X504869Y281985D01*
Y282318D01*
X505202Y281651D02*
X505868D01*
X513514Y298195D02*
Y300194D01*
X514514D01*
X514847Y299861D01*
Y299194D01*
X514514Y298861D01*
X513514D01*
X514181D02*
X514847Y298195D01*
X515514Y300194D02*
X516846D01*
Y299861D01*
X515514Y298528D01*
Y298195D01*
X366556Y221318D02*
Y223318D01*
X367556D01*
X367889Y222985D01*
Y222318D01*
X367556Y221985D01*
X366556D01*
X367223D02*
X367889Y221318D01*
X369888Y223318D02*
X369222Y222985D01*
X368555Y222318D01*
Y221652D01*
X368889Y221318D01*
X369555D01*
X369888Y221652D01*
Y221985D01*
X369555Y222318D01*
X368555D01*
X365788Y226275D02*
Y228275D01*
X366788D01*
X367121Y227941D01*
Y227275D01*
X366788Y226942D01*
X365788D01*
X366455D02*
X367121Y226275D01*
X369120Y228275D02*
X367788D01*
Y227275D01*
X368454Y227608D01*
X368787D01*
X369120Y227275D01*
Y226609D01*
X368787Y226275D01*
X368121D01*
X367788Y226609D01*
X327080Y185161D02*
Y187160D01*
X328079D01*
X328413Y186827D01*
Y186160D01*
X328079Y185827D01*
X327080D01*
X327746D02*
X328413Y185161D01*
X330079D02*
Y187160D01*
X329079Y186160D01*
X330412D01*
X318541Y177611D02*
Y175612D01*
X319540D01*
X319874Y175945D01*
Y177278D01*
X319540Y177611D01*
X318541D01*
X320540Y175612D02*
X321206D01*
X320873D01*
Y177611D01*
X320540Y177278D01*
X362800Y324899D02*
Y323233D01*
X363133Y322900D01*
X363800D01*
X364133Y323233D01*
Y324899D01*
X364799Y322900D02*
X365466D01*
X365133D01*
Y324899D01*
X364799Y324566D01*
M02*
