G04*
G04 #@! TF.GenerationSoftware,Altium Limited,Altium Designer,20.1.11 (218)*
G04*
G04 Layer_Color=8388736*
%FSLAX25Y25*%
%MOIN*%
G70*
G04*
G04 #@! TF.SameCoordinates,731B5D3F-845C-401C-AC73-029E605C2F8B*
G04*
G04*
G04 #@! TF.FilePolarity,Negative*
G04*
G01*
G75*
%ADD43R,0.03056X0.02662*%
%ADD44R,0.02762X0.03156*%
%ADD45R,0.02662X0.02662*%
%ADD46R,0.02662X0.02662*%
G04:AMPARAMS|DCode=47|XSize=66.39mil|YSize=27.02mil|CornerRadius=4.5mil|HoleSize=0mil|Usage=FLASHONLY|Rotation=90.000|XOffset=0mil|YOffset=0mil|HoleType=Round|Shape=RoundedRectangle|*
%AMROUNDEDRECTD47*
21,1,0.06639,0.01801,0,0,90.0*
21,1,0.05738,0.02702,0,0,90.0*
1,1,0.00900,0.00901,0.02869*
1,1,0.00900,0.00901,-0.02869*
1,1,0.00900,-0.00901,-0.02869*
1,1,0.00900,-0.00901,0.02869*
%
%ADD47ROUNDEDRECTD47*%
G04:AMPARAMS|DCode=48|XSize=45mil|YSize=13mil|CornerRadius=4mil|HoleSize=0mil|Usage=FLASHONLY|Rotation=90.000|XOffset=0mil|YOffset=0mil|HoleType=Round|Shape=RoundedRectangle|*
%AMROUNDEDRECTD48*
21,1,0.04500,0.00500,0,0,90.0*
21,1,0.03700,0.01300,0,0,90.0*
1,1,0.00800,0.00250,0.01850*
1,1,0.00800,0.00250,-0.01850*
1,1,0.00800,-0.00250,-0.01850*
1,1,0.00800,-0.00250,0.01850*
%
%ADD48ROUNDEDRECTD48*%
%ADD49R,0.02762X0.02762*%
%ADD50R,0.02662X0.03056*%
G04:AMPARAMS|DCode=51|XSize=26.62mil|YSize=77.8mil|CornerRadius=7.41mil|HoleSize=0mil|Usage=FLASHONLY|Rotation=90.000|XOffset=0mil|YOffset=0mil|HoleType=Round|Shape=RoundedRectangle|*
%AMROUNDEDRECTD51*
21,1,0.02662,0.06299,0,0,90.0*
21,1,0.01181,0.07780,0,0,90.0*
1,1,0.01481,0.03150,0.00591*
1,1,0.01481,0.03150,-0.00591*
1,1,0.01481,-0.03150,-0.00591*
1,1,0.01481,-0.03150,0.00591*
%
%ADD51ROUNDEDRECTD51*%
%ADD52R,0.02465X0.01481*%
%ADD53R,0.03450X0.03450*%
%ADD54R,0.05812X0.03450*%
%ADD55R,0.02859X0.03843*%
%ADD56R,0.03843X0.02859*%
G04:AMPARAMS|DCode=57|XSize=59mil|YSize=12mil|CornerRadius=3.75mil|HoleSize=0mil|Usage=FLASHONLY|Rotation=0.000|XOffset=0mil|YOffset=0mil|HoleType=Round|Shape=RoundedRectangle|*
%AMROUNDEDRECTD57*
21,1,0.05900,0.00450,0,0,0.0*
21,1,0.05150,0.01200,0,0,0.0*
1,1,0.00750,0.02575,-0.00225*
1,1,0.00750,-0.02575,-0.00225*
1,1,0.00750,-0.02575,0.00225*
1,1,0.00750,0.02575,0.00225*
%
%ADD57ROUNDEDRECTD57*%
%ADD58C,0.01914*%
%ADD59R,0.04237X0.04631*%
%ADD60R,0.06009X0.11127*%
%ADD61R,0.04237X0.11127*%
G04:AMPARAMS|DCode=62|XSize=111mil|YSize=32mil|CornerRadius=8.75mil|HoleSize=0mil|Usage=FLASHONLY|Rotation=90.000|XOffset=0mil|YOffset=0mil|HoleType=Round|Shape=RoundedRectangle|*
%AMROUNDEDRECTD62*
21,1,0.11100,0.01450,0,0,90.0*
21,1,0.09350,0.03200,0,0,90.0*
1,1,0.01750,0.00725,0.04675*
1,1,0.01750,0.00725,-0.04675*
1,1,0.01750,-0.00725,-0.04675*
1,1,0.01750,-0.00725,0.04675*
%
%ADD62ROUNDEDRECTD62*%
%ADD63R,0.03450X0.05812*%
%ADD64C,0.03400*%
%ADD65C,0.06678*%
%ADD66O,0.09158X0.18017*%
%ADD67O,0.18017X0.09158*%
%ADD68O,0.19985X0.10143*%
%ADD69C,0.04434*%
%ADD70C,0.03800*%
%ADD71C,0.02100*%
D43*
X542916Y214201D02*
D03*
Y218138D02*
D03*
X542585Y186027D02*
D03*
Y182090D02*
D03*
X450541Y192365D02*
D03*
Y196302D02*
D03*
X429623Y220091D02*
D03*
Y224028D02*
D03*
X396526Y389228D02*
D03*
Y393164D02*
D03*
X375938Y389353D02*
D03*
Y393290D02*
D03*
X360928Y389360D02*
D03*
Y393297D02*
D03*
X535559Y236732D02*
D03*
Y240669D02*
D03*
D44*
X396731Y236418D02*
D03*
X400668D02*
D03*
D45*
X436374Y215307D02*
D03*
X440311D02*
D03*
X514119Y334604D02*
D03*
X510182D02*
D03*
X510079Y330114D02*
D03*
X514016D02*
D03*
X495821Y319407D02*
D03*
X499758D02*
D03*
X499832Y314536D02*
D03*
X495895D02*
D03*
X501520Y303741D02*
D03*
X497583D02*
D03*
X501242Y299443D02*
D03*
X497305D02*
D03*
X501223Y290731D02*
D03*
X497286D02*
D03*
X501432Y286900D02*
D03*
X497495D02*
D03*
X373363Y235106D02*
D03*
X369426D02*
D03*
X359261Y214093D02*
D03*
X363198D02*
D03*
X374570Y227022D02*
D03*
X378507D02*
D03*
X374740Y222282D02*
D03*
X378677D02*
D03*
X378520Y217400D02*
D03*
X374583D02*
D03*
Y212584D02*
D03*
X378520D02*
D03*
X380695Y165387D02*
D03*
X384631D02*
D03*
X334470Y165866D02*
D03*
X338407D02*
D03*
X278397Y194543D02*
D03*
X274460D02*
D03*
X346106Y390493D02*
D03*
X342169D02*
D03*
D46*
X519065Y301851D02*
D03*
Y297914D02*
D03*
X507967Y307669D02*
D03*
Y303732D02*
D03*
X508398Y282937D02*
D03*
Y286874D02*
D03*
X400192Y210381D02*
D03*
Y214318D02*
D03*
X391520Y218875D02*
D03*
Y222812D02*
D03*
X386949D02*
D03*
Y218875D02*
D03*
X324099Y188054D02*
D03*
Y184116D02*
D03*
X312987Y170076D02*
D03*
Y174013D02*
D03*
X268728Y198456D02*
D03*
Y194519D02*
D03*
X391049Y389354D02*
D03*
Y393291D02*
D03*
X386011Y389265D02*
D03*
Y393202D02*
D03*
X381101Y389353D02*
D03*
Y393290D02*
D03*
X366098Y389299D02*
D03*
Y393236D02*
D03*
X355931Y389313D02*
D03*
Y393250D02*
D03*
X293517Y198112D02*
D03*
Y194175D02*
D03*
X428982Y232834D02*
D03*
Y228897D02*
D03*
X332191Y310768D02*
D03*
Y306831D02*
D03*
X285802Y278652D02*
D03*
Y274715D02*
D03*
X292089Y281711D02*
D03*
Y277774D02*
D03*
D47*
X529411Y298879D02*
D03*
X534411D02*
D03*
X539411D02*
D03*
X544411D02*
D03*
Y327265D02*
D03*
X539411D02*
D03*
X534411D02*
D03*
X529411D02*
D03*
D48*
X454386Y188727D02*
D03*
X456386D02*
D03*
X458386D02*
D03*
X460386D02*
D03*
Y199927D02*
D03*
X458386D02*
D03*
X456386D02*
D03*
X454386D02*
D03*
D49*
X458806Y181477D02*
D03*
X454869D02*
D03*
D50*
X416318Y233212D02*
D03*
X412381D02*
D03*
X342898Y161876D02*
D03*
X346835D02*
D03*
X332773Y374682D02*
D03*
X328836D02*
D03*
D51*
X431697Y167777D02*
D03*
Y172777D02*
D03*
Y177777D02*
D03*
Y182777D02*
D03*
Y187777D02*
D03*
Y192777D02*
D03*
Y197777D02*
D03*
Y202777D02*
D03*
X394295Y167777D02*
D03*
Y172777D02*
D03*
Y177777D02*
D03*
Y182777D02*
D03*
Y187777D02*
D03*
Y192777D02*
D03*
Y197777D02*
D03*
Y202777D02*
D03*
D52*
X352555Y161966D02*
D03*
X358067D02*
D03*
D53*
X324242Y177977D02*
D03*
Y172072D02*
D03*
D54*
X415751Y343325D02*
D03*
Y351593D02*
D03*
X330782Y344787D02*
D03*
Y353055D02*
D03*
D55*
X404488Y337821D02*
D03*
X410197D02*
D03*
X531217Y236830D02*
D03*
X525508D02*
D03*
D56*
X389825Y331829D02*
D03*
Y337538D02*
D03*
X350767Y331710D02*
D03*
Y337419D02*
D03*
X330754Y332994D02*
D03*
Y338703D02*
D03*
D57*
X520907Y386889D02*
D03*
Y384889D02*
D03*
Y382889D02*
D03*
Y380989D02*
D03*
Y378989D02*
D03*
Y376989D02*
D03*
Y375089D02*
D03*
Y373089D02*
D03*
Y371089D02*
D03*
Y369089D02*
D03*
Y367189D02*
D03*
Y365189D02*
D03*
Y363189D02*
D03*
Y361289D02*
D03*
Y359289D02*
D03*
Y357289D02*
D03*
X470107D02*
D03*
Y359289D02*
D03*
Y361289D02*
D03*
Y363189D02*
D03*
Y365189D02*
D03*
Y367189D02*
D03*
Y369089D02*
D03*
Y371089D02*
D03*
Y373089D02*
D03*
Y375089D02*
D03*
Y376989D02*
D03*
Y378989D02*
D03*
Y380989D02*
D03*
Y382889D02*
D03*
Y384889D02*
D03*
Y386889D02*
D03*
D58*
X378151Y304795D02*
D03*
X381301D02*
D03*
X384451D02*
D03*
X387600D02*
D03*
X390750D02*
D03*
X393899D02*
D03*
X397049D02*
D03*
X400199D02*
D03*
X403348D02*
D03*
X406498D02*
D03*
X409647D02*
D03*
X412797D02*
D03*
X415946D02*
D03*
X419096D02*
D03*
X422246D02*
D03*
X425395D02*
D03*
X428545D02*
D03*
X431695D02*
D03*
X378151Y301645D02*
D03*
X381301D02*
D03*
X384451D02*
D03*
X387600D02*
D03*
X390750D02*
D03*
X393899D02*
D03*
X397049D02*
D03*
X400199D02*
D03*
X403348D02*
D03*
X406498D02*
D03*
X409647D02*
D03*
X412797D02*
D03*
X415946D02*
D03*
X419096D02*
D03*
X422246D02*
D03*
X425395D02*
D03*
X428545D02*
D03*
X431695D02*
D03*
X378151Y298496D02*
D03*
X381301D02*
D03*
X384451D02*
D03*
X387600D02*
D03*
X390750D02*
D03*
X393899D02*
D03*
X397049D02*
D03*
X400199D02*
D03*
X403348D02*
D03*
X406498D02*
D03*
X409647D02*
D03*
X412797D02*
D03*
X415946D02*
D03*
X419096D02*
D03*
X422246D02*
D03*
X425395D02*
D03*
X428545D02*
D03*
X431695D02*
D03*
X378151Y295346D02*
D03*
X381301D02*
D03*
X384451D02*
D03*
X387600D02*
D03*
X390750D02*
D03*
X393899D02*
D03*
X397049D02*
D03*
X400199D02*
D03*
X403348D02*
D03*
X406498D02*
D03*
X409647D02*
D03*
X412797D02*
D03*
X415946D02*
D03*
X419096D02*
D03*
X422246D02*
D03*
X425395D02*
D03*
X428545D02*
D03*
X431695D02*
D03*
X378151Y292197D02*
D03*
X381301D02*
D03*
X384451D02*
D03*
X387600D02*
D03*
X390750D02*
D03*
X393899D02*
D03*
X397049D02*
D03*
X400199D02*
D03*
X403348D02*
D03*
X406498D02*
D03*
X409647D02*
D03*
X412797D02*
D03*
X415946D02*
D03*
X419096D02*
D03*
X422246D02*
D03*
X425395D02*
D03*
X428545D02*
D03*
X431695D02*
D03*
X378151Y289047D02*
D03*
X381301D02*
D03*
X384451D02*
D03*
X387600D02*
D03*
X390750D02*
D03*
X393899D02*
D03*
X397049D02*
D03*
X400199D02*
D03*
X403348D02*
D03*
X406498D02*
D03*
X409647D02*
D03*
X412797D02*
D03*
X415946D02*
D03*
X419096D02*
D03*
X422246D02*
D03*
X425395D02*
D03*
X428545D02*
D03*
X431695D02*
D03*
X378151Y285897D02*
D03*
X381301D02*
D03*
X384451D02*
D03*
X387600D02*
D03*
X390750D02*
D03*
X393899D02*
D03*
X397049D02*
D03*
X400199D02*
D03*
X403348D02*
D03*
X406498D02*
D03*
X409647D02*
D03*
X412797D02*
D03*
X415946D02*
D03*
X419096D02*
D03*
X422246D02*
D03*
X425395D02*
D03*
X428545D02*
D03*
X431695D02*
D03*
X378151Y282748D02*
D03*
X381301D02*
D03*
X384451D02*
D03*
X387600D02*
D03*
X390750D02*
D03*
X393899D02*
D03*
X397049D02*
D03*
X400199D02*
D03*
X403348D02*
D03*
X406498D02*
D03*
X409647D02*
D03*
X412797D02*
D03*
X415946D02*
D03*
X419096D02*
D03*
X422246D02*
D03*
X425395D02*
D03*
X428545D02*
D03*
X431695D02*
D03*
X378151Y279598D02*
D03*
X381301D02*
D03*
X384451D02*
D03*
X387600D02*
D03*
X390750D02*
D03*
X393899D02*
D03*
X397049D02*
D03*
X400199D02*
D03*
X403348D02*
D03*
X406498D02*
D03*
X409647D02*
D03*
X412797D02*
D03*
X415946D02*
D03*
X419096D02*
D03*
X422246D02*
D03*
X425395D02*
D03*
X428545D02*
D03*
X431695D02*
D03*
X378151Y276449D02*
D03*
X381301D02*
D03*
X384451D02*
D03*
X387600D02*
D03*
X390750D02*
D03*
X393899D02*
D03*
X397049D02*
D03*
X400199D02*
D03*
X403348D02*
D03*
X406498D02*
D03*
X409647D02*
D03*
X412797D02*
D03*
X415946D02*
D03*
X419096D02*
D03*
X422246D02*
D03*
X425395D02*
D03*
X428545D02*
D03*
X431695D02*
D03*
X378151Y273299D02*
D03*
X381301D02*
D03*
X384451D02*
D03*
X387600D02*
D03*
X390750D02*
D03*
X393899D02*
D03*
X397049D02*
D03*
X400199D02*
D03*
X403348D02*
D03*
X406498D02*
D03*
X409647D02*
D03*
X412797D02*
D03*
X415946D02*
D03*
X419096D02*
D03*
X422246D02*
D03*
X425395D02*
D03*
X428545D02*
D03*
X431695D02*
D03*
X378151Y270149D02*
D03*
X381301D02*
D03*
X384451D02*
D03*
X387600D02*
D03*
X390750D02*
D03*
X393899D02*
D03*
X397049D02*
D03*
X400199D02*
D03*
X403348D02*
D03*
X406498D02*
D03*
X409647D02*
D03*
X412797D02*
D03*
X415946D02*
D03*
X419096D02*
D03*
X422246D02*
D03*
X425395D02*
D03*
X428545D02*
D03*
X431695D02*
D03*
X378151Y267000D02*
D03*
X381301D02*
D03*
X384451D02*
D03*
X387600D02*
D03*
X390750D02*
D03*
X393899D02*
D03*
X397049D02*
D03*
X400199D02*
D03*
X403348D02*
D03*
X406498D02*
D03*
X409647D02*
D03*
X412797D02*
D03*
X415946D02*
D03*
X419096D02*
D03*
X422246D02*
D03*
X425395D02*
D03*
X428545D02*
D03*
X431695D02*
D03*
X378151Y263850D02*
D03*
X381301D02*
D03*
X384451D02*
D03*
X387600D02*
D03*
X390750D02*
D03*
X393899D02*
D03*
X397049D02*
D03*
X400199D02*
D03*
X403348D02*
D03*
X406498D02*
D03*
X409647D02*
D03*
X412797D02*
D03*
X415946D02*
D03*
X419096D02*
D03*
X422246D02*
D03*
X425395D02*
D03*
X428545D02*
D03*
X431695D02*
D03*
X378151Y260701D02*
D03*
X381301D02*
D03*
X384451D02*
D03*
X387600D02*
D03*
X390750D02*
D03*
X393899D02*
D03*
X397049D02*
D03*
X400199D02*
D03*
X403348D02*
D03*
X406498D02*
D03*
X409647D02*
D03*
X412797D02*
D03*
X415946D02*
D03*
X419096D02*
D03*
X422246D02*
D03*
X425395D02*
D03*
X428545D02*
D03*
X431695D02*
D03*
X378151Y257551D02*
D03*
X381301D02*
D03*
X384451D02*
D03*
X387600D02*
D03*
X390750D02*
D03*
X393899D02*
D03*
X397049D02*
D03*
X400199D02*
D03*
X403348D02*
D03*
X406498D02*
D03*
X409647D02*
D03*
X412797D02*
D03*
X415946D02*
D03*
X419096D02*
D03*
X422246D02*
D03*
X425395D02*
D03*
X428545D02*
D03*
X431695D02*
D03*
X378151Y254401D02*
D03*
X381301D02*
D03*
X384451D02*
D03*
X387600D02*
D03*
X390750D02*
D03*
X393899D02*
D03*
X397049D02*
D03*
X400199D02*
D03*
X403348D02*
D03*
X406498D02*
D03*
X409647D02*
D03*
X412797D02*
D03*
X415946D02*
D03*
X419096D02*
D03*
X422246D02*
D03*
X425395D02*
D03*
X428545D02*
D03*
X431695D02*
D03*
X378151Y251252D02*
D03*
X381301D02*
D03*
X384451D02*
D03*
X387600D02*
D03*
X390750D02*
D03*
X393899D02*
D03*
X397049D02*
D03*
X400199D02*
D03*
X403348D02*
D03*
X406498D02*
D03*
X409647D02*
D03*
X412797D02*
D03*
X415946D02*
D03*
X419096D02*
D03*
X422246D02*
D03*
X425395D02*
D03*
X428545D02*
D03*
X431695D02*
D03*
D59*
X434183Y220121D02*
D03*
Y227601D02*
D03*
X440089Y220121D02*
D03*
Y227601D02*
D03*
D60*
X362091Y173644D02*
D03*
X346540D02*
D03*
X362091Y200219D02*
D03*
X346540D02*
D03*
D61*
X299405Y180678D02*
D03*
Y163907D02*
D03*
X291531Y180678D02*
D03*
Y163907D02*
D03*
X283657Y180678D02*
D03*
Y163907D02*
D03*
X275783Y180678D02*
D03*
Y163907D02*
D03*
X267909Y180678D02*
D03*
Y163907D02*
D03*
X260035Y180678D02*
D03*
Y163907D02*
D03*
X252161Y180678D02*
D03*
Y163907D02*
D03*
D62*
X250678Y319125D02*
D03*
X245678Y314325D02*
D03*
X240678Y319125D02*
D03*
X235678Y314325D02*
D03*
X230678Y319125D02*
D03*
X225678Y314325D02*
D03*
X220678Y319125D02*
D03*
X215678Y314325D02*
D03*
X210678Y319125D02*
D03*
X205678Y314325D02*
D03*
X250678Y241510D02*
D03*
X245678Y236710D02*
D03*
X240678Y241510D02*
D03*
X235678Y236710D02*
D03*
X230678Y241510D02*
D03*
X225678Y236710D02*
D03*
X220678Y241510D02*
D03*
X215678Y236710D02*
D03*
X210678Y241510D02*
D03*
X205678Y236710D02*
D03*
D63*
X382635Y337568D02*
D03*
X374368D02*
D03*
X358038Y337255D02*
D03*
X366305D02*
D03*
X203370Y343051D02*
D03*
X211638D02*
D03*
D64*
X348716Y349621D02*
D03*
Y354621D02*
D03*
Y359621D02*
D03*
Y364621D02*
D03*
Y369621D02*
D03*
Y374621D02*
D03*
Y379621D02*
D03*
X353716Y349621D02*
D03*
Y354621D02*
D03*
Y359621D02*
D03*
Y364621D02*
D03*
Y369621D02*
D03*
Y374621D02*
D03*
Y379621D02*
D03*
X358716Y349621D02*
D03*
Y354621D02*
D03*
Y359621D02*
D03*
Y364621D02*
D03*
Y369621D02*
D03*
Y374621D02*
D03*
Y379621D02*
D03*
X363716Y349621D02*
D03*
Y354621D02*
D03*
Y359621D02*
D03*
Y364621D02*
D03*
Y369621D02*
D03*
Y374621D02*
D03*
Y379621D02*
D03*
X368716Y349621D02*
D03*
Y354621D02*
D03*
Y359621D02*
D03*
Y364621D02*
D03*
Y369621D02*
D03*
Y374621D02*
D03*
Y379621D02*
D03*
X373716Y349621D02*
D03*
Y354621D02*
D03*
Y359621D02*
D03*
Y364621D02*
D03*
Y369621D02*
D03*
Y374621D02*
D03*
Y379621D02*
D03*
X378716Y349621D02*
D03*
Y354621D02*
D03*
Y359621D02*
D03*
Y364621D02*
D03*
Y369621D02*
D03*
Y374621D02*
D03*
Y379621D02*
D03*
X383716Y349621D02*
D03*
Y354621D02*
D03*
Y359621D02*
D03*
Y364621D02*
D03*
Y369621D02*
D03*
Y374621D02*
D03*
Y379621D02*
D03*
X388716Y349621D02*
D03*
Y354621D02*
D03*
Y359621D02*
D03*
Y364621D02*
D03*
Y369621D02*
D03*
Y374621D02*
D03*
Y379621D02*
D03*
X393716Y349621D02*
D03*
Y354621D02*
D03*
Y359621D02*
D03*
Y364621D02*
D03*
Y369621D02*
D03*
Y374621D02*
D03*
Y379621D02*
D03*
X398716Y349621D02*
D03*
Y354621D02*
D03*
Y359621D02*
D03*
Y364621D02*
D03*
Y369621D02*
D03*
Y379621D02*
D03*
Y374621D02*
D03*
D65*
X447562Y171295D02*
D03*
X457562D02*
D03*
X467562D02*
D03*
X477562D02*
D03*
X487562D02*
D03*
X497562D02*
D03*
D66*
X222279Y374342D02*
D03*
D67*
X240783Y386153D02*
D03*
D68*
Y362530D02*
D03*
D69*
X295468Y172293D02*
D03*
X256098D02*
D03*
D70*
X263155Y206584D02*
D03*
X247344Y201862D02*
D03*
X228454Y153404D02*
D03*
X229276Y172910D02*
D03*
Y192416D02*
D03*
X228865Y209048D02*
D03*
X209975Y201656D02*
D03*
X209359Y180918D02*
D03*
Y161207D02*
D03*
X189894Y152994D02*
D03*
X190510Y172089D02*
D03*
X190716Y190979D02*
D03*
X191537Y211307D02*
D03*
Y235946D02*
D03*
X191742Y255862D02*
D03*
X191537Y277011D02*
D03*
Y298981D02*
D03*
X191742Y322388D02*
D03*
X192358Y348464D02*
D03*
Y373104D02*
D03*
X206279Y364069D02*
D03*
Y383986D02*
D03*
X316950Y348054D02*
D03*
X294159Y347849D02*
D03*
X274653Y348054D02*
D03*
X256584Y348259D02*
D03*
X237489Y348670D02*
D03*
X227838Y343126D02*
D03*
X246523Y342715D02*
D03*
X265002Y342510D02*
D03*
X284098D02*
D03*
X304899Y342855D02*
D03*
D71*
X462903Y188582D02*
D03*
X507935Y310768D02*
D03*
X397159Y210425D02*
D03*
X453731Y193092D02*
D03*
X453754Y195852D02*
D03*
X398856Y327916D02*
D03*
X359577Y342138D02*
D03*
X397350Y239613D02*
D03*
X400667Y239632D02*
D03*
X391120Y317970D02*
D03*
X387868Y317931D02*
D03*
X528291Y239478D02*
D03*
X526315Y371164D02*
D03*
X514365Y266219D02*
D03*
X371164Y227130D02*
D03*
X385674Y215798D02*
D03*
X389137Y216065D02*
D03*
X415794Y229158D02*
D03*
X412679Y229664D02*
D03*
X401271Y335744D02*
D03*
X398247Y335788D02*
D03*
X401293Y338723D02*
D03*
X398203Y338811D02*
D03*
X405503Y333395D02*
D03*
X497210Y283620D02*
D03*
X475106Y379752D02*
D03*
X531923Y335125D02*
D03*
X356107Y291787D02*
D03*
X360081Y302226D02*
D03*
X451804Y199826D02*
D03*
X354266Y246368D02*
D03*
X358281Y246675D02*
D03*
X348411Y256070D02*
D03*
X344816D02*
D03*
X366129Y396493D02*
D03*
X360857Y396482D02*
D03*
X355940Y396409D02*
D03*
X338455Y390523D02*
D03*
X328740Y378137D02*
D03*
X375924Y396304D02*
D03*
X381127Y396421D02*
D03*
X386097Y396450D02*
D03*
X396474Y396392D02*
D03*
X391066Y396480D02*
D03*
X390066Y327833D02*
D03*
X398025Y332561D02*
D03*
X385995Y327702D02*
D03*
X381897Y327833D02*
D03*
X381792Y331589D02*
D03*
X384865Y331642D02*
D03*
X396945Y325000D02*
D03*
X370727Y320808D02*
D03*
X374751Y320718D02*
D03*
X526680Y382825D02*
D03*
X505459Y382737D02*
D03*
X517807Y330171D02*
D03*
X517699Y334587D02*
D03*
X544426Y292758D02*
D03*
X522347Y301832D02*
D03*
X503246Y314631D02*
D03*
X503161Y319372D02*
D03*
X444713Y270733D02*
D03*
X511560Y282846D02*
D03*
X549252Y167330D02*
D03*
X553166Y260427D02*
D03*
X540762Y237654D02*
D03*
X538837Y239527D02*
D03*
X546362Y214171D02*
D03*
X546215Y182536D02*
D03*
X545995Y185943D02*
D03*
X451925Y181648D02*
D03*
X452221Y188634D02*
D03*
X425155Y172823D02*
D03*
X380663Y168471D02*
D03*
X313043Y167072D02*
D03*
X299405Y155940D02*
D03*
X291531D02*
D03*
X283657D02*
D03*
X275783D02*
D03*
X267909D02*
D03*
X260035D02*
D03*
X252155Y155934D02*
D03*
X252070Y188208D02*
D03*
X239387Y233112D02*
D03*
X219567Y232430D02*
D03*
X326114Y325085D02*
D03*
X326169Y329142D02*
D03*
X331172Y329087D02*
D03*
X331117Y325251D02*
D03*
X337953Y325196D02*
D03*
Y329253D02*
D03*
X341678Y332866D02*
D03*
X335008Y332811D02*
D03*
X335072Y310666D02*
D03*
X295070Y277793D02*
D03*
X282569Y278691D02*
D03*
X211758Y338053D02*
D03*
X210723Y326706D02*
D03*
X377751Y231534D02*
D03*
X318019Y228979D02*
D03*
X320851Y225852D02*
D03*
X324408Y229102D02*
D03*
X321624Y232400D02*
D03*
X398742Y314204D02*
D03*
X343800Y305100D02*
D03*
X350727Y298432D02*
D03*
X348267Y300763D02*
D03*
X321252Y228859D02*
D03*
X346179Y302870D02*
D03*
X546268Y218010D02*
D03*
X520913Y261700D02*
D03*
X459468Y288091D02*
D03*
X356356Y324647D02*
D03*
X352468Y324517D02*
D03*
X348875Y328012D02*
D03*
X352534Y327979D02*
D03*
X356225Y328600D02*
D03*
X356029Y331900D02*
D03*
X398230Y343081D02*
D03*
X389939Y343198D02*
D03*
X408739Y342225D02*
D03*
X405391Y347090D02*
D03*
X405313Y351878D02*
D03*
X410996Y345728D02*
D03*
X410918Y348686D02*
D03*
X386083Y336697D02*
D03*
X383916Y342148D02*
D03*
X354458Y335794D02*
D03*
Y339333D02*
D03*
X357866Y344248D02*
D03*
X354130Y343134D02*
D03*
X337484Y342522D02*
D03*
X342723Y342164D02*
D03*
X339371Y338878D02*
D03*
X376607Y342341D02*
D03*
X380257D02*
D03*
X334765Y338955D02*
D03*
X335611Y350593D02*
D03*
X335452Y346996D02*
D03*
X362989Y341703D02*
D03*
X351127Y340371D02*
D03*
X324104Y191140D02*
D03*
X324298Y168043D02*
D03*
X331028Y165903D02*
D03*
X362268Y161906D02*
D03*
X362010Y182146D02*
D03*
X362051Y191687D02*
D03*
X371450Y218921D02*
D03*
X371585Y215056D02*
D03*
X374213Y209509D02*
D03*
X381274Y238821D02*
D03*
X382681Y217414D02*
D03*
X394861Y222913D02*
D03*
X433182Y215266D02*
D03*
X509338Y180902D02*
D03*
X508474Y221409D02*
D03*
X508419Y225666D02*
D03*
X508386Y229795D02*
D03*
X508315Y234142D02*
D03*
X508362Y238330D02*
D03*
X369518Y257568D02*
D03*
X437309Y315804D02*
D03*
X437019Y318748D02*
D03*
X440714Y270257D02*
D03*
X422077Y243687D02*
D03*
X529241Y318824D02*
D03*
X529322Y321941D02*
D03*
X426364Y223468D02*
D03*
Y220643D02*
D03*
X404410Y197834D02*
D03*
X401228Y197831D02*
D03*
X478883Y372990D02*
D03*
X475634Y373091D02*
D03*
M02*
