G04*
G04 #@! TF.GenerationSoftware,Altium Limited,Altium Designer,20.1.11 (218)*
G04*
G04 Layer_Physical_Order=2*
G04 Layer_Color=36540*
%FSLAX25Y25*%
%MOIN*%
G70*
G04*
G04 #@! TF.SameCoordinates,731B5D3F-845C-401C-AC73-029E605C2F8B*
G04*
G04*
G04 #@! TF.FilePolarity,Positive*
G04*
G01*
G75*
%ADD75C,0.06378*%
%ADD76O,0.08858X0.17717*%
%ADD77O,0.17717X0.08858*%
%ADD80C,0.03000*%
%ADD82C,0.01000*%
G36*
X573051Y409092D02*
Y146915D01*
X185442Y146915D01*
X185442Y409092D01*
X573051Y409092D01*
D02*
G37*
%LPC*%
G36*
X391066Y397601D02*
X390637Y397516D01*
X390273Y397273D01*
X390030Y396909D01*
X389944Y396480D01*
X390030Y396050D01*
X390273Y395687D01*
X390637Y395443D01*
X391066Y395358D01*
X391495Y395443D01*
X391859Y395687D01*
X392102Y396050D01*
X392187Y396480D01*
X392102Y396909D01*
X391859Y397273D01*
X391495Y397516D01*
X391066Y397601D01*
D02*
G37*
G36*
X355940Y397531D02*
X355511Y397445D01*
X355147Y397202D01*
X354904Y396838D01*
X354818Y396409D01*
X354904Y395980D01*
X355147Y395616D01*
X355511Y395373D01*
X355940Y395288D01*
X356369Y395373D01*
X356733Y395616D01*
X356976Y395980D01*
X357061Y396409D01*
X356976Y396838D01*
X356733Y397202D01*
X356369Y397445D01*
X355940Y397531D01*
D02*
G37*
G36*
X388707Y386802D02*
X388278Y386716D01*
X387914Y386473D01*
X387671Y386109D01*
X387586Y385680D01*
X387671Y385251D01*
X387914Y384887D01*
X388278Y384644D01*
X388707Y384558D01*
X389136Y384644D01*
X389500Y384887D01*
X389743Y385251D01*
X389829Y385680D01*
X389743Y386109D01*
X389500Y386473D01*
X389136Y386716D01*
X388707Y386802D01*
D02*
G37*
G36*
X353592Y385804D02*
X353163Y385718D01*
X352799Y385475D01*
X352556Y385111D01*
X352471Y384682D01*
X352556Y384253D01*
X352799Y383889D01*
X353163Y383646D01*
X353592Y383561D01*
X354022Y383646D01*
X354385Y383889D01*
X354628Y384253D01*
X354714Y384682D01*
X354628Y385111D01*
X354385Y385475D01*
X354022Y385718D01*
X353592Y385804D01*
D02*
G37*
G36*
X526680Y383946D02*
X526251Y383861D01*
X525887Y383618D01*
X525644Y383254D01*
X525558Y382825D01*
X525644Y382396D01*
X525887Y382032D01*
X526251Y381789D01*
X526680Y381703D01*
X527109Y381789D01*
X527473Y382032D01*
X527716Y382396D01*
X527802Y382825D01*
X527716Y383254D01*
X527473Y383618D01*
X527109Y383861D01*
X526680Y383946D01*
D02*
G37*
G36*
X505459Y383859D02*
X505030Y383773D01*
X504666Y383530D01*
X504423Y383166D01*
X504337Y382737D01*
X504423Y382308D01*
X504666Y381944D01*
X505030Y381701D01*
X505459Y381616D01*
X505888Y381701D01*
X506252Y381944D01*
X506495Y382308D01*
X506581Y382737D01*
X506495Y383166D01*
X506252Y383530D01*
X505888Y383773D01*
X505459Y383859D01*
D02*
G37*
G36*
X386191Y383291D02*
X385762Y383206D01*
X385398Y382962D01*
X385155Y382599D01*
X385069Y382170D01*
X385155Y381740D01*
X385398Y381376D01*
X385762Y381133D01*
X386191Y381048D01*
X386620Y381133D01*
X386984Y381376D01*
X387227Y381740D01*
X387313Y382170D01*
X387227Y382599D01*
X386984Y382962D01*
X386620Y383206D01*
X386191Y383291D01*
D02*
G37*
G36*
X475106Y380873D02*
X474677Y380788D01*
X474313Y380545D01*
X474070Y380181D01*
X473984Y379752D01*
X474070Y379323D01*
X474313Y378959D01*
X474677Y378715D01*
X475106Y378630D01*
X475535Y378715D01*
X475899Y378959D01*
X476142Y379323D01*
X476228Y379752D01*
X476142Y380181D01*
X475899Y380545D01*
X475535Y380788D01*
X475106Y380873D01*
D02*
G37*
G36*
X371191Y378291D02*
X370762Y378206D01*
X370398Y377962D01*
X370155Y377599D01*
X370070Y377169D01*
X370155Y376740D01*
X370398Y376376D01*
X370762Y376133D01*
X371191Y376048D01*
X371620Y376133D01*
X371984Y376376D01*
X372227Y376740D01*
X372313Y377169D01*
X372227Y377599D01*
X371984Y377962D01*
X371620Y378206D01*
X371191Y378291D01*
D02*
G37*
G36*
X475634Y374213D02*
X475205Y374128D01*
X474841Y373885D01*
X474598Y373521D01*
X474513Y373091D01*
X474598Y372662D01*
X474841Y372298D01*
X475205Y372055D01*
X475634Y371970D01*
X476064Y372055D01*
X476428Y372298D01*
X476671Y372662D01*
X476756Y373091D01*
X476671Y373521D01*
X476428Y373885D01*
X476064Y374128D01*
X475634Y374213D01*
D02*
G37*
G36*
X381191Y373291D02*
X380762Y373206D01*
X380398Y372962D01*
X380155Y372599D01*
X380069Y372169D01*
X380155Y371740D01*
X380398Y371376D01*
X380762Y371133D01*
X381191Y371048D01*
X381620Y371133D01*
X381984Y371376D01*
X382227Y371740D01*
X382313Y372169D01*
X382227Y372599D01*
X381984Y372962D01*
X381620Y373206D01*
X381191Y373291D01*
D02*
G37*
G36*
X366191D02*
X365762Y373206D01*
X365398Y372962D01*
X365155Y372599D01*
X365070Y372169D01*
X365155Y371740D01*
X365398Y371376D01*
X365762Y371133D01*
X366191Y371048D01*
X366620Y371133D01*
X366984Y371376D01*
X367227Y371740D01*
X367313Y372169D01*
X367227Y372599D01*
X366984Y372962D01*
X366620Y373206D01*
X366191Y373291D01*
D02*
G37*
G36*
X351191D02*
X350762Y373206D01*
X350398Y372962D01*
X350155Y372599D01*
X350069Y372169D01*
X350155Y371740D01*
X350398Y371376D01*
X350762Y371133D01*
X351191Y371048D01*
X351620Y371133D01*
X351984Y371376D01*
X352227Y371740D01*
X352313Y372169D01*
X352227Y372599D01*
X351984Y372962D01*
X351620Y373206D01*
X351191Y373291D01*
D02*
G37*
G36*
X401264Y373268D02*
X400835Y373182D01*
X400471Y372939D01*
X400228Y372575D01*
X400142Y372146D01*
X400228Y371717D01*
X400471Y371353D01*
X400835Y371110D01*
X401264Y371024D01*
X401693Y371110D01*
X402057Y371353D01*
X402300Y371717D01*
X402386Y372146D01*
X402300Y372575D01*
X402057Y372939D01*
X401693Y373182D01*
X401264Y373268D01*
D02*
G37*
G36*
X381191Y368291D02*
X380762Y368206D01*
X380398Y367963D01*
X380155Y367599D01*
X380069Y367169D01*
X380155Y366740D01*
X380398Y366376D01*
X380762Y366133D01*
X381191Y366048D01*
X381620Y366133D01*
X381984Y366376D01*
X382227Y366740D01*
X382313Y367169D01*
X382227Y367599D01*
X381984Y367963D01*
X381620Y368206D01*
X381191Y368291D01*
D02*
G37*
G36*
X366191D02*
X365762Y368206D01*
X365398Y367963D01*
X365155Y367599D01*
X365070Y367169D01*
X365155Y366740D01*
X365398Y366376D01*
X365762Y366133D01*
X366191Y366048D01*
X366620Y366133D01*
X366984Y366376D01*
X367227Y366740D01*
X367313Y367169D01*
X367227Y367599D01*
X366984Y367963D01*
X366620Y368206D01*
X366191Y368291D01*
D02*
G37*
G36*
X351191D02*
X350762Y368206D01*
X350398Y367963D01*
X350155Y367599D01*
X350069Y367169D01*
X350155Y366740D01*
X350398Y366376D01*
X350762Y366133D01*
X351191Y366048D01*
X351620Y366133D01*
X351984Y366376D01*
X352227Y366740D01*
X352313Y367169D01*
X352227Y367599D01*
X351984Y367963D01*
X351620Y368206D01*
X351191Y368291D01*
D02*
G37*
G36*
X401264Y368267D02*
X400835Y368182D01*
X400471Y367939D01*
X400228Y367575D01*
X400142Y367146D01*
X400228Y366717D01*
X400471Y366353D01*
X400835Y366110D01*
X401264Y366024D01*
X401693Y366110D01*
X402057Y366353D01*
X402300Y366717D01*
X402386Y367146D01*
X402300Y367575D01*
X402057Y367939D01*
X401693Y368182D01*
X401264Y368267D01*
D02*
G37*
G36*
X381191Y363291D02*
X380762Y363206D01*
X380398Y362963D01*
X380155Y362599D01*
X380069Y362170D01*
X380155Y361740D01*
X380398Y361376D01*
X380762Y361133D01*
X381191Y361048D01*
X381620Y361133D01*
X381984Y361376D01*
X382227Y361740D01*
X382313Y362170D01*
X382227Y362599D01*
X381984Y362963D01*
X381620Y363206D01*
X381191Y363291D01*
D02*
G37*
G36*
X366191D02*
X365762Y363206D01*
X365398Y362963D01*
X365155Y362599D01*
X365070Y362170D01*
X365155Y361740D01*
X365398Y361376D01*
X365762Y361133D01*
X366191Y361048D01*
X366620Y361133D01*
X366984Y361376D01*
X367227Y361740D01*
X367313Y362170D01*
X367227Y362599D01*
X366984Y362963D01*
X366620Y363206D01*
X366191Y363291D01*
D02*
G37*
G36*
X351191D02*
X350762Y363206D01*
X350398Y362963D01*
X350155Y362599D01*
X350069Y362170D01*
X350155Y361740D01*
X350398Y361376D01*
X350762Y361133D01*
X351191Y361048D01*
X351620Y361133D01*
X351984Y361376D01*
X352227Y361740D01*
X352313Y362170D01*
X352227Y362599D01*
X351984Y362963D01*
X351620Y363206D01*
X351191Y363291D01*
D02*
G37*
G36*
X401264Y363267D02*
X400835Y363182D01*
X400471Y362939D01*
X400228Y362575D01*
X400142Y362146D01*
X400228Y361717D01*
X400471Y361353D01*
X400835Y361110D01*
X401264Y361024D01*
X401693Y361110D01*
X402057Y361353D01*
X402300Y361717D01*
X402386Y362146D01*
X402300Y362575D01*
X402057Y362939D01*
X401693Y363182D01*
X401264Y363267D01*
D02*
G37*
G36*
X356188Y363244D02*
X355759Y363158D01*
X355395Y362915D01*
X355152Y362551D01*
X355066Y362122D01*
X355152Y361693D01*
X355395Y361329D01*
X355759Y361086D01*
X356188Y361001D01*
X356617Y361086D01*
X356981Y361329D01*
X357224Y361693D01*
X357310Y362122D01*
X357224Y362551D01*
X356981Y362915D01*
X356617Y363158D01*
X356188Y363244D01*
D02*
G37*
G36*
X245704Y368099D02*
X235861D01*
X234420Y367910D01*
X233077Y367353D01*
X231924Y366468D01*
X231038Y365315D01*
X230482Y363972D01*
X230293Y362530D01*
X230482Y361089D01*
X231038Y359746D01*
X231924Y358593D01*
X233077Y357708D01*
X234420Y357151D01*
X235861Y356962D01*
X245704D01*
X247145Y357151D01*
X248488Y357708D01*
X249642Y358593D01*
X250527Y359746D01*
X251083Y361089D01*
X251273Y362530D01*
X251083Y363972D01*
X250527Y365315D01*
X249642Y366468D01*
X248488Y367353D01*
X247145Y367910D01*
X245704Y368099D01*
D02*
G37*
G36*
X346168Y358218D02*
X345738Y358133D01*
X345374Y357890D01*
X345131Y357526D01*
X345046Y357097D01*
X345131Y356667D01*
X345374Y356304D01*
X345738Y356060D01*
X346168Y355975D01*
X346597Y356060D01*
X346961Y356304D01*
X347204Y356667D01*
X347289Y357097D01*
X347204Y357526D01*
X346961Y357890D01*
X346597Y358133D01*
X346168Y358218D01*
D02*
G37*
G36*
X342560Y355748D02*
X342131Y355663D01*
X341767Y355420D01*
X341524Y355056D01*
X341438Y354627D01*
X341524Y354198D01*
X341767Y353834D01*
X342131Y353591D01*
X342560Y353505D01*
X342989Y353591D01*
X343353Y353834D01*
X343596Y354198D01*
X343681Y354627D01*
X343596Y355056D01*
X343353Y355420D01*
X342989Y355663D01*
X342560Y355748D01*
D02*
G37*
G36*
X356227Y353248D02*
X355798Y353162D01*
X355434Y352919D01*
X355191Y352555D01*
X355105Y352126D01*
X355191Y351697D01*
X355434Y351333D01*
X355798Y351090D01*
X356227Y351005D01*
X356656Y351090D01*
X357020Y351333D01*
X357263Y351697D01*
X357348Y352126D01*
X357263Y352555D01*
X357020Y352919D01*
X356656Y353162D01*
X356227Y353248D01*
D02*
G37*
G36*
X391168Y353218D02*
X390738Y353133D01*
X390374Y352890D01*
X390131Y352526D01*
X390046Y352097D01*
X390131Y351667D01*
X390374Y351304D01*
X390738Y351060D01*
X391168Y350975D01*
X391597Y351060D01*
X391961Y351304D01*
X392204Y351667D01*
X392289Y352097D01*
X392204Y352526D01*
X391961Y352890D01*
X391597Y353133D01*
X391168Y353218D01*
D02*
G37*
G36*
X376168D02*
X375738Y353133D01*
X375375Y352890D01*
X375131Y352526D01*
X375046Y352097D01*
X375131Y351667D01*
X375375Y351304D01*
X375738Y351060D01*
X376168Y350975D01*
X376597Y351060D01*
X376961Y351304D01*
X377204Y351667D01*
X377289Y352097D01*
X377204Y352526D01*
X376961Y352890D01*
X376597Y353133D01*
X376168Y353218D01*
D02*
G37*
G36*
X361168D02*
X360738Y353133D01*
X360374Y352890D01*
X360131Y352526D01*
X360046Y352097D01*
X360131Y351667D01*
X360374Y351304D01*
X360738Y351060D01*
X361168Y350975D01*
X361597Y351060D01*
X361961Y351304D01*
X362204Y351667D01*
X362289Y352097D01*
X362204Y352526D01*
X361961Y352890D01*
X361597Y353133D01*
X361168Y353218D01*
D02*
G37*
G36*
X346168D02*
X345738Y353133D01*
X345374Y352890D01*
X345131Y352526D01*
X345046Y352097D01*
X345131Y351667D01*
X345374Y351304D01*
X345738Y351060D01*
X346168Y350975D01*
X346597Y351060D01*
X346961Y351304D01*
X347204Y351667D01*
X347289Y352097D01*
X347204Y352526D01*
X346961Y352890D01*
X346597Y353133D01*
X346168Y353218D01*
D02*
G37*
G36*
X405313Y352999D02*
X404884Y352914D01*
X404520Y352671D01*
X404277Y352307D01*
X404192Y351878D01*
X404277Y351448D01*
X404520Y351084D01*
X404884Y350841D01*
X405313Y350756D01*
X405743Y350841D01*
X406107Y351084D01*
X406350Y351448D01*
X406435Y351878D01*
X406350Y352307D01*
X406107Y352671D01*
X405743Y352914D01*
X405313Y352999D01*
D02*
G37*
G36*
X342657Y350444D02*
X342228Y350359D01*
X341864Y350116D01*
X341621Y349752D01*
X341536Y349323D01*
X341621Y348894D01*
X341864Y348530D01*
X342228Y348287D01*
X342657Y348201D01*
X343087Y348287D01*
X343450Y348530D01*
X343694Y348894D01*
X343779Y349323D01*
X343694Y349752D01*
X343450Y350116D01*
X343087Y350359D01*
X342657Y350444D01*
D02*
G37*
G36*
X391168Y348218D02*
X390738Y348133D01*
X390374Y347890D01*
X390131Y347526D01*
X390046Y347097D01*
X390131Y346667D01*
X390374Y346304D01*
X390738Y346060D01*
X391168Y345975D01*
X391597Y346060D01*
X391961Y346304D01*
X392204Y346667D01*
X392289Y347097D01*
X392204Y347526D01*
X391961Y347890D01*
X391597Y348133D01*
X391168Y348218D01*
D02*
G37*
G36*
X386168D02*
X385738Y348133D01*
X385374Y347890D01*
X385131Y347526D01*
X385046Y347097D01*
X385131Y346667D01*
X385374Y346304D01*
X385738Y346060D01*
X386168Y345975D01*
X386597Y346060D01*
X386961Y346304D01*
X387204Y346667D01*
X387289Y347097D01*
X387204Y347526D01*
X386961Y347890D01*
X386597Y348133D01*
X386168Y348218D01*
D02*
G37*
G36*
X376168D02*
X375738Y348133D01*
X375375Y347890D01*
X375131Y347526D01*
X375046Y347097D01*
X375131Y346667D01*
X375375Y346304D01*
X375738Y346060D01*
X376168Y345975D01*
X376597Y346060D01*
X376961Y346304D01*
X377204Y346667D01*
X377289Y347097D01*
X377204Y347526D01*
X376961Y347890D01*
X376597Y348133D01*
X376168Y348218D01*
D02*
G37*
G36*
X371168D02*
X370738Y348133D01*
X370374Y347890D01*
X370131Y347526D01*
X370046Y347097D01*
X370131Y346667D01*
X370374Y346304D01*
X370738Y346060D01*
X371168Y345975D01*
X371597Y346060D01*
X371961Y346304D01*
X372204Y346667D01*
X372289Y347097D01*
X372204Y347526D01*
X371961Y347890D01*
X371597Y348133D01*
X371168Y348218D01*
D02*
G37*
G36*
X361168D02*
X360738Y348133D01*
X360374Y347890D01*
X360131Y347526D01*
X360046Y347097D01*
X360131Y346667D01*
X360374Y346304D01*
X360738Y346060D01*
X361168Y345975D01*
X361597Y346060D01*
X361961Y346304D01*
X362204Y346667D01*
X362289Y347097D01*
X362204Y347526D01*
X361961Y347890D01*
X361597Y348133D01*
X361168Y348218D01*
D02*
G37*
G36*
X356168D02*
X355738Y348133D01*
X355375Y347890D01*
X355131Y347526D01*
X355046Y347097D01*
X355131Y346667D01*
X355375Y346304D01*
X355738Y346060D01*
X356168Y345975D01*
X356597Y346060D01*
X356961Y346304D01*
X357204Y346667D01*
X357289Y347097D01*
X357204Y347526D01*
X356961Y347890D01*
X356597Y348133D01*
X356168Y348218D01*
D02*
G37*
G36*
X346168D02*
X345738Y348133D01*
X345374Y347890D01*
X345131Y347526D01*
X345046Y347097D01*
X345131Y346667D01*
X345374Y346304D01*
X345738Y346060D01*
X346168Y345975D01*
X346597Y346060D01*
X346961Y346304D01*
X347204Y346667D01*
X347289Y347097D01*
X347204Y347526D01*
X346961Y347890D01*
X346597Y348133D01*
X346168Y348218D01*
D02*
G37*
G36*
X405391Y348212D02*
X404962Y348126D01*
X404598Y347883D01*
X404355Y347519D01*
X404270Y347090D01*
X404355Y346661D01*
X404598Y346297D01*
X404962Y346054D01*
X405391Y345969D01*
X405821Y346054D01*
X406184Y346297D01*
X406427Y346661D01*
X406513Y347090D01*
X406427Y347519D01*
X406184Y347883D01*
X405821Y348126D01*
X405391Y348212D01*
D02*
G37*
G36*
X335452Y348117D02*
X335023Y348032D01*
X334659Y347789D01*
X334416Y347425D01*
X334331Y346996D01*
X334416Y346567D01*
X334659Y346203D01*
X335023Y345960D01*
X335452Y345874D01*
X335881Y345960D01*
X336245Y346203D01*
X336488Y346567D01*
X336574Y346996D01*
X336488Y347425D01*
X336245Y347789D01*
X335881Y348032D01*
X335452Y348117D01*
D02*
G37*
G36*
X410996Y346849D02*
X410567Y346764D01*
X410203Y346521D01*
X409960Y346157D01*
X409875Y345728D01*
X409960Y345299D01*
X410203Y344935D01*
X410567Y344691D01*
X410996Y344606D01*
X411425Y344691D01*
X411789Y344935D01*
X412033Y345299D01*
X412118Y345728D01*
X412033Y346157D01*
X411789Y346521D01*
X411425Y346764D01*
X410996Y346849D01*
D02*
G37*
G36*
X357866Y345370D02*
X357437Y345284D01*
X357073Y345041D01*
X356830Y344677D01*
X356744Y344248D01*
X356830Y343819D01*
X357073Y343455D01*
X357437Y343212D01*
X357866Y343126D01*
X358295Y343212D01*
X358659Y343455D01*
X358902Y343819D01*
X358987Y344248D01*
X358902Y344677D01*
X358659Y345041D01*
X358295Y345284D01*
X357866Y345370D01*
D02*
G37*
G36*
X389939Y344319D02*
X389510Y344234D01*
X389146Y343991D01*
X388903Y343627D01*
X388817Y343198D01*
X388903Y342769D01*
X389146Y342405D01*
X389510Y342161D01*
X389939Y342076D01*
X390368Y342161D01*
X390732Y342405D01*
X390975Y342769D01*
X391060Y343198D01*
X390975Y343627D01*
X390732Y343991D01*
X390368Y344234D01*
X389939Y344319D01*
D02*
G37*
G36*
X354130Y344255D02*
X353701Y344170D01*
X353337Y343927D01*
X353094Y343563D01*
X353009Y343134D01*
X353094Y342705D01*
X353337Y342341D01*
X353701Y342098D01*
X354130Y342012D01*
X354560Y342098D01*
X354923Y342341D01*
X355167Y342705D01*
X355252Y343134D01*
X355167Y343563D01*
X354923Y343927D01*
X354560Y344170D01*
X354130Y344255D01*
D02*
G37*
G36*
X398230Y344202D02*
X397800Y344117D01*
X397436Y343874D01*
X397193Y343510D01*
X397108Y343081D01*
X397193Y342652D01*
X397436Y342288D01*
X397800Y342045D01*
X398230Y341959D01*
X398659Y342045D01*
X399023Y342288D01*
X399266Y342652D01*
X399351Y343081D01*
X399266Y343510D01*
X399023Y343874D01*
X398659Y344117D01*
X398230Y344202D01*
D02*
G37*
G36*
X337484Y343644D02*
X337054Y343558D01*
X336690Y343315D01*
X336447Y342951D01*
X336362Y342522D01*
X336447Y342093D01*
X336690Y341729D01*
X337054Y341486D01*
X337484Y341401D01*
X337913Y341486D01*
X338277Y341729D01*
X338520Y342093D01*
X338605Y342522D01*
X338520Y342951D01*
X338277Y343315D01*
X337913Y343558D01*
X337484Y343644D01*
D02*
G37*
G36*
X380257Y343462D02*
X379828Y343377D01*
X379464Y343134D01*
X379221Y342770D01*
X379135Y342341D01*
X379221Y341912D01*
X379464Y341548D01*
X379828Y341305D01*
X380257Y341219D01*
X380686Y341305D01*
X381050Y341548D01*
X381293Y341912D01*
X381378Y342341D01*
X381293Y342770D01*
X381050Y343134D01*
X380686Y343377D01*
X380257Y343462D01*
D02*
G37*
G36*
X408739Y343346D02*
X408310Y343261D01*
X407946Y343018D01*
X407702Y342654D01*
X407617Y342225D01*
X407702Y341795D01*
X407946Y341432D01*
X408310Y341189D01*
X408739Y341103D01*
X409168Y341189D01*
X409532Y341432D01*
X409775Y341795D01*
X409860Y342225D01*
X409775Y342654D01*
X409532Y343018D01*
X409168Y343261D01*
X408739Y343346D01*
D02*
G37*
G36*
X342723Y343286D02*
X342293Y343200D01*
X341929Y342957D01*
X341686Y342593D01*
X341601Y342164D01*
X341686Y341735D01*
X341929Y341371D01*
X342293Y341128D01*
X342723Y341042D01*
X343152Y341128D01*
X343515Y341371D01*
X343759Y341735D01*
X343844Y342164D01*
X343759Y342593D01*
X343515Y342957D01*
X343152Y343200D01*
X342723Y343286D01*
D02*
G37*
G36*
X383916Y343270D02*
X383487Y343185D01*
X383123Y342941D01*
X382880Y342578D01*
X382795Y342148D01*
X382880Y341719D01*
X383123Y341355D01*
X383487Y341112D01*
X383916Y341027D01*
X384345Y341112D01*
X384709Y341355D01*
X384952Y341719D01*
X385038Y342148D01*
X384952Y342578D01*
X384709Y342941D01*
X384345Y343185D01*
X383916Y343270D01*
D02*
G37*
G36*
X359577Y343260D02*
X359148Y343175D01*
X358784Y342931D01*
X358541Y342568D01*
X358456Y342138D01*
X358541Y341709D01*
X358784Y341345D01*
X359148Y341102D01*
X359577Y341017D01*
X360006Y341102D01*
X360370Y341345D01*
X360613Y341709D01*
X360699Y342138D01*
X360613Y342568D01*
X360370Y342931D01*
X360006Y343175D01*
X359577Y343260D01*
D02*
G37*
G36*
X351127Y341493D02*
X350698Y341407D01*
X350334Y341164D01*
X350091Y340800D01*
X350005Y340371D01*
X350091Y339942D01*
X350334Y339578D01*
X350698Y339335D01*
X351127Y339249D01*
X351556Y339335D01*
X351920Y339578D01*
X352163Y339942D01*
X352248Y340371D01*
X352163Y340800D01*
X351920Y341164D01*
X351556Y341407D01*
X351127Y341493D01*
D02*
G37*
G36*
X354458Y340454D02*
X354029Y340369D01*
X353665Y340126D01*
X353422Y339762D01*
X353337Y339333D01*
X353422Y338903D01*
X353665Y338540D01*
X354029Y338297D01*
X354458Y338211D01*
X354887Y338297D01*
X355251Y338540D01*
X355494Y338903D01*
X355580Y339333D01*
X355494Y339762D01*
X355251Y340126D01*
X354887Y340369D01*
X354458Y340454D01*
D02*
G37*
G36*
X334765Y340077D02*
X334335Y339991D01*
X333972Y339748D01*
X333728Y339385D01*
X333643Y338955D01*
X333728Y338526D01*
X333972Y338162D01*
X334335Y337919D01*
X334765Y337834D01*
X335194Y337919D01*
X335558Y338162D01*
X335801Y338526D01*
X335886Y338955D01*
X335801Y339385D01*
X335558Y339748D01*
X335194Y339991D01*
X334765Y340077D01*
D02*
G37*
G36*
X339371Y339999D02*
X338942Y339914D01*
X338578Y339671D01*
X338335Y339307D01*
X338249Y338878D01*
X338335Y338448D01*
X338578Y338085D01*
X338942Y337841D01*
X339371Y337756D01*
X339800Y337841D01*
X340164Y338085D01*
X340407Y338448D01*
X340492Y338878D01*
X340407Y339307D01*
X340164Y339671D01*
X339800Y339914D01*
X339371Y339999D01*
D02*
G37*
G36*
X398203Y339933D02*
X397774Y339848D01*
X397410Y339605D01*
X397167Y339241D01*
X397081Y338811D01*
X397167Y338382D01*
X397410Y338018D01*
X397774Y337775D01*
X398203Y337690D01*
X398632Y337775D01*
X398996Y338018D01*
X399239Y338382D01*
X399324Y338811D01*
X399239Y339241D01*
X398996Y339605D01*
X398632Y339848D01*
X398203Y339933D01*
D02*
G37*
G36*
X401293Y339844D02*
X400864Y339759D01*
X400500Y339516D01*
X400257Y339152D01*
X400172Y338723D01*
X400257Y338293D01*
X400500Y337930D01*
X400864Y337686D01*
X401293Y337601D01*
X401722Y337686D01*
X402086Y337930D01*
X402329Y338293D01*
X402415Y338723D01*
X402329Y339152D01*
X402086Y339516D01*
X401722Y339759D01*
X401293Y339844D01*
D02*
G37*
G36*
X386083Y337818D02*
X385654Y337733D01*
X385290Y337490D01*
X385047Y337126D01*
X384962Y336697D01*
X385047Y336267D01*
X385290Y335904D01*
X385654Y335660D01*
X386083Y335575D01*
X386513Y335660D01*
X386877Y335904D01*
X387120Y336267D01*
X387205Y336697D01*
X387120Y337126D01*
X386877Y337490D01*
X386513Y337733D01*
X386083Y337818D01*
D02*
G37*
G36*
X354458Y336915D02*
X354029Y336830D01*
X353665Y336587D01*
X353422Y336223D01*
X353337Y335794D01*
X353422Y335365D01*
X353665Y335001D01*
X354029Y334757D01*
X354458Y334672D01*
X354887Y334757D01*
X355251Y335001D01*
X355494Y335365D01*
X355580Y335794D01*
X355494Y336223D01*
X355251Y336587D01*
X354887Y336830D01*
X354458Y336915D01*
D02*
G37*
G36*
X398247Y336910D02*
X397818Y336824D01*
X397454Y336581D01*
X397211Y336217D01*
X397126Y335788D01*
X397211Y335359D01*
X397454Y334995D01*
X397818Y334752D01*
X398247Y334667D01*
X398677Y334752D01*
X399041Y334995D01*
X399284Y335359D01*
X399369Y335788D01*
X399284Y336217D01*
X399041Y336581D01*
X398677Y336824D01*
X398247Y336910D01*
D02*
G37*
G36*
X401271Y336865D02*
X400842Y336780D01*
X400478Y336537D01*
X400235Y336173D01*
X400149Y335744D01*
X400235Y335315D01*
X400478Y334951D01*
X400842Y334708D01*
X401271Y334622D01*
X401700Y334708D01*
X402064Y334951D01*
X402307Y335315D01*
X402392Y335744D01*
X402307Y336173D01*
X402064Y336537D01*
X401700Y336780D01*
X401271Y336865D01*
D02*
G37*
G36*
X531923Y336247D02*
X531494Y336161D01*
X531130Y335918D01*
X530887Y335554D01*
X530801Y335125D01*
X530887Y334696D01*
X531130Y334332D01*
X531494Y334089D01*
X531923Y334004D01*
X532352Y334089D01*
X532716Y334332D01*
X532959Y334696D01*
X533044Y335125D01*
X532959Y335554D01*
X532716Y335918D01*
X532352Y336161D01*
X531923Y336247D01*
D02*
G37*
G36*
X517699Y335708D02*
X517270Y335623D01*
X516906Y335380D01*
X516663Y335016D01*
X516577Y334587D01*
X516663Y334157D01*
X516906Y333793D01*
X517270Y333550D01*
X517699Y333465D01*
X518128Y333550D01*
X518492Y333793D01*
X518735Y334157D01*
X518820Y334587D01*
X518735Y335016D01*
X518492Y335380D01*
X518128Y335623D01*
X517699Y335708D01*
D02*
G37*
G36*
X405503Y334516D02*
X405074Y334431D01*
X404710Y334188D01*
X404467Y333824D01*
X404381Y333395D01*
X404467Y332966D01*
X404710Y332602D01*
X405074Y332359D01*
X405503Y332273D01*
X405932Y332359D01*
X406296Y332602D01*
X406539Y332966D01*
X406624Y333395D01*
X406539Y333824D01*
X406296Y334188D01*
X405932Y334431D01*
X405503Y334516D01*
D02*
G37*
G36*
X341678Y333988D02*
X341248Y333903D01*
X340885Y333660D01*
X340641Y333296D01*
X340556Y332866D01*
X340641Y332437D01*
X340885Y332073D01*
X341248Y331830D01*
X341678Y331745D01*
X342107Y331830D01*
X342471Y332073D01*
X342714Y332437D01*
X342799Y332866D01*
X342714Y333296D01*
X342471Y333660D01*
X342107Y333903D01*
X341678Y333988D01*
D02*
G37*
G36*
X335008Y333932D02*
X334578Y333847D01*
X334214Y333604D01*
X333971Y333240D01*
X333886Y332811D01*
X333971Y332382D01*
X334214Y332018D01*
X334578Y331775D01*
X335008Y331689D01*
X335437Y331775D01*
X335801Y332018D01*
X336044Y332382D01*
X336129Y332811D01*
X336044Y333240D01*
X335801Y333604D01*
X335437Y333847D01*
X335008Y333932D01*
D02*
G37*
G36*
X398025Y333682D02*
X397596Y333597D01*
X397232Y333354D01*
X396989Y332990D01*
X396903Y332561D01*
X396989Y332132D01*
X397232Y331768D01*
X397596Y331525D01*
X398025Y331439D01*
X398454Y331525D01*
X398818Y331768D01*
X399061Y332132D01*
X399146Y332561D01*
X399061Y332990D01*
X398818Y333354D01*
X398454Y333597D01*
X398025Y333682D01*
D02*
G37*
G36*
X356029Y333021D02*
X355600Y332936D01*
X355236Y332693D01*
X354993Y332329D01*
X354907Y331900D01*
X354993Y331470D01*
X355236Y331107D01*
X355600Y330863D01*
X356029Y330778D01*
X356458Y330863D01*
X356822Y331107D01*
X357065Y331470D01*
X357151Y331900D01*
X357065Y332329D01*
X356822Y332693D01*
X356458Y332936D01*
X356029Y333021D01*
D02*
G37*
G36*
X384865Y332763D02*
X384436Y332678D01*
X384072Y332435D01*
X383829Y332071D01*
X383744Y331642D01*
X383829Y331212D01*
X384072Y330849D01*
X384436Y330606D01*
X384865Y330520D01*
X385295Y330606D01*
X385659Y330849D01*
X385902Y331212D01*
X385987Y331642D01*
X385902Y332071D01*
X385659Y332435D01*
X385295Y332678D01*
X384865Y332763D01*
D02*
G37*
G36*
X381792Y332711D02*
X381363Y332625D01*
X380999Y332382D01*
X380756Y332018D01*
X380671Y331589D01*
X380756Y331160D01*
X380999Y330796D01*
X381363Y330553D01*
X381792Y330468D01*
X382222Y330553D01*
X382585Y330796D01*
X382828Y331160D01*
X382914Y331589D01*
X382828Y332018D01*
X382585Y332382D01*
X382222Y332625D01*
X381792Y332711D01*
D02*
G37*
G36*
X337953Y330375D02*
X337524Y330290D01*
X337160Y330047D01*
X336917Y329683D01*
X336832Y329253D01*
X336917Y328824D01*
X337160Y328460D01*
X337524Y328217D01*
X337953Y328132D01*
X338383Y328217D01*
X338747Y328460D01*
X338990Y328824D01*
X339075Y329253D01*
X338990Y329683D01*
X338747Y330047D01*
X338383Y330290D01*
X337953Y330375D01*
D02*
G37*
G36*
X326169Y330264D02*
X325740Y330178D01*
X325376Y329935D01*
X325133Y329572D01*
X325048Y329142D01*
X325133Y328713D01*
X325376Y328349D01*
X325740Y328106D01*
X326169Y328021D01*
X326599Y328106D01*
X326962Y328349D01*
X327206Y328713D01*
X327291Y329142D01*
X327206Y329572D01*
X326962Y329935D01*
X326599Y330178D01*
X326169Y330264D01*
D02*
G37*
G36*
X331172Y330208D02*
X330743Y330123D01*
X330379Y329880D01*
X330136Y329516D01*
X330051Y329087D01*
X330136Y328658D01*
X330379Y328294D01*
X330743Y328050D01*
X331172Y327965D01*
X331601Y328050D01*
X331965Y328294D01*
X332208Y328658D01*
X332294Y329087D01*
X332208Y329516D01*
X331965Y329880D01*
X331601Y330123D01*
X331172Y330208D01*
D02*
G37*
G36*
X356225Y329722D02*
X355796Y329636D01*
X355432Y329393D01*
X355189Y329029D01*
X355103Y328600D01*
X355189Y328171D01*
X355432Y327807D01*
X355796Y327564D01*
X356225Y327479D01*
X356654Y327564D01*
X357018Y327807D01*
X357261Y328171D01*
X357347Y328600D01*
X357261Y329029D01*
X357018Y329393D01*
X356654Y329636D01*
X356225Y329722D01*
D02*
G37*
G36*
X348875Y329134D02*
X348446Y329048D01*
X348082Y328805D01*
X347839Y328441D01*
X347753Y328012D01*
X347839Y327583D01*
X348082Y327219D01*
X348446Y326976D01*
X348875Y326891D01*
X349304Y326976D01*
X349668Y327219D01*
X349911Y327583D01*
X349996Y328012D01*
X349911Y328441D01*
X349668Y328805D01*
X349304Y329048D01*
X348875Y329134D01*
D02*
G37*
G36*
X352534Y329101D02*
X352104Y329016D01*
X351741Y328773D01*
X351497Y328409D01*
X351412Y327979D01*
X351497Y327550D01*
X351741Y327186D01*
X352104Y326943D01*
X352534Y326858D01*
X352963Y326943D01*
X353327Y327186D01*
X353570Y327550D01*
X353655Y327979D01*
X353570Y328409D01*
X353327Y328773D01*
X352963Y329016D01*
X352534Y329101D01*
D02*
G37*
G36*
X398856Y329038D02*
X398427Y328952D01*
X398063Y328709D01*
X397820Y328345D01*
X397734Y327916D01*
X397820Y327487D01*
X398063Y327123D01*
X398427Y326880D01*
X398856Y326795D01*
X399285Y326880D01*
X399649Y327123D01*
X399892Y327487D01*
X399977Y327916D01*
X399892Y328345D01*
X399649Y328709D01*
X399285Y328952D01*
X398856Y329038D01*
D02*
G37*
G36*
X390066Y328955D02*
X389637Y328869D01*
X389273Y328626D01*
X389030Y328262D01*
X388945Y327833D01*
X389030Y327404D01*
X389273Y327040D01*
X389637Y326797D01*
X390066Y326712D01*
X390495Y326797D01*
X390859Y327040D01*
X391102Y327404D01*
X391188Y327833D01*
X391102Y328262D01*
X390859Y328626D01*
X390495Y328869D01*
X390066Y328955D01*
D02*
G37*
G36*
X381897D02*
X381468Y328869D01*
X381104Y328626D01*
X380861Y328262D01*
X380776Y327833D01*
X380861Y327404D01*
X381104Y327040D01*
X381468Y326797D01*
X381897Y326712D01*
X382327Y326797D01*
X382690Y327040D01*
X382933Y327404D01*
X383019Y327833D01*
X382933Y328262D01*
X382690Y328626D01*
X382327Y328869D01*
X381897Y328955D01*
D02*
G37*
G36*
X385995Y328823D02*
X385566Y328738D01*
X385202Y328495D01*
X384959Y328131D01*
X384873Y327702D01*
X384959Y327273D01*
X385202Y326909D01*
X385566Y326666D01*
X385995Y326580D01*
X386424Y326666D01*
X386788Y326909D01*
X387031Y327273D01*
X387116Y327702D01*
X387031Y328131D01*
X386788Y328495D01*
X386424Y328738D01*
X385995Y328823D01*
D02*
G37*
G36*
X331117Y326373D02*
X330687Y326288D01*
X330324Y326044D01*
X330080Y325680D01*
X329995Y325251D01*
X330080Y324822D01*
X330324Y324458D01*
X330687Y324215D01*
X331117Y324130D01*
X331546Y324215D01*
X331910Y324458D01*
X332153Y324822D01*
X332238Y325251D01*
X332153Y325680D01*
X331910Y326044D01*
X331546Y326288D01*
X331117Y326373D01*
D02*
G37*
G36*
X337953Y326317D02*
X337524Y326232D01*
X337160Y325989D01*
X336917Y325625D01*
X336832Y325196D01*
X336917Y324766D01*
X337160Y324403D01*
X337524Y324160D01*
X337953Y324074D01*
X338383Y324160D01*
X338747Y324403D01*
X338990Y324766D01*
X339075Y325196D01*
X338990Y325625D01*
X338747Y325989D01*
X338383Y326232D01*
X337953Y326317D01*
D02*
G37*
G36*
X326114Y326206D02*
X325685Y326121D01*
X325321Y325878D01*
X325078Y325514D01*
X324992Y325085D01*
X325078Y324655D01*
X325321Y324291D01*
X325685Y324048D01*
X326114Y323963D01*
X326543Y324048D01*
X326907Y324291D01*
X327150Y324655D01*
X327235Y325085D01*
X327150Y325514D01*
X326907Y325878D01*
X326543Y326121D01*
X326114Y326206D01*
D02*
G37*
G36*
X356356Y325769D02*
X355927Y325684D01*
X355563Y325441D01*
X355320Y325077D01*
X355234Y324647D01*
X355320Y324218D01*
X355563Y323854D01*
X355927Y323611D01*
X356356Y323526D01*
X356785Y323611D01*
X357149Y323854D01*
X357392Y324218D01*
X357477Y324647D01*
X357392Y325077D01*
X357149Y325441D01*
X356785Y325684D01*
X356356Y325769D01*
D02*
G37*
G36*
X352468Y325638D02*
X352039Y325553D01*
X351675Y325310D01*
X351432Y324946D01*
X351347Y324517D01*
X351432Y324088D01*
X351675Y323724D01*
X352039Y323481D01*
X352468Y323395D01*
X352898Y323481D01*
X353261Y323724D01*
X353504Y324088D01*
X353590Y324517D01*
X353504Y324946D01*
X353261Y325310D01*
X352898Y325553D01*
X352468Y325638D01*
D02*
G37*
G36*
X529322Y323063D02*
X528892Y322977D01*
X528528Y322734D01*
X528285Y322371D01*
X528200Y321941D01*
X528285Y321512D01*
X528528Y321148D01*
X528892Y320905D01*
X529322Y320820D01*
X529751Y320905D01*
X530115Y321148D01*
X530358Y321512D01*
X530443Y321941D01*
X530358Y322371D01*
X530115Y322734D01*
X529751Y322977D01*
X529322Y323063D01*
D02*
G37*
G36*
X370727Y321929D02*
X370298Y321844D01*
X369934Y321601D01*
X369691Y321237D01*
X369606Y320808D01*
X369691Y320378D01*
X369934Y320015D01*
X370298Y319772D01*
X370727Y319686D01*
X371156Y319772D01*
X371520Y320015D01*
X371763Y320378D01*
X371849Y320808D01*
X371763Y321237D01*
X371520Y321601D01*
X371156Y321844D01*
X370727Y321929D01*
D02*
G37*
G36*
X437019Y319870D02*
X436589Y319784D01*
X436226Y319541D01*
X435982Y319178D01*
X435897Y318748D01*
X435982Y318319D01*
X436226Y317955D01*
X436589Y317712D01*
X437019Y317627D01*
X437448Y317712D01*
X437812Y317955D01*
X438055Y318319D01*
X438140Y318748D01*
X438055Y319178D01*
X437812Y319541D01*
X437448Y319784D01*
X437019Y319870D01*
D02*
G37*
G36*
X387868Y319053D02*
X387438Y318968D01*
X387075Y318724D01*
X386831Y318360D01*
X386746Y317931D01*
X386831Y317502D01*
X387075Y317138D01*
X387438Y316895D01*
X387868Y316810D01*
X388297Y316895D01*
X388661Y317138D01*
X388904Y317502D01*
X388989Y317931D01*
X388904Y318360D01*
X388661Y318724D01*
X388297Y318968D01*
X387868Y319053D01*
D02*
G37*
G36*
X503246Y315753D02*
X502817Y315667D01*
X502453Y315424D01*
X502210Y315060D01*
X502124Y314631D01*
X502210Y314202D01*
X502453Y313838D01*
X502817Y313595D01*
X503246Y313509D01*
X503675Y313595D01*
X504039Y313838D01*
X504282Y314202D01*
X504367Y314631D01*
X504282Y315060D01*
X504039Y315424D01*
X503675Y315667D01*
X503246Y315753D01*
D02*
G37*
G36*
X398742Y315325D02*
X398313Y315240D01*
X397949Y314997D01*
X397706Y314633D01*
X397620Y314204D01*
X397706Y313774D01*
X397949Y313410D01*
X398313Y313167D01*
X398742Y313082D01*
X399171Y313167D01*
X399535Y313410D01*
X399778Y313774D01*
X399863Y314204D01*
X399778Y314633D01*
X399535Y314997D01*
X399171Y315240D01*
X398742Y315325D01*
D02*
G37*
G36*
X375855Y312088D02*
X375426Y312002D01*
X375062Y311759D01*
X374819Y311395D01*
X374734Y310966D01*
X374819Y310537D01*
X375062Y310173D01*
X375426Y309930D01*
X375855Y309845D01*
X376285Y309930D01*
X376648Y310173D01*
X376892Y310537D01*
X376977Y310966D01*
X376892Y311395D01*
X376648Y311759D01*
X376285Y312002D01*
X375855Y312088D01*
D02*
G37*
G36*
X507935Y311890D02*
X507506Y311804D01*
X507142Y311561D01*
X506899Y311197D01*
X506813Y310768D01*
X506899Y310339D01*
X507142Y309975D01*
X507506Y309732D01*
X507935Y309647D01*
X508364Y309732D01*
X508728Y309975D01*
X508971Y310339D01*
X509057Y310768D01*
X508971Y311197D01*
X508728Y311561D01*
X508364Y311804D01*
X507935Y311890D01*
D02*
G37*
G36*
X335072Y311788D02*
X334643Y311703D01*
X334279Y311459D01*
X334036Y311096D01*
X333950Y310666D01*
X334036Y310237D01*
X334279Y309873D01*
X334643Y309630D01*
X335072Y309545D01*
X335501Y309630D01*
X335865Y309873D01*
X336108Y310237D01*
X336193Y310666D01*
X336108Y311096D01*
X335865Y311459D01*
X335501Y311703D01*
X335072Y311788D01*
D02*
G37*
G36*
X425659Y309255D02*
X425230Y309169D01*
X424866Y308926D01*
X424623Y308562D01*
X424538Y308133D01*
X424623Y307704D01*
X424866Y307340D01*
X425230Y307097D01*
X425659Y307012D01*
X426088Y307097D01*
X426452Y307340D01*
X426695Y307704D01*
X426781Y308133D01*
X426695Y308562D01*
X426452Y308926D01*
X426088Y309169D01*
X425659Y309255D01*
D02*
G37*
G36*
X346179Y303991D02*
X345749Y303906D01*
X345386Y303663D01*
X345143Y303299D01*
X345057Y302870D01*
X345143Y302441D01*
X345386Y302077D01*
X345749Y301834D01*
X346179Y301748D01*
X346608Y301834D01*
X346972Y302077D01*
X347215Y302441D01*
X347300Y302870D01*
X347215Y303299D01*
X346972Y303663D01*
X346608Y303906D01*
X346179Y303991D01*
D02*
G37*
G36*
X522347Y302953D02*
X521918Y302868D01*
X521554Y302625D01*
X521311Y302261D01*
X521226Y301832D01*
X521311Y301402D01*
X521554Y301039D01*
X521918Y300796D01*
X522347Y300710D01*
X522776Y300796D01*
X523140Y301039D01*
X523383Y301402D01*
X523469Y301832D01*
X523383Y302261D01*
X523140Y302625D01*
X522776Y302868D01*
X522347Y302953D01*
D02*
G37*
G36*
X414372Y301192D02*
X413942Y301107D01*
X413579Y300864D01*
X413336Y300500D01*
X413250Y300071D01*
X413336Y299641D01*
X413579Y299278D01*
X413942Y299035D01*
X414372Y298949D01*
X414801Y299035D01*
X415165Y299278D01*
X415408Y299641D01*
X415493Y300071D01*
X415408Y300500D01*
X415165Y300864D01*
X414801Y301107D01*
X414372Y301192D01*
D02*
G37*
G36*
X408073D02*
X407643Y301107D01*
X407279Y300864D01*
X407036Y300500D01*
X406951Y300071D01*
X407036Y299641D01*
X407279Y299278D01*
X407643Y299035D01*
X408073Y298949D01*
X408502Y299035D01*
X408866Y299278D01*
X409109Y299641D01*
X409194Y300071D01*
X409109Y300500D01*
X408866Y300864D01*
X408502Y301107D01*
X408073Y301192D01*
D02*
G37*
G36*
X398624D02*
X398195Y301107D01*
X397831Y300864D01*
X397587Y300500D01*
X397502Y300071D01*
X397587Y299641D01*
X397831Y299278D01*
X398195Y299035D01*
X398624Y298949D01*
X399053Y299035D01*
X399417Y299278D01*
X399660Y299641D01*
X399745Y300071D01*
X399660Y300500D01*
X399417Y300864D01*
X399053Y301107D01*
X398624Y301192D01*
D02*
G37*
G36*
X414378Y298056D02*
X413949Y297971D01*
X413585Y297728D01*
X413342Y297364D01*
X413257Y296935D01*
X413342Y296506D01*
X413585Y296142D01*
X413949Y295899D01*
X414378Y295813D01*
X414808Y295899D01*
X415171Y296142D01*
X415415Y296506D01*
X415500Y296935D01*
X415415Y297364D01*
X415171Y297728D01*
X414808Y297971D01*
X414378Y298056D01*
D02*
G37*
G36*
X401773Y298043D02*
X401344Y297957D01*
X400980Y297714D01*
X400737Y297350D01*
X400652Y296921D01*
X400737Y296492D01*
X400980Y296128D01*
X401344Y295885D01*
X401773Y295799D01*
X402203Y295885D01*
X402566Y296128D01*
X402809Y296492D01*
X402895Y296921D01*
X402809Y297350D01*
X402566Y297714D01*
X402203Y297957D01*
X401773Y298043D01*
D02*
G37*
G36*
X398624D02*
X398195Y297957D01*
X397831Y297714D01*
X397587Y297350D01*
X397502Y296921D01*
X397587Y296492D01*
X397831Y296128D01*
X398195Y295885D01*
X398624Y295799D01*
X399053Y295885D01*
X399417Y296128D01*
X399660Y296492D01*
X399745Y296921D01*
X399660Y297350D01*
X399417Y297714D01*
X399053Y297957D01*
X398624Y298043D01*
D02*
G37*
G36*
X404889Y294935D02*
X404460Y294849D01*
X404096Y294606D01*
X403853Y294242D01*
X403768Y293813D01*
X403853Y293384D01*
X404096Y293020D01*
X404460Y292777D01*
X404889Y292692D01*
X405319Y292777D01*
X405683Y293020D01*
X405926Y293384D01*
X406011Y293813D01*
X405926Y294242D01*
X405683Y294606D01*
X405319Y294849D01*
X404889Y294935D01*
D02*
G37*
G36*
X426970Y294893D02*
X426541Y294808D01*
X426177Y294565D01*
X425934Y294201D01*
X425849Y293772D01*
X425934Y293342D01*
X426177Y292978D01*
X426541Y292735D01*
X426970Y292650D01*
X427399Y292735D01*
X427763Y292978D01*
X428006Y293342D01*
X428092Y293772D01*
X428006Y294201D01*
X427763Y294565D01*
X427399Y294808D01*
X426970Y294893D01*
D02*
G37*
G36*
X420671Y294893D02*
X420242Y294808D01*
X419878Y294565D01*
X419635Y294201D01*
X419549Y293772D01*
X419635Y293342D01*
X419878Y292978D01*
X420242Y292735D01*
X420671Y292650D01*
X421100Y292735D01*
X421464Y292978D01*
X421707Y293342D01*
X421793Y293772D01*
X421707Y294201D01*
X421464Y294565D01*
X421100Y294808D01*
X420671Y294893D01*
D02*
G37*
G36*
X411222D02*
X410793Y294808D01*
X410429Y294565D01*
X410186Y294201D01*
X410101Y293772D01*
X410186Y293342D01*
X410429Y292978D01*
X410793Y292735D01*
X411222Y292650D01*
X411651Y292735D01*
X412015Y292978D01*
X412258Y293342D01*
X412344Y293772D01*
X412258Y294201D01*
X412015Y294565D01*
X411651Y294808D01*
X411222Y294893D01*
D02*
G37*
G36*
X408073D02*
X407643Y294808D01*
X407279Y294565D01*
X407036Y294201D01*
X406951Y293772D01*
X407036Y293342D01*
X407279Y292978D01*
X407643Y292735D01*
X408073Y292650D01*
X408502Y292735D01*
X408866Y292978D01*
X409109Y293342D01*
X409194Y293772D01*
X409109Y294201D01*
X408866Y294565D01*
X408502Y294808D01*
X408073Y294893D01*
D02*
G37*
G36*
X398624D02*
X398195Y294808D01*
X397831Y294565D01*
X397587Y294201D01*
X397502Y293772D01*
X397587Y293342D01*
X397831Y292978D01*
X398195Y292735D01*
X398624Y292650D01*
X399053Y292735D01*
X399417Y292978D01*
X399660Y293342D01*
X399745Y293772D01*
X399660Y294201D01*
X399417Y294565D01*
X399053Y294808D01*
X398624Y294893D01*
D02*
G37*
G36*
X417534Y294888D02*
X417105Y294802D01*
X416742Y294559D01*
X416498Y294195D01*
X416413Y293766D01*
X416498Y293337D01*
X416742Y292973D01*
X417105Y292730D01*
X417534Y292645D01*
X417964Y292730D01*
X418328Y292973D01*
X418571Y293337D01*
X418656Y293766D01*
X418571Y294195D01*
X418328Y294559D01*
X417964Y294802D01*
X417534Y294888D01*
D02*
G37*
G36*
X356107Y292909D02*
X355678Y292823D01*
X355314Y292580D01*
X355071Y292216D01*
X354985Y291787D01*
X355071Y291358D01*
X355314Y290994D01*
X355678Y290751D01*
X356107Y290666D01*
X356536Y290751D01*
X356900Y290994D01*
X357143Y291358D01*
X357228Y291787D01*
X357143Y292216D01*
X356900Y292580D01*
X356536Y292823D01*
X356107Y292909D01*
D02*
G37*
G36*
X417521Y291743D02*
X417092Y291658D01*
X416728Y291415D01*
X416485Y291051D01*
X416400Y290622D01*
X416485Y290193D01*
X416728Y289829D01*
X417092Y289586D01*
X417521Y289500D01*
X417950Y289586D01*
X418314Y289829D01*
X418558Y290193D01*
X418643Y290622D01*
X418558Y291051D01*
X418314Y291415D01*
X417950Y291658D01*
X417521Y291743D01*
D02*
G37*
G36*
X411222D02*
X410793Y291658D01*
X410429Y291415D01*
X410186Y291051D01*
X410101Y290622D01*
X410186Y290193D01*
X410429Y289829D01*
X410793Y289586D01*
X411222Y289500D01*
X411651Y289586D01*
X412015Y289829D01*
X412258Y290193D01*
X412344Y290622D01*
X412258Y291051D01*
X412015Y291415D01*
X411651Y291658D01*
X411222Y291743D01*
D02*
G37*
G36*
X395474D02*
X395045Y291658D01*
X394681Y291415D01*
X394438Y291051D01*
X394353Y290622D01*
X394438Y290193D01*
X394681Y289829D01*
X395045Y289586D01*
X395474Y289500D01*
X395903Y289586D01*
X396267Y289829D01*
X396510Y290193D01*
X396596Y290622D01*
X396510Y291051D01*
X396267Y291415D01*
X395903Y291658D01*
X395474Y291743D01*
D02*
G37*
G36*
X459468Y289213D02*
X459039Y289128D01*
X458675Y288885D01*
X458432Y288521D01*
X458346Y288091D01*
X458432Y287662D01*
X458675Y287298D01*
X459039Y287055D01*
X459468Y286970D01*
X459897Y287055D01*
X460261Y287298D01*
X460504Y287662D01*
X460589Y288091D01*
X460504Y288521D01*
X460261Y288885D01*
X459897Y289128D01*
X459468Y289213D01*
D02*
G37*
G36*
X404923Y288594D02*
X404494Y288508D01*
X404130Y288265D01*
X403887Y287901D01*
X403801Y287472D01*
X403887Y287043D01*
X404130Y286679D01*
X404494Y286436D01*
X404923Y286351D01*
X405352Y286436D01*
X405716Y286679D01*
X405959Y287043D01*
X406044Y287472D01*
X405959Y287901D01*
X405716Y288265D01*
X405352Y288508D01*
X404923Y288594D01*
D02*
G37*
G36*
X414372Y288594D02*
X413942Y288508D01*
X413579Y288265D01*
X413336Y287901D01*
X413250Y287472D01*
X413336Y287043D01*
X413579Y286679D01*
X413942Y286436D01*
X414372Y286351D01*
X414801Y286436D01*
X415165Y286679D01*
X415408Y287043D01*
X415493Y287472D01*
X415408Y287901D01*
X415165Y288265D01*
X414801Y288508D01*
X414372Y288594D01*
D02*
G37*
G36*
X408073D02*
X407643Y288508D01*
X407279Y288265D01*
X407036Y287901D01*
X406951Y287472D01*
X407036Y287043D01*
X407279Y286679D01*
X407643Y286436D01*
X408073Y286351D01*
X408502Y286436D01*
X408866Y286679D01*
X409109Y287043D01*
X409194Y287472D01*
X409109Y287901D01*
X408866Y288265D01*
X408502Y288508D01*
X408073Y288594D01*
D02*
G37*
G36*
X398624D02*
X398195Y288508D01*
X397831Y288265D01*
X397587Y287901D01*
X397502Y287472D01*
X397587Y287043D01*
X397831Y286679D01*
X398195Y286436D01*
X398624Y286351D01*
X399053Y286436D01*
X399417Y286679D01*
X399660Y287043D01*
X399745Y287472D01*
X399660Y287901D01*
X399417Y288265D01*
X399053Y288508D01*
X398624Y288594D01*
D02*
G37*
G36*
X434830Y287020D02*
X434401Y286935D01*
X434037Y286692D01*
X433794Y286328D01*
X433708Y285899D01*
X433794Y285470D01*
X434037Y285106D01*
X434401Y284862D01*
X434830Y284777D01*
X435259Y284862D01*
X435623Y285106D01*
X435866Y285470D01*
X435951Y285899D01*
X435866Y286328D01*
X435623Y286692D01*
X435259Y286935D01*
X434830Y287020D01*
D02*
G37*
G36*
X423820Y285444D02*
X423391Y285359D01*
X423028Y285116D01*
X422784Y284752D01*
X422699Y284323D01*
X422784Y283893D01*
X423028Y283530D01*
X423391Y283286D01*
X423820Y283201D01*
X424250Y283286D01*
X424614Y283530D01*
X424857Y283893D01*
X424942Y284323D01*
X424857Y284752D01*
X424614Y285116D01*
X424250Y285359D01*
X423820Y285444D01*
D02*
G37*
G36*
X417521D02*
X417092Y285359D01*
X416728Y285116D01*
X416485Y284752D01*
X416400Y284323D01*
X416485Y283893D01*
X416728Y283530D01*
X417092Y283286D01*
X417521Y283201D01*
X417950Y283286D01*
X418314Y283530D01*
X418558Y283893D01*
X418643Y284323D01*
X418558Y284752D01*
X418314Y285116D01*
X417950Y285359D01*
X417521Y285444D01*
D02*
G37*
G36*
X411222D02*
X410793Y285359D01*
X410429Y285116D01*
X410186Y284752D01*
X410101Y284323D01*
X410186Y283893D01*
X410429Y283530D01*
X410793Y283286D01*
X411222Y283201D01*
X411651Y283286D01*
X412015Y283530D01*
X412258Y283893D01*
X412344Y284323D01*
X412258Y284752D01*
X412015Y285116D01*
X411651Y285359D01*
X411222Y285444D01*
D02*
G37*
G36*
X401773D02*
X401344Y285359D01*
X400980Y285116D01*
X400737Y284752D01*
X400652Y284323D01*
X400737Y283893D01*
X400980Y283530D01*
X401344Y283286D01*
X401773Y283201D01*
X402203Y283286D01*
X402566Y283530D01*
X402809Y283893D01*
X402895Y284323D01*
X402809Y284752D01*
X402566Y285116D01*
X402203Y285359D01*
X401773Y285444D01*
D02*
G37*
G36*
X395474D02*
X395045Y285359D01*
X394681Y285116D01*
X394438Y284752D01*
X394353Y284323D01*
X394438Y283893D01*
X394681Y283530D01*
X395045Y283286D01*
X395474Y283201D01*
X395903Y283286D01*
X396267Y283530D01*
X396510Y283893D01*
X396596Y284323D01*
X396510Y284752D01*
X396267Y285116D01*
X395903Y285359D01*
X395474Y285444D01*
D02*
G37*
G36*
X497210Y284742D02*
X496781Y284656D01*
X496417Y284413D01*
X496174Y284049D01*
X496089Y283620D01*
X496174Y283191D01*
X496417Y282827D01*
X496781Y282584D01*
X497210Y282499D01*
X497639Y282584D01*
X498003Y282827D01*
X498246Y283191D01*
X498332Y283620D01*
X498246Y284049D01*
X498003Y284413D01*
X497639Y284656D01*
X497210Y284742D01*
D02*
G37*
G36*
X511560Y283967D02*
X511131Y283882D01*
X510767Y283639D01*
X510524Y283275D01*
X510438Y282846D01*
X510524Y282417D01*
X510767Y282053D01*
X511131Y281810D01*
X511560Y281724D01*
X511989Y281810D01*
X512353Y282053D01*
X512596Y282417D01*
X512681Y282846D01*
X512596Y283275D01*
X512353Y283639D01*
X511989Y283882D01*
X511560Y283967D01*
D02*
G37*
G36*
X423820Y282295D02*
X423391Y282209D01*
X423028Y281966D01*
X422784Y281602D01*
X422699Y281173D01*
X422784Y280744D01*
X423028Y280380D01*
X423391Y280137D01*
X423820Y280051D01*
X424250Y280137D01*
X424614Y280380D01*
X424857Y280744D01*
X424942Y281173D01*
X424857Y281602D01*
X424614Y281966D01*
X424250Y282209D01*
X423820Y282295D01*
D02*
G37*
G36*
X420671D02*
X420242Y282209D01*
X419878Y281966D01*
X419635Y281602D01*
X419549Y281173D01*
X419635Y280744D01*
X419878Y280380D01*
X420242Y280137D01*
X420671Y280051D01*
X421100Y280137D01*
X421464Y280380D01*
X421707Y280744D01*
X421793Y281173D01*
X421707Y281602D01*
X421464Y281966D01*
X421100Y282209D01*
X420671Y282295D01*
D02*
G37*
G36*
X414372D02*
X413942Y282209D01*
X413579Y281966D01*
X413336Y281602D01*
X413250Y281173D01*
X413336Y280744D01*
X413579Y280380D01*
X413942Y280137D01*
X414372Y280051D01*
X414801Y280137D01*
X415165Y280380D01*
X415408Y280744D01*
X415493Y281173D01*
X415408Y281602D01*
X415165Y281966D01*
X414801Y282209D01*
X414372Y282295D01*
D02*
G37*
G36*
X408073D02*
X407643Y282209D01*
X407279Y281966D01*
X407036Y281602D01*
X406951Y281173D01*
X407036Y280744D01*
X407279Y280380D01*
X407643Y280137D01*
X408073Y280051D01*
X408502Y280137D01*
X408866Y280380D01*
X409109Y280744D01*
X409194Y281173D01*
X409109Y281602D01*
X408866Y281966D01*
X408502Y282209D01*
X408073Y282295D01*
D02*
G37*
G36*
X401773D02*
X401344Y282209D01*
X400980Y281966D01*
X400737Y281602D01*
X400652Y281173D01*
X400737Y280744D01*
X400980Y280380D01*
X401344Y280137D01*
X401773Y280051D01*
X402203Y280137D01*
X402566Y280380D01*
X402809Y280744D01*
X402895Y281173D01*
X402809Y281602D01*
X402566Y281966D01*
X402203Y282209D01*
X401773Y282295D01*
D02*
G37*
G36*
X398624D02*
X398195Y282209D01*
X397831Y281966D01*
X397587Y281602D01*
X397502Y281173D01*
X397587Y280744D01*
X397831Y280380D01*
X398195Y280137D01*
X398624Y280051D01*
X399053Y280137D01*
X399417Y280380D01*
X399660Y280744D01*
X399745Y281173D01*
X399660Y281602D01*
X399417Y281966D01*
X399053Y282209D01*
X398624Y282295D01*
D02*
G37*
G36*
X282569Y279813D02*
X282140Y279727D01*
X281776Y279484D01*
X281533Y279120D01*
X281448Y278691D01*
X281533Y278262D01*
X281776Y277898D01*
X282140Y277655D01*
X282569Y277570D01*
X282998Y277655D01*
X283362Y277898D01*
X283605Y278262D01*
X283691Y278691D01*
X283605Y279120D01*
X283362Y279484D01*
X282998Y279727D01*
X282569Y279813D01*
D02*
G37*
G36*
X408073Y279145D02*
X407643Y279060D01*
X407279Y278817D01*
X407036Y278453D01*
X406951Y278023D01*
X407036Y277594D01*
X407279Y277230D01*
X407643Y276987D01*
X408073Y276902D01*
X408502Y276987D01*
X408866Y277230D01*
X409109Y277594D01*
X409194Y278023D01*
X409109Y278453D01*
X408866Y278817D01*
X408502Y279060D01*
X408073Y279145D01*
D02*
G37*
G36*
X423820Y275995D02*
X423391Y275910D01*
X423028Y275667D01*
X422784Y275303D01*
X422699Y274874D01*
X422784Y274445D01*
X423028Y274081D01*
X423391Y273838D01*
X423820Y273752D01*
X424250Y273838D01*
X424614Y274081D01*
X424857Y274445D01*
X424942Y274874D01*
X424857Y275303D01*
X424614Y275667D01*
X424250Y275910D01*
X423820Y275995D01*
D02*
G37*
G36*
X417521D02*
X417092Y275910D01*
X416728Y275667D01*
X416485Y275303D01*
X416400Y274874D01*
X416485Y274445D01*
X416728Y274081D01*
X417092Y273838D01*
X417521Y273752D01*
X417950Y273838D01*
X418314Y274081D01*
X418558Y274445D01*
X418643Y274874D01*
X418558Y275303D01*
X418314Y275667D01*
X417950Y275910D01*
X417521Y275995D01*
D02*
G37*
G36*
X411222D02*
X410793Y275910D01*
X410429Y275667D01*
X410186Y275303D01*
X410101Y274874D01*
X410186Y274445D01*
X410429Y274081D01*
X410793Y273838D01*
X411222Y273752D01*
X411651Y273838D01*
X412015Y274081D01*
X412258Y274445D01*
X412344Y274874D01*
X412258Y275303D01*
X412015Y275667D01*
X411651Y275910D01*
X411222Y275995D01*
D02*
G37*
G36*
X395474D02*
X395045Y275910D01*
X394681Y275667D01*
X394438Y275303D01*
X394353Y274874D01*
X394438Y274445D01*
X394681Y274081D01*
X395045Y273838D01*
X395474Y273752D01*
X395903Y273838D01*
X396267Y274081D01*
X396510Y274445D01*
X396596Y274874D01*
X396510Y275303D01*
X396267Y275667D01*
X395903Y275910D01*
X395474Y275995D01*
D02*
G37*
G36*
X426970Y272846D02*
X426541Y272760D01*
X426177Y272517D01*
X425934Y272153D01*
X425849Y271724D01*
X425934Y271295D01*
X426177Y270931D01*
X426541Y270688D01*
X426970Y270603D01*
X427399Y270688D01*
X427763Y270931D01*
X428006Y271295D01*
X428092Y271724D01*
X428006Y272153D01*
X427763Y272517D01*
X427399Y272760D01*
X426970Y272846D01*
D02*
G37*
G36*
X423820D02*
X423391Y272760D01*
X423028Y272517D01*
X422784Y272153D01*
X422699Y271724D01*
X422784Y271295D01*
X423028Y270931D01*
X423391Y270688D01*
X423820Y270603D01*
X424250Y270688D01*
X424614Y270931D01*
X424857Y271295D01*
X424942Y271724D01*
X424857Y272153D01*
X424614Y272517D01*
X424250Y272760D01*
X423820Y272846D01*
D02*
G37*
G36*
X420671D02*
X420242Y272760D01*
X419878Y272517D01*
X419635Y272153D01*
X419549Y271724D01*
X419635Y271295D01*
X419878Y270931D01*
X420242Y270688D01*
X420671Y270603D01*
X421100Y270688D01*
X421464Y270931D01*
X421707Y271295D01*
X421793Y271724D01*
X421707Y272153D01*
X421464Y272517D01*
X421100Y272760D01*
X420671Y272846D01*
D02*
G37*
G36*
X398624D02*
X398195Y272760D01*
X397831Y272517D01*
X397587Y272153D01*
X397502Y271724D01*
X397587Y271295D01*
X397831Y270931D01*
X398195Y270688D01*
X398624Y270603D01*
X399053Y270688D01*
X399417Y270931D01*
X399660Y271295D01*
X399745Y271724D01*
X399660Y272153D01*
X399417Y272517D01*
X399053Y272760D01*
X398624Y272846D01*
D02*
G37*
G36*
X414372Y272846D02*
X413942Y272760D01*
X413579Y272517D01*
X413336Y272153D01*
X413250Y271724D01*
X413336Y271295D01*
X413579Y270931D01*
X413942Y270688D01*
X414372Y270603D01*
X414801Y270688D01*
X415165Y270931D01*
X415408Y271295D01*
X415493Y271724D01*
X415408Y272153D01*
X415165Y272517D01*
X414801Y272760D01*
X414372Y272846D01*
D02*
G37*
G36*
X392268Y272761D02*
X391839Y272675D01*
X391475Y272432D01*
X391232Y272069D01*
X391146Y271639D01*
X391232Y271210D01*
X391475Y270846D01*
X391839Y270603D01*
X392268Y270518D01*
X392697Y270603D01*
X393061Y270846D01*
X393304Y271210D01*
X393389Y271639D01*
X393304Y272069D01*
X393061Y272432D01*
X392697Y272675D01*
X392268Y272761D01*
D02*
G37*
G36*
X444713Y271855D02*
X444284Y271769D01*
X443920Y271526D01*
X443677Y271162D01*
X443591Y270733D01*
X443677Y270304D01*
X443920Y269940D01*
X444284Y269697D01*
X444713Y269612D01*
X445142Y269697D01*
X445506Y269940D01*
X445749Y270304D01*
X445835Y270733D01*
X445749Y271162D01*
X445506Y271526D01*
X445142Y271769D01*
X444713Y271855D01*
D02*
G37*
G36*
X440714Y271378D02*
X440285Y271293D01*
X439921Y271050D01*
X439678Y270686D01*
X439593Y270257D01*
X439678Y269828D01*
X439921Y269464D01*
X440285Y269221D01*
X440714Y269135D01*
X441144Y269221D01*
X441507Y269464D01*
X441750Y269828D01*
X441836Y270257D01*
X441750Y270686D01*
X441507Y271050D01*
X441144Y271293D01*
X440714Y271378D01*
D02*
G37*
G36*
X426970Y269696D02*
X426541Y269611D01*
X426177Y269368D01*
X425934Y269004D01*
X425849Y268575D01*
X425934Y268145D01*
X426177Y267782D01*
X426541Y267538D01*
X426970Y267453D01*
X427399Y267538D01*
X427763Y267782D01*
X428006Y268145D01*
X428092Y268575D01*
X428006Y269004D01*
X427763Y269368D01*
X427399Y269611D01*
X426970Y269696D01*
D02*
G37*
G36*
X423820D02*
X423391Y269611D01*
X423028Y269368D01*
X422784Y269004D01*
X422699Y268575D01*
X422784Y268145D01*
X423028Y267782D01*
X423391Y267538D01*
X423820Y267453D01*
X424250Y267538D01*
X424614Y267782D01*
X424857Y268145D01*
X424942Y268575D01*
X424857Y269004D01*
X424614Y269368D01*
X424250Y269611D01*
X423820Y269696D01*
D02*
G37*
G36*
X420671D02*
X420242Y269611D01*
X419878Y269368D01*
X419635Y269004D01*
X419549Y268575D01*
X419635Y268145D01*
X419878Y267782D01*
X420242Y267538D01*
X420671Y267453D01*
X421100Y267538D01*
X421464Y267782D01*
X421707Y268145D01*
X421793Y268575D01*
X421707Y269004D01*
X421464Y269368D01*
X421100Y269611D01*
X420671Y269696D01*
D02*
G37*
G36*
X411222D02*
X410793Y269611D01*
X410429Y269368D01*
X410186Y269004D01*
X410101Y268575D01*
X410186Y268145D01*
X410429Y267782D01*
X410793Y267538D01*
X411222Y267453D01*
X411651Y267538D01*
X412015Y267782D01*
X412258Y268145D01*
X412344Y268575D01*
X412258Y269004D01*
X412015Y269368D01*
X411651Y269611D01*
X411222Y269696D01*
D02*
G37*
G36*
X395474D02*
X395045Y269611D01*
X394681Y269368D01*
X394438Y269004D01*
X394353Y268575D01*
X394438Y268145D01*
X394681Y267782D01*
X395045Y267538D01*
X395474Y267453D01*
X395903Y267538D01*
X396267Y267782D01*
X396510Y268145D01*
X396596Y268575D01*
X396510Y269004D01*
X396267Y269368D01*
X395903Y269611D01*
X395474Y269696D01*
D02*
G37*
G36*
X382876D02*
X382447Y269611D01*
X382083Y269368D01*
X381839Y269004D01*
X381754Y268575D01*
X381839Y268145D01*
X382083Y267782D01*
X382447Y267538D01*
X382876Y267453D01*
X383305Y267538D01*
X383669Y267782D01*
X383912Y268145D01*
X383997Y268575D01*
X383912Y269004D01*
X383669Y269368D01*
X383305Y269611D01*
X382876Y269696D01*
D02*
G37*
G36*
X514365Y267340D02*
X513935Y267255D01*
X513572Y267012D01*
X513329Y266648D01*
X513243Y266219D01*
X513329Y265790D01*
X513572Y265426D01*
X513935Y265183D01*
X514365Y265097D01*
X514794Y265183D01*
X515158Y265426D01*
X515401Y265790D01*
X515486Y266219D01*
X515401Y266648D01*
X515158Y267012D01*
X514794Y267255D01*
X514365Y267340D01*
D02*
G37*
G36*
X426970Y266547D02*
X426541Y266461D01*
X426177Y266218D01*
X425934Y265854D01*
X425849Y265425D01*
X425934Y264996D01*
X426177Y264632D01*
X426541Y264389D01*
X426970Y264303D01*
X427399Y264389D01*
X427763Y264632D01*
X428006Y264996D01*
X428092Y265425D01*
X428006Y265854D01*
X427763Y266218D01*
X427399Y266461D01*
X426970Y266547D01*
D02*
G37*
G36*
X420671D02*
X420242Y266461D01*
X419878Y266218D01*
X419635Y265854D01*
X419549Y265425D01*
X419635Y264996D01*
X419878Y264632D01*
X420242Y264389D01*
X420671Y264303D01*
X421100Y264389D01*
X421464Y264632D01*
X421707Y264996D01*
X421793Y265425D01*
X421707Y265854D01*
X421464Y266218D01*
X421100Y266461D01*
X420671Y266547D01*
D02*
G37*
G36*
X414372D02*
X413942Y266461D01*
X413579Y266218D01*
X413336Y265854D01*
X413250Y265425D01*
X413336Y264996D01*
X413579Y264632D01*
X413942Y264389D01*
X414372Y264303D01*
X414801Y264389D01*
X415165Y264632D01*
X415408Y264996D01*
X415493Y265425D01*
X415408Y265854D01*
X415165Y266218D01*
X414801Y266461D01*
X414372Y266547D01*
D02*
G37*
G36*
X408073D02*
X407643Y266461D01*
X407279Y266218D01*
X407036Y265854D01*
X406951Y265425D01*
X407036Y264996D01*
X407279Y264632D01*
X407643Y264389D01*
X408073Y264303D01*
X408502Y264389D01*
X408866Y264632D01*
X409109Y264996D01*
X409194Y265425D01*
X409109Y265854D01*
X408866Y266218D01*
X408502Y266461D01*
X408073Y266547D01*
D02*
G37*
G36*
X398624D02*
X398195Y266461D01*
X397831Y266218D01*
X397587Y265854D01*
X397502Y265425D01*
X397587Y264996D01*
X397831Y264632D01*
X398195Y264389D01*
X398624Y264303D01*
X399053Y264389D01*
X399417Y264632D01*
X399660Y264996D01*
X399745Y265425D01*
X399660Y265854D01*
X399417Y266218D01*
X399053Y266461D01*
X398624Y266547D01*
D02*
G37*
G36*
X434037Y263397D02*
X433608Y263312D01*
X433244Y263069D01*
X433001Y262705D01*
X432915Y262275D01*
X433001Y261846D01*
X433244Y261482D01*
X433608Y261239D01*
X434037Y261154D01*
X434466Y261239D01*
X434830Y261482D01*
X435073Y261846D01*
X435158Y262275D01*
X435073Y262705D01*
X434830Y263069D01*
X434466Y263312D01*
X434037Y263397D01*
D02*
G37*
G36*
X426970D02*
X426541Y263312D01*
X426177Y263069D01*
X425934Y262705D01*
X425849Y262275D01*
X425934Y261846D01*
X426177Y261482D01*
X426541Y261239D01*
X426970Y261154D01*
X427399Y261239D01*
X427763Y261482D01*
X428006Y261846D01*
X428092Y262275D01*
X428006Y262705D01*
X427763Y263069D01*
X427399Y263312D01*
X426970Y263397D01*
D02*
G37*
G36*
X423820D02*
X423391Y263312D01*
X423028Y263069D01*
X422784Y262705D01*
X422699Y262275D01*
X422784Y261846D01*
X423028Y261482D01*
X423391Y261239D01*
X423820Y261154D01*
X424250Y261239D01*
X424614Y261482D01*
X424857Y261846D01*
X424942Y262275D01*
X424857Y262705D01*
X424614Y263069D01*
X424250Y263312D01*
X423820Y263397D01*
D02*
G37*
G36*
X420671D02*
X420242Y263312D01*
X419878Y263069D01*
X419635Y262705D01*
X419549Y262275D01*
X419635Y261846D01*
X419878Y261482D01*
X420242Y261239D01*
X420671Y261154D01*
X421100Y261239D01*
X421464Y261482D01*
X421707Y261846D01*
X421793Y262275D01*
X421707Y262705D01*
X421464Y263069D01*
X421100Y263312D01*
X420671Y263397D01*
D02*
G37*
G36*
X417521D02*
X417092Y263312D01*
X416728Y263069D01*
X416485Y262705D01*
X416400Y262275D01*
X416485Y261846D01*
X416728Y261482D01*
X417092Y261239D01*
X417521Y261154D01*
X417950Y261239D01*
X418314Y261482D01*
X418558Y261846D01*
X418643Y262275D01*
X418558Y262705D01*
X418314Y263069D01*
X417950Y263312D01*
X417521Y263397D01*
D02*
G37*
G36*
X411222D02*
X410793Y263312D01*
X410429Y263069D01*
X410186Y262705D01*
X410101Y262275D01*
X410186Y261846D01*
X410429Y261482D01*
X410793Y261239D01*
X411222Y261154D01*
X411651Y261239D01*
X412015Y261482D01*
X412258Y261846D01*
X412344Y262275D01*
X412258Y262705D01*
X412015Y263069D01*
X411651Y263312D01*
X411222Y263397D01*
D02*
G37*
G36*
X401773D02*
X401344Y263312D01*
X400980Y263069D01*
X400737Y262705D01*
X400652Y262275D01*
X400737Y261846D01*
X400980Y261482D01*
X401344Y261239D01*
X401773Y261154D01*
X402203Y261239D01*
X402566Y261482D01*
X402809Y261846D01*
X402895Y262275D01*
X402809Y262705D01*
X402566Y263069D01*
X402203Y263312D01*
X401773Y263397D01*
D02*
G37*
G36*
X395474D02*
X395045Y263312D01*
X394681Y263069D01*
X394438Y262705D01*
X394353Y262275D01*
X394438Y261846D01*
X394681Y261482D01*
X395045Y261239D01*
X395474Y261154D01*
X395903Y261239D01*
X396267Y261482D01*
X396510Y261846D01*
X396596Y262275D01*
X396510Y262705D01*
X396267Y263069D01*
X395903Y263312D01*
X395474Y263397D01*
D02*
G37*
G36*
X520913Y262822D02*
X520484Y262736D01*
X520120Y262493D01*
X519877Y262129D01*
X519792Y261700D01*
X519877Y261271D01*
X520120Y260907D01*
X520484Y260664D01*
X520913Y260578D01*
X521342Y260664D01*
X521706Y260907D01*
X521949Y261271D01*
X522035Y261700D01*
X521949Y262129D01*
X521706Y262493D01*
X521342Y262736D01*
X520913Y262822D01*
D02*
G37*
G36*
X426970Y260247D02*
X426541Y260162D01*
X426177Y259919D01*
X425934Y259555D01*
X425849Y259126D01*
X425934Y258697D01*
X426177Y258333D01*
X426541Y258090D01*
X426970Y258004D01*
X427399Y258090D01*
X427763Y258333D01*
X428006Y258697D01*
X428092Y259126D01*
X428006Y259555D01*
X427763Y259919D01*
X427399Y260162D01*
X426970Y260247D01*
D02*
G37*
G36*
X423820D02*
X423391Y260162D01*
X423028Y259919D01*
X422784Y259555D01*
X422699Y259126D01*
X422784Y258697D01*
X423028Y258333D01*
X423391Y258090D01*
X423820Y258004D01*
X424250Y258090D01*
X424614Y258333D01*
X424857Y258697D01*
X424942Y259126D01*
X424857Y259555D01*
X424614Y259919D01*
X424250Y260162D01*
X423820Y260247D01*
D02*
G37*
G36*
X420671D02*
X420242Y260162D01*
X419878Y259919D01*
X419635Y259555D01*
X419549Y259126D01*
X419635Y258697D01*
X419878Y258333D01*
X420242Y258090D01*
X420671Y258004D01*
X421100Y258090D01*
X421464Y258333D01*
X421707Y258697D01*
X421793Y259126D01*
X421707Y259555D01*
X421464Y259919D01*
X421100Y260162D01*
X420671Y260247D01*
D02*
G37*
G36*
X417521D02*
X417092Y260162D01*
X416728Y259919D01*
X416485Y259555D01*
X416400Y259126D01*
X416485Y258697D01*
X416728Y258333D01*
X417092Y258090D01*
X417521Y258004D01*
X417950Y258090D01*
X418314Y258333D01*
X418558Y258697D01*
X418643Y259126D01*
X418558Y259555D01*
X418314Y259919D01*
X417950Y260162D01*
X417521Y260247D01*
D02*
G37*
G36*
X414372D02*
X413942Y260162D01*
X413579Y259919D01*
X413336Y259555D01*
X413250Y259126D01*
X413336Y258697D01*
X413579Y258333D01*
X413942Y258090D01*
X414372Y258004D01*
X414801Y258090D01*
X415165Y258333D01*
X415408Y258697D01*
X415493Y259126D01*
X415408Y259555D01*
X415165Y259919D01*
X414801Y260162D01*
X414372Y260247D01*
D02*
G37*
G36*
X411222D02*
X410793Y260162D01*
X410429Y259919D01*
X410186Y259555D01*
X410101Y259126D01*
X410186Y258697D01*
X410429Y258333D01*
X410793Y258090D01*
X411222Y258004D01*
X411651Y258090D01*
X412015Y258333D01*
X412258Y258697D01*
X412344Y259126D01*
X412258Y259555D01*
X412015Y259919D01*
X411651Y260162D01*
X411222Y260247D01*
D02*
G37*
G36*
X398624D02*
X398195Y260162D01*
X397831Y259919D01*
X397587Y259555D01*
X397502Y259126D01*
X397587Y258697D01*
X397831Y258333D01*
X398195Y258090D01*
X398624Y258004D01*
X399053Y258090D01*
X399417Y258333D01*
X399660Y258697D01*
X399745Y259126D01*
X399660Y259555D01*
X399417Y259919D01*
X399053Y260162D01*
X398624Y260247D01*
D02*
G37*
G36*
X386025D02*
X385596Y260162D01*
X385232Y259919D01*
X384989Y259555D01*
X384904Y259126D01*
X384989Y258697D01*
X385232Y258333D01*
X385596Y258090D01*
X386025Y258004D01*
X386455Y258090D01*
X386818Y258333D01*
X387062Y258697D01*
X387147Y259126D01*
X387062Y259555D01*
X386818Y259919D01*
X386455Y260162D01*
X386025Y260247D01*
D02*
G37*
G36*
X373118Y258650D02*
X372689Y258565D01*
X372325Y258321D01*
X372082Y257958D01*
X371996Y257528D01*
X372082Y257099D01*
X372325Y256735D01*
X372689Y256492D01*
X373118Y256407D01*
X373547Y256492D01*
X373911Y256735D01*
X374154Y257099D01*
X374240Y257528D01*
X374154Y257958D01*
X373911Y258321D01*
X373547Y258565D01*
X373118Y258650D01*
D02*
G37*
G36*
X348411Y257192D02*
X347982Y257106D01*
X347618Y256863D01*
X347375Y256499D01*
X347289Y256070D01*
X347375Y255641D01*
X347618Y255277D01*
X347982Y255034D01*
X348411Y254949D01*
X348840Y255034D01*
X349204Y255277D01*
X349447Y255641D01*
X349532Y256070D01*
X349447Y256499D01*
X349204Y256863D01*
X348840Y257106D01*
X348411Y257192D01*
D02*
G37*
G36*
X420671Y257098D02*
X420242Y257012D01*
X419878Y256769D01*
X419635Y256405D01*
X419549Y255976D01*
X419635Y255547D01*
X419878Y255183D01*
X420242Y254940D01*
X420671Y254855D01*
X421100Y254940D01*
X421464Y255183D01*
X421707Y255547D01*
X421793Y255976D01*
X421707Y256405D01*
X421464Y256769D01*
X421100Y257012D01*
X420671Y257098D01*
D02*
G37*
G36*
X417521D02*
X417092Y257012D01*
X416728Y256769D01*
X416485Y256405D01*
X416400Y255976D01*
X416485Y255547D01*
X416728Y255183D01*
X417092Y254940D01*
X417521Y254855D01*
X417950Y254940D01*
X418314Y255183D01*
X418558Y255547D01*
X418643Y255976D01*
X418558Y256405D01*
X418314Y256769D01*
X417950Y257012D01*
X417521Y257098D01*
D02*
G37*
G36*
X411222D02*
X410793Y257012D01*
X410429Y256769D01*
X410186Y256405D01*
X410101Y255976D01*
X410186Y255547D01*
X410429Y255183D01*
X410793Y254940D01*
X411222Y254855D01*
X411651Y254940D01*
X412015Y255183D01*
X412258Y255547D01*
X412344Y255976D01*
X412258Y256405D01*
X412015Y256769D01*
X411651Y257012D01*
X411222Y257098D01*
D02*
G37*
G36*
X401773D02*
X401344Y257012D01*
X400980Y256769D01*
X400737Y256405D01*
X400652Y255976D01*
X400737Y255547D01*
X400980Y255183D01*
X401344Y254940D01*
X401773Y254855D01*
X402203Y254940D01*
X402566Y255183D01*
X402809Y255547D01*
X402895Y255976D01*
X402809Y256405D01*
X402566Y256769D01*
X402203Y257012D01*
X401773Y257098D01*
D02*
G37*
G36*
X435002Y255523D02*
X434572Y255438D01*
X434209Y255194D01*
X433965Y254831D01*
X433880Y254401D01*
X433965Y253972D01*
X434209Y253608D01*
X434572Y253365D01*
X435002Y253280D01*
X435431Y253365D01*
X435795Y253608D01*
X436038Y253972D01*
X436123Y254401D01*
X436038Y254831D01*
X435795Y255194D01*
X435431Y255438D01*
X435002Y255523D01*
D02*
G37*
G36*
X401773Y253948D02*
X401344Y253863D01*
X400980Y253620D01*
X400737Y253256D01*
X400652Y252827D01*
X400737Y252397D01*
X400980Y252033D01*
X401344Y251790D01*
X401773Y251705D01*
X402203Y251790D01*
X402566Y252033D01*
X402809Y252397D01*
X402895Y252827D01*
X402809Y253256D01*
X402566Y253620D01*
X402203Y253863D01*
X401773Y253948D01*
D02*
G37*
G36*
X390787Y249559D02*
X390358Y249474D01*
X389994Y249230D01*
X389751Y248867D01*
X389666Y248437D01*
X389751Y248008D01*
X389994Y247644D01*
X390358Y247401D01*
X390787Y247316D01*
X391216Y247401D01*
X391580Y247644D01*
X391824Y248008D01*
X391909Y248437D01*
X391824Y248867D01*
X391580Y249230D01*
X391216Y249474D01*
X390787Y249559D01*
D02*
G37*
G36*
X422135Y247895D02*
X421706Y247810D01*
X421342Y247567D01*
X421099Y247203D01*
X421013Y246774D01*
X421099Y246344D01*
X421342Y245981D01*
X421706Y245738D01*
X422135Y245652D01*
X422564Y245738D01*
X422928Y245981D01*
X423171Y246344D01*
X423256Y246774D01*
X423171Y247203D01*
X422928Y247567D01*
X422564Y247810D01*
X422135Y247895D01*
D02*
G37*
G36*
X358281Y247796D02*
X357852Y247711D01*
X357488Y247468D01*
X357245Y247104D01*
X357159Y246675D01*
X357245Y246245D01*
X357488Y245882D01*
X357852Y245638D01*
X358281Y245553D01*
X358710Y245638D01*
X359074Y245882D01*
X359317Y246245D01*
X359403Y246675D01*
X359317Y247104D01*
X359074Y247468D01*
X358710Y247711D01*
X358281Y247796D01*
D02*
G37*
G36*
X397350Y240734D02*
X396920Y240649D01*
X396557Y240406D01*
X396314Y240042D01*
X396228Y239613D01*
X396314Y239184D01*
X396557Y238820D01*
X396920Y238577D01*
X397350Y238491D01*
X397779Y238577D01*
X398143Y238820D01*
X398386Y239184D01*
X398471Y239613D01*
X398386Y240042D01*
X398143Y240406D01*
X397779Y240649D01*
X397350Y240734D01*
D02*
G37*
G36*
X528291Y240600D02*
X527862Y240514D01*
X527498Y240271D01*
X527255Y239907D01*
X527170Y239478D01*
X527255Y239049D01*
X527498Y238685D01*
X527862Y238442D01*
X528291Y238357D01*
X528721Y238442D01*
X529084Y238685D01*
X529328Y239049D01*
X529413Y239478D01*
X529328Y239907D01*
X529084Y240271D01*
X528721Y240514D01*
X528291Y240600D01*
D02*
G37*
G36*
X381274Y239943D02*
X380845Y239858D01*
X380481Y239615D01*
X380238Y239251D01*
X380153Y238821D01*
X380238Y238392D01*
X380481Y238028D01*
X380845Y237785D01*
X381274Y237700D01*
X381703Y237785D01*
X382067Y238028D01*
X382310Y238392D01*
X382396Y238821D01*
X382310Y239251D01*
X382067Y239615D01*
X381703Y239858D01*
X381274Y239943D01*
D02*
G37*
G36*
X508362Y239452D02*
X507933Y239367D01*
X507569Y239124D01*
X507326Y238760D01*
X507240Y238330D01*
X507326Y237901D01*
X507569Y237537D01*
X507933Y237294D01*
X508362Y237209D01*
X508791Y237294D01*
X509155Y237537D01*
X509398Y237901D01*
X509484Y238330D01*
X509398Y238760D01*
X509155Y239124D01*
X508791Y239367D01*
X508362Y239452D01*
D02*
G37*
G36*
X540762Y238776D02*
X540332Y238690D01*
X539968Y238447D01*
X539725Y238084D01*
X539640Y237654D01*
X539725Y237225D01*
X539968Y236861D01*
X540332Y236618D01*
X540762Y236533D01*
X541191Y236618D01*
X541555Y236861D01*
X541798Y237225D01*
X541883Y237654D01*
X541798Y238084D01*
X541555Y238447D01*
X541191Y238690D01*
X540762Y238776D01*
D02*
G37*
G36*
X508315Y235263D02*
X507886Y235178D01*
X507522Y234935D01*
X507279Y234571D01*
X507194Y234142D01*
X507279Y233713D01*
X507522Y233349D01*
X507886Y233106D01*
X508315Y233020D01*
X508744Y233106D01*
X509108Y233349D01*
X509351Y233713D01*
X509437Y234142D01*
X509351Y234571D01*
X509108Y234935D01*
X508744Y235178D01*
X508315Y235263D01*
D02*
G37*
G36*
X377751Y232656D02*
X377322Y232571D01*
X376958Y232328D01*
X376715Y231964D01*
X376630Y231534D01*
X376715Y231105D01*
X376958Y230741D01*
X377322Y230498D01*
X377751Y230413D01*
X378180Y230498D01*
X378544Y230741D01*
X378787Y231105D01*
X378873Y231534D01*
X378787Y231964D01*
X378544Y232328D01*
X378180Y232571D01*
X377751Y232656D01*
D02*
G37*
G36*
X508386Y230917D02*
X507957Y230831D01*
X507593Y230588D01*
X507350Y230224D01*
X507265Y229795D01*
X507350Y229366D01*
X507593Y229002D01*
X507957Y228759D01*
X508386Y228674D01*
X508815Y228759D01*
X509179Y229002D01*
X509422Y229366D01*
X509508Y229795D01*
X509422Y230224D01*
X509179Y230588D01*
X508815Y230831D01*
X508386Y230917D01*
D02*
G37*
G36*
X412679Y230786D02*
X412250Y230700D01*
X411886Y230457D01*
X411643Y230093D01*
X411558Y229664D01*
X411643Y229235D01*
X411886Y228871D01*
X412250Y228628D01*
X412679Y228543D01*
X413108Y228628D01*
X413472Y228871D01*
X413716Y229235D01*
X413801Y229664D01*
X413716Y230093D01*
X413472Y230457D01*
X413108Y230700D01*
X412679Y230786D01*
D02*
G37*
G36*
X321252Y229980D02*
X320822Y229895D01*
X320458Y229652D01*
X320215Y229288D01*
X320130Y228859D01*
X320215Y228430D01*
X320458Y228066D01*
X320822Y227823D01*
X321252Y227737D01*
X321681Y227823D01*
X322044Y228066D01*
X322288Y228430D01*
X322373Y228859D01*
X322288Y229288D01*
X322044Y229652D01*
X321681Y229895D01*
X321252Y229980D01*
D02*
G37*
G36*
X371164Y228251D02*
X370735Y228166D01*
X370371Y227923D01*
X370128Y227559D01*
X370042Y227130D01*
X370128Y226701D01*
X370371Y226337D01*
X370735Y226094D01*
X371164Y226008D01*
X371593Y226094D01*
X371957Y226337D01*
X372200Y226701D01*
X372286Y227130D01*
X372200Y227559D01*
X371957Y227923D01*
X371593Y228166D01*
X371164Y228251D01*
D02*
G37*
G36*
X508419Y226788D02*
X507990Y226702D01*
X507626Y226459D01*
X507383Y226095D01*
X507298Y225666D01*
X507383Y225237D01*
X507626Y224873D01*
X507990Y224630D01*
X508419Y224545D01*
X508848Y224630D01*
X509212Y224873D01*
X509455Y225237D01*
X509541Y225666D01*
X509455Y226095D01*
X509212Y226459D01*
X508848Y226702D01*
X508419Y226788D01*
D02*
G37*
G36*
X394861Y224035D02*
X394432Y223949D01*
X394068Y223706D01*
X393825Y223342D01*
X393740Y222913D01*
X393825Y222484D01*
X394068Y222120D01*
X394432Y221877D01*
X394861Y221791D01*
X395290Y221877D01*
X395654Y222120D01*
X395897Y222484D01*
X395983Y222913D01*
X395897Y223342D01*
X395654Y223706D01*
X395290Y223949D01*
X394861Y224035D01*
D02*
G37*
G36*
X508474Y222531D02*
X508045Y222446D01*
X507681Y222202D01*
X507438Y221838D01*
X507353Y221409D01*
X507438Y220980D01*
X507681Y220616D01*
X508045Y220373D01*
X508474Y220288D01*
X508904Y220373D01*
X509267Y220616D01*
X509511Y220980D01*
X509596Y221409D01*
X509511Y221838D01*
X509267Y222202D01*
X508904Y222446D01*
X508474Y222531D01*
D02*
G37*
G36*
X426364Y221764D02*
X425935Y221679D01*
X425571Y221436D01*
X425328Y221072D01*
X425243Y220643D01*
X425328Y220213D01*
X425571Y219850D01*
X425935Y219606D01*
X426364Y219521D01*
X426794Y219606D01*
X427157Y219850D01*
X427400Y220213D01*
X427486Y220643D01*
X427400Y221072D01*
X427157Y221436D01*
X426794Y221679D01*
X426364Y221764D01*
D02*
G37*
G36*
X371450Y220042D02*
X371021Y219957D01*
X370657Y219714D01*
X370414Y219350D01*
X370329Y218921D01*
X370414Y218492D01*
X370657Y218128D01*
X371021Y217885D01*
X371450Y217799D01*
X371879Y217885D01*
X372243Y218128D01*
X372486Y218492D01*
X372572Y218921D01*
X372486Y219350D01*
X372243Y219714D01*
X371879Y219957D01*
X371450Y220042D01*
D02*
G37*
G36*
X546268Y219132D02*
X545838Y219047D01*
X545474Y218804D01*
X545231Y218440D01*
X545146Y218010D01*
X545231Y217581D01*
X545474Y217217D01*
X545838Y216974D01*
X546268Y216889D01*
X546697Y216974D01*
X547060Y217217D01*
X547304Y217581D01*
X547389Y218010D01*
X547304Y218440D01*
X547060Y218804D01*
X546697Y219047D01*
X546268Y219132D01*
D02*
G37*
G36*
X382681Y218536D02*
X382251Y218450D01*
X381887Y218207D01*
X381644Y217844D01*
X381559Y217414D01*
X381644Y216985D01*
X381887Y216621D01*
X382251Y216378D01*
X382681Y216293D01*
X383110Y216378D01*
X383473Y216621D01*
X383717Y216985D01*
X383802Y217414D01*
X383717Y217844D01*
X383473Y218207D01*
X383110Y218450D01*
X382681Y218536D01*
D02*
G37*
G36*
X389137Y217186D02*
X388708Y217101D01*
X388344Y216858D01*
X388101Y216494D01*
X388015Y216065D01*
X388101Y215635D01*
X388344Y215272D01*
X388708Y215029D01*
X389137Y214943D01*
X389566Y215029D01*
X389930Y215272D01*
X390173Y215635D01*
X390259Y216065D01*
X390173Y216494D01*
X389930Y216858D01*
X389566Y217101D01*
X389137Y217186D01*
D02*
G37*
G36*
X433182Y216387D02*
X432753Y216302D01*
X432389Y216059D01*
X432146Y215695D01*
X432060Y215266D01*
X432146Y214836D01*
X432389Y214473D01*
X432753Y214229D01*
X433182Y214144D01*
X433611Y214229D01*
X433975Y214473D01*
X434218Y214836D01*
X434303Y215266D01*
X434218Y215695D01*
X433975Y216059D01*
X433611Y216302D01*
X433182Y216387D01*
D02*
G37*
G36*
X397159Y211546D02*
X396730Y211461D01*
X396366Y211218D01*
X396123Y210854D01*
X396037Y210425D01*
X396123Y209996D01*
X396366Y209632D01*
X396730Y209389D01*
X397159Y209303D01*
X397588Y209389D01*
X397952Y209632D01*
X398195Y209996D01*
X398280Y210425D01*
X398195Y210854D01*
X397952Y211218D01*
X397588Y211461D01*
X397159Y211546D01*
D02*
G37*
G36*
X374213Y210630D02*
X373784Y210545D01*
X373420Y210302D01*
X373177Y209938D01*
X373092Y209509D01*
X373177Y209080D01*
X373420Y208716D01*
X373784Y208473D01*
X374213Y208387D01*
X374642Y208473D01*
X375006Y208716D01*
X375249Y209080D01*
X375335Y209509D01*
X375249Y209938D01*
X375006Y210302D01*
X374642Y210545D01*
X374213Y210630D01*
D02*
G37*
G36*
X451804Y200948D02*
X451375Y200862D01*
X451011Y200619D01*
X450768Y200255D01*
X450683Y199826D01*
X450768Y199397D01*
X451011Y199033D01*
X451375Y198790D01*
X451804Y198705D01*
X452234Y198790D01*
X452597Y199033D01*
X452841Y199397D01*
X452926Y199826D01*
X452841Y200255D01*
X452597Y200619D01*
X452234Y200862D01*
X451804Y200948D01*
D02*
G37*
G36*
X401228Y198952D02*
X400799Y198867D01*
X400435Y198624D01*
X400192Y198260D01*
X400106Y197831D01*
X400192Y197401D01*
X400435Y197038D01*
X400799Y196794D01*
X401228Y196709D01*
X401657Y196794D01*
X402021Y197038D01*
X402264Y197401D01*
X402349Y197831D01*
X402264Y198260D01*
X402021Y198624D01*
X401657Y198867D01*
X401228Y198952D01*
D02*
G37*
G36*
X453754Y196974D02*
X453325Y196888D01*
X452961Y196645D01*
X452718Y196281D01*
X452632Y195852D01*
X452718Y195423D01*
X452961Y195059D01*
X453325Y194816D01*
X453754Y194730D01*
X454183Y194816D01*
X454547Y195059D01*
X454790Y195423D01*
X454875Y195852D01*
X454790Y196281D01*
X454547Y196645D01*
X454183Y196888D01*
X453754Y196974D01*
D02*
G37*
G36*
X324104Y192262D02*
X323675Y192177D01*
X323311Y191934D01*
X323068Y191570D01*
X322982Y191140D01*
X323068Y190711D01*
X323311Y190347D01*
X323675Y190104D01*
X324104Y190019D01*
X324533Y190104D01*
X324897Y190347D01*
X325140Y190711D01*
X325225Y191140D01*
X325140Y191570D01*
X324897Y191934D01*
X324533Y192177D01*
X324104Y192262D01*
D02*
G37*
G36*
X252070Y189330D02*
X251641Y189244D01*
X251277Y189001D01*
X251034Y188637D01*
X250948Y188208D01*
X251034Y187779D01*
X251277Y187415D01*
X251641Y187172D01*
X252070Y187087D01*
X252499Y187172D01*
X252863Y187415D01*
X253106Y187779D01*
X253191Y188208D01*
X253106Y188637D01*
X252863Y189001D01*
X252499Y189244D01*
X252070Y189330D01*
D02*
G37*
G36*
X545995Y187065D02*
X545565Y186979D01*
X545201Y186736D01*
X544958Y186372D01*
X544873Y185943D01*
X544958Y185514D01*
X545201Y185150D01*
X545565Y184907D01*
X545995Y184822D01*
X546424Y184907D01*
X546788Y185150D01*
X547031Y185514D01*
X547116Y185943D01*
X547031Y186372D01*
X546788Y186736D01*
X546424Y186979D01*
X545995Y187065D01*
D02*
G37*
G36*
X509338Y182023D02*
X508909Y181938D01*
X508545Y181695D01*
X508302Y181331D01*
X508217Y180902D01*
X508302Y180472D01*
X508545Y180108D01*
X508909Y179865D01*
X509338Y179780D01*
X509767Y179865D01*
X510131Y180108D01*
X510374Y180472D01*
X510460Y180902D01*
X510374Y181331D01*
X510131Y181695D01*
X509767Y181938D01*
X509338Y182023D01*
D02*
G37*
G36*
X295468Y174983D02*
X294772Y174891D01*
X294123Y174622D01*
X293566Y174195D01*
X293139Y173638D01*
X292870Y172989D01*
X292778Y172293D01*
X292870Y171597D01*
X293139Y170948D01*
X293566Y170391D01*
X294123Y169963D01*
X294772Y169694D01*
X295468Y169603D01*
X296164Y169694D01*
X296813Y169963D01*
X297370Y170391D01*
X297798Y170948D01*
X298066Y171597D01*
X298158Y172293D01*
X298066Y172989D01*
X297798Y173638D01*
X297370Y174195D01*
X296813Y174622D01*
X296164Y174891D01*
X295468Y174983D01*
D02*
G37*
G36*
X256098D02*
X255402Y174891D01*
X254753Y174622D01*
X254196Y174195D01*
X253768Y173638D01*
X253500Y172989D01*
X253408Y172293D01*
X253500Y171597D01*
X253768Y170948D01*
X254196Y170391D01*
X254753Y169963D01*
X255402Y169694D01*
X256098Y169603D01*
X256794Y169694D01*
X257443Y169963D01*
X258000Y170391D01*
X258428Y170948D01*
X258696Y171597D01*
X258788Y172293D01*
X258696Y172989D01*
X258428Y173638D01*
X258000Y174195D01*
X257443Y174622D01*
X256794Y174891D01*
X256098Y174983D01*
D02*
G37*
G36*
X497562Y175116D02*
X496572Y174986D01*
X495651Y174604D01*
X494859Y173997D01*
X494252Y173205D01*
X493870Y172284D01*
X493740Y171295D01*
X493870Y170306D01*
X494252Y169384D01*
X494859Y168592D01*
X495651Y167985D01*
X496572Y167603D01*
X497562Y167473D01*
X498551Y167603D01*
X499472Y167985D01*
X500264Y168592D01*
X500871Y169384D01*
X501253Y170306D01*
X501383Y171295D01*
X501253Y172284D01*
X500871Y173205D01*
X500264Y173997D01*
X499472Y174604D01*
X498551Y174986D01*
X497562Y175116D01*
D02*
G37*
G36*
X487562D02*
X486572Y174986D01*
X485651Y174604D01*
X484859Y173997D01*
X484252Y173205D01*
X483870Y172284D01*
X483740Y171295D01*
X483870Y170306D01*
X484252Y169384D01*
X484859Y168592D01*
X485651Y167985D01*
X486572Y167603D01*
X487562Y167473D01*
X488551Y167603D01*
X489472Y167985D01*
X490264Y168592D01*
X490871Y169384D01*
X491253Y170306D01*
X491383Y171295D01*
X491253Y172284D01*
X490871Y173205D01*
X490264Y173997D01*
X489472Y174604D01*
X488551Y174986D01*
X487562Y175116D01*
D02*
G37*
G36*
X477562D02*
X476572Y174986D01*
X475651Y174604D01*
X474859Y173997D01*
X474252Y173205D01*
X473870Y172284D01*
X473740Y171295D01*
X473870Y170306D01*
X474252Y169384D01*
X474859Y168592D01*
X475651Y167985D01*
X476572Y167603D01*
X477562Y167473D01*
X478551Y167603D01*
X479472Y167985D01*
X480264Y168592D01*
X480871Y169384D01*
X481253Y170306D01*
X481383Y171295D01*
X481253Y172284D01*
X480871Y173205D01*
X480264Y173997D01*
X479472Y174604D01*
X478551Y174986D01*
X477562Y175116D01*
D02*
G37*
G36*
X467562D02*
X466572Y174986D01*
X465651Y174604D01*
X464859Y173997D01*
X464252Y173205D01*
X463870Y172284D01*
X463740Y171295D01*
X463870Y170306D01*
X464252Y169384D01*
X464859Y168592D01*
X465651Y167985D01*
X466572Y167603D01*
X467562Y167473D01*
X468551Y167603D01*
X469472Y167985D01*
X470264Y168592D01*
X470871Y169384D01*
X471253Y170306D01*
X471383Y171295D01*
X471253Y172284D01*
X470871Y173205D01*
X470264Y173997D01*
X469472Y174604D01*
X468551Y174986D01*
X467562Y175116D01*
D02*
G37*
G36*
X457562D02*
X456572Y174986D01*
X455651Y174604D01*
X454859Y173997D01*
X454252Y173205D01*
X453870Y172284D01*
X453740Y171295D01*
X453870Y170306D01*
X454252Y169384D01*
X454859Y168592D01*
X455651Y167985D01*
X456572Y167603D01*
X457562Y167473D01*
X458551Y167603D01*
X459472Y167985D01*
X460264Y168592D01*
X460871Y169384D01*
X461253Y170306D01*
X461383Y171295D01*
X461253Y172284D01*
X460871Y173205D01*
X460264Y173997D01*
X459472Y174604D01*
X458551Y174986D01*
X457562Y175116D01*
D02*
G37*
G36*
X380663Y169592D02*
X380234Y169507D01*
X379870Y169264D01*
X379627Y168900D01*
X379542Y168471D01*
X379627Y168042D01*
X379870Y167678D01*
X380234Y167435D01*
X380663Y167349D01*
X381092Y167435D01*
X381456Y167678D01*
X381699Y168042D01*
X381785Y168471D01*
X381699Y168900D01*
X381456Y169264D01*
X381092Y169507D01*
X380663Y169592D01*
D02*
G37*
%LPD*%
D75*
X447562Y171295D02*
D03*
D76*
X222279Y374342D02*
D03*
D77*
X240783Y386153D02*
D03*
D80*
X263155Y206584D02*
D03*
X247344Y201862D02*
D03*
X228454Y153404D02*
D03*
X229276Y172910D02*
D03*
Y192416D02*
D03*
X228865Y209048D02*
D03*
X209975Y201656D02*
D03*
X209359Y180918D02*
D03*
Y161207D02*
D03*
X189894Y152994D02*
D03*
X190510Y172089D02*
D03*
X190716Y190979D02*
D03*
X191537Y211307D02*
D03*
Y235946D02*
D03*
X191742Y255862D02*
D03*
X191537Y277011D02*
D03*
Y298981D02*
D03*
X191742Y322388D02*
D03*
X192358Y348464D02*
D03*
Y373104D02*
D03*
X206279Y364069D02*
D03*
Y383986D02*
D03*
X316950Y348054D02*
D03*
X294159Y347849D02*
D03*
X274653Y348054D02*
D03*
X256584Y348259D02*
D03*
X237489Y348670D02*
D03*
X227838Y343126D02*
D03*
X246523Y342715D02*
D03*
X265002Y342510D02*
D03*
X284098D02*
D03*
X304899Y342855D02*
D03*
D82*
X462903Y188582D02*
D03*
X453731Y193092D02*
D03*
X400667Y239632D02*
D03*
X391120Y317970D02*
D03*
X526315Y371164D02*
D03*
X385674Y215798D02*
D03*
X415794Y229158D02*
D03*
X425715Y310916D02*
D03*
X411222Y296921D02*
D03*
X398624Y306370D02*
D03*
X382876Y252827D02*
D03*
X376576Y293772D02*
D03*
X395474Y281173D02*
D03*
X398624Y268575D02*
D03*
X401773D02*
D03*
X389175Y265425D02*
D03*
X408073Y290622D02*
D03*
X398624Y274874D02*
D03*
X401773Y271724D02*
D03*
X426970Y255976D02*
D03*
X382876Y290622D02*
D03*
X395474Y296921D02*
D03*
X386025D02*
D03*
X389175Y300071D02*
D03*
X408073Y274874D02*
D03*
X382876Y296921D02*
D03*
X389175Y290622D02*
D03*
X374342Y279605D02*
D03*
X386025Y274874D02*
D03*
X408073Y271724D02*
D03*
X411222Y265425D02*
D03*
X382876Y284323D02*
D03*
X398624Y262275D02*
D03*
X389175Y293772D02*
D03*
X411222Y287472D02*
D03*
X389175Y284323D02*
D03*
X420671Y296921D02*
D03*
X401773Y274874D02*
D03*
X414372Y262275D02*
D03*
X401773Y259126D02*
D03*
X392324Y255976D02*
D03*
X417521Y252827D02*
D03*
X382876Y300071D02*
D03*
X379726D02*
D03*
X426970Y281173D02*
D03*
X411222Y278023D02*
D03*
X436912Y270235D02*
D03*
X434988Y305804D02*
D03*
X386025Y287472D02*
D03*
X408073Y284323D02*
D03*
X395474Y271724D02*
D03*
Y265425D02*
D03*
X401773D02*
D03*
X395474Y293772D02*
D03*
X376576Y306370D02*
D03*
X389175D02*
D03*
X382876Y287472D02*
D03*
X401773D02*
D03*
X411222Y271724D02*
D03*
X408073Y268575D02*
D03*
X423820Y265425D02*
D03*
X392324Y290622D02*
D03*
X426970D02*
D03*
X379726Y284323D02*
D03*
X386025D02*
D03*
X435002Y251252D02*
D03*
X386025Y290622D02*
D03*
X376576Y284323D02*
D03*
X417521Y271724D02*
D03*
X406498Y247945D02*
D03*
X404923Y290622D02*
D03*
X379726Y293772D02*
D03*
X392324Y300071D02*
D03*
X395474Y303220D02*
D03*
X420671Y274874D02*
D03*
X395474Y287472D02*
D03*
X411222Y281173D02*
D03*
X417521Y265425D02*
D03*
X435002Y301645D02*
D03*
X398624Y303220D02*
D03*
X409640Y307954D02*
D03*
X386025Y303220D02*
D03*
X392324Y306370D02*
D03*
X417521Y287472D02*
D03*
X392324Y284323D02*
D03*
X382876Y281173D02*
D03*
X379726Y306370D02*
D03*
X398624Y284323D02*
D03*
X414372D02*
D03*
X376576Y249677D02*
D03*
X389175Y287472D02*
D03*
X392324D02*
D03*
X375444Y273317D02*
D03*
X395474Y300071D02*
D03*
X376576D02*
D03*
X417521Y281173D02*
D03*
X414372Y268575D02*
D03*
X392324Y293772D02*
D03*
X386025Y300071D02*
D03*
X382876Y303220D02*
D03*
X379726Y262275D02*
D03*
X395474Y306370D02*
D03*
X351191Y377158D02*
D03*
X344535Y370083D02*
D03*
X346191Y367169D02*
D03*
X381191Y352169D02*
D03*
Y357170D02*
D03*
X396191Y352169D02*
D03*
Y357170D02*
D03*
X360081Y302226D02*
D03*
X354266Y246368D02*
D03*
X344816Y256070D02*
D03*
X366129Y396493D02*
D03*
X360857Y396482D02*
D03*
X338455Y390523D02*
D03*
X328740Y378137D02*
D03*
X375924Y396304D02*
D03*
X381127Y396421D02*
D03*
X386097Y396450D02*
D03*
X396474Y396392D02*
D03*
X391191Y362170D02*
D03*
Y367169D02*
D03*
X351191Y352169D02*
D03*
Y357170D02*
D03*
X391264Y372146D02*
D03*
X376168Y357097D02*
D03*
Y362097D02*
D03*
X376191Y372169D02*
D03*
X376240Y367073D02*
D03*
X371191Y382170D02*
D03*
X361191Y372169D02*
D03*
Y367169D02*
D03*
Y362170D02*
D03*
X366191Y357170D02*
D03*
Y352169D02*
D03*
X396945Y325000D02*
D03*
X379739Y310914D02*
D03*
X374751Y320718D02*
D03*
X517807Y330171D02*
D03*
X544426Y292758D02*
D03*
X503161Y319372D02*
D03*
X549252Y167330D02*
D03*
X553166Y260427D02*
D03*
X538837Y239527D02*
D03*
X546362Y214171D02*
D03*
X546215Y182536D02*
D03*
X451925Y181648D02*
D03*
X452221Y188634D02*
D03*
X425155Y172823D02*
D03*
X313043Y167072D02*
D03*
X299405Y155940D02*
D03*
X291531D02*
D03*
X283657D02*
D03*
X275783D02*
D03*
X267909D02*
D03*
X260035D02*
D03*
X252155Y155934D02*
D03*
X239387Y233112D02*
D03*
X219567Y232430D02*
D03*
X295070Y277793D02*
D03*
X211758Y338053D02*
D03*
X210723Y326706D02*
D03*
X318019Y228979D02*
D03*
X320851Y225852D02*
D03*
X324408Y229102D02*
D03*
X321624Y232400D02*
D03*
X343800Y305100D02*
D03*
X350727Y298432D02*
D03*
X348267Y300763D02*
D03*
X410918Y348686D02*
D03*
X376607Y342341D02*
D03*
X335611Y350593D02*
D03*
X362989Y341703D02*
D03*
X324298Y168043D02*
D03*
X331028Y165903D02*
D03*
X362268Y161906D02*
D03*
X362010Y182146D02*
D03*
X362051Y191687D02*
D03*
X371585Y215056D02*
D03*
X369518Y257568D02*
D03*
X392331Y274871D02*
D03*
X387667Y248282D02*
D03*
X401810Y249119D02*
D03*
X401773Y300071D02*
D03*
X437309Y315804D02*
D03*
X417521Y300071D02*
D03*
X411222D02*
D03*
X422077Y243687D02*
D03*
X389188Y259115D02*
D03*
X381191Y377158D02*
D03*
X401252Y377146D02*
D03*
X366191Y377158D02*
D03*
X529241Y318824D02*
D03*
X426364Y223468D02*
D03*
X404410Y197834D02*
D03*
X478883Y372990D02*
D03*
M02*
