M48
;Layer_Color=9474304
;FILE_FORMAT=2:5
INCH,LZ
;TYPE=PLATED
T1F00S00C0.01000
T2F00S00C0.02600
T4F00S00C0.04016
;TYPE=NON_PLATED
T5F00S00C0.04134
%
T01
X0252155Y0155934
X0260035Y015594
X0267909
X0275783
X0283657
X0291531
X0299405
X0509338Y0180902
X0546215Y0182536
X0545995Y0185943
X0549252Y016733
X0546362Y0214171
X0546268Y021801
X0540762Y0237654
X0538837Y0239527
X0528291Y0239478
X0508362Y023833
X0508315Y0234142
X0508386Y0229795
X0508419Y0225666
X0508474Y0221409
X0514365Y0266219
X0520913Y02617
X051156Y0282846
X049721Y028362
X0507935Y0310768
X0522347Y0301832
X0544426Y0292758
X0553166Y0260427
X0444713Y0270733
X0440714Y0270257
X0436912Y0270235
X0434037Y0262275
X042697
Y0265425
X042382
Y0262275
X0420671
Y0265425
X0417521
Y0262275
X0414372
Y0265425
X0411222
Y0262275
Y0259126
Y0255976
X0414372Y0259126
X0417521
X0420671
Y0255976
X0417521
Y0252827
X0422135Y0246774
X0422077Y0243687
X042697Y0255976
Y0259126
X042382
Y0268575
X042697
Y0271724
X042382
Y0274874
X0420671
X0417521
Y0271724
X0420671
Y0268575
X0414372
X0414372Y0271724
X0411222Y0271724
X0408073
Y0274874
Y0278023
Y0281173
X0411222
Y0284323
Y0287472
X0408073
Y0284323
Y0290622
X0411222
Y0293772
X0408073
X0404889Y0293813
X0404923Y0290622
Y0287472
X0401773Y0287472
Y0284323
Y0281173
X0398624
X0395474
Y0284323
Y0287472
X0398624
Y0284323
X0392324
X0389175
Y0287472
X0392324
Y0290622
X0389175
Y0293772
X0392324
X0395474
X0398624
Y0296921
X0395474
Y0300071
Y030322
X0398624
Y0300071
X0401773
Y0296921
X0411222
X0411222Y0300071
X0408073
X0414372
X0414378Y0296935
X0417521Y0300071
X0420671Y0296921
X0420671Y0293772
X0417534Y0293766
X0417521Y0290622
Y0287472
Y0284323
X0414372
Y0287472
Y0281173
X0417521
X0420671
X042382
X042697
X042382Y0284323
X042697Y0290622
X042697Y0293772
X0425659Y0308133
X0425715Y0310916
X0434988Y0305804
X0435002Y0301645
X043483Y0285899
X0459468Y0288091
X0435002Y0254401
Y0251252
X0406498Y0247945
X040181Y0249119
X0401773Y0252827
X0401773Y0255976
Y0259126
X0398624
Y0262275
X0395474
Y0265425
X0398624
Y0268575
X0395474
Y0271724
X0398624
Y0274874
X0395474
X0392331Y0274871
X0392268Y0271639
X0389175Y0265425
X0389188Y0259115
X0386025Y0259126
X0392324Y0255976
X0390787Y0248437
X0387667Y0248282
X0382876Y0252827
X0376576Y0249677
X0373118Y0257528
X0369518Y0257568
X0379726Y0262275
X0382876Y0268575
X0386025Y0274874
Y0284323
Y0287472
X0382876
Y0284323
X0379726
X0376576
X0374342Y0279605
X0375444Y0273317
X0382876Y0281173
Y0290622
X0386025
Y0296921
X0382876
Y0300071
X0379726
X0376576
Y030637
X0379726
X0379739Y0310914
X0375855Y0310966
X0382876Y030322
X0386025
Y0300071
X0389175
X0392324
Y030637
X0389175
X0395474
X0398624
X040964Y0307954
X0395474Y0290622
X0379726Y0293772
X0376576
X0356107Y0291787
X0350727Y0298432
X0348267Y0300763
X0346179Y030287
X03438Y03051
X0335072Y0310666
X0360081Y0302226
X0358281Y0246675
X0354266Y0246368
X0348411Y025607
X0344816
X0321624Y02324
X0321252Y0228859
X0318019Y0228979
X0320851Y0225852
X0324408Y0229102
X0324104Y019114
X0324298Y0168043
X0331028Y0165903
X0313043Y0167072
X0362268Y0161906
X036201Y0182146
X0362051Y0191687
X0374213Y0209509
X0371585Y0215056
X037145Y0218921
X0371164Y022713
X0377751Y0231534
X0381274Y0238821
X039735Y0239613
X0400667Y0239632
X0412679Y0229664
X0415794Y0229158
X0426364Y0223468
Y0220643
X0433182Y0215266
X0451804Y0199826
X0453754Y0195852
X0453731Y0193092
X0452221Y0188634
X0451925Y0181648
X0462903Y0188582
X0425155Y0172823
X040441Y0197834
X0401228Y0197831
X0397159Y0210425
X0389137Y0216065
X0385674Y0215798
X0382681Y0217414
X0394861Y0222913
X0401773Y0262275
Y0265425
Y0268575
Y0271724
Y0274874
X0411222
Y0278023
X0411222Y0268575
X0408073
Y0265425
X0380663Y0168471
X025207Y0188208
X0239387Y0233112
X0219567Y023243
X0282569Y0278691
X029507Y0277793
X0210723Y0326706
X0211758Y0338053
X0326169Y0329142
X0326114Y0325085
X0331117Y0325251
X0331172Y0329087
X0337953Y0329253
Y0325196
X0335008Y0332811
X0334765Y0338955
X0339371Y0338878
X0337484Y0342522
X0342723Y0342164
X0342657Y0349323
X034256Y0354627
X0346168Y0357097
Y0352097
Y0347097
X0356168
X0357866Y0344248
X0359577Y0342138
X0362989Y0341703
X0361168Y0347097
Y0352097
X0356227Y0352126
X0351191Y0352169
Y035717
Y036217
Y0367169
X0346191
X0344535Y0370083
X0351191Y0372169
Y0377158
X0353592Y0384682
X035594Y0396409
X0360857Y0396482
X0366129Y0396493
X0375924Y0396304
X0381127Y0396421
X0386097Y039645
X0391066Y039648
X0396474Y0396392
X0388707Y038568
X0386191Y038217
X0381191Y0377158
Y0372169
X0376191
X037624Y0367073
X0381191Y0367169
Y036217
Y035717
Y0352169
X0376168Y0352097
Y0357097
Y0362097
X0366191Y036217
X0361191
Y0367169
Y0372169
X0366191
Y0377158
X0371191Y0377169
Y038217
X0366191Y0367169
Y035717
Y0352169
X0371168Y0347097
X0376168
X0376607Y0342341
X0380257
X0383916Y0342148
X0389939Y0343198
X0391168Y0347097
X0386168
X0391168Y0352097
X0396191Y0352169
Y035717
X0391191Y036217
Y0367169
X0391264Y0372146
X0401264
Y0367146
Y0362146
X0405313Y0351878
X0405391Y034709
X0410996Y0345728
X0410918Y0348686
X0408739Y0342225
X0401293Y0338723
X0401271Y0335744
X0398247Y0335788
X0398203Y0338811
X039823Y0343081
X0398025Y0332561
X0398856Y0327916
X0396945Y0325
X0390066Y0327833
X0385995Y0327702
X0381897Y0327833
X0381792Y0331589
X0384865Y0331642
X0386083Y0336697
X0387868Y0317931
X039112Y031797
X0398742Y0314204
X0405503Y0333395
X0374751Y0320718
X0370727Y0320808
X0356356Y0324647
X0352468Y0324517
X0352534Y0327979
X0348875Y0328012
X0356225Y03286
X0356029Y03319
X0354458Y0335794
Y0339333
X035413Y0343134
X0351127Y0340371
X0341678Y0332866
X0335452Y0346996
X0335611Y0350593
X0356188Y0362122
X032874Y0378137
X0338455Y0390523
X0401252Y0377146
X0437019Y0318748
X0437309Y0315804
X0503246Y0314631
X0503161Y0319372
X0517807Y0330171
X0517699Y0334587
X0531923Y0335125
X0529322Y0321941
X0529241Y0318824
X0526315Y0371164
X052668Y0382825
X0505459Y0382737
X0475106Y0379752
X0475634Y0373091
X0478883Y037299
T02
X0189894Y0152994
X0228454Y0153404
X0229276Y017291
Y0192416
X0228865Y0209048
X0247344Y0201862
X0263155Y0206584
X0209975Y0201656
X0209359Y0180918
Y0161207
X019051Y0172089
X0190716Y0190979
X0191537Y0211307
Y0235946
X0191742Y0255862
X0191537Y0277011
Y0298981
X0191742Y0322388
X0192358Y0348464
Y0373104
X0206279Y0364069
Y0383986
X0227838Y0343126
X0237489Y034867
X0246523Y0342715
X0256584Y0348259
X0265002Y034251
X0274653Y0348054
X0284098Y034251
X0294159Y0347849
X0304899Y0342855
X031695Y0348054
T04
X0477562Y0171295
X0487562
X0497562
X0467562
X0457562
X0447562
T05
X0256098Y0172293
X0295468
M30
