G04*
G04 #@! TF.GenerationSoftware,Altium Limited,Altium Designer,20.1.11 (218)*
G04*
G04 Layer_Color=65535*
%FSLAX25Y25*%
%MOIN*%
G70*
G04*
G04 #@! TF.SameCoordinates,731B5D3F-845C-401C-AC73-029E605C2F8B*
G04*
G04*
G04 #@! TF.FilePolarity,Positive*
G04*
G01*
G75*
%ADD10C,0.00787*%
%ADD11C,0.00600*%
%ADD12C,0.02362*%
%ADD13C,0.00984*%
%ADD14C,0.00394*%
%ADD15C,0.01575*%
%ADD16C,0.02400*%
%ADD17C,0.00300*%
%ADD18C,0.00500*%
%ADD19C,0.00787*%
%ADD20C,0.00100*%
%ADD21C,0.00197*%
%ADD22C,0.01000*%
G36*
X323942Y175524D02*
X324542D01*
X324242Y175024D01*
X323942Y175524D01*
D02*
G37*
G36*
X445562Y177968D02*
X447648Y175881D01*
X450062Y177968D01*
X445562D01*
D02*
G37*
G36*
X377539Y307551D02*
X375395Y305408D01*
Y307551D01*
X377539D01*
D02*
G37*
D10*
X527403Y292541D02*
G03*
X527403Y292541I-394J0D01*
G01*
X399610Y164608D02*
X426382D01*
X399610Y205946D02*
X426382D01*
Y164608D02*
Y205946D01*
X399610Y164608D02*
Y205946D01*
X375395Y305408D02*
X377539Y307551D01*
X375395Y248496D02*
Y307551D01*
X434450Y248496D02*
Y307551D01*
X375395D02*
X434450D01*
X375395Y248496D02*
X434450D01*
D11*
X453286Y193128D02*
G03*
X453286Y195528I0J1200D01*
G01*
X494307Y387989D02*
G03*
X496707Y387989I1200J0D01*
G01*
X453286Y195528D02*
Y196728D01*
Y193128D02*
Y195528D01*
Y191928D02*
Y193128D01*
X418113Y345490D02*
Y349427D01*
X413389Y345490D02*
Y349427D01*
X474007Y387989D02*
X494307D01*
X496707D01*
X517007D01*
X474007Y356189D02*
X517007D01*
X376533Y339931D02*
X380470D01*
X376533Y335206D02*
X380470D01*
X333145Y346953D02*
Y350890D01*
X328420Y346953D02*
Y350890D01*
X360203Y334893D02*
X364140D01*
X360203Y339617D02*
X364140D01*
X205536Y340689D02*
X209473D01*
X205536Y345413D02*
X209473D01*
X542343Y225197D02*
X541810Y225730D01*
X540744D01*
X540211Y225197D01*
Y223064D01*
X540744Y222531D01*
X541810D01*
X542343Y223064D01*
X545542Y225730D02*
X543410D01*
Y224130D01*
X544476Y224663D01*
X545009D01*
X545542Y224130D01*
Y223064D01*
X545009Y222531D01*
X543943D01*
X543410Y223064D01*
X441906Y175168D02*
X442972D01*
X442439D01*
Y178367D01*
X441906Y177834D01*
X504008Y177925D02*
X502942Y177391D01*
X501876Y176325D01*
Y175259D01*
X502409Y174726D01*
X503475D01*
X504008Y175259D01*
Y175792D01*
X503475Y176325D01*
X501876D01*
X338952Y344337D02*
Y346469D01*
X340018Y347536D01*
X341084Y346469D01*
Y344337D01*
Y345936D01*
X338952D01*
X342151Y344337D02*
X343217D01*
X342684D01*
Y347536D01*
X342151Y347003D01*
X402567Y383088D02*
Y379889D01*
X404700D01*
X405766Y383088D02*
X407899D01*
Y382555D01*
X405766Y380422D01*
Y379889D01*
X401220Y344730D02*
Y341531D01*
X403353D01*
X404419D02*
X405486D01*
X404952D01*
Y344730D01*
X404419Y344197D01*
X468259Y392508D02*
Y389842D01*
X468792Y389309D01*
X469858D01*
X470391Y389842D01*
Y392508D01*
X473590D02*
X472524Y391974D01*
X471458Y390908D01*
Y389842D01*
X471991Y389309D01*
X473057D01*
X473590Y389842D01*
Y390375D01*
X473057Y390908D01*
X471458D01*
X463866Y199885D02*
Y197220D01*
X464399Y196686D01*
X465466D01*
X465999Y197220D01*
Y199885D01*
X469198D02*
X467065D01*
Y198286D01*
X468131Y198819D01*
X468665D01*
X469198Y198286D01*
Y197220D01*
X468665Y196686D01*
X467598D01*
X467065Y197220D01*
X462267Y180180D02*
Y183379D01*
X463866D01*
X464399Y182846D01*
Y181780D01*
X463866Y181246D01*
X462267D01*
X463333D02*
X464399Y180180D01*
X467598Y183379D02*
X466532Y182846D01*
X465466Y181780D01*
Y180713D01*
X465999Y180180D01*
X467065D01*
X467598Y180713D01*
Y181246D01*
X467065Y181780D01*
X465466D01*
X468665Y182846D02*
X469198Y183379D01*
X470264D01*
X470797Y182846D01*
Y182313D01*
X470264Y181780D01*
X470797Y181246D01*
Y180713D01*
X470264Y180180D01*
X469198D01*
X468665Y180713D01*
Y181246D01*
X469198Y181780D01*
X468665Y182313D01*
Y182846D01*
X469198Y181780D02*
X470264D01*
X443866Y163839D02*
X442800D01*
X443333D01*
Y161173D01*
X442800Y160640D01*
X442267D01*
X441734Y161173D01*
X447065Y163839D02*
X445999Y163306D01*
X444933Y162240D01*
Y161173D01*
X445466Y160640D01*
X446532D01*
X447065Y161173D01*
Y161706D01*
X446532Y162240D01*
X444933D01*
X443894Y192223D02*
X443361Y191690D01*
Y190624D01*
X443894Y190091D01*
X446026D01*
X446559Y190624D01*
Y191690D01*
X446026Y192223D01*
X443361Y195422D02*
X443894Y194356D01*
X444960Y193289D01*
X446026D01*
X446559Y193823D01*
Y194889D01*
X446026Y195422D01*
X445493D01*
X444960Y194889D01*
Y193289D01*
X443894Y196488D02*
X443361Y197022D01*
Y198088D01*
X443894Y198621D01*
X446026D01*
X446559Y198088D01*
Y197022D01*
X446026Y196488D01*
X443894D01*
X484677Y317737D02*
Y320936D01*
X486276D01*
X486809Y320403D01*
Y319337D01*
X486276Y318804D01*
X484677D01*
X485743D02*
X486809Y317737D01*
X490008Y320936D02*
X488942Y320403D01*
X487876Y319337D01*
Y318270D01*
X488409Y317737D01*
X489475D01*
X490008Y318270D01*
Y318804D01*
X489475Y319337D01*
X487876D01*
X491075Y320936D02*
X493207D01*
Y320403D01*
X491075Y318270D01*
Y317737D01*
X290491Y283864D02*
Y287063D01*
X292091D01*
X292624Y286530D01*
Y285464D01*
X292091Y284930D01*
X290491D01*
X291557D02*
X292624Y283864D01*
X295823Y287063D02*
X294756Y286530D01*
X293690Y285464D01*
Y284397D01*
X294223Y283864D01*
X295289D01*
X295823Y284397D01*
Y284930D01*
X295289Y285464D01*
X293690D01*
X299022Y287063D02*
X297955Y286530D01*
X296889Y285464D01*
Y284397D01*
X297422Y283864D01*
X298488D01*
X299022Y284397D01*
Y284930D01*
X298488Y285464D01*
X296889D01*
X277788Y269090D02*
Y272288D01*
X279388D01*
X279921Y271755D01*
Y270689D01*
X279388Y270156D01*
X277788D01*
X278855D02*
X279921Y269090D01*
X283120Y272288D02*
X282054Y271755D01*
X280987Y270689D01*
Y269623D01*
X281521Y269090D01*
X282587D01*
X283120Y269623D01*
Y270156D01*
X282587Y270689D01*
X280987D01*
X286319Y272288D02*
X284186D01*
Y270689D01*
X285253Y271222D01*
X285786D01*
X286319Y270689D01*
Y269623D01*
X285786Y269090D01*
X284719D01*
X284186Y269623D01*
X328787Y312783D02*
Y315982D01*
X330386D01*
X330919Y315448D01*
Y314382D01*
X330386Y313849D01*
X328787D01*
X329853D02*
X330919Y312783D01*
X334118Y315982D02*
X333052Y315448D01*
X331986Y314382D01*
Y313316D01*
X332519Y312783D01*
X333585D01*
X334118Y313316D01*
Y313849D01*
X333585Y314382D01*
X331986D01*
X336784Y312783D02*
Y315982D01*
X335185Y314382D01*
X337317D01*
X204333Y351266D02*
X203800Y351799D01*
X202733D01*
X202200Y351266D01*
Y349133D01*
X202733Y348600D01*
X203800D01*
X204333Y349133D01*
X207532Y351799D02*
X205399D01*
Y350200D01*
X206465Y350733D01*
X206998D01*
X207532Y350200D01*
Y349133D01*
X206998Y348600D01*
X205932D01*
X205399Y349133D01*
X208598D02*
X209131Y348600D01*
X210197D01*
X210731Y349133D01*
Y351266D01*
X210197Y351799D01*
X209131D01*
X208598Y351266D01*
Y350733D01*
X209131Y350200D01*
X210731D01*
X331596Y388024D02*
Y385358D01*
X332130Y384825D01*
X333196D01*
X333729Y385358D01*
Y388024D01*
X336395Y384825D02*
Y388024D01*
X334795Y386424D01*
X336928D01*
X524700Y241500D02*
Y244699D01*
X526299D01*
X526833Y244166D01*
Y243099D01*
X526299Y242566D01*
X524700D01*
X525766D02*
X526833Y241500D01*
X530032Y244699D02*
X528965Y244166D01*
X527899Y243099D01*
Y242033D01*
X528432Y241500D01*
X529498D01*
X530032Y242033D01*
Y242566D01*
X529498Y243099D01*
X527899D01*
X531098Y244166D02*
X531631Y244699D01*
X532697D01*
X533231Y244166D01*
Y243633D01*
X532697Y243099D01*
X532164D01*
X532697D01*
X533231Y242566D01*
Y242033D01*
X532697Y241500D01*
X531631D01*
X531098Y242033D01*
X409148Y331655D02*
Y334854D01*
X410747D01*
X411280Y334321D01*
Y333255D01*
X410747Y332721D01*
X409148D01*
X410214D02*
X411280Y331655D01*
X414479Y334854D02*
X413413Y334321D01*
X412347Y333255D01*
Y332188D01*
X412880Y331655D01*
X413946D01*
X414479Y332188D01*
Y332721D01*
X413946Y333255D01*
X412347D01*
X417678Y331655D02*
X415546D01*
X417678Y333788D01*
Y334321D01*
X417145Y334854D01*
X416079D01*
X415546Y334321D01*
X396111Y333733D02*
X392912D01*
Y335332D01*
X393446Y335865D01*
X394512D01*
X395045Y335332D01*
Y333733D01*
Y334799D02*
X396111Y335865D01*
X392912Y339064D02*
X393446Y337998D01*
X394512Y336932D01*
X395578D01*
X396111Y337465D01*
Y338531D01*
X395578Y339064D01*
X395045D01*
X394512Y338531D01*
Y336932D01*
X396111Y340131D02*
Y341197D01*
Y340664D01*
X392912D01*
X393446Y340131D01*
X346890Y331830D02*
X343691D01*
Y333429D01*
X344225Y333962D01*
X345291D01*
X345824Y333429D01*
Y331830D01*
Y332896D02*
X346890Y333962D01*
X343691Y337161D02*
X344225Y336095D01*
X345291Y335029D01*
X346357D01*
X346890Y335562D01*
Y336628D01*
X346357Y337161D01*
X345824D01*
X345291Y336628D01*
Y335029D01*
X344225Y338227D02*
X343691Y338761D01*
Y339827D01*
X344225Y340360D01*
X346357D01*
X346890Y339827D01*
Y338761D01*
X346357Y338227D01*
X344225D01*
X327060Y333257D02*
X323861D01*
Y334857D01*
X324394Y335390D01*
X325461D01*
X325994Y334857D01*
Y333257D01*
Y334324D02*
X327060Y335390D01*
X323861Y338589D02*
Y336456D01*
X325461D01*
X324927Y337523D01*
Y338056D01*
X325461Y338589D01*
X326527D01*
X327060Y338056D01*
Y336989D01*
X326527Y336456D01*
Y339655D02*
X327060Y340188D01*
Y341255D01*
X326527Y341788D01*
X324394D01*
X323861Y341255D01*
Y340188D01*
X324394Y339655D01*
X324927D01*
X325461Y340188D01*
Y341788D01*
X413696Y239744D02*
X413163Y240277D01*
X412097D01*
X411564Y239744D01*
Y237612D01*
X412097Y237078D01*
X413163D01*
X413696Y237612D01*
X414763Y239744D02*
X415296Y240277D01*
X416362D01*
X416895Y239744D01*
Y239211D01*
X416362Y238678D01*
X415829D01*
X416362D01*
X416895Y238145D01*
Y237612D01*
X416362Y237078D01*
X415296D01*
X414763Y237612D01*
X420094Y240277D02*
X419028Y239744D01*
X417962Y238678D01*
Y237612D01*
X418495Y237078D01*
X419561D01*
X420094Y237612D01*
Y238145D01*
X419561Y238678D01*
X417962D01*
X216852Y393661D02*
X215786D01*
X216319D01*
Y390996D01*
X215786Y390462D01*
X215253D01*
X214720Y390996D01*
X219518Y390462D02*
Y393661D01*
X217918Y392062D01*
X220051D01*
X422330Y234535D02*
X425529D01*
Y232936D01*
X424996Y232403D01*
X423929D01*
X423396Y232936D01*
Y234535D01*
Y233469D02*
X422330Y232403D01*
X425529Y229204D02*
Y231336D01*
X423929D01*
X424463Y230270D01*
Y229737D01*
X423929Y229204D01*
X422863D01*
X422330Y229737D01*
Y230803D01*
X422863Y231336D01*
X424996Y228137D02*
X425529Y227604D01*
Y226538D01*
X424996Y226005D01*
X424463D01*
X423929Y226538D01*
X423396Y226005D01*
X422863D01*
X422330Y226538D01*
Y227604D01*
X422863Y228137D01*
X423396D01*
X423929Y227604D01*
X424463Y228137D01*
X424996D01*
X423929Y227604D02*
Y226538D01*
X436368Y210013D02*
Y213211D01*
X437967D01*
X438500Y212678D01*
Y211612D01*
X437967Y211079D01*
X436368D01*
X437434D02*
X438500Y210013D01*
X441699Y213211D02*
X439567D01*
Y211612D01*
X440633Y212145D01*
X441166D01*
X441699Y211612D01*
Y210546D01*
X441166Y210013D01*
X440100D01*
X439567Y210546D01*
X442766Y213211D02*
X444898D01*
Y212678D01*
X442766Y210546D01*
Y210013D01*
X194933Y256399D02*
X193866D01*
X194399D01*
Y253733D01*
X193866Y253200D01*
X193333D01*
X192800Y253733D01*
X195999Y255866D02*
X196532Y256399D01*
X197599D01*
X198132Y255866D01*
Y255333D01*
X197599Y254800D01*
X197065D01*
X197599D01*
X198132Y254266D01*
Y253733D01*
X197599Y253200D01*
X196532D01*
X195999Y253733D01*
X194933Y333999D02*
X193866D01*
X194399D01*
Y331333D01*
X193866Y330800D01*
X193333D01*
X192800Y331333D01*
X198132Y330800D02*
X195999D01*
X198132Y332933D01*
Y333466D01*
X197599Y333999D01*
X196532D01*
X195999Y333466D01*
X420751Y217716D02*
X420218Y218249D01*
X419151D01*
X418618Y217716D01*
Y215583D01*
X419151Y215050D01*
X420218D01*
X420751Y215583D01*
X423950Y215050D02*
X421817D01*
X423950Y217183D01*
Y217716D01*
X423417Y218249D01*
X422351D01*
X421817Y217716D01*
X426616Y215050D02*
Y218249D01*
X425016Y216650D01*
X427149D01*
X367159Y398742D02*
X363960D01*
Y400342D01*
X364493Y400875D01*
X365560D01*
X366093Y400342D01*
Y398742D01*
Y399808D02*
X367159Y400875D01*
X364493Y401941D02*
X363960Y402474D01*
Y403541D01*
X364493Y404074D01*
X365027D01*
X365560Y403541D01*
Y403007D01*
Y403541D01*
X366093Y404074D01*
X366626D01*
X367159Y403541D01*
Y402474D01*
X366626Y401941D01*
X364493Y405140D02*
X363960Y405673D01*
Y406739D01*
X364493Y407273D01*
X366626D01*
X367159Y406739D01*
Y405673D01*
X366626Y405140D01*
X364493D01*
X386943Y399102D02*
X383744D01*
Y400702D01*
X384277Y401235D01*
X385344D01*
X385877Y400702D01*
Y399102D01*
Y400169D02*
X386943Y401235D01*
X384277Y402302D02*
X383744Y402835D01*
Y403901D01*
X384277Y404434D01*
X384811D01*
X385344Y403901D01*
Y403368D01*
Y403901D01*
X385877Y404434D01*
X386410D01*
X386943Y403901D01*
Y402835D01*
X386410Y402302D01*
X386943Y407633D02*
Y405501D01*
X384811Y407633D01*
X384277D01*
X383744Y407100D01*
Y406034D01*
X384277Y405501D01*
X356676Y399027D02*
X353477D01*
Y400626D01*
X354010Y401159D01*
X355077D01*
X355610Y400626D01*
Y399027D01*
Y400093D02*
X356676Y401159D01*
X354010Y402226D02*
X353477Y402759D01*
Y403825D01*
X354010Y404358D01*
X354543D01*
X355077Y403825D01*
Y403292D01*
Y403825D01*
X355610Y404358D01*
X356143D01*
X356676Y403825D01*
Y402759D01*
X356143Y402226D01*
X356676Y407024D02*
X353477D01*
X355077Y405425D01*
Y407557D01*
X335839Y393532D02*
Y396731D01*
X337439D01*
X337972Y396198D01*
Y395131D01*
X337439Y394598D01*
X335839D01*
X336906D02*
X337972Y393532D01*
X341171D02*
X339038D01*
X341171Y395664D01*
Y396198D01*
X340638Y396731D01*
X339572D01*
X339038Y396198D01*
X342237Y394065D02*
X342771Y393532D01*
X343837D01*
X344370Y394065D01*
Y396198D01*
X343837Y396731D01*
X342771D01*
X342237Y396198D01*
Y395664D01*
X342771Y395131D01*
X344370D01*
X391945Y399050D02*
X388747D01*
Y400650D01*
X389280Y401183D01*
X390346D01*
X390879Y400650D01*
Y399050D01*
Y400117D02*
X391945Y401183D01*
X389280Y402249D02*
X388747Y402782D01*
Y403849D01*
X389280Y404382D01*
X389813D01*
X390346Y403849D01*
Y403316D01*
Y403849D01*
X390879Y404382D01*
X391412D01*
X391945Y403849D01*
Y402782D01*
X391412Y402249D01*
X389280Y405448D02*
X388747Y405981D01*
Y407048D01*
X389280Y407581D01*
X389813D01*
X390346Y407048D01*
Y406515D01*
Y407048D01*
X390879Y407581D01*
X391412D01*
X391945Y407048D01*
Y405981D01*
X391412Y405448D01*
X382087Y399255D02*
X378888D01*
Y400854D01*
X379421Y401387D01*
X380487D01*
X381020Y400854D01*
Y399255D01*
Y400321D02*
X382087Y401387D01*
X379421Y402454D02*
X378888Y402987D01*
Y404053D01*
X379421Y404586D01*
X379954D01*
X380487Y404053D01*
Y403520D01*
Y404053D01*
X381020Y404586D01*
X381553D01*
X382087Y404053D01*
Y402987D01*
X381553Y402454D01*
X382087Y405653D02*
Y406719D01*
Y406186D01*
X378888D01*
X379421Y405653D01*
X362463Y332415D02*
X361929Y332948D01*
X360863D01*
X360330Y332415D01*
Y330282D01*
X360863Y329749D01*
X361929D01*
X362463Y330282D01*
X363529Y329749D02*
X364595D01*
X364062D01*
Y332948D01*
X363529Y332415D01*
X368327Y332948D02*
X367261Y332415D01*
X366195Y331349D01*
Y330282D01*
X366728Y329749D01*
X367794D01*
X368327Y330282D01*
Y330816D01*
X367794Y331349D01*
X366195D01*
X323998Y349430D02*
X323464Y348897D01*
Y347830D01*
X323998Y347297D01*
X326130D01*
X326663Y347830D01*
Y348897D01*
X326130Y349430D01*
X326663Y350496D02*
Y351562D01*
Y351029D01*
X323464D01*
X323998Y350496D01*
Y353162D02*
X323464Y353695D01*
Y354761D01*
X323998Y355295D01*
X324531D01*
X325064Y354761D01*
Y354228D01*
Y354761D01*
X325597Y355295D01*
X326130D01*
X326663Y354761D01*
Y353695D01*
X326130Y353162D01*
X375546Y333033D02*
X375013Y333566D01*
X373946D01*
X373413Y333033D01*
Y330901D01*
X373946Y330367D01*
X375013D01*
X375546Y330901D01*
X376612Y330367D02*
X377679D01*
X377145D01*
Y333566D01*
X376612Y333033D01*
X379278Y330901D02*
X379811Y330367D01*
X380877D01*
X381411Y330901D01*
Y333033D01*
X380877Y333566D01*
X379811D01*
X379278Y333033D01*
Y332500D01*
X379811Y331967D01*
X381411D01*
X415140Y358011D02*
X414607Y358544D01*
X413540D01*
X413007Y358011D01*
Y355878D01*
X413540Y355345D01*
X414607D01*
X415140Y355878D01*
X418339Y355345D02*
X416206D01*
X418339Y357478D01*
Y358011D01*
X417806Y358544D01*
X416739D01*
X416206Y358011D01*
X421538Y355345D02*
X419405D01*
X421538Y357478D01*
Y358011D01*
X421004Y358544D01*
X419938D01*
X419405Y358011D01*
X318345Y377337D02*
X317812Y377870D01*
X316746D01*
X316212Y377337D01*
Y375205D01*
X316746Y374671D01*
X317812D01*
X318345Y375205D01*
X319411Y374671D02*
X320478D01*
X319945D01*
Y377870D01*
X319411Y377337D01*
X323677Y374671D02*
Y377870D01*
X322077Y376271D01*
X324210D01*
X359081Y401102D02*
X358548Y400569D01*
Y399503D01*
X359081Y398970D01*
X361214D01*
X361747Y399503D01*
Y400569D01*
X361214Y401102D01*
X361747Y402169D02*
Y403235D01*
Y402702D01*
X358548D01*
X359081Y402169D01*
X358548Y404835D02*
Y406967D01*
X359081D01*
X361214Y404835D01*
X361747D01*
X394751Y401131D02*
X394218Y400598D01*
Y399531D01*
X394751Y398998D01*
X396883D01*
X397417Y399531D01*
Y400598D01*
X396883Y401131D01*
X397417Y404330D02*
Y402197D01*
X395284Y404330D01*
X394751D01*
X394218Y403797D01*
Y402730D01*
X394751Y402197D01*
Y405396D02*
X394218Y405929D01*
Y406996D01*
X394751Y407529D01*
X395284D01*
X395817Y406996D01*
Y406462D01*
Y406996D01*
X396350Y407529D01*
X396883D01*
X397417Y406996D01*
Y405929D01*
X396883Y405396D01*
X374236Y401102D02*
X373703Y400569D01*
Y399503D01*
X374236Y398970D01*
X376369D01*
X376902Y399503D01*
Y400569D01*
X376369Y401102D01*
X376902Y404302D02*
Y402169D01*
X374769Y404302D01*
X374236D01*
X373703Y403768D01*
Y402702D01*
X374236Y402169D01*
Y405368D02*
X373703Y405901D01*
Y406967D01*
X374236Y407501D01*
X376369D01*
X376902Y406967D01*
Y405901D01*
X376369Y405368D01*
X374236D01*
X444633Y229913D02*
X446766Y226714D01*
Y229913D02*
X444633Y226714D01*
X447832D02*
X448899D01*
X448365D01*
Y229913D01*
X447832Y229380D01*
X403499Y231021D02*
X404032Y230487D01*
X405098D01*
X405631Y231021D01*
Y233153D01*
X405098Y233686D01*
X404032D01*
X403499Y233153D01*
X402432D02*
X401899Y233686D01*
X400833D01*
X400300Y233153D01*
Y231021D01*
X400833Y230487D01*
X401899D01*
X402432Y231021D01*
Y231554D01*
X401899Y232087D01*
X400300D01*
X389438Y211149D02*
Y208483D01*
X389971Y207950D01*
X391038D01*
X391571Y208483D01*
Y211149D01*
X394770Y207950D02*
X392637D01*
X394770Y210082D01*
Y210615D01*
X394237Y211149D01*
X393170D01*
X392637Y210615D01*
X402638Y215184D02*
Y218383D01*
X404238D01*
X404771Y217850D01*
Y216783D01*
X404238Y216250D01*
X402638D01*
X403705D02*
X404771Y215184D01*
X407970D02*
X405837D01*
X407970Y217316D01*
Y217850D01*
X407437Y218383D01*
X406370D01*
X405837Y217850D01*
X380956Y159280D02*
Y162479D01*
X382555D01*
X383088Y161945D01*
Y160879D01*
X382555Y160346D01*
X380956D01*
X382022D02*
X383088Y159280D01*
X384154Y161945D02*
X384688Y162479D01*
X385754D01*
X386287Y161945D01*
Y161412D01*
X385754Y160879D01*
X385221D01*
X385754D01*
X386287Y160346D01*
Y159813D01*
X385754Y159280D01*
X384688D01*
X384154Y159813D01*
X346511Y214392D02*
Y217591D01*
X348110D01*
X348643Y217058D01*
Y215992D01*
X348110Y215459D01*
X346511D01*
X347577D02*
X348643Y214392D01*
X351842D02*
X349710D01*
X351842Y216525D01*
Y217058D01*
X351309Y217591D01*
X350243D01*
X349710Y217058D01*
X354508Y214392D02*
Y217591D01*
X352909Y215992D01*
X355041D01*
X333323Y169093D02*
Y172292D01*
X334923D01*
X335456Y171759D01*
Y170692D01*
X334923Y170159D01*
X333323D01*
X334389D02*
X335456Y169093D01*
X338655D02*
X336522D01*
X338655Y171225D01*
Y171759D01*
X338122Y172292D01*
X337055D01*
X336522Y171759D01*
X339721D02*
X340254Y172292D01*
X341321D01*
X341854Y171759D01*
Y171225D01*
X341321Y170692D01*
X341854Y170159D01*
Y169626D01*
X341321Y169093D01*
X340254D01*
X339721Y169626D01*
Y170159D01*
X340254Y170692D01*
X339721Y171225D01*
Y171759D01*
X340254Y170692D02*
X341321D01*
X353151Y158247D02*
Y155048D01*
X354750D01*
X355283Y155582D01*
Y157714D01*
X354750Y158247D01*
X353151D01*
X358482Y155048D02*
X356350D01*
X358482Y157181D01*
Y157714D01*
X357949Y158247D01*
X356883D01*
X356350Y157714D01*
X535174Y185335D02*
X534641Y185868D01*
X533575D01*
X533041Y185335D01*
Y183203D01*
X533575Y182669D01*
X534641D01*
X535174Y183203D01*
X538373Y185868D02*
X537307Y185335D01*
X536240Y184269D01*
Y183203D01*
X536774Y182669D01*
X537840D01*
X538373Y183203D01*
Y183736D01*
X537840Y184269D01*
X536240D01*
X536733Y247266D02*
X536200Y247799D01*
X535133D01*
X534600Y247266D01*
Y245133D01*
X535133Y244600D01*
X536200D01*
X536733Y245133D01*
X539398Y244600D02*
Y247799D01*
X537799Y246199D01*
X539932D01*
X344063Y158012D02*
X343530Y158545D01*
X342464D01*
X341931Y158012D01*
Y155879D01*
X342464Y155346D01*
X343530D01*
X344063Y155879D01*
X345130Y158545D02*
X347262D01*
Y158012D01*
X345130Y155879D01*
Y155346D01*
X516953Y321308D02*
Y318642D01*
X517487Y318109D01*
X518553D01*
X519086Y318642D01*
Y321308D01*
X520152Y320775D02*
X520685Y321308D01*
X521752D01*
X522285Y320775D01*
Y320242D01*
X521752Y319709D01*
X521219D01*
X521752D01*
X522285Y319176D01*
Y318642D01*
X521752Y318109D01*
X520685D01*
X520152Y318642D01*
X244433Y193099D02*
X243366D01*
X243899D01*
Y190433D01*
X243366Y189900D01*
X242833D01*
X242300Y190433D01*
X245499Y189900D02*
X246565D01*
X246032D01*
Y193099D01*
X245499Y192566D01*
X343133Y211066D02*
X342600Y211599D01*
X341533D01*
X341000Y211066D01*
Y210533D01*
X341533Y209999D01*
X342600D01*
X343133Y209466D01*
Y208933D01*
X342600Y208400D01*
X341533D01*
X341000Y208933D01*
X344199Y211599D02*
Y208400D01*
X345265Y209466D01*
X346332Y208400D01*
Y211599D01*
X347398Y208400D02*
X348464D01*
X347931D01*
Y211599D01*
X347398Y211066D01*
X509208Y323636D02*
Y326835D01*
X510808D01*
X511341Y326302D01*
Y325236D01*
X510808Y324702D01*
X509208D01*
X510275D02*
X511341Y323636D01*
X514540D02*
X512407D01*
X514540Y325769D01*
Y326302D01*
X514007Y326835D01*
X512941D01*
X512407Y326302D01*
X515606Y326835D02*
X517739D01*
Y326302D01*
X515606Y324169D01*
Y323636D01*
X360723Y217287D02*
Y220486D01*
X362323D01*
X362856Y219953D01*
Y218886D01*
X362323Y218353D01*
X360723D01*
X361789D02*
X362856Y217287D01*
X366055D02*
X363922D01*
X366055Y219420D01*
Y219953D01*
X365522Y220486D01*
X364455D01*
X363922Y219953D01*
X369254Y220486D02*
X368187Y219953D01*
X367121Y218886D01*
Y217820D01*
X367654Y217287D01*
X368721D01*
X369254Y217820D01*
Y218353D01*
X368721Y218886D01*
X367121D01*
X388592Y225519D02*
X385393D01*
Y227119D01*
X385926Y227652D01*
X386993D01*
X387526Y227119D01*
Y225519D01*
Y226586D02*
X388592Y227652D01*
Y230851D02*
Y228718D01*
X386459Y230851D01*
X385926D01*
X385393Y230318D01*
Y229252D01*
X385926Y228718D01*
X385393Y234050D02*
Y231917D01*
X386993D01*
X386459Y232984D01*
Y233517D01*
X386993Y234050D01*
X388059D01*
X388592Y233517D01*
Y232451D01*
X388059Y231917D01*
X509318Y337136D02*
Y340335D01*
X510917D01*
X511450Y339802D01*
Y338736D01*
X510917Y338203D01*
X509318D01*
X510384D02*
X511450Y337136D01*
X514649D02*
X512517D01*
X514649Y339269D01*
Y339802D01*
X514116Y340335D01*
X513050D01*
X512517Y339802D01*
X515716D02*
X516249Y340335D01*
X517315D01*
X517848Y339802D01*
Y339269D01*
X517315Y338736D01*
X516782D01*
X517315D01*
X517848Y338203D01*
Y337669D01*
X517315Y337136D01*
X516249D01*
X515716Y337669D01*
X362802Y208165D02*
Y211364D01*
X364402D01*
X364935Y210830D01*
Y209764D01*
X364402Y209231D01*
X362802D01*
X363869D02*
X364935Y208165D01*
X368134D02*
X366001D01*
X368134Y210297D01*
Y210830D01*
X367601Y211364D01*
X366535D01*
X366001Y210830D01*
X371333Y208165D02*
X369200D01*
X371333Y210297D01*
Y210830D01*
X370800Y211364D01*
X369734D01*
X369200Y210830D01*
X399950Y218505D02*
X396751D01*
Y220104D01*
X397284Y220637D01*
X398350D01*
X398883Y220104D01*
Y218505D01*
Y219571D02*
X399950Y220637D01*
Y223836D02*
Y221704D01*
X397817Y223836D01*
X397284D01*
X396751Y223303D01*
Y222237D01*
X397284Y221704D01*
X399950Y224903D02*
Y225969D01*
Y225436D01*
X396751D01*
X397284Y224903D01*
X311195Y162941D02*
Y166140D01*
X312795D01*
X313328Y165607D01*
Y164541D01*
X312795Y164007D01*
X311195D01*
X312262D02*
X313328Y162941D01*
X316527D02*
X314394D01*
X316527Y165074D01*
Y165607D01*
X315994Y166140D01*
X314928D01*
X314394Y165607D01*
X317593D02*
X318127Y166140D01*
X319193D01*
X319726Y165607D01*
Y163474D01*
X319193Y162941D01*
X318127D01*
X317593Y163474D01*
Y165607D01*
X292800Y202000D02*
Y205199D01*
X294399D01*
X294933Y204666D01*
Y203600D01*
X294399Y203066D01*
X292800D01*
X293866D02*
X294933Y202000D01*
X295999D02*
X297065D01*
X296532D01*
Y205199D01*
X295999Y204666D01*
X298665Y202533D02*
X299198Y202000D01*
X300264D01*
X300797Y202533D01*
Y204666D01*
X300264Y205199D01*
X299198D01*
X298665Y204666D01*
Y204133D01*
X299198Y203600D01*
X300797D01*
X274463Y197184D02*
Y200383D01*
X276062D01*
X276595Y199850D01*
Y198784D01*
X276062Y198250D01*
X274463D01*
X275529D02*
X276595Y197184D01*
X277661D02*
X278728D01*
X278195D01*
Y200383D01*
X277661Y199850D01*
X280327D02*
X280860Y200383D01*
X281927D01*
X282460Y199850D01*
Y199317D01*
X281927Y198784D01*
X282460Y198250D01*
Y197717D01*
X281927Y197184D01*
X280860D01*
X280327Y197717D01*
Y198250D01*
X280860Y198784D01*
X280327Y199317D01*
Y199850D01*
X280860Y198784D02*
X281927D01*
X266021Y201204D02*
Y204403D01*
X267620D01*
X268154Y203870D01*
Y202803D01*
X267620Y202270D01*
X266021D01*
X267087D02*
X268154Y201204D01*
X269220D02*
X270286D01*
X269753D01*
Y204403D01*
X269220Y203870D01*
X271886Y204403D02*
X274018D01*
Y203870D01*
X271886Y201737D01*
Y201204D01*
X485170Y313207D02*
Y316406D01*
X486769D01*
X487302Y315873D01*
Y314807D01*
X486769Y314273D01*
X485170D01*
X486236D02*
X487302Y313207D01*
X488369D02*
X489435D01*
X488902D01*
Y316406D01*
X488369Y315873D01*
X493167Y316406D02*
X492101Y315873D01*
X491035Y314807D01*
Y313740D01*
X491568Y313207D01*
X492634D01*
X493167Y313740D01*
Y314273D01*
X492634Y314807D01*
X491035D01*
X486113Y302951D02*
Y306150D01*
X487712D01*
X488245Y305617D01*
Y304551D01*
X487712Y304018D01*
X486113D01*
X487179D02*
X488245Y302951D01*
X489312D02*
X490378D01*
X489845D01*
Y306150D01*
X489312Y305617D01*
X494110Y306150D02*
X491978D01*
Y304551D01*
X493044Y305084D01*
X493577D01*
X494110Y304551D01*
Y303485D01*
X493577Y302951D01*
X492511D01*
X491978Y303485D01*
X485405Y285328D02*
Y288527D01*
X487005D01*
X487538Y287994D01*
Y286928D01*
X487005Y286395D01*
X485405D01*
X486472D02*
X487538Y285328D01*
X488604D02*
X489671D01*
X489138D01*
Y288527D01*
X488604Y287994D01*
X492870Y285328D02*
Y288527D01*
X491270Y286928D01*
X493403D01*
X485641Y289749D02*
Y292948D01*
X487241D01*
X487774Y292415D01*
Y291348D01*
X487241Y290815D01*
X485641D01*
X486708D02*
X487774Y289749D01*
X488840D02*
X489907D01*
X489373D01*
Y292948D01*
X488840Y292415D01*
X493639Y289749D02*
X491506D01*
X493639Y291881D01*
Y292415D01*
X493106Y292948D01*
X492039D01*
X491506Y292415D01*
X486702Y298177D02*
Y301376D01*
X488302D01*
X488835Y300843D01*
Y299777D01*
X488302Y299244D01*
X486702D01*
X487769D02*
X488835Y298177D01*
X489901D02*
X490968D01*
X490434D01*
Y301376D01*
X489901Y300843D01*
X492567Y298177D02*
X493633D01*
X493100D01*
Y301376D01*
X492567Y300843D01*
X368236Y238282D02*
Y241481D01*
X369835D01*
X370368Y240948D01*
Y239881D01*
X369835Y239348D01*
X368236D01*
X369302D02*
X370368Y238282D01*
X371434D02*
X372501D01*
X371968D01*
Y241481D01*
X371434Y240948D01*
X374100D02*
X374634Y241481D01*
X375700D01*
X376233Y240948D01*
Y238815D01*
X375700Y238282D01*
X374634D01*
X374100Y238815D01*
Y240948D01*
X510705Y307588D02*
Y310787D01*
X512305D01*
X512838Y310254D01*
Y309187D01*
X512305Y308654D01*
X510705D01*
X511772D02*
X512838Y307588D01*
X513904Y308121D02*
X514437Y307588D01*
X515504D01*
X516037Y308121D01*
Y310254D01*
X515504Y310787D01*
X514437D01*
X513904Y310254D01*
Y309721D01*
X514437Y309187D01*
X516037D01*
X515229Y282617D02*
Y285816D01*
X516829D01*
X517362Y285283D01*
Y284216D01*
X516829Y283683D01*
X515229D01*
X516296D02*
X517362Y282617D01*
X518428Y285283D02*
X518961Y285816D01*
X520028D01*
X520561Y285283D01*
Y284750D01*
X520028Y284216D01*
X520561Y283683D01*
Y283150D01*
X520028Y282617D01*
X518961D01*
X518428Y283150D01*
Y283683D01*
X518961Y284216D01*
X518428Y284750D01*
Y285283D01*
X518961Y284216D02*
X520028D01*
X510043Y295584D02*
Y298783D01*
X511642D01*
X512175Y298250D01*
Y297183D01*
X511642Y296650D01*
X510043D01*
X511109D02*
X512175Y295584D01*
X513241Y298783D02*
X515374D01*
Y298250D01*
X513241Y296117D01*
Y295584D01*
X362199Y221781D02*
Y224980D01*
X363798D01*
X364331Y224447D01*
Y223381D01*
X363798Y222847D01*
X362199D01*
X363265D02*
X364331Y221781D01*
X367530Y224980D02*
X366464Y224447D01*
X365398Y223381D01*
Y222314D01*
X365931Y221781D01*
X366997D01*
X367530Y222314D01*
Y222847D01*
X366997Y223381D01*
X365398D01*
X362400Y226812D02*
Y230011D01*
X364000D01*
X364533Y229478D01*
Y228411D01*
X364000Y227878D01*
X362400D01*
X363466D02*
X364533Y226812D01*
X367732Y230011D02*
X365599D01*
Y228411D01*
X366665Y228944D01*
X367198D01*
X367732Y228411D01*
Y227345D01*
X367198Y226812D01*
X366132D01*
X365599Y227345D01*
X327080Y185161D02*
Y188360D01*
X328679D01*
X329212Y187827D01*
Y186760D01*
X328679Y186227D01*
X327080D01*
X328146D02*
X329212Y185161D01*
X331878D02*
Y188360D01*
X330279Y186760D01*
X332411D01*
X316115Y181779D02*
Y178580D01*
X317715D01*
X318248Y179114D01*
Y181246D01*
X317715Y181779D01*
X316115D01*
X319314Y178580D02*
X320380D01*
X319847D01*
Y181779D01*
X319314Y181246D01*
X363000Y326299D02*
Y323633D01*
X363533Y323100D01*
X364599D01*
X365133Y323633D01*
Y326299D01*
X366199Y323100D02*
X367265D01*
X366732D01*
Y326299D01*
X366199Y325766D01*
D12*
X404728Y202009D02*
G03*
X404728Y202009I-1181J0D01*
G01*
D13*
X394787Y206124D02*
G03*
X394787Y206124I-492J0D01*
G01*
X373328Y306960D02*
G03*
X373328Y306960I-492J0D01*
G01*
D14*
X352063Y163738D02*
G03*
X352063Y163738I-197J0D01*
G01*
X441467Y217365D02*
G03*
X441467Y217365I-197J0D01*
G01*
X406443Y339621D02*
X408243D01*
X406443Y336021D02*
X408243D01*
X388025Y333784D02*
Y335583D01*
X391625Y333784D02*
Y335583D01*
X348967Y333665D02*
Y335465D01*
X352567Y333665D02*
Y335465D01*
X328955Y334948D02*
Y336748D01*
X332555Y334948D02*
Y336748D01*
X527462Y235030D02*
X529262D01*
X527462Y238630D02*
X529262D01*
D15*
X241570Y354656D02*
G03*
X241570Y354656I-787J0D01*
G01*
D16*
X252397Y155757D02*
G03*
X252397Y155757I-433J0D01*
G01*
D17*
X541816Y215869D02*
Y216470D01*
X544016Y215869D02*
Y216470D01*
X398400Y237518D02*
X399000D01*
X398400Y235318D02*
X399000D01*
X438042Y216407D02*
X438642D01*
X438042Y214207D02*
X438642D01*
X520165Y299582D02*
Y300182D01*
X517965Y299582D02*
Y300182D01*
X511850Y333504D02*
X512450D01*
X511850Y335704D02*
X512450D01*
X511747Y331214D02*
X512347D01*
X511747Y329014D02*
X512347D01*
X497489Y320507D02*
X498089D01*
X497489Y318307D02*
X498089D01*
X497563Y313436D02*
X498163D01*
X497563Y315636D02*
X498163D01*
X509067Y305401D02*
Y306001D01*
X506867Y305401D02*
Y306001D01*
X499252Y302641D02*
X499852D01*
X499252Y304840D02*
X499852D01*
X498974Y298343D02*
X499574D01*
X498974Y300543D02*
X499574D01*
X498954Y289631D02*
X499554D01*
X498954Y291831D02*
X499554D01*
X499163Y285800D02*
X499763D01*
X499163Y288000D02*
X499763D01*
X507298Y284606D02*
Y285206D01*
X509498Y284606D02*
Y285206D01*
X543684Y183759D02*
Y184359D01*
X541484Y183759D02*
Y184359D01*
X449441Y194034D02*
Y194634D01*
X451641Y194034D02*
Y194634D01*
X456537Y180377D02*
X457137D01*
X456537Y182577D02*
X457137D01*
X428522Y221760D02*
Y222360D01*
X430723Y221760D02*
Y222360D01*
X414050Y232112D02*
X414650D01*
X414050Y234312D02*
X414650D01*
X399092Y212049D02*
Y212649D01*
X401292Y212049D02*
Y212649D01*
X390420Y220543D02*
Y221143D01*
X392620Y220543D02*
Y221143D01*
X388049Y220543D02*
Y221143D01*
X385849Y220543D02*
Y221143D01*
X371095Y234006D02*
X371695D01*
X371095Y236206D02*
X371695D01*
X360930Y215194D02*
X361530D01*
X360930Y212994D02*
X361530D01*
X376239Y228122D02*
X376839D01*
X376239Y225922D02*
X376839D01*
X376408Y223382D02*
X377008D01*
X376408Y221182D02*
X377008D01*
X376251Y216300D02*
X376851D01*
X376251Y218500D02*
X376851D01*
X376251Y213684D02*
X376851D01*
X376251Y211484D02*
X376851D01*
X382363Y166488D02*
X382963D01*
X382363Y164287D02*
X382963D01*
X344566Y162977D02*
X345166D01*
X344566Y160776D02*
X345166D01*
X336138Y166966D02*
X336738D01*
X336138Y164766D02*
X336738D01*
X325199Y185785D02*
Y186385D01*
X322999Y185785D02*
Y186385D01*
X311887Y171745D02*
Y172345D01*
X314087Y171745D02*
Y172345D01*
X269828Y196188D02*
Y196788D01*
X267628Y196188D02*
Y196788D01*
X276129Y193442D02*
X276729D01*
X276129Y195642D02*
X276729D01*
X395426Y390896D02*
Y391496D01*
X397625Y390896D02*
Y391496D01*
X389949Y391022D02*
Y391622D01*
X392149Y391022D02*
Y391622D01*
X384911Y390934D02*
Y391534D01*
X387111Y390934D02*
Y391534D01*
X380001Y391022D02*
Y391622D01*
X382201Y391022D02*
Y391622D01*
X374838Y391022D02*
Y391622D01*
X377038Y391022D02*
Y391622D01*
X364998Y390967D02*
Y391567D01*
X367198Y390967D02*
Y391567D01*
X359828Y391028D02*
Y391628D01*
X362028Y391028D02*
Y391628D01*
X354831Y390981D02*
Y391581D01*
X357031Y390981D02*
Y391581D01*
X330505Y373582D02*
X331105D01*
X330505Y375782D02*
X331105D01*
X343838Y389393D02*
X344438D01*
X343838Y391593D02*
X344438D01*
X294617Y195843D02*
Y196443D01*
X292417Y195843D02*
Y196443D01*
X534459Y238400D02*
Y239000D01*
X536659Y238400D02*
Y239000D01*
X430082Y230566D02*
Y231166D01*
X427882Y230566D02*
Y231166D01*
X333291Y308500D02*
Y309100D01*
X331091Y308500D02*
Y309100D01*
X286901Y276384D02*
Y276984D01*
X284701Y276384D02*
Y276984D01*
X293189Y279443D02*
Y280043D01*
X290989Y279443D02*
Y280043D01*
D18*
X526616Y302678D02*
Y323466D01*
X547206Y302678D02*
Y323466D01*
X223066Y359775D02*
X230743D01*
X223066Y384381D02*
Y416468D01*
X251216Y359775D02*
X258499D01*
X223066D02*
Y364302D01*
X258499Y359775D02*
Y416468D01*
X223066D02*
X258499D01*
X243007Y159891D02*
Y184694D01*
X308559Y159891D02*
Y184694D01*
D19*
X440790Y164622D02*
Y177968D01*
Y164622D02*
X504334D01*
Y177968D01*
X440790D02*
X504334D01*
D20*
X323742Y175824D02*
Y176024D01*
X323642Y175924D02*
X323842D01*
X324242Y174324D02*
Y176124D01*
D21*
X323742Y173924D02*
Y174224D01*
X324842D01*
Y173924D02*
Y174224D01*
X323742Y173924D02*
X324842D01*
X323742D02*
Y174024D01*
X324742D01*
Y174124D01*
X323842D02*
X324742D01*
D22*
X362923Y320023D02*
X446923D01*
Y236023D02*
Y320023D01*
X362923Y236023D02*
X446923D01*
X362923D02*
Y320023D01*
X228178Y304725D02*
Y316725D01*
Y327725D01*
X201178Y324225D02*
Y327225D01*
Y324225D02*
X207678D01*
Y327225D01*
X262178Y304725D02*
Y327725D01*
X194178D02*
X262178D01*
X194178Y304725D02*
Y327725D01*
Y304725D02*
X262178D01*
X192678Y316725D02*
X202678D01*
X253678D02*
X263678D01*
X228178Y227110D02*
Y239110D01*
Y250110D01*
X201178Y246610D02*
Y249610D01*
Y246610D02*
X207678D01*
Y249610D01*
X262178Y227110D02*
Y250110D01*
X194178D02*
X262178D01*
X194178Y227110D02*
Y250110D01*
Y227110D02*
X262178D01*
X192678Y239110D02*
X202678D01*
X253678D02*
X263678D01*
X342220Y344936D02*
Y384306D01*
X405212D01*
Y344936D02*
Y384306D01*
X342220Y344936D02*
X405212D01*
M02*
