G04*
G04 #@! TF.GenerationSoftware,Altium Limited,Altium Designer,20.1.11 (218)*
G04*
G04 Layer_Physical_Order=3*
G04 Layer_Color=16440176*
%FSLAX25Y25*%
%MOIN*%
G70*
G04*
G04 #@! TF.SameCoordinates,731B5D3F-845C-401C-AC73-029E605C2F8B*
G04*
G04*
G04 #@! TF.FilePolarity,Positive*
G04*
G01*
G75*
%ADD76O,0.08858X0.17717*%
%ADD77O,0.17717X0.08858*%
%ADD78O,0.19685X0.09843*%
%ADD80C,0.03000*%
%ADD82C,0.01000*%
G36*
X420197Y409092D02*
X420697Y409092D01*
Y355115D01*
X378759D01*
X378707Y355167D01*
X378706Y355168D01*
X378705Y355169D01*
X378476Y355262D01*
X378247Y355356D01*
X378246Y355356D01*
X378245Y355356D01*
X368563Y355305D01*
X368336Y355209D01*
X368108Y355115D01*
X368108Y355115D01*
X364082D01*
X363932Y355176D01*
X363704Y355271D01*
X358716D01*
X358340Y355115D01*
X349798D01*
Y356374D01*
X350298Y356526D01*
X350398Y356376D01*
X350762Y356133D01*
X351191Y356048D01*
X351620Y356133D01*
X351984Y356376D01*
X352227Y356740D01*
X352313Y357170D01*
X352227Y357599D01*
X351984Y357962D01*
X351620Y358206D01*
X351191Y358291D01*
X350762Y358206D01*
X350398Y357962D01*
X350298Y357813D01*
X349798Y357965D01*
Y359479D01*
X349608Y359938D01*
X349264Y360281D01*
X349234Y360294D01*
X349218Y360324D01*
X349008Y360388D01*
X348805Y360472D01*
X348774Y360459D01*
X348743Y360469D01*
X330602Y358717D01*
X330408Y358613D01*
X330205Y358529D01*
X330171Y358495D01*
X330167Y358485D01*
X330164Y358483D01*
X330156Y358458D01*
X329981Y358036D01*
Y355115D01*
X230036Y355115D01*
X230035Y372881D01*
X230388Y373234D01*
X248155Y373234D01*
X284013Y409092D01*
X420197Y409092D01*
D02*
G37*
G36*
X349149Y359479D02*
Y344121D01*
X349011D01*
X340766Y335876D01*
X330630D01*
Y358036D01*
X330665Y358070D01*
X348805Y359822D01*
X349149Y359479D01*
D02*
G37*
G36*
X419328Y341089D02*
X413604Y335365D01*
X413348Y335620D01*
X407419D01*
Y339556D01*
X405579Y341396D01*
X387831D01*
X383793Y345434D01*
X383660Y353947D01*
X384153Y354429D01*
X419328D01*
Y341089D01*
D02*
G37*
G36*
X345405Y335181D02*
X345669Y334972D01*
Y334751D01*
X345859Y334292D01*
X346119Y334032D01*
X346021Y333885D01*
X346033Y333821D01*
X346008Y333760D01*
X345970Y327351D01*
X345971Y327349D01*
X345970Y327347D01*
X346065Y327119D01*
X346158Y326891D01*
X346160Y326890D01*
X346161Y326888D01*
X356506Y316543D01*
X356965Y316353D01*
X361302D01*
X376089Y301566D01*
X375964Y300984D01*
X375783Y300864D01*
X375540Y300500D01*
X375455Y300071D01*
X375540Y299641D01*
X375783Y299278D01*
X376147Y299035D01*
X376576Y298949D01*
X377006Y299035D01*
X377369Y299278D01*
X377490Y299458D01*
X377605Y299555D01*
X378026Y299668D01*
X378185Y299652D01*
X378332Y299591D01*
X378690Y299641D01*
X378933Y299278D01*
X379297Y299035D01*
X379247Y298677D01*
X379308Y298530D01*
X379324Y298371D01*
X379399Y298309D01*
X379437Y298218D01*
X381023Y296632D01*
X381114Y296594D01*
X381176Y296518D01*
X381335Y296503D01*
X381482Y296442D01*
X381839Y296492D01*
X382083Y296128D01*
X382447Y295885D01*
X382396Y295528D01*
X382457Y295380D01*
X382473Y295221D01*
X382549Y295159D01*
X382587Y295068D01*
X385538Y292117D01*
X385412Y291535D01*
X385232Y291415D01*
X384989Y291051D01*
X384904Y290622D01*
X384989Y290193D01*
X385232Y289829D01*
X385596Y289586D01*
X386025Y289500D01*
X386455Y289586D01*
X386818Y289829D01*
X386939Y290009D01*
X387053Y290106D01*
X387475Y290219D01*
X387634Y290204D01*
X387781Y290143D01*
X388139Y290193D01*
X388382Y289829D01*
X388746Y289586D01*
X388696Y289228D01*
X388757Y289081D01*
X388772Y288922D01*
X388659Y288500D01*
X388562Y288386D01*
X388382Y288265D01*
X388139Y287901D01*
X388053Y287472D01*
X388139Y287043D01*
X388382Y286679D01*
X388746Y286436D01*
X389175Y286351D01*
X389604Y286436D01*
X389968Y286679D01*
X390088Y286859D01*
X390203Y286956D01*
X390625Y287070D01*
X390784Y287054D01*
X390931Y286993D01*
X391288Y287043D01*
X391531Y286679D01*
X391895Y286436D01*
X391845Y286079D01*
X391906Y285931D01*
X391922Y285772D01*
X391809Y285351D01*
X391712Y285236D01*
X391531Y285116D01*
X391288Y284752D01*
X391203Y284323D01*
X391288Y283893D01*
X391531Y283530D01*
X391895Y283286D01*
X392324Y283201D01*
X392668Y283269D01*
X392992Y283099D01*
X393168Y282962D01*
X393168Y276236D01*
X393003Y276102D01*
X392668Y275925D01*
X392331Y275992D01*
X391902Y275907D01*
X391538Y275664D01*
X391295Y275300D01*
X391209Y274871D01*
X391295Y274441D01*
X391538Y274078D01*
X391902Y273834D01*
X392331Y273749D01*
X392668Y273816D01*
X393003Y273639D01*
X393168Y273505D01*
Y268047D01*
X393358Y267588D01*
X394685Y266261D01*
X394681Y266218D01*
X394438Y265854D01*
X394353Y265425D01*
X394438Y264996D01*
X394681Y264632D01*
X395045Y264389D01*
X395474Y264303D01*
X395903Y264389D01*
X396267Y264632D01*
X396310Y264636D01*
X397835Y263111D01*
X397831Y263069D01*
X397587Y262705D01*
X397502Y262275D01*
X397587Y261846D01*
X397831Y261482D01*
X398195Y261239D01*
X398624Y261154D01*
X398652Y261159D01*
X399017Y260969D01*
X399129Y260708D01*
X399147Y260604D01*
X398764Y260219D01*
X398624Y260247D01*
X398195Y260162D01*
X397831Y259919D01*
X397587Y259555D01*
X397502Y259126D01*
X397587Y258697D01*
X397831Y258333D01*
X398195Y258090D01*
X398624Y258004D01*
X399053Y258090D01*
X399417Y258333D01*
X399660Y258697D01*
X399745Y259126D01*
X399660Y259555D01*
X399465Y259846D01*
X399594Y260120D01*
X399733Y260277D01*
X399802Y260248D01*
X400642D01*
X400866Y259748D01*
X400737Y259555D01*
X400652Y259126D01*
X400737Y258697D01*
X400980Y258333D01*
X401344Y258090D01*
X401773Y258004D01*
X402203Y258090D01*
X402566Y258333D01*
X402809Y258697D01*
X402895Y259126D01*
X402809Y259555D01*
X402680Y259748D01*
X402692Y259792D01*
X403001Y260169D01*
X403013Y260164D01*
X403472Y260354D01*
X405753Y262635D01*
X405908Y263009D01*
X409173D01*
X409762Y261142D01*
X409863Y261023D01*
X409922Y260879D01*
X410016Y260840D01*
X410082Y260762D01*
X410237Y260748D01*
X410382Y260688D01*
X410877D01*
X410926Y260188D01*
X410793Y260162D01*
X410429Y259919D01*
X410186Y259555D01*
X410101Y259126D01*
X410186Y258697D01*
X410429Y258333D01*
X410793Y258090D01*
X411222Y258004D01*
X411651Y258090D01*
X412015Y258333D01*
X412258Y258697D01*
X412344Y259126D01*
X412258Y259555D01*
X412015Y259919D01*
X411651Y260162D01*
X411518Y260188D01*
X411568Y260688D01*
X412439D01*
X412660Y260780D01*
X412884Y260864D01*
X413547Y261486D01*
X413579Y261482D01*
X413942Y261239D01*
X414372Y261154D01*
X414801Y261239D01*
X415165Y261482D01*
X415408Y261846D01*
X415493Y262275D01*
X415408Y262705D01*
X415192Y263027D01*
X415359Y263184D01*
X415423Y263325D01*
X415527Y263440D01*
X416028Y264848D01*
X416112Y264875D01*
X416568Y264872D01*
X416728Y264632D01*
X417092Y264389D01*
X417521Y264303D01*
X417950Y264389D01*
X418314Y264632D01*
X418558Y264996D01*
X418643Y265425D01*
X418558Y265854D01*
X418314Y266218D01*
X417950Y266461D01*
X417521Y266547D01*
X417092Y266461D01*
X416748Y266231D01*
X416673Y266215D01*
X416449Y266204D01*
X416188Y266279D01*
X415127Y267505D01*
X415165Y267782D01*
X415408Y268145D01*
X415493Y268575D01*
X415408Y269004D01*
X415165Y269368D01*
X414801Y269611D01*
X414372Y269696D01*
X414095Y269641D01*
X413574Y269920D01*
X413349Y272994D01*
X416368Y276013D01*
X416558Y276472D01*
Y279892D01*
X417058Y280160D01*
X417092Y280137D01*
X417521Y280051D01*
X417950Y280137D01*
X418314Y280380D01*
X418558Y280744D01*
X418643Y281173D01*
X418558Y281602D01*
X418314Y281966D01*
X417950Y282209D01*
X417521Y282295D01*
X417092Y282209D01*
X416799Y282615D01*
X416721Y282782D01*
X416738Y282822D01*
X416547Y283281D01*
X415820Y284008D01*
X415789Y284021D01*
X415773Y284051D01*
X415563Y284115D01*
X415460Y284157D01*
X415493Y284323D01*
X415408Y284752D01*
X415165Y285116D01*
X414801Y285359D01*
X414372Y285444D01*
X414206Y285411D01*
X414164Y285514D01*
X414100Y285724D01*
X414070Y285740D01*
X414057Y285771D01*
X413141Y286687D01*
Y286853D01*
X413080Y287000D01*
X413065Y287159D01*
X413026Y287320D01*
X413065Y287786D01*
D01*
X413108Y287960D01*
X413141Y288092D01*
X413141Y288253D01*
Y292127D01*
X412951Y292587D01*
X412492Y292777D01*
X409816Y292777D01*
Y295075D01*
X414199Y295075D01*
X417104Y292170D01*
X417100Y292008D01*
X416982Y291584D01*
X416728Y291415D01*
X416485Y291051D01*
X416400Y290622D01*
X416485Y290193D01*
X416728Y289829D01*
X417092Y289586D01*
X417521Y289500D01*
X417950Y289586D01*
X418314Y289829D01*
X418484Y290083D01*
X418908Y290201D01*
X419070Y290204D01*
X419733Y289541D01*
Y281749D01*
X419635Y281602D01*
X419549Y281173D01*
X419635Y280744D01*
X419733Y280598D01*
Y275449D01*
X419635Y275303D01*
X419549Y274874D01*
X419635Y274445D01*
X419733Y274298D01*
Y272300D01*
X419635Y272153D01*
X419549Y271724D01*
X419635Y271295D01*
X419733Y271149D01*
Y269150D01*
X419635Y269004D01*
X419549Y268575D01*
X419635Y268145D01*
X419733Y267999D01*
Y266001D01*
X419635Y265854D01*
X419549Y265425D01*
X419635Y264996D01*
X419733Y264849D01*
Y262851D01*
X419635Y262705D01*
X419549Y262275D01*
X419635Y261846D01*
X419733Y261700D01*
Y259701D01*
X419635Y259555D01*
X419549Y259126D01*
X419635Y258697D01*
X419733Y258550D01*
Y256552D01*
X419672Y256461D01*
X418520D01*
X418314Y256769D01*
X417950Y257012D01*
X417521Y257098D01*
X417092Y257012D01*
X416728Y256769D01*
X416522Y256461D01*
X412221D01*
X412015Y256769D01*
X411651Y257012D01*
X411222Y257098D01*
X410793Y257012D01*
X410429Y256769D01*
X410223Y256461D01*
X406391D01*
X402872Y256092D01*
X402809Y256405D01*
X402566Y256769D01*
X402203Y257012D01*
X401773Y257098D01*
X401344Y257012D01*
X400980Y256769D01*
X400737Y256405D01*
X400652Y255976D01*
X400737Y255547D01*
X400885Y255326D01*
X392567Y249237D01*
Y246355D01*
X377657D01*
X377566Y246447D01*
X377446Y246496D01*
X377317D01*
X377198Y246546D01*
X377078Y246496D01*
X376949D01*
X376858Y246405D01*
X376738Y246355D01*
X356891Y226508D01*
X337458D01*
X337347Y226462D01*
X337226Y226465D01*
X327398Y222697D01*
X327120Y223126D01*
X344321Y240326D01*
X344511Y240786D01*
X344321Y241245D01*
X344318Y241247D01*
Y254538D01*
X344816Y254949D01*
X345246Y255034D01*
X345609Y255277D01*
X345853Y255641D01*
X345938Y256070D01*
X345853Y256499D01*
X345609Y256863D01*
X345246Y257106D01*
X344816Y257192D01*
X344318Y257602D01*
Y263470D01*
X353579Y272731D01*
X353769Y273190D01*
X353579Y273649D01*
X353576Y273652D01*
Y298507D01*
X353386Y298966D01*
X342390Y309962D01*
D01*
X342051Y310301D01*
X342045Y310303D01*
X342043Y310309D01*
X341817Y310398D01*
X341592Y310491D01*
X341586Y310489D01*
X341581Y310491D01*
X341343Y310487D01*
X341120Y310390D01*
X340895Y310297D01*
X340509Y309911D01*
X340319Y309452D01*
Y279438D01*
X330286Y269406D01*
X330096Y268947D01*
Y247998D01*
X312541Y230443D01*
X312351Y229984D01*
Y219568D01*
X312471Y219277D01*
X308737Y215543D01*
X307723Y215154D01*
X199412D01*
Y318212D01*
Y335220D01*
X323516D01*
Y335287D01*
X330485D01*
X330630Y335226D01*
X340766D01*
X340911Y335287D01*
X345299D01*
X345405Y335181D01*
D02*
G37*
G36*
X378734Y354224D02*
Y349533D01*
X378775D01*
X388069Y340239D01*
X392104D01*
Y334649D01*
X392104Y334649D01*
X370248D01*
Y344442D01*
X368483Y346208D01*
X368567Y346292D01*
Y354656D01*
X378249Y354707D01*
X378734Y354224D01*
D02*
G37*
G36*
X363761Y344566D02*
X359947Y340751D01*
Y334408D01*
X346661D01*
X346318Y334751D01*
Y340023D01*
X348032D01*
X353475Y345466D01*
Y349381D01*
X353716Y349621D01*
X358704D01*
Y354609D01*
X358716Y354621D01*
X363704D01*
X363761Y344566D01*
D02*
G37*
G36*
X573051Y409092D02*
Y146915D01*
X239020Y146915D01*
Y188118D01*
X337458Y225858D01*
X357160D01*
X377198Y245896D01*
X377657Y245706D01*
X392567D01*
X393026Y245896D01*
X393216Y246355D01*
Y248907D01*
X401268Y254802D01*
X401352Y254939D01*
X401773Y254855D01*
X402203Y254940D01*
X402566Y255183D01*
X402774Y255495D01*
X402940Y255446D01*
X406425Y255812D01*
X410223D01*
X410285Y255837D01*
X410350Y255824D01*
X410507Y255929D01*
X410682Y256002D01*
X410708Y256063D01*
X410763Y256100D01*
X410897Y256301D01*
X411046Y256401D01*
X411222Y256436D01*
X411398Y256401D01*
X411547Y256301D01*
X411681Y256100D01*
X411736Y256063D01*
X411762Y256002D01*
X411937Y255929D01*
X412094Y255824D01*
X412160Y255837D01*
X412221Y255812D01*
X416433D01*
X416485Y255547D01*
X416728Y255183D01*
X417092Y254940D01*
X417521Y254855D01*
X417950Y254940D01*
X418314Y255183D01*
X418558Y255547D01*
X418610Y255812D01*
X419582D01*
X419635Y255547D01*
X419878Y255183D01*
X420242Y254940D01*
X420671Y254855D01*
X421100Y254940D01*
X421464Y255183D01*
X421707Y255547D01*
X421793Y255976D01*
X421707Y256405D01*
X421464Y256769D01*
X421100Y257012D01*
X420671Y257098D01*
X420382Y257335D01*
Y258550D01*
X420309Y258725D01*
X420272Y258911D01*
X420247Y258950D01*
X420212Y259126D01*
X420247Y259302D01*
X420272Y259341D01*
X420309Y259526D01*
X420382Y259701D01*
Y260917D01*
X420671Y261154D01*
X421100Y261239D01*
X421464Y261482D01*
X421707Y261846D01*
X421793Y262275D01*
X421707Y262705D01*
X421464Y263069D01*
X421100Y263312D01*
X420671Y263397D01*
X420427Y263597D01*
Y264103D01*
X420671Y264303D01*
X421100Y264389D01*
X421464Y264632D01*
X421707Y264996D01*
X421793Y265425D01*
X421707Y265854D01*
X421464Y266218D01*
X421100Y266461D01*
X420671Y266547D01*
X420427Y266747D01*
Y267253D01*
X420671Y267453D01*
X421100Y267538D01*
X421464Y267782D01*
X421707Y268145D01*
X421793Y268575D01*
X421707Y269004D01*
X421464Y269368D01*
X421100Y269611D01*
X420671Y269696D01*
X420427Y269896D01*
Y270402D01*
X420671Y270603D01*
X421100Y270688D01*
X421464Y270931D01*
X421707Y271295D01*
X421793Y271724D01*
X421707Y272153D01*
X421464Y272517D01*
X421100Y272760D01*
X420671Y272846D01*
X420427Y273046D01*
Y273552D01*
X420671Y273752D01*
X421100Y273838D01*
X421464Y274081D01*
X421707Y274445D01*
X421793Y274874D01*
X421707Y275303D01*
X421464Y275667D01*
X421100Y275910D01*
X420671Y275995D01*
X420382Y276233D01*
Y279814D01*
X420671Y280051D01*
X421100Y280137D01*
X421464Y280380D01*
X421707Y280744D01*
X421793Y281173D01*
X421707Y281602D01*
X421464Y281966D01*
X421100Y282209D01*
X420671Y282295D01*
X420382Y282532D01*
Y289541D01*
X420192Y290001D01*
X419529Y290663D01*
X419522Y290666D01*
X419518Y290674D01*
X419293Y290761D01*
X419070Y290854D01*
X419056Y290853D01*
X419055Y290854D01*
X418893Y290850D01*
X418558Y291051D01*
X418314Y291415D01*
X417950Y291658D01*
X417749Y291994D01*
X417753Y292156D01*
X417753Y292156D01*
X417753Y292170D01*
X417750Y292178D01*
X417964Y292730D01*
X418039Y292780D01*
X418328Y292973D01*
X418571Y293337D01*
X418656Y293766D01*
X418571Y294195D01*
X418328Y294559D01*
X417964Y294802D01*
X417534Y294888D01*
X417105Y294802D01*
X416742Y294559D01*
X416581Y294319D01*
X416022Y294170D01*
X414804Y295388D01*
X414806Y295591D01*
X414870Y295917D01*
X414891Y295954D01*
X415171Y296142D01*
X415415Y296506D01*
X415500Y296935D01*
X415415Y297364D01*
X415171Y297728D01*
X414808Y297971D01*
X414378Y298056D01*
X413949Y297971D01*
X413585Y297728D01*
X413342Y297364D01*
X413257Y296935D01*
X413342Y296506D01*
X413530Y296225D01*
X413436Y295917D01*
X413310Y295725D01*
X412301Y295725D01*
X412193Y295877D01*
X412080Y296225D01*
X412258Y296492D01*
X412344Y296921D01*
X412258Y297350D01*
X412015Y297714D01*
X411651Y297957D01*
X411222Y298043D01*
X410793Y297957D01*
X410429Y297714D01*
X410186Y297350D01*
X410101Y296921D01*
X410186Y296492D01*
X410364Y296225D01*
X410251Y295877D01*
X410143Y295725D01*
X409816D01*
X409357Y295534D01*
X409167Y295075D01*
Y292777D01*
X408667Y292777D01*
X406121D01*
X405854Y293277D01*
X405926Y293384D01*
X406011Y293813D01*
X405926Y294242D01*
X405683Y294606D01*
X405319Y294849D01*
X404889Y294935D01*
X404718Y295078D01*
X404814Y300762D01*
X404813Y300764D01*
X404814Y300767D01*
X404722Y300995D01*
X404631Y301224D01*
X404629Y301225D01*
X404628Y301228D01*
X404417Y301442D01*
X404415Y301443D01*
X404413Y301446D01*
X404186Y301540D01*
X403960Y301636D01*
X403957Y301635D01*
X403954Y301636D01*
X402845D01*
X402754Y301598D01*
X402657Y301608D01*
X402533Y301507D01*
X402386Y301446D01*
X402348Y301355D01*
X402272Y301293D01*
X402176Y301112D01*
X401773Y301192D01*
X401344Y301107D01*
X400980Y300864D01*
X400972Y300851D01*
X400912Y300762D01*
X400737Y300500D01*
X400652Y300071D01*
X400737Y299641D01*
X400980Y299278D01*
X401121Y299184D01*
X401078Y299081D01*
X400975Y298888D01*
X400985Y298855D01*
X400972Y298824D01*
Y297701D01*
X400737Y297350D01*
X400652Y296921D01*
X400737Y296492D01*
X400972Y296141D01*
Y294297D01*
X399945Y293270D01*
X399676Y293426D01*
X399745Y293772D01*
X399660Y294201D01*
X399417Y294565D01*
X399053Y294808D01*
X398624Y294893D01*
X398195Y294808D01*
X397831Y294565D01*
X397587Y294201D01*
X397502Y293772D01*
X397587Y293342D01*
X397831Y292978D01*
X398179Y292746D01*
X398182Y292724D01*
X398051Y292446D01*
X396047D01*
X395916Y292724D01*
X395919Y292746D01*
X396267Y292978D01*
X396510Y293342D01*
X396596Y293772D01*
X396510Y294201D01*
X396267Y294565D01*
X395903Y294808D01*
X395693Y294849D01*
X395506Y294887D01*
X395474Y294893D01*
Y295022D01*
Y295670D01*
Y295799D01*
X395903Y295885D01*
X396267Y296128D01*
X396510Y296492D01*
X396596Y296921D01*
X396510Y297350D01*
X396267Y297714D01*
X395903Y297957D01*
X395474Y298043D01*
Y298172D01*
Y298820D01*
Y298949D01*
X395506Y298955D01*
X395903Y299035D01*
X396267Y299278D01*
X396510Y299641D01*
X396596Y300071D01*
X396510Y300500D01*
X396267Y300864D01*
X395903Y301107D01*
X395506Y301186D01*
X395474Y301192D01*
Y301321D01*
Y301970D01*
Y302099D01*
X395506Y302105D01*
X395903Y302184D01*
X396267Y302427D01*
X396510Y302791D01*
X396596Y303220D01*
X396510Y303649D01*
X396267Y304013D01*
X395903Y304257D01*
X395506Y304335D01*
X395474Y304342D01*
Y304471D01*
Y305119D01*
Y305248D01*
X395506Y305255D01*
X395903Y305334D01*
X396267Y305577D01*
X396510Y305941D01*
X396596Y306370D01*
X396510Y306799D01*
X396267Y307163D01*
X395903Y307406D01*
X395506Y307485D01*
X395474Y307491D01*
Y307621D01*
Y310054D01*
X395432Y310156D01*
X395439Y310265D01*
X395341Y310376D01*
X395284Y310514D01*
X395183Y310556D01*
X395110Y310638D01*
X383562Y316294D01*
X379240Y322533D01*
X379466Y333446D01*
X379735Y333835D01*
X403959D01*
X404381Y333395D01*
X404467Y332966D01*
X404710Y332602D01*
X405074Y332359D01*
X405503Y332273D01*
X405932Y332359D01*
X406296Y332602D01*
X406539Y332966D01*
X406624Y333395D01*
X407047Y333835D01*
X421346D01*
Y409092D01*
X573051Y409092D01*
D02*
G37*
G36*
X369789Y334190D02*
X370248Y334000D01*
X370505D01*
X383125Y315785D01*
X394825Y310054D01*
Y307491D01*
X394897Y307316D01*
X394899Y307308D01*
X394681Y307163D01*
X394438Y306799D01*
X394353Y306370D01*
X394438Y305941D01*
X394681Y305577D01*
X394899Y305431D01*
X394897Y305423D01*
X394825Y305248D01*
Y304342D01*
X394897Y304167D01*
X394899Y304159D01*
X394681Y304013D01*
X394438Y303649D01*
X394353Y303220D01*
X394438Y302791D01*
X394681Y302427D01*
X394899Y302282D01*
X394897Y302274D01*
X394825Y302099D01*
Y301192D01*
X394897Y301017D01*
X394899Y301009D01*
X394681Y300864D01*
X394438Y300500D01*
X394353Y300071D01*
X394438Y299641D01*
X394681Y299278D01*
X394899Y299132D01*
X394897Y299124D01*
X394825Y298949D01*
Y298043D01*
X394897Y297868D01*
X394899Y297860D01*
X394681Y297714D01*
X394438Y297350D01*
X394353Y296921D01*
X394438Y296492D01*
X394681Y296128D01*
X394899Y295983D01*
X394897Y295974D01*
X394825Y295799D01*
Y294893D01*
X394897Y294718D01*
X394899Y294710D01*
X394681Y294565D01*
X394438Y294201D01*
X394353Y293772D01*
X394438Y293342D01*
X394681Y292978D01*
X395045Y292735D01*
X395309Y292683D01*
X395319Y292640D01*
X395328Y292446D01*
X395460Y292168D01*
X395544Y292092D01*
X395588Y291987D01*
X395721Y291932D01*
X395828Y291835D01*
X395942Y291840D01*
X396047Y291796D01*
X398051D01*
X398156Y291840D01*
X398270Y291835D01*
X398377Y291932D01*
X398510Y291987D01*
X398554Y292092D01*
X398638Y292168D01*
X398769Y292446D01*
X398779Y292640D01*
X398789Y292683D01*
X399053Y292735D01*
X399315Y292911D01*
X399351Y292864D01*
X399620Y292708D01*
X399788Y292686D01*
X399945Y292621D01*
X400026Y292654D01*
X400112Y292643D01*
X400247Y292746D01*
X400404Y292811D01*
X401431Y293838D01*
X401621Y294297D01*
Y296141D01*
X401549Y296316D01*
X401512Y296502D01*
X401349Y296745D01*
X401314Y296921D01*
X401349Y297097D01*
X401512Y297341D01*
X401549Y297526D01*
X401621Y297701D01*
Y298824D01*
X401773Y298949D01*
X402203Y299035D01*
X402566Y299278D01*
X402809Y299641D01*
X402895Y300071D01*
X402809Y300500D01*
X402685Y300687D01*
X402845Y300987D01*
X403954D01*
X404165Y300773D01*
X404060Y294551D01*
X403853Y294242D01*
X403768Y293813D01*
X403853Y293384D01*
X404035Y293111D01*
X404019Y292127D01*
X407986D01*
X412492Y292127D01*
Y288092D01*
X412192Y288001D01*
X412015Y288265D01*
X411651Y288508D01*
X411222Y288594D01*
X410793Y288508D01*
X410429Y288265D01*
X410186Y287901D01*
X410101Y287472D01*
X410186Y287043D01*
X410429Y286679D01*
X410793Y286436D01*
X411222Y286351D01*
X411651Y286436D01*
X412015Y286679D01*
X412192Y286944D01*
X412492Y286853D01*
Y286418D01*
X413598Y285312D01*
X413579Y285116D01*
X413336Y284752D01*
X413250Y284323D01*
X413336Y283893D01*
X413579Y283530D01*
X413942Y283286D01*
X414372Y283201D01*
X414801Y283286D01*
X415165Y283530D01*
X415361Y283549D01*
X416088Y282822D01*
X415908Y282642D01*
Y276472D01*
X412679Y273243D01*
X412991Y268981D01*
X413268Y268661D01*
X413250Y268575D01*
X413336Y268145D01*
X413579Y267782D01*
X413942Y267538D01*
X414301Y267467D01*
X415697Y265854D01*
X414915Y263658D01*
X414590Y263353D01*
X414372Y263397D01*
X413942Y263312D01*
X413579Y263069D01*
X413336Y262705D01*
X413250Y262275D01*
X413280Y262125D01*
X412439Y261338D01*
X410382D01*
X409631Y263714D01*
X409519Y263658D01*
X405294D01*
Y263095D01*
X403013Y260813D01*
X402928Y260898D01*
X399802D01*
Y262063D01*
X399719Y262145D01*
X399745Y262275D01*
X399660Y262705D01*
X399417Y263069D01*
X399053Y263312D01*
X398624Y263397D01*
X398493Y263371D01*
X396570Y265295D01*
X396596Y265425D01*
X396510Y265854D01*
X396267Y266218D01*
X395903Y266461D01*
X395474Y266547D01*
X395344Y266521D01*
X393817Y268047D01*
X393817Y285648D01*
X392925Y285648D01*
X392495Y286079D01*
X392593Y286404D01*
X392754Y286436D01*
X393117Y286679D01*
X393361Y287043D01*
X393446Y287472D01*
X393361Y287901D01*
X393117Y288265D01*
X392754Y288508D01*
X392324Y288594D01*
X391895Y288508D01*
X391531Y288265D01*
X391288Y287901D01*
X391256Y287741D01*
X390931Y287642D01*
X389345Y289228D01*
X389444Y289554D01*
X389604Y289586D01*
X389968Y289829D01*
X390211Y290193D01*
X390296Y290622D01*
X390211Y291051D01*
X389968Y291415D01*
X389604Y291658D01*
X389175Y291743D01*
X388746Y291658D01*
X388382Y291415D01*
X388139Y291051D01*
X388107Y290891D01*
X387781Y290792D01*
X383046Y295528D01*
X383145Y295853D01*
X383305Y295885D01*
X383669Y296128D01*
X383912Y296492D01*
X383997Y296921D01*
X383912Y297350D01*
X383669Y297714D01*
X383305Y297957D01*
X382876Y298043D01*
X382447Y297957D01*
X382083Y297714D01*
X381839Y297350D01*
X381808Y297190D01*
X381482Y297091D01*
X379896Y298677D01*
X379995Y299003D01*
X380155Y299035D01*
X380519Y299278D01*
X380762Y299641D01*
X380848Y300071D01*
X380762Y300500D01*
X380519Y300864D01*
X380155Y301107D01*
X379726Y301192D01*
X379297Y301107D01*
X378933Y300864D01*
X378690Y300500D01*
X378658Y300340D01*
X378332Y300241D01*
X361571Y317002D01*
X356965D01*
X346620Y327347D01*
X346657Y333756D01*
X346661Y333759D01*
X359947D01*
X360406Y333949D01*
X360596Y334408D01*
Y334649D01*
X369599D01*
X369789Y334190D01*
D02*
G37*
G36*
X352927Y298507D02*
Y273383D01*
X353120Y273190D01*
X343668Y263739D01*
Y240978D01*
X343861Y240786D01*
X326661Y223585D01*
X326590Y223414D01*
X326485Y223261D01*
X326498Y223191D01*
X326471Y223126D01*
X326542Y222955D01*
X326575Y222772D01*
X326430Y222326D01*
X311348Y216544D01*
X311076Y216963D01*
X312931Y218818D01*
X312980Y218937D01*
X313071Y219028D01*
Y219157D01*
X313121Y219277D01*
X313071Y219396D01*
Y219525D01*
X313053Y219568D01*
X313000D01*
Y219698D01*
Y229855D01*
Y229984D01*
X313091Y230075D01*
D01*
X330555Y247539D01*
X330745Y247998D01*
Y268817D01*
Y268947D01*
X330837Y269038D01*
X334105Y272306D01*
X340968Y279169D01*
Y309452D01*
X341354Y309838D01*
X341592Y309842D01*
X352927Y298507D01*
D02*
G37*
G36*
X282442Y409092D02*
X282633Y408630D01*
X247886Y373884D01*
X230388Y373884D01*
X229929Y373693D01*
X229929Y373693D01*
X229929Y373693D01*
X229576Y373340D01*
X229576Y373340D01*
X229576Y373340D01*
X229385Y372881D01*
X229387Y355115D01*
X229476Y354900D01*
X229577Y354656D01*
X229577Y354656D01*
X229577Y354656D01*
X229821Y354555D01*
X230036Y354466D01*
X329981Y354466D01*
Y335936D01*
X323516D01*
X323355Y335870D01*
X199412D01*
X198952Y335680D01*
X198762Y335220D01*
Y318212D01*
Y215154D01*
X198952Y214694D01*
X199412Y214504D01*
X304655D01*
X304746Y214013D01*
X238788Y188724D01*
X238688Y188630D01*
X238561Y188577D01*
X238515Y188466D01*
X238427Y188382D01*
X238423Y188245D01*
X238371Y188118D01*
Y146915D01*
X185442D01*
X185442Y409092D01*
X282442Y409092D01*
D02*
G37*
%LPC*%
G36*
X366129Y397614D02*
X365700Y397529D01*
X365336Y397286D01*
X365093Y396922D01*
X365007Y396493D01*
X365093Y396063D01*
X365336Y395700D01*
X365700Y395456D01*
X366129Y395371D01*
X366558Y395456D01*
X366922Y395700D01*
X367165Y396063D01*
X367250Y396493D01*
X367165Y396922D01*
X366922Y397286D01*
X366558Y397529D01*
X366129Y397614D01*
D02*
G37*
G36*
X360857Y397604D02*
X360428Y397518D01*
X360064Y397275D01*
X359821Y396911D01*
X359735Y396482D01*
X359821Y396053D01*
X360064Y395689D01*
X360428Y395446D01*
X360857Y395361D01*
X361286Y395446D01*
X361650Y395689D01*
X361893Y396053D01*
X361979Y396482D01*
X361893Y396911D01*
X361650Y397275D01*
X361286Y397518D01*
X360857Y397604D01*
D02*
G37*
G36*
X386097Y397572D02*
X385667Y397486D01*
X385303Y397243D01*
X385060Y396880D01*
X384975Y396450D01*
X385060Y396021D01*
X385303Y395657D01*
X385667Y395414D01*
X386097Y395329D01*
X386526Y395414D01*
X386890Y395657D01*
X387133Y396021D01*
X387218Y396450D01*
X387133Y396880D01*
X386890Y397243D01*
X386526Y397486D01*
X386097Y397572D01*
D02*
G37*
G36*
X381127Y397543D02*
X380698Y397457D01*
X380334Y397214D01*
X380091Y396850D01*
X380006Y396421D01*
X380091Y395992D01*
X380334Y395628D01*
X380698Y395385D01*
X381127Y395300D01*
X381557Y395385D01*
X381920Y395628D01*
X382164Y395992D01*
X382249Y396421D01*
X382164Y396850D01*
X381920Y397214D01*
X381557Y397457D01*
X381127Y397543D01*
D02*
G37*
G36*
X396474Y397513D02*
X396044Y397428D01*
X395680Y397185D01*
X395437Y396821D01*
X395352Y396392D01*
X395437Y395963D01*
X395680Y395599D01*
X396044Y395356D01*
X396474Y395270D01*
X396903Y395356D01*
X397267Y395599D01*
X397510Y395963D01*
X397595Y396392D01*
X397510Y396821D01*
X397267Y397185D01*
X396903Y397428D01*
X396474Y397513D01*
D02*
G37*
G36*
X375924Y397426D02*
X375495Y397340D01*
X375131Y397097D01*
X374888Y396733D01*
X374803Y396304D01*
X374888Y395875D01*
X375131Y395511D01*
X375495Y395268D01*
X375924Y395183D01*
X376354Y395268D01*
X376717Y395511D01*
X376960Y395875D01*
X377046Y396304D01*
X376960Y396733D01*
X376717Y397097D01*
X376354Y397340D01*
X375924Y397426D01*
D02*
G37*
G36*
X338455Y391645D02*
X338025Y391559D01*
X337662Y391316D01*
X337419Y390952D01*
X337333Y390523D01*
X337419Y390094D01*
X337662Y389730D01*
X338025Y389487D01*
X338455Y389401D01*
X338884Y389487D01*
X339248Y389730D01*
X339491Y390094D01*
X339576Y390523D01*
X339491Y390952D01*
X339248Y391316D01*
X338884Y391559D01*
X338455Y391645D01*
D02*
G37*
G36*
X388707Y386802D02*
X388278Y386716D01*
X387914Y386473D01*
X387671Y386109D01*
X387586Y385680D01*
X387671Y385251D01*
X387914Y384887D01*
X388278Y384644D01*
X388707Y384558D01*
X389136Y384644D01*
X389500Y384887D01*
X389743Y385251D01*
X389829Y385680D01*
X389743Y386109D01*
X389500Y386473D01*
X389136Y386716D01*
X388707Y386802D01*
D02*
G37*
G36*
X353592Y385804D02*
X353163Y385718D01*
X352799Y385475D01*
X352556Y385111D01*
X352471Y384682D01*
X352556Y384253D01*
X352799Y383889D01*
X353163Y383646D01*
X353592Y383561D01*
X354022Y383646D01*
X354385Y383889D01*
X354628Y384253D01*
X354714Y384682D01*
X354628Y385111D01*
X354385Y385475D01*
X354022Y385718D01*
X353592Y385804D01*
D02*
G37*
G36*
X386191Y383291D02*
X385762Y383206D01*
X385398Y382962D01*
X385155Y382599D01*
X385069Y382170D01*
X385155Y381740D01*
X385398Y381376D01*
X385762Y381133D01*
X386191Y381048D01*
X386620Y381133D01*
X386984Y381376D01*
X387227Y381740D01*
X387313Y382170D01*
X387227Y382599D01*
X386984Y382962D01*
X386620Y383206D01*
X386191Y383291D01*
D02*
G37*
G36*
X371191D02*
X370762Y383206D01*
X370398Y382962D01*
X370155Y382599D01*
X370070Y382170D01*
X370155Y381740D01*
X370398Y381376D01*
X370762Y381133D01*
X371191Y381048D01*
X371620Y381133D01*
X371984Y381376D01*
X372227Y381740D01*
X372313Y382170D01*
X372227Y382599D01*
X371984Y382962D01*
X371620Y383206D01*
X371191Y383291D01*
D02*
G37*
G36*
X328740Y379259D02*
X328311Y379174D01*
X327947Y378931D01*
X327704Y378567D01*
X327618Y378137D01*
X327704Y377708D01*
X327947Y377344D01*
X328311Y377101D01*
X328740Y377016D01*
X329169Y377101D01*
X329533Y377344D01*
X329776Y377708D01*
X329861Y378137D01*
X329776Y378567D01*
X329533Y378931D01*
X329169Y379174D01*
X328740Y379259D01*
D02*
G37*
G36*
X381191Y378279D02*
X380762Y378194D01*
X380398Y377951D01*
X380155Y377587D01*
X380069Y377158D01*
X380155Y376729D01*
X380398Y376365D01*
X380762Y376122D01*
X381191Y376036D01*
X381620Y376122D01*
X381984Y376365D01*
X382227Y376729D01*
X382313Y377158D01*
X382227Y377587D01*
X381984Y377951D01*
X381620Y378194D01*
X381191Y378279D01*
D02*
G37*
G36*
X366191D02*
X365762Y378194D01*
X365398Y377951D01*
X365155Y377587D01*
X365070Y377158D01*
X365155Y376729D01*
X365398Y376365D01*
X365762Y376122D01*
X366191Y376036D01*
X366620Y376122D01*
X366984Y376365D01*
X367227Y376729D01*
X367313Y377158D01*
X367227Y377587D01*
X366984Y377951D01*
X366620Y378194D01*
X366191Y378279D01*
D02*
G37*
G36*
X351191D02*
X350762Y378194D01*
X350398Y377951D01*
X350155Y377587D01*
X350069Y377158D01*
X350155Y376729D01*
X350398Y376365D01*
X350762Y376122D01*
X351191Y376036D01*
X351620Y376122D01*
X351984Y376365D01*
X352227Y376729D01*
X352313Y377158D01*
X352227Y377587D01*
X351984Y377951D01*
X351620Y378194D01*
X351191Y378279D01*
D02*
G37*
G36*
X401252Y378268D02*
X400823Y378182D01*
X400459Y377939D01*
X400216Y377575D01*
X400131Y377146D01*
X400216Y376717D01*
X400459Y376353D01*
X400823Y376110D01*
X401252Y376024D01*
X401681Y376110D01*
X402045Y376353D01*
X402288Y376717D01*
X402374Y377146D01*
X402288Y377575D01*
X402045Y377939D01*
X401681Y378182D01*
X401252Y378268D01*
D02*
G37*
G36*
X376191Y373291D02*
X375762Y373206D01*
X375398Y372962D01*
X375155Y372599D01*
X375069Y372169D01*
X375155Y371740D01*
X375398Y371376D01*
X375762Y371133D01*
X376191Y371048D01*
X376620Y371133D01*
X376984Y371376D01*
X377227Y371740D01*
X377313Y372169D01*
X377227Y372599D01*
X376984Y372962D01*
X376620Y373206D01*
X376191Y373291D01*
D02*
G37*
G36*
X361191D02*
X360762Y373206D01*
X360398Y372962D01*
X360155Y372599D01*
X360069Y372169D01*
X360155Y371740D01*
X360398Y371376D01*
X360762Y371133D01*
X361191Y371048D01*
X361620Y371133D01*
X361984Y371376D01*
X362227Y371740D01*
X362313Y372169D01*
X362227Y372599D01*
X361984Y372962D01*
X361620Y373206D01*
X361191Y373291D01*
D02*
G37*
G36*
X391264Y373268D02*
X390835Y373182D01*
X390471Y372939D01*
X390228Y372575D01*
X390142Y372146D01*
X390228Y371717D01*
X390471Y371353D01*
X390835Y371110D01*
X391264Y371024D01*
X391693Y371110D01*
X392057Y371353D01*
X392300Y371717D01*
X392386Y372146D01*
X392300Y372575D01*
X392057Y372939D01*
X391693Y373182D01*
X391264Y373268D01*
D02*
G37*
G36*
X344535Y371205D02*
X344105Y371120D01*
X343741Y370877D01*
X343498Y370513D01*
X343413Y370083D01*
X343498Y369654D01*
X343741Y369290D01*
X344105Y369047D01*
X344535Y368962D01*
X344964Y369047D01*
X345328Y369290D01*
X345571Y369654D01*
X345656Y370083D01*
X345571Y370513D01*
X345328Y370877D01*
X344964Y371120D01*
X344535Y371205D01*
D02*
G37*
G36*
X391191Y368291D02*
X390762Y368206D01*
X390398Y367963D01*
X390155Y367599D01*
X390070Y367169D01*
X390155Y366740D01*
X390398Y366376D01*
X390762Y366133D01*
X391191Y366048D01*
X391620Y366133D01*
X391984Y366376D01*
X392227Y366740D01*
X392313Y367169D01*
X392227Y367599D01*
X391984Y367963D01*
X391620Y368206D01*
X391191Y368291D01*
D02*
G37*
G36*
X361191D02*
X360762Y368206D01*
X360398Y367963D01*
X360155Y367599D01*
X360069Y367169D01*
X360155Y366740D01*
X360398Y366376D01*
X360762Y366133D01*
X361191Y366048D01*
X361620Y366133D01*
X361984Y366376D01*
X362227Y366740D01*
X362313Y367169D01*
X362227Y367599D01*
X361984Y367963D01*
X361620Y368206D01*
X361191Y368291D01*
D02*
G37*
G36*
X346191D02*
X345762Y368206D01*
X345398Y367963D01*
X345155Y367599D01*
X345070Y367169D01*
X345155Y366740D01*
X345398Y366376D01*
X345762Y366133D01*
X346191Y366048D01*
X346620Y366133D01*
X346984Y366376D01*
X347227Y366740D01*
X347313Y367169D01*
X347227Y367599D01*
X346984Y367963D01*
X346620Y368206D01*
X346191Y368291D01*
D02*
G37*
G36*
X376240Y368195D02*
X375811Y368109D01*
X375447Y367866D01*
X375204Y367502D01*
X375119Y367073D01*
X375204Y366644D01*
X375447Y366280D01*
X375811Y366037D01*
X376240Y365951D01*
X376670Y366037D01*
X377033Y366280D01*
X377277Y366644D01*
X377362Y367073D01*
X377277Y367502D01*
X377033Y367866D01*
X376670Y368109D01*
X376240Y368195D01*
D02*
G37*
G36*
X391191Y363291D02*
X390762Y363206D01*
X390398Y362963D01*
X390155Y362599D01*
X390070Y362170D01*
X390155Y361740D01*
X390398Y361376D01*
X390762Y361133D01*
X391191Y361048D01*
X391620Y361133D01*
X391984Y361376D01*
X392227Y361740D01*
X392313Y362170D01*
X392227Y362599D01*
X391984Y362963D01*
X391620Y363206D01*
X391191Y363291D01*
D02*
G37*
G36*
X361191D02*
X360762Y363206D01*
X360398Y362963D01*
X360155Y362599D01*
X360069Y362170D01*
X360155Y361740D01*
X360398Y361376D01*
X360762Y361133D01*
X361191Y361048D01*
X361620Y361133D01*
X361984Y361376D01*
X362227Y361740D01*
X362313Y362170D01*
X362227Y362599D01*
X361984Y362963D01*
X361620Y363206D01*
X361191Y363291D01*
D02*
G37*
G36*
X356188Y363244D02*
X355759Y363158D01*
X355395Y362915D01*
X355152Y362551D01*
X355066Y362122D01*
X355152Y361693D01*
X355395Y361329D01*
X355759Y361086D01*
X356188Y361001D01*
X356617Y361086D01*
X356981Y361329D01*
X357224Y361693D01*
X357310Y362122D01*
X357224Y362551D01*
X356981Y362915D01*
X356617Y363158D01*
X356188Y363244D01*
D02*
G37*
G36*
X376168Y363218D02*
X375738Y363133D01*
X375375Y362890D01*
X375131Y362526D01*
X375046Y362097D01*
X375131Y361667D01*
X375375Y361303D01*
X375738Y361060D01*
X376168Y360975D01*
X376597Y361060D01*
X376961Y361303D01*
X377204Y361667D01*
X377289Y362097D01*
X377204Y362526D01*
X376961Y362890D01*
X376597Y363133D01*
X376168Y363218D01*
D02*
G37*
G36*
X396191Y358291D02*
X395762Y358206D01*
X395398Y357962D01*
X395155Y357599D01*
X395070Y357170D01*
X395155Y356740D01*
X395398Y356376D01*
X395762Y356133D01*
X396191Y356048D01*
X396620Y356133D01*
X396984Y356376D01*
X397227Y356740D01*
X397313Y357170D01*
X397227Y357599D01*
X396984Y357962D01*
X396620Y358206D01*
X396191Y358291D01*
D02*
G37*
G36*
X381191D02*
X380762Y358206D01*
X380398Y357962D01*
X380155Y357599D01*
X380069Y357170D01*
X380155Y356740D01*
X380398Y356376D01*
X380762Y356133D01*
X381191Y356048D01*
X381620Y356133D01*
X381984Y356376D01*
X382227Y356740D01*
X382313Y357170D01*
X382227Y357599D01*
X381984Y357962D01*
X381620Y358206D01*
X381191Y358291D01*
D02*
G37*
G36*
X366191D02*
X365762Y358206D01*
X365398Y357962D01*
X365155Y357599D01*
X365070Y357170D01*
X365155Y356740D01*
X365398Y356376D01*
X365762Y356133D01*
X366191Y356048D01*
X366620Y356133D01*
X366984Y356376D01*
X367227Y356740D01*
X367313Y357170D01*
X367227Y357599D01*
X366984Y357962D01*
X366620Y358206D01*
X366191Y358291D01*
D02*
G37*
G36*
X376168Y358218D02*
X375738Y358133D01*
X375375Y357890D01*
X375131Y357526D01*
X375046Y357097D01*
X375131Y356667D01*
X375375Y356304D01*
X375738Y356060D01*
X376168Y355975D01*
X376597Y356060D01*
X376961Y356304D01*
X377204Y356667D01*
X377289Y357097D01*
X377204Y357526D01*
X376961Y357890D01*
X376597Y358133D01*
X376168Y358218D01*
D02*
G37*
G36*
X335611Y351714D02*
X335182Y351629D01*
X334818Y351386D01*
X334575Y351022D01*
X334489Y350593D01*
X334575Y350164D01*
X334818Y349800D01*
X335182Y349557D01*
X335611Y349471D01*
X336040Y349557D01*
X336404Y349800D01*
X336647Y350164D01*
X336733Y350593D01*
X336647Y351022D01*
X336404Y351386D01*
X336040Y351629D01*
X335611Y351714D01*
D02*
G37*
G36*
X396191Y353291D02*
X395762Y353206D01*
X395398Y352962D01*
X395155Y352599D01*
X395070Y352169D01*
X395155Y351740D01*
X395398Y351376D01*
X395762Y351133D01*
X396191Y351048D01*
X396620Y351133D01*
X396984Y351376D01*
X397227Y351740D01*
X397313Y352169D01*
X397227Y352599D01*
X396984Y352962D01*
X396620Y353206D01*
X396191Y353291D01*
D02*
G37*
G36*
X410918Y349807D02*
X410489Y349722D01*
X410125Y349479D01*
X409882Y349115D01*
X409797Y348686D01*
X409882Y348257D01*
X410125Y347893D01*
X410489Y347650D01*
X410918Y347564D01*
X411348Y347650D01*
X411712Y347893D01*
X411955Y348257D01*
X412040Y348686D01*
X411955Y349115D01*
X411712Y349479D01*
X411348Y349722D01*
X410918Y349807D01*
D02*
G37*
G36*
X210723Y327827D02*
X210294Y327742D01*
X209930Y327499D01*
X209687Y327135D01*
X209601Y326706D01*
X209687Y326276D01*
X209930Y325912D01*
X210294Y325669D01*
X210723Y325584D01*
X211152Y325669D01*
X211516Y325912D01*
X211759Y326276D01*
X211844Y326706D01*
X211759Y327135D01*
X211516Y327499D01*
X211152Y327742D01*
X210723Y327827D01*
D02*
G37*
G36*
X360081Y303348D02*
X359651Y303262D01*
X359287Y303019D01*
X359044Y302655D01*
X358959Y302226D01*
X359044Y301797D01*
X359287Y301433D01*
X359651Y301190D01*
X360081Y301105D01*
X360510Y301190D01*
X360874Y301433D01*
X361117Y301797D01*
X361202Y302226D01*
X361117Y302655D01*
X360874Y303019D01*
X360510Y303262D01*
X360081Y303348D01*
D02*
G37*
G36*
X379726Y294893D02*
X379297Y294808D01*
X378933Y294565D01*
X378690Y294201D01*
X378605Y293772D01*
X378690Y293342D01*
X378933Y292978D01*
X379297Y292735D01*
X379726Y292650D01*
X380155Y292735D01*
X380519Y292978D01*
X380762Y293342D01*
X380848Y293772D01*
X380762Y294201D01*
X380519Y294565D01*
X380155Y294808D01*
X379726Y294893D01*
D02*
G37*
G36*
X376576D02*
X376147Y294808D01*
X375783Y294565D01*
X375540Y294201D01*
X375455Y293772D01*
X375540Y293342D01*
X375783Y292978D01*
X376147Y292735D01*
X376576Y292650D01*
X377006Y292735D01*
X377369Y292978D01*
X377613Y293342D01*
X377698Y293772D01*
X377613Y294201D01*
X377369Y294565D01*
X377006Y294808D01*
X376576Y294893D01*
D02*
G37*
G36*
X382876Y291743D02*
X382447Y291658D01*
X382083Y291415D01*
X381839Y291051D01*
X381754Y290622D01*
X381839Y290193D01*
X382083Y289829D01*
X382447Y289586D01*
X382876Y289500D01*
X383305Y289586D01*
X383669Y289829D01*
X383912Y290193D01*
X383997Y290622D01*
X383912Y291051D01*
X383669Y291415D01*
X383305Y291658D01*
X382876Y291743D01*
D02*
G37*
G36*
X417521Y288594D02*
X417092Y288508D01*
X416728Y288265D01*
X416485Y287901D01*
X416400Y287472D01*
X416485Y287043D01*
X416728Y286679D01*
X417092Y286436D01*
X417521Y286351D01*
X417950Y286436D01*
X418314Y286679D01*
X418558Y287043D01*
X418643Y287472D01*
X418558Y287901D01*
X418314Y288265D01*
X417950Y288508D01*
X417521Y288594D01*
D02*
G37*
G36*
X386025D02*
X385596Y288508D01*
X385232Y288265D01*
X384989Y287901D01*
X384904Y287472D01*
X384989Y287043D01*
X385232Y286679D01*
X385596Y286436D01*
X386025Y286351D01*
X386455Y286436D01*
X386818Y286679D01*
X387062Y287043D01*
X387147Y287472D01*
X387062Y287901D01*
X386818Y288265D01*
X386455Y288508D01*
X386025Y288594D01*
D02*
G37*
G36*
X382876D02*
X382447Y288508D01*
X382083Y288265D01*
X381839Y287901D01*
X381754Y287472D01*
X381839Y287043D01*
X382083Y286679D01*
X382447Y286436D01*
X382876Y286351D01*
X383305Y286436D01*
X383669Y286679D01*
X383912Y287043D01*
X383997Y287472D01*
X383912Y287901D01*
X383669Y288265D01*
X383305Y288508D01*
X382876Y288594D01*
D02*
G37*
G36*
X389175Y285444D02*
X388746Y285359D01*
X388382Y285116D01*
X388139Y284752D01*
X388053Y284323D01*
X388139Y283893D01*
X388382Y283530D01*
X388746Y283286D01*
X389175Y283201D01*
X389604Y283286D01*
X389968Y283530D01*
X390211Y283893D01*
X390296Y284323D01*
X390211Y284752D01*
X389968Y285116D01*
X389604Y285359D01*
X389175Y285444D01*
D02*
G37*
G36*
X386025D02*
X385596Y285359D01*
X385232Y285116D01*
X384989Y284752D01*
X384904Y284323D01*
X384989Y283893D01*
X385232Y283530D01*
X385596Y283286D01*
X386025Y283201D01*
X386455Y283286D01*
X386818Y283530D01*
X387062Y283893D01*
X387147Y284323D01*
X387062Y284752D01*
X386818Y285116D01*
X386455Y285359D01*
X386025Y285444D01*
D02*
G37*
G36*
X382876D02*
X382447Y285359D01*
X382083Y285116D01*
X381839Y284752D01*
X381754Y284323D01*
X381839Y283893D01*
X382083Y283530D01*
X382447Y283286D01*
X382876Y283201D01*
X383305Y283286D01*
X383669Y283530D01*
X383912Y283893D01*
X383997Y284323D01*
X383912Y284752D01*
X383669Y285116D01*
X383305Y285359D01*
X382876Y285444D01*
D02*
G37*
G36*
X379726D02*
X379297Y285359D01*
X378933Y285116D01*
X378690Y284752D01*
X378605Y284323D01*
X378690Y283893D01*
X378933Y283530D01*
X379297Y283286D01*
X379726Y283201D01*
X380155Y283286D01*
X380519Y283530D01*
X380762Y283893D01*
X380848Y284323D01*
X380762Y284752D01*
X380519Y285116D01*
X380155Y285359D01*
X379726Y285444D01*
D02*
G37*
G36*
X376576D02*
X376147Y285359D01*
X375783Y285116D01*
X375540Y284752D01*
X375455Y284323D01*
X375540Y283893D01*
X375783Y283530D01*
X376147Y283286D01*
X376576Y283201D01*
X377006Y283286D01*
X377369Y283530D01*
X377613Y283893D01*
X377698Y284323D01*
X377613Y284752D01*
X377369Y285116D01*
X377006Y285359D01*
X376576Y285444D01*
D02*
G37*
G36*
X382876Y282295D02*
X382447Y282209D01*
X382083Y281966D01*
X381839Y281602D01*
X381754Y281173D01*
X381839Y280744D01*
X382083Y280380D01*
X382447Y280137D01*
X382876Y280051D01*
X383305Y280137D01*
X383669Y280380D01*
X383912Y280744D01*
X383997Y281173D01*
X383912Y281602D01*
X383669Y281966D01*
X383305Y282209D01*
X382876Y282295D01*
D02*
G37*
G36*
X374342Y280727D02*
X373912Y280642D01*
X373548Y280398D01*
X373305Y280034D01*
X373220Y279605D01*
X373305Y279176D01*
X373548Y278812D01*
X373912Y278569D01*
X374342Y278484D01*
X374771Y278569D01*
X375134Y278812D01*
X375378Y279176D01*
X375463Y279605D01*
X375378Y280034D01*
X375134Y280398D01*
X374771Y280642D01*
X374342Y280727D01*
D02*
G37*
G36*
X295070Y278914D02*
X294641Y278829D01*
X294277Y278586D01*
X294034Y278222D01*
X293949Y277793D01*
X294034Y277363D01*
X294277Y276999D01*
X294641Y276756D01*
X295070Y276671D01*
X295499Y276756D01*
X295863Y276999D01*
X296107Y277363D01*
X296192Y277793D01*
X296107Y278222D01*
X295863Y278586D01*
X295499Y278829D01*
X295070Y278914D01*
D02*
G37*
G36*
X386025Y275995D02*
X385596Y275910D01*
X385232Y275667D01*
X384989Y275303D01*
X384904Y274874D01*
X384989Y274445D01*
X385232Y274081D01*
X385596Y273838D01*
X386025Y273752D01*
X386455Y273838D01*
X386818Y274081D01*
X387062Y274445D01*
X387147Y274874D01*
X387062Y275303D01*
X386818Y275667D01*
X386455Y275910D01*
X386025Y275995D01*
D02*
G37*
G36*
X375444Y274438D02*
X375014Y274353D01*
X374651Y274110D01*
X374408Y273746D01*
X374322Y273317D01*
X374408Y272887D01*
X374651Y272524D01*
X375014Y272281D01*
X375444Y272195D01*
X375873Y272281D01*
X376237Y272524D01*
X376480Y272887D01*
X376565Y273317D01*
X376480Y273746D01*
X376237Y274110D01*
X375873Y274353D01*
X375444Y274438D01*
D02*
G37*
G36*
X417521Y272846D02*
X417092Y272760D01*
X416728Y272517D01*
X416485Y272153D01*
X416400Y271724D01*
X416485Y271295D01*
X416728Y270931D01*
X417092Y270688D01*
X417521Y270603D01*
X417950Y270688D01*
X418314Y270931D01*
X418558Y271295D01*
X418643Y271724D01*
X418558Y272153D01*
X418314Y272517D01*
X417950Y272760D01*
X417521Y272846D01*
D02*
G37*
G36*
X389175Y266547D02*
X388746Y266461D01*
X388382Y266218D01*
X388139Y265854D01*
X388053Y265425D01*
X388139Y264996D01*
X388382Y264632D01*
X388746Y264389D01*
X389175Y264303D01*
X389604Y264389D01*
X389968Y264632D01*
X390211Y264996D01*
X390296Y265425D01*
X390211Y265854D01*
X389968Y266218D01*
X389604Y266461D01*
X389175Y266547D01*
D02*
G37*
G36*
X379726Y263397D02*
X379297Y263312D01*
X378933Y263069D01*
X378690Y262705D01*
X378605Y262275D01*
X378690Y261846D01*
X378933Y261482D01*
X379297Y261239D01*
X379726Y261154D01*
X380155Y261239D01*
X380519Y261482D01*
X380762Y261846D01*
X380848Y262275D01*
X380762Y262705D01*
X380519Y263069D01*
X380155Y263312D01*
X379726Y263397D01*
D02*
G37*
G36*
X417521Y260247D02*
X417092Y260162D01*
X416728Y259919D01*
X416485Y259555D01*
X416400Y259126D01*
X416485Y258697D01*
X416728Y258333D01*
X417092Y258090D01*
X417521Y258004D01*
X417950Y258090D01*
X418314Y258333D01*
X418558Y258697D01*
X418643Y259126D01*
X418558Y259555D01*
X418314Y259919D01*
X417950Y260162D01*
X417521Y260247D01*
D02*
G37*
G36*
X414372D02*
X413942Y260162D01*
X413579Y259919D01*
X413336Y259555D01*
X413250Y259126D01*
X413336Y258697D01*
X413579Y258333D01*
X413942Y258090D01*
X414372Y258004D01*
X414801Y258090D01*
X415165Y258333D01*
X415408Y258697D01*
X415493Y259126D01*
X415408Y259555D01*
X415165Y259919D01*
X414801Y260162D01*
X414372Y260247D01*
D02*
G37*
G36*
X389188Y260237D02*
X388758Y260151D01*
X388394Y259908D01*
X388151Y259544D01*
X388066Y259115D01*
X388151Y258686D01*
X388394Y258322D01*
X388758Y258079D01*
X389188Y257993D01*
X389617Y258079D01*
X389981Y258322D01*
X390224Y258686D01*
X390309Y259115D01*
X390224Y259544D01*
X389981Y259908D01*
X389617Y260151D01*
X389188Y260237D01*
D02*
G37*
G36*
X369518Y258690D02*
X369089Y258604D01*
X368725Y258361D01*
X368482Y257997D01*
X368397Y257568D01*
X368482Y257139D01*
X368725Y256775D01*
X369089Y256532D01*
X369518Y256447D01*
X369948Y256532D01*
X370312Y256775D01*
X370555Y257139D01*
X370640Y257568D01*
X370555Y257997D01*
X370312Y258361D01*
X369948Y258604D01*
X369518Y258690D01*
D02*
G37*
G36*
X392324Y257098D02*
X391895Y257012D01*
X391531Y256769D01*
X391288Y256405D01*
X391203Y255976D01*
X391288Y255547D01*
X391531Y255183D01*
X391895Y254940D01*
X392324Y254855D01*
X392754Y254940D01*
X393117Y255183D01*
X393361Y255547D01*
X393446Y255976D01*
X393361Y256405D01*
X393117Y256769D01*
X392754Y257012D01*
X392324Y257098D01*
D02*
G37*
G36*
X382876Y253948D02*
X382447Y253863D01*
X382083Y253620D01*
X381839Y253256D01*
X381754Y252827D01*
X381839Y252397D01*
X382083Y252033D01*
X382447Y251790D01*
X382876Y251705D01*
X383305Y251790D01*
X383669Y252033D01*
X383912Y252397D01*
X383997Y252827D01*
X383912Y253256D01*
X383669Y253620D01*
X383305Y253863D01*
X382876Y253948D01*
D02*
G37*
G36*
X376576Y250799D02*
X376147Y250713D01*
X375783Y250470D01*
Y250470D01*
D01*
X375540Y250106D01*
X375455Y249677D01*
X375540Y249248D01*
X375783Y248884D01*
X376147Y248641D01*
D01*
X376576Y248555D01*
X377006Y248641D01*
D01*
X377369Y248884D01*
X377613Y249248D01*
X377698Y249677D01*
X377613Y250106D01*
X377369Y250470D01*
X377006Y250713D01*
X376576Y250799D01*
D02*
G37*
G36*
X387667Y249404D02*
X387238Y249318D01*
X386874Y249075D01*
X386631Y248711D01*
X386546Y248282D01*
X386631Y247853D01*
X386874Y247489D01*
X387238Y247246D01*
X387667Y247161D01*
X388097Y247246D01*
X388460Y247489D01*
X388703Y247853D01*
X388789Y248282D01*
X388703Y248711D01*
X388460Y249075D01*
X388097Y249318D01*
X387667Y249404D01*
D02*
G37*
G36*
X354266Y247490D02*
X353837Y247405D01*
X353473Y247162D01*
X353230Y246798D01*
X353144Y246368D01*
X353230Y245939D01*
X353473Y245575D01*
X353837Y245332D01*
X354266Y245247D01*
X354695Y245332D01*
X355059Y245575D01*
X355302Y245939D01*
X355387Y246368D01*
X355302Y246798D01*
X355059Y247162D01*
X354695Y247405D01*
X354266Y247490D01*
D02*
G37*
G36*
X239387Y234233D02*
X238958Y234148D01*
X238594Y233905D01*
X238351Y233541D01*
X238266Y233112D01*
X238351Y232682D01*
X238594Y232318D01*
X238958Y232075D01*
X239387Y231990D01*
X239817Y232075D01*
X240180Y232318D01*
X240424Y232682D01*
X240509Y233112D01*
X240424Y233541D01*
X240180Y233905D01*
X239817Y234148D01*
X239387Y234233D01*
D02*
G37*
G36*
X219567Y233552D02*
X219138Y233466D01*
X218774Y233223D01*
X218531Y232859D01*
X218445Y232430D01*
X218531Y232001D01*
X218774Y231637D01*
X219138Y231394D01*
X219567Y231308D01*
X219996Y231394D01*
X220360Y231637D01*
X220603Y232001D01*
X220688Y232430D01*
X220603Y232859D01*
X220360Y233223D01*
X219996Y233466D01*
X219567Y233552D01*
D02*
G37*
G36*
X376607Y343462D02*
X376178Y343377D01*
X375814Y343134D01*
X375571Y342770D01*
X375485Y342341D01*
X375571Y341912D01*
X375814Y341548D01*
X376178Y341305D01*
X376607Y341219D01*
X377036Y341305D01*
X377400Y341548D01*
X377643Y341912D01*
X377728Y342341D01*
X377643Y342770D01*
X377400Y343134D01*
X377036Y343377D01*
X376607Y343462D01*
D02*
G37*
G36*
X526680Y383946D02*
X526251Y383861D01*
X525887Y383618D01*
X525644Y383254D01*
X525558Y382825D01*
X525644Y382396D01*
X525887Y382032D01*
X526251Y381789D01*
X526680Y381703D01*
X527109Y381789D01*
X527473Y382032D01*
X527716Y382396D01*
X527802Y382825D01*
X527716Y383254D01*
X527473Y383618D01*
X527109Y383861D01*
X526680Y383946D01*
D02*
G37*
G36*
X475106Y380873D02*
X474677Y380788D01*
X474313Y380545D01*
X474070Y380181D01*
X473984Y379752D01*
X474070Y379323D01*
X474313Y378959D01*
X474677Y378715D01*
X475106Y378630D01*
X475535Y378715D01*
X475899Y378959D01*
X476142Y379323D01*
X476228Y379752D01*
X476142Y380181D01*
X475899Y380545D01*
X475535Y380788D01*
X475106Y380873D01*
D02*
G37*
G36*
X478883Y374112D02*
X478453Y374026D01*
X478090Y373783D01*
X477846Y373419D01*
X477761Y372990D01*
X477846Y372561D01*
X478090Y372197D01*
X478453Y371954D01*
X478883Y371868D01*
X479312Y371954D01*
X479676Y372197D01*
X479919Y372561D01*
X480004Y372990D01*
X479919Y373419D01*
X479676Y373783D01*
X479312Y374026D01*
X478883Y374112D01*
D02*
G37*
G36*
X526315Y372285D02*
X525886Y372200D01*
X525522Y371957D01*
X525279Y371593D01*
X525194Y371164D01*
X525279Y370734D01*
X525522Y370371D01*
X525886Y370127D01*
X526315Y370042D01*
X526744Y370127D01*
X527108Y370371D01*
X527351Y370734D01*
X527436Y371164D01*
X527351Y371593D01*
X527108Y371957D01*
X526744Y372200D01*
X526315Y372285D01*
D02*
G37*
G36*
X531923Y336247D02*
X531494Y336161D01*
X531130Y335918D01*
X530887Y335554D01*
X530801Y335125D01*
X530887Y334696D01*
X531130Y334332D01*
X531494Y334089D01*
X531923Y334004D01*
X532352Y334089D01*
X532716Y334332D01*
X532959Y334696D01*
X533044Y335125D01*
X532959Y335554D01*
X532716Y335918D01*
X532352Y336161D01*
X531923Y336247D01*
D02*
G37*
G36*
X517807Y331292D02*
X517378Y331207D01*
X517015Y330964D01*
X516771Y330600D01*
X516686Y330171D01*
X516771Y329742D01*
X517015Y329378D01*
X517378Y329135D01*
X517807Y329049D01*
X518237Y329135D01*
X518601Y329378D01*
X518844Y329742D01*
X518929Y330171D01*
X518844Y330600D01*
X518601Y330964D01*
X518237Y331207D01*
X517807Y331292D01*
D02*
G37*
G36*
X396945Y326121D02*
X396516Y326036D01*
X396152Y325793D01*
X395909Y325429D01*
X395823Y325000D01*
X395909Y324571D01*
X396152Y324207D01*
X396516Y323964D01*
X396945Y323878D01*
X397374Y323964D01*
X397738Y324207D01*
X397981Y324571D01*
X398066Y325000D01*
X397981Y325429D01*
X397738Y325793D01*
X397374Y326036D01*
X396945Y326121D01*
D02*
G37*
G36*
X503161Y320494D02*
X502732Y320408D01*
X502368Y320165D01*
X502125Y319801D01*
X502040Y319372D01*
X502125Y318943D01*
X502368Y318579D01*
X502732Y318336D01*
X503161Y318251D01*
X503590Y318336D01*
X503954Y318579D01*
X504197Y318943D01*
X504283Y319372D01*
X504197Y319801D01*
X503954Y320165D01*
X503590Y320408D01*
X503161Y320494D01*
D02*
G37*
G36*
X529241Y319946D02*
X528812Y319861D01*
X528448Y319617D01*
X528205Y319254D01*
X528120Y318824D01*
X528205Y318395D01*
X528448Y318031D01*
X528812Y317788D01*
X529241Y317703D01*
X529670Y317788D01*
X530034Y318031D01*
X530277Y318395D01*
X530363Y318824D01*
X530277Y319254D01*
X530034Y319617D01*
X529670Y319861D01*
X529241Y319946D01*
D02*
G37*
G36*
X391120Y319092D02*
X390691Y319006D01*
X390327Y318763D01*
X390084Y318399D01*
X389999Y317970D01*
X390084Y317541D01*
X390327Y317177D01*
X390691Y316934D01*
X391120Y316848D01*
X391550Y316934D01*
X391913Y317177D01*
X392157Y317541D01*
X392242Y317970D01*
X392157Y318399D01*
X391913Y318763D01*
X391550Y319006D01*
X391120Y319092D01*
D02*
G37*
G36*
X437309Y316925D02*
X436880Y316840D01*
X436516Y316597D01*
X436273Y316233D01*
X436188Y315804D01*
X436273Y315375D01*
X436516Y315011D01*
X436880Y314768D01*
X437309Y314682D01*
X437738Y314768D01*
X438102Y315011D01*
X438345Y315375D01*
X438431Y315804D01*
X438345Y316233D01*
X438102Y316597D01*
X437738Y316840D01*
X437309Y316925D01*
D02*
G37*
G36*
X398742Y315325D02*
X398313Y315240D01*
X397949Y314997D01*
X397706Y314633D01*
X397620Y314204D01*
X397706Y313774D01*
X397949Y313410D01*
X398313Y313167D01*
X398742Y313082D01*
X399171Y313167D01*
X399535Y313410D01*
X399778Y313774D01*
X399863Y314204D01*
X399778Y314633D01*
X399683Y314775D01*
X399535Y314997D01*
X399171Y315240D01*
X398742Y315325D01*
D02*
G37*
G36*
X425715Y312038D02*
X425286Y311952D01*
X424922Y311709D01*
X424679Y311345D01*
X424594Y310916D01*
X424679Y310487D01*
X424922Y310123D01*
X425286Y309880D01*
X425715Y309794D01*
X426144Y309880D01*
X426508Y310123D01*
X426751Y310487D01*
X426837Y310916D01*
X426751Y311345D01*
X426508Y311709D01*
X426144Y311952D01*
X425715Y312038D01*
D02*
G37*
G36*
X409640Y309076D02*
X409211Y308991D01*
X408847Y308748D01*
X408604Y308384D01*
X408519Y307954D01*
X408604Y307525D01*
X408847Y307161D01*
X409211Y306918D01*
X409640Y306833D01*
X410069Y306918D01*
X410433Y307161D01*
X410676Y307525D01*
X410762Y307954D01*
X410676Y308384D01*
X410433Y308748D01*
X410069Y308991D01*
X409640Y309076D01*
D02*
G37*
G36*
X398624Y307491D02*
X398195Y307406D01*
X397831Y307163D01*
X397587Y306799D01*
X397502Y306370D01*
X397587Y305941D01*
X397831Y305577D01*
X398195Y305334D01*
X398624Y305248D01*
X399053Y305334D01*
X399417Y305577D01*
X399660Y305941D01*
X399745Y306370D01*
X399660Y306799D01*
X399417Y307163D01*
X399053Y307406D01*
X398624Y307491D01*
D02*
G37*
G36*
X434988Y306925D02*
X434559Y306840D01*
X434195Y306597D01*
X433952Y306233D01*
X433866Y305804D01*
X433952Y305375D01*
X434195Y305011D01*
X434559Y304768D01*
X434988Y304682D01*
X435417Y304768D01*
X435781Y305011D01*
X436024Y305375D01*
X436109Y305804D01*
X436024Y306233D01*
X435781Y306597D01*
X435417Y306840D01*
X434988Y306925D01*
D02*
G37*
G36*
X398624Y304342D02*
X398195Y304257D01*
X397831Y304013D01*
X397587Y303649D01*
X397502Y303220D01*
X397587Y302791D01*
X397831Y302427D01*
X398195Y302184D01*
X398624Y302099D01*
X399053Y302184D01*
X399417Y302427D01*
X399660Y302791D01*
X399745Y303220D01*
X399660Y303649D01*
X399417Y304013D01*
X399053Y304257D01*
X398624Y304342D01*
D02*
G37*
G36*
X435002Y302767D02*
X434572Y302682D01*
X434209Y302438D01*
X433965Y302075D01*
X433880Y301645D01*
X433965Y301216D01*
X434209Y300852D01*
X434572Y300609D01*
X435002Y300524D01*
X435431Y300609D01*
X435795Y300852D01*
X436038Y301216D01*
X436123Y301645D01*
X436038Y302075D01*
X435795Y302438D01*
X435431Y302682D01*
X435002Y302767D01*
D02*
G37*
G36*
X417521Y301192D02*
X417092Y301107D01*
X416728Y300864D01*
X416485Y300500D01*
X416400Y300071D01*
X416485Y299641D01*
X416728Y299278D01*
X417092Y299035D01*
X417521Y298949D01*
X417950Y299035D01*
X418314Y299278D01*
X418558Y299641D01*
X418643Y300071D01*
X418558Y300500D01*
X418314Y300864D01*
X417950Y301107D01*
X417521Y301192D01*
D02*
G37*
G36*
X411222D02*
X410793Y301107D01*
X410429Y300864D01*
X410186Y300500D01*
X410101Y300071D01*
X410186Y299641D01*
X410429Y299278D01*
X410793Y299035D01*
X411222Y298949D01*
X411651Y299035D01*
X412015Y299278D01*
X412258Y299641D01*
X412344Y300071D01*
X412258Y300500D01*
X412015Y300864D01*
X411651Y301107D01*
X411222Y301192D01*
D02*
G37*
G36*
X398624D02*
X398195Y301107D01*
X397831Y300864D01*
X397587Y300500D01*
X397502Y300071D01*
X397587Y299641D01*
X397831Y299278D01*
X398195Y299035D01*
X398624Y298949D01*
X399053Y299035D01*
X399417Y299278D01*
X399660Y299641D01*
X399745Y300071D01*
X399660Y300500D01*
X399417Y300864D01*
X399053Y301107D01*
X398624Y301192D01*
D02*
G37*
G36*
X420671Y298043D02*
X420242Y297957D01*
X419878Y297714D01*
X419635Y297350D01*
X419549Y296921D01*
X419635Y296492D01*
X419878Y296128D01*
X420242Y295885D01*
X420671Y295799D01*
X421100Y295885D01*
X421464Y296128D01*
X421707Y296492D01*
X421793Y296921D01*
X421707Y297350D01*
X421464Y297714D01*
X421100Y297957D01*
X420671Y298043D01*
D02*
G37*
G36*
X398624Y298043D02*
X398195Y297957D01*
X397831Y297714D01*
X397587Y297350D01*
X397502Y296921D01*
X397587Y296492D01*
X397831Y296128D01*
X398195Y295885D01*
X398624Y295799D01*
X399053Y295885D01*
X399417Y296128D01*
X399660Y296492D01*
X399745Y296921D01*
X399660Y297350D01*
X399417Y297714D01*
X399053Y297957D01*
X398624Y298043D01*
D02*
G37*
G36*
X544426Y293879D02*
X543997Y293794D01*
X543633Y293551D01*
X543390Y293187D01*
X543304Y292758D01*
X543390Y292328D01*
X543633Y291965D01*
X543997Y291721D01*
X544426Y291636D01*
X544855Y291721D01*
X545219Y291965D01*
X545462Y292328D01*
X545548Y292758D01*
X545462Y293187D01*
X545219Y293551D01*
X544855Y293794D01*
X544426Y293879D01*
D02*
G37*
G36*
X426970Y291743D02*
X426541Y291658D01*
X426177Y291415D01*
X425934Y291051D01*
X425849Y290622D01*
X425934Y290193D01*
X426177Y289829D01*
X426541Y289586D01*
X426970Y289500D01*
X427399Y289586D01*
X427763Y289829D01*
X428006Y290193D01*
X428092Y290622D01*
X428006Y291051D01*
X427763Y291415D01*
X427399Y291658D01*
X426970Y291743D01*
D02*
G37*
G36*
X459468Y289213D02*
X459039Y289128D01*
X458675Y288885D01*
X458432Y288521D01*
X458346Y288091D01*
X458432Y287662D01*
X458675Y287298D01*
X459039Y287055D01*
X459468Y286970D01*
X459897Y287055D01*
X460261Y287298D01*
X460504Y287662D01*
X460589Y288091D01*
X460504Y288521D01*
X460261Y288885D01*
X459897Y289128D01*
X459468Y289213D01*
D02*
G37*
G36*
X497210Y284742D02*
X496781Y284656D01*
X496417Y284413D01*
X496174Y284049D01*
X496089Y283620D01*
X496174Y283191D01*
X496417Y282827D01*
X496781Y282584D01*
X497210Y282499D01*
X497639Y282584D01*
X498003Y282827D01*
X498246Y283191D01*
X498332Y283620D01*
X498246Y284049D01*
X498003Y284413D01*
X497639Y284656D01*
X497210Y284742D01*
D02*
G37*
G36*
X426970Y282295D02*
X426541Y282209D01*
X426177Y281966D01*
X425934Y281602D01*
X425849Y281173D01*
X425934Y280744D01*
X426177Y280380D01*
X426541Y280137D01*
X426970Y280051D01*
X427399Y280137D01*
X427763Y280380D01*
X428006Y280744D01*
X428092Y281173D01*
X428006Y281602D01*
X427763Y281966D01*
X427399Y282209D01*
X426970Y282295D01*
D02*
G37*
G36*
X423820D02*
X423391Y282209D01*
X423028Y281966D01*
X422784Y281602D01*
X422699Y281173D01*
X422784Y280744D01*
X423028Y280380D01*
X423391Y280137D01*
X423820Y280051D01*
X424250Y280137D01*
X424614Y280380D01*
X424857Y280744D01*
X424942Y281173D01*
X424857Y281602D01*
X424614Y281966D01*
X424250Y282209D01*
X423820Y282295D01*
D02*
G37*
G36*
Y275995D02*
X423391Y275910D01*
X423028Y275667D01*
X422784Y275303D01*
X422699Y274874D01*
X422784Y274445D01*
X423028Y274081D01*
X423391Y273838D01*
X423820Y273752D01*
X424250Y273838D01*
X424614Y274081D01*
X424857Y274445D01*
X424942Y274874D01*
X424857Y275303D01*
X424614Y275667D01*
X424250Y275910D01*
X423820Y275995D01*
D02*
G37*
G36*
Y272846D02*
X423391Y272760D01*
X423028Y272517D01*
X422784Y272153D01*
X422699Y271724D01*
X422784Y271295D01*
X423028Y270931D01*
X423391Y270688D01*
X423820Y270603D01*
X424250Y270688D01*
X424614Y270931D01*
X424857Y271295D01*
X424942Y271724D01*
X424857Y272153D01*
X424614Y272517D01*
X424250Y272760D01*
X423820Y272846D01*
D02*
G37*
G36*
X444713Y271855D02*
X444284Y271769D01*
X443920Y271526D01*
X443677Y271162D01*
X443591Y270733D01*
X443677Y270304D01*
X443920Y269940D01*
X444284Y269697D01*
X444713Y269612D01*
X445142Y269697D01*
X445506Y269940D01*
X445749Y270304D01*
X445835Y270733D01*
X445749Y271162D01*
X445506Y271526D01*
X445142Y271769D01*
X444713Y271855D01*
D02*
G37*
G36*
X436912Y271357D02*
X436483Y271272D01*
X436119Y271028D01*
X435876Y270665D01*
X435791Y270235D01*
X435876Y269806D01*
X436119Y269442D01*
X436483Y269199D01*
X436912Y269114D01*
X437341Y269199D01*
X437705Y269442D01*
X437948Y269806D01*
X438034Y270235D01*
X437948Y270665D01*
X437705Y271028D01*
X437341Y271272D01*
X436912Y271357D01*
D02*
G37*
G36*
X426970Y269696D02*
X426541Y269611D01*
X426177Y269368D01*
X425934Y269004D01*
X425849Y268575D01*
X425934Y268145D01*
X426177Y267782D01*
X426541Y267538D01*
X426970Y267453D01*
X427399Y267538D01*
X427763Y267782D01*
X428006Y268145D01*
X428092Y268575D01*
X428006Y269004D01*
X427763Y269368D01*
X427399Y269611D01*
X426970Y269696D01*
D02*
G37*
G36*
X423820D02*
X423391Y269611D01*
X423028Y269368D01*
X422784Y269004D01*
X422699Y268575D01*
X422784Y268145D01*
X423028Y267782D01*
X423391Y267538D01*
X423820Y267453D01*
X424250Y267538D01*
X424614Y267782D01*
X424857Y268145D01*
X424942Y268575D01*
X424857Y269004D01*
X424614Y269368D01*
X424250Y269611D01*
X423820Y269696D01*
D02*
G37*
G36*
X514365Y267340D02*
X513935Y267255D01*
X513572Y267012D01*
X513329Y266648D01*
X513243Y266219D01*
X513329Y265790D01*
X513572Y265426D01*
X513935Y265183D01*
X514365Y265097D01*
X514794Y265183D01*
X515158Y265426D01*
X515401Y265790D01*
X515486Y266219D01*
X515401Y266648D01*
X515158Y267012D01*
X514794Y267255D01*
X514365Y267340D01*
D02*
G37*
G36*
X426970Y266547D02*
X426541Y266461D01*
X426177Y266218D01*
X425934Y265854D01*
X425849Y265425D01*
X425934Y264996D01*
X426177Y264632D01*
X426541Y264389D01*
X426970Y264303D01*
X427399Y264389D01*
X427763Y264632D01*
X428006Y264996D01*
X428092Y265425D01*
X428006Y265854D01*
X427763Y266218D01*
X427399Y266461D01*
X426970Y266547D01*
D02*
G37*
G36*
X423820D02*
X423391Y266461D01*
X423028Y266218D01*
X422784Y265854D01*
X422699Y265425D01*
X422784Y264996D01*
X423028Y264632D01*
X423391Y264389D01*
X423820Y264303D01*
X424250Y264389D01*
X424614Y264632D01*
X424857Y264996D01*
X424942Y265425D01*
X424857Y265854D01*
X424614Y266218D01*
X424250Y266461D01*
X423820Y266547D01*
D02*
G37*
G36*
X426970Y263397D02*
X426541Y263312D01*
X426177Y263069D01*
X425934Y262705D01*
X425849Y262275D01*
X425934Y261846D01*
X426177Y261482D01*
X426541Y261239D01*
X426970Y261154D01*
X427399Y261239D01*
X427763Y261482D01*
X428006Y261846D01*
X428092Y262275D01*
X428006Y262705D01*
X427763Y263069D01*
X427399Y263312D01*
X426970Y263397D01*
D02*
G37*
G36*
X423820D02*
X423391Y263312D01*
X423028Y263069D01*
X422784Y262705D01*
X422699Y262275D01*
X422784Y261846D01*
X423028Y261482D01*
X423391Y261239D01*
X423820Y261154D01*
X424250Y261239D01*
X424614Y261482D01*
X424857Y261846D01*
X424942Y262275D01*
X424857Y262705D01*
X424614Y263069D01*
X424250Y263312D01*
X423820Y263397D01*
D02*
G37*
G36*
X520913Y262822D02*
X520484Y262736D01*
X520120Y262493D01*
X519877Y262129D01*
X519792Y261700D01*
X519877Y261271D01*
X520120Y260907D01*
X520484Y260664D01*
X520913Y260578D01*
X521342Y260664D01*
X521706Y260907D01*
X521949Y261271D01*
X522035Y261700D01*
X521949Y262129D01*
X521706Y262493D01*
X521342Y262736D01*
X520913Y262822D01*
D02*
G37*
G36*
X553166Y261548D02*
X552737Y261463D01*
X552373Y261220D01*
X552130Y260856D01*
X552044Y260427D01*
X552130Y259997D01*
X552373Y259633D01*
X552737Y259390D01*
X553166Y259305D01*
X553595Y259390D01*
X553959Y259633D01*
X554202Y259997D01*
X554288Y260427D01*
X554202Y260856D01*
X553959Y261220D01*
X553595Y261463D01*
X553166Y261548D01*
D02*
G37*
G36*
X426970Y260247D02*
X426541Y260162D01*
X426177Y259919D01*
X425934Y259555D01*
X425849Y259126D01*
X425934Y258697D01*
X426177Y258333D01*
X426541Y258090D01*
X426970Y258004D01*
X427399Y258090D01*
X427763Y258333D01*
X428006Y258697D01*
X428092Y259126D01*
X428006Y259555D01*
X427763Y259919D01*
X427399Y260162D01*
X426970Y260247D01*
D02*
G37*
G36*
X423820D02*
X423391Y260162D01*
X423028Y259919D01*
X422784Y259555D01*
X422699Y259126D01*
X422784Y258697D01*
X423028Y258333D01*
X423391Y258090D01*
X423820Y258004D01*
X424250Y258090D01*
X424614Y258333D01*
X424857Y258697D01*
X424942Y259126D01*
X424857Y259555D01*
X424614Y259919D01*
X424250Y260162D01*
X423820Y260247D01*
D02*
G37*
G36*
X426970Y257098D02*
X426541Y257012D01*
X426177Y256769D01*
X425934Y256405D01*
X425849Y255976D01*
X425934Y255547D01*
X426177Y255183D01*
X426541Y254940D01*
X426970Y254855D01*
X427399Y254940D01*
X427763Y255183D01*
X428006Y255547D01*
X428092Y255976D01*
X428006Y256405D01*
X427763Y256769D01*
X427399Y257012D01*
X426970Y257098D01*
D02*
G37*
G36*
X417521Y253948D02*
X417092Y253863D01*
X416728Y253620D01*
X416485Y253256D01*
X416400Y252827D01*
X416485Y252397D01*
X416728Y252033D01*
X417092Y251790D01*
X417521Y251705D01*
X417950Y251790D01*
X418314Y252033D01*
X418558Y252397D01*
X418643Y252827D01*
X418558Y253256D01*
X418314Y253620D01*
X417950Y253863D01*
X417521Y253948D01*
D02*
G37*
G36*
X435002Y252373D02*
X434572Y252288D01*
X434209Y252045D01*
X433965Y251681D01*
X433880Y251252D01*
X433965Y250823D01*
X434209Y250459D01*
X434572Y250216D01*
X435002Y250130D01*
X435431Y250216D01*
X435795Y250459D01*
X436038Y250823D01*
X436123Y251252D01*
X436038Y251681D01*
X435795Y252045D01*
X435431Y252288D01*
X435002Y252373D01*
D02*
G37*
G36*
X401810Y250241D02*
X401381Y250155D01*
X401017Y249912D01*
X400774Y249549D01*
X400689Y249119D01*
X400774Y248690D01*
X401017Y248326D01*
X401381Y248083D01*
X401810Y247998D01*
X402240Y248083D01*
X402603Y248326D01*
X402847Y248690D01*
X402932Y249119D01*
X402847Y249549D01*
X402603Y249912D01*
X402240Y250155D01*
X401810Y250241D01*
D02*
G37*
G36*
X406498Y249066D02*
X406069Y248981D01*
X405705Y248738D01*
X405462Y248374D01*
X405376Y247945D01*
X405462Y247516D01*
X405705Y247152D01*
X406069Y246908D01*
X406498Y246823D01*
X406927Y246908D01*
X407291Y247152D01*
X407534Y247516D01*
X407619Y247945D01*
X407534Y248374D01*
X407291Y248738D01*
X406927Y248981D01*
X406498Y249066D01*
D02*
G37*
G36*
X422077Y244808D02*
X421648Y244723D01*
X421284Y244480D01*
X421041Y244116D01*
X420956Y243687D01*
X421041Y243258D01*
X421284Y242894D01*
X421648Y242651D01*
X422077Y242565D01*
X422507Y242651D01*
X422870Y242894D01*
X423113Y243258D01*
X423199Y243687D01*
X423113Y244116D01*
X422870Y244480D01*
X422507Y244723D01*
X422077Y244808D01*
D02*
G37*
G36*
X400667Y240753D02*
X400238Y240668D01*
X399874Y240425D01*
X399631Y240061D01*
X399546Y239632D01*
X399631Y239202D01*
X399874Y238838D01*
X400238Y238595D01*
X400667Y238510D01*
X401096Y238595D01*
X401460Y238838D01*
X401704Y239202D01*
X401789Y239632D01*
X401704Y240061D01*
X401460Y240425D01*
X401096Y240668D01*
X400667Y240753D01*
D02*
G37*
G36*
X397350Y240734D02*
X396920Y240649D01*
X396557Y240406D01*
X396314Y240042D01*
X396228Y239613D01*
X396314Y239184D01*
X396557Y238820D01*
X396920Y238577D01*
X397350Y238491D01*
X397779Y238577D01*
X398143Y238820D01*
X398386Y239184D01*
X398471Y239613D01*
X398386Y240042D01*
X398143Y240406D01*
X397779Y240649D01*
X397350Y240734D01*
D02*
G37*
G36*
X381274Y239943D02*
X380845Y239858D01*
X380481Y239615D01*
X380238Y239251D01*
X380153Y238821D01*
X380238Y238392D01*
X380481Y238028D01*
X380845Y237785D01*
X381274Y237700D01*
X381703Y237785D01*
X382067Y238028D01*
X382310Y238392D01*
X382396Y238821D01*
X382310Y239251D01*
X382067Y239615D01*
X381703Y239858D01*
X381274Y239943D01*
D02*
G37*
G36*
X508362Y239452D02*
X507933Y239367D01*
X507569Y239124D01*
X507326Y238760D01*
X507240Y238330D01*
X507326Y237901D01*
X507569Y237537D01*
X507933Y237294D01*
X508362Y237209D01*
X508791Y237294D01*
X509155Y237537D01*
X509398Y237901D01*
X509484Y238330D01*
X509398Y238760D01*
X509155Y239124D01*
X508791Y239367D01*
X508362Y239452D01*
D02*
G37*
G36*
X538837Y240648D02*
X538408Y240563D01*
X538044Y240320D01*
X537801Y239956D01*
X537715Y239527D01*
X537801Y239097D01*
X538044Y238734D01*
X538408Y238491D01*
X538837Y238405D01*
X539266Y238491D01*
X539501Y238647D01*
X539861Y238287D01*
X539725Y238084D01*
X539640Y237654D01*
X539725Y237225D01*
X539968Y236861D01*
X540332Y236618D01*
X540762Y236533D01*
X541191Y236618D01*
X541555Y236861D01*
X541798Y237225D01*
X541883Y237654D01*
X541798Y238084D01*
X541555Y238447D01*
X541191Y238690D01*
X540762Y238776D01*
X540332Y238690D01*
X540098Y238534D01*
X539738Y238894D01*
X539873Y239097D01*
X539959Y239527D01*
X539873Y239956D01*
X539630Y240320D01*
X539266Y240563D01*
X538837Y240648D01*
D02*
G37*
G36*
X508315Y235263D02*
X507886Y235178D01*
X507522Y234935D01*
X507279Y234571D01*
X507194Y234142D01*
X507279Y233713D01*
X507522Y233349D01*
X507886Y233106D01*
X508315Y233020D01*
X508744Y233106D01*
X509108Y233349D01*
X509351Y233713D01*
X509437Y234142D01*
X509351Y234571D01*
X509108Y234935D01*
X508744Y235178D01*
X508315Y235263D01*
D02*
G37*
G36*
X377751Y232656D02*
X377322Y232571D01*
X376958Y232328D01*
X376715Y231964D01*
X376630Y231534D01*
X376715Y231105D01*
X376958Y230741D01*
X377322Y230498D01*
X377751Y230413D01*
X378180Y230498D01*
X378544Y230741D01*
X378787Y231105D01*
X378873Y231534D01*
X378787Y231964D01*
X378544Y232328D01*
X378180Y232571D01*
X377751Y232656D01*
D02*
G37*
G36*
X508386Y230917D02*
X507957Y230831D01*
X507593Y230588D01*
X507350Y230224D01*
X507265Y229795D01*
X507350Y229366D01*
X507593Y229002D01*
X507957Y228759D01*
X508386Y228674D01*
X508815Y228759D01*
X509179Y229002D01*
X509422Y229366D01*
X509508Y229795D01*
X509422Y230224D01*
X509179Y230588D01*
X508815Y230831D01*
X508386Y230917D01*
D02*
G37*
G36*
X415794Y230280D02*
X415365Y230194D01*
X415001Y229951D01*
X414758Y229587D01*
X414673Y229158D01*
X414758Y228729D01*
X415001Y228365D01*
X415365Y228122D01*
X415794Y228036D01*
X416223Y228122D01*
X416587Y228365D01*
X416830Y228729D01*
X416916Y229158D01*
X416830Y229587D01*
X416587Y229951D01*
X416223Y230194D01*
X415794Y230280D01*
D02*
G37*
G36*
X508419Y226788D02*
X507990Y226702D01*
X507626Y226459D01*
X507383Y226095D01*
X507298Y225666D01*
X507383Y225237D01*
X507626Y224873D01*
X507990Y224630D01*
X508419Y224545D01*
X508848Y224630D01*
X509212Y224873D01*
X509455Y225237D01*
X509541Y225666D01*
X509455Y226095D01*
X509212Y226459D01*
X508848Y226702D01*
X508419Y226788D01*
D02*
G37*
G36*
X426364Y224590D02*
X425935Y224504D01*
X425571Y224261D01*
X425328Y223897D01*
X425243Y223468D01*
X425328Y223039D01*
X425571Y222675D01*
X425935Y222432D01*
X426364Y222347D01*
X426794Y222432D01*
X427157Y222675D01*
X427400Y223039D01*
X427486Y223468D01*
X427400Y223897D01*
X427157Y224261D01*
X426794Y224504D01*
X426364Y224590D01*
D02*
G37*
G36*
X394861Y224035D02*
X394432Y223949D01*
X394068Y223706D01*
X393825Y223342D01*
X393740Y222913D01*
X393825Y222484D01*
X394068Y222120D01*
X394432Y221877D01*
X394861Y221791D01*
X395290Y221877D01*
X395654Y222120D01*
X395897Y222484D01*
X395983Y222913D01*
X395897Y223342D01*
X395654Y223706D01*
X395290Y223949D01*
X394861Y224035D01*
D02*
G37*
G36*
X508474Y222531D02*
X508045Y222446D01*
X507681Y222202D01*
X507438Y221838D01*
X507353Y221409D01*
X507438Y220980D01*
X507681Y220616D01*
X508045Y220373D01*
X508474Y220288D01*
X508904Y220373D01*
X509267Y220616D01*
X509511Y220980D01*
X509596Y221409D01*
X509511Y221838D01*
X509267Y222202D01*
X508904Y222446D01*
X508474Y222531D01*
D02*
G37*
G36*
X546268Y219132D02*
X545838Y219047D01*
X545474Y218804D01*
X545231Y218440D01*
X545146Y218010D01*
X545231Y217581D01*
X545474Y217217D01*
X545838Y216974D01*
X546268Y216889D01*
X546697Y216974D01*
X547060Y217217D01*
X547304Y217581D01*
X547389Y218010D01*
X547304Y218440D01*
X547060Y218804D01*
X546697Y219047D01*
X546268Y219132D01*
D02*
G37*
G36*
X382681Y218536D02*
X382251Y218450D01*
X381887Y218207D01*
X381644Y217844D01*
X381559Y217414D01*
X381644Y216985D01*
X381887Y216621D01*
X382251Y216378D01*
X382681Y216293D01*
X383110Y216378D01*
X383473Y216621D01*
X383717Y216985D01*
X383802Y217414D01*
X383717Y217844D01*
X383473Y218207D01*
X383110Y218450D01*
X382681Y218536D01*
D02*
G37*
G36*
X385674Y216920D02*
X385245Y216834D01*
X384881Y216591D01*
X384638Y216227D01*
X384552Y215798D01*
X384638Y215369D01*
X384881Y215005D01*
X385245Y214762D01*
X385674Y214677D01*
X386103Y214762D01*
X386467Y215005D01*
X386710Y215369D01*
X386795Y215798D01*
X386710Y216227D01*
X386467Y216591D01*
X386103Y216834D01*
X385674Y216920D01*
D02*
G37*
G36*
X371585Y216178D02*
X371155Y216092D01*
X370792Y215849D01*
X370548Y215485D01*
X370463Y215056D01*
X370548Y214627D01*
X370792Y214263D01*
X371155Y214020D01*
X371585Y213934D01*
X372014Y214020D01*
X372378Y214263D01*
X372621Y214627D01*
X372706Y215056D01*
X372621Y215485D01*
X372378Y215849D01*
X372014Y216092D01*
X371585Y216178D01*
D02*
G37*
G36*
X546362Y215293D02*
X545932Y215207D01*
X545569Y214964D01*
X545326Y214600D01*
X545240Y214171D01*
X545326Y213742D01*
X545569Y213378D01*
X545932Y213135D01*
X546362Y213050D01*
X546791Y213135D01*
X547155Y213378D01*
X547398Y213742D01*
X547483Y214171D01*
X547398Y214600D01*
X547155Y214964D01*
X546791Y215207D01*
X546362Y215293D01*
D02*
G37*
G36*
X404410Y198956D02*
X403981Y198870D01*
X403617Y198627D01*
X403374Y198263D01*
X403289Y197834D01*
X403374Y197405D01*
X403617Y197041D01*
X403981Y196798D01*
X404410Y196712D01*
X404839Y196798D01*
X405203Y197041D01*
X405446Y197405D01*
X405532Y197834D01*
X405446Y198263D01*
X405203Y198627D01*
X404839Y198870D01*
X404410Y198956D01*
D02*
G37*
G36*
X453731Y194213D02*
X453302Y194128D01*
X452938Y193885D01*
X452695Y193521D01*
X452610Y193092D01*
X452695Y192663D01*
X452938Y192299D01*
X453302Y192056D01*
X453731Y191970D01*
X454161Y192056D01*
X454525Y192299D01*
X454768Y192663D01*
X454853Y193092D01*
X454768Y193521D01*
X454525Y193885D01*
X454161Y194128D01*
X453731Y194213D01*
D02*
G37*
G36*
X362051Y192809D02*
X361622Y192723D01*
X361258Y192480D01*
X361015Y192116D01*
X360929Y191687D01*
X361015Y191258D01*
X361258Y190894D01*
X361622Y190651D01*
X362051Y190566D01*
X362480Y190651D01*
X362844Y190894D01*
X363087Y191258D01*
X363173Y191687D01*
X363087Y192116D01*
X362844Y192480D01*
X362480Y192723D01*
X362051Y192809D01*
D02*
G37*
G36*
X452221Y189756D02*
X451792Y189671D01*
X451428Y189427D01*
X451185Y189064D01*
X451099Y188634D01*
X451185Y188205D01*
X451428Y187841D01*
X451792Y187598D01*
X452221Y187513D01*
X452650Y187598D01*
X453014Y187841D01*
X453257Y188205D01*
X453343Y188634D01*
X453257Y189064D01*
X453014Y189427D01*
X452650Y189671D01*
X452221Y189756D01*
D02*
G37*
G36*
X462903Y189703D02*
X462474Y189618D01*
X462110Y189374D01*
X461867Y189011D01*
X461782Y188582D01*
X461867Y188152D01*
X462110Y187788D01*
X462474Y187545D01*
X462903Y187460D01*
X463333Y187545D01*
X463696Y187788D01*
X463940Y188152D01*
X464025Y188582D01*
X463940Y189011D01*
X463696Y189374D01*
X463333Y189618D01*
X462903Y189703D01*
D02*
G37*
G36*
X546215Y183658D02*
X545786Y183572D01*
X545422Y183329D01*
X545179Y182965D01*
X545093Y182536D01*
X545179Y182107D01*
X545422Y181743D01*
X545786Y181500D01*
X546215Y181415D01*
X546644Y181500D01*
X547008Y181743D01*
X547251Y182107D01*
X547336Y182536D01*
X547251Y182965D01*
X547008Y183329D01*
X546644Y183572D01*
X546215Y183658D01*
D02*
G37*
G36*
X362010Y183267D02*
X361580Y183182D01*
X361216Y182939D01*
X360973Y182575D01*
X360888Y182146D01*
X360973Y181716D01*
X361216Y181352D01*
X361580Y181109D01*
X362010Y181024D01*
X362439Y181109D01*
X362803Y181352D01*
X363046Y181716D01*
X363131Y182146D01*
X363046Y182575D01*
X362803Y182939D01*
X362439Y183182D01*
X362010Y183267D01*
D02*
G37*
G36*
X451925Y182769D02*
X451496Y182684D01*
X451132Y182441D01*
X450889Y182077D01*
X450804Y181648D01*
X450889Y181218D01*
X451132Y180854D01*
X451496Y180611D01*
X451925Y180526D01*
X452354Y180611D01*
X452718Y180854D01*
X452961Y181218D01*
X453047Y181648D01*
X452961Y182077D01*
X452718Y182441D01*
X452354Y182684D01*
X451925Y182769D01*
D02*
G37*
G36*
X509338Y182023D02*
X508909Y181938D01*
X508545Y181695D01*
X508302Y181331D01*
X508217Y180902D01*
X508302Y180472D01*
X508545Y180108D01*
X508909Y179865D01*
X509338Y179780D01*
X509767Y179865D01*
X510131Y180108D01*
X510374Y180472D01*
X510460Y180902D01*
X510374Y181331D01*
X510131Y181695D01*
X509767Y181938D01*
X509338Y182023D01*
D02*
G37*
G36*
X425155Y173945D02*
X424726Y173859D01*
X424362Y173616D01*
X424119Y173252D01*
X424033Y172823D01*
X424119Y172394D01*
X424362Y172030D01*
X424726Y171787D01*
X425155Y171701D01*
X425584Y171787D01*
X425948Y172030D01*
X426191Y172394D01*
X426276Y172823D01*
X426191Y173252D01*
X425948Y173616D01*
X425584Y173859D01*
X425155Y173945D01*
D02*
G37*
G36*
X295468Y174983D02*
X294772Y174891D01*
X294123Y174622D01*
X293566Y174195D01*
X293139Y173638D01*
X292870Y172989D01*
X292778Y172293D01*
X292870Y171597D01*
X293139Y170948D01*
X293566Y170391D01*
X294123Y169963D01*
X294772Y169694D01*
X295468Y169603D01*
X296164Y169694D01*
X296813Y169963D01*
X297370Y170391D01*
X297798Y170948D01*
X298066Y171597D01*
X298158Y172293D01*
X298066Y172989D01*
X297798Y173638D01*
X297370Y174195D01*
X296813Y174622D01*
X296164Y174891D01*
X295468Y174983D01*
D02*
G37*
G36*
X256098D02*
X255402Y174891D01*
X254753Y174622D01*
X254196Y174195D01*
X253768Y173638D01*
X253500Y172989D01*
X253408Y172293D01*
X253500Y171597D01*
X253768Y170948D01*
X254196Y170391D01*
X254753Y169963D01*
X255402Y169694D01*
X256098Y169603D01*
X256794Y169694D01*
X257443Y169963D01*
X258000Y170391D01*
X258428Y170948D01*
X258696Y171597D01*
X258788Y172293D01*
X258696Y172989D01*
X258428Y173638D01*
X258000Y174195D01*
X257443Y174622D01*
X256794Y174891D01*
X256098Y174983D01*
D02*
G37*
G36*
X497562Y175116D02*
X496572Y174986D01*
X495651Y174604D01*
X494859Y173997D01*
X494252Y173205D01*
X493870Y172284D01*
X493740Y171295D01*
X493870Y170306D01*
X494252Y169384D01*
X494859Y168592D01*
X495651Y167985D01*
X496572Y167603D01*
X497562Y167473D01*
X498551Y167603D01*
X499472Y167985D01*
X500264Y168592D01*
X500871Y169384D01*
X501253Y170306D01*
X501383Y171295D01*
X501253Y172284D01*
X500871Y173205D01*
X500264Y173997D01*
X499472Y174604D01*
X498551Y174986D01*
X497562Y175116D01*
D02*
G37*
G36*
X487562D02*
X486572Y174986D01*
X485651Y174604D01*
X484859Y173997D01*
X484252Y173205D01*
X483870Y172284D01*
X483740Y171295D01*
X483870Y170306D01*
X484252Y169384D01*
X484859Y168592D01*
X485651Y167985D01*
X486572Y167603D01*
X487562Y167473D01*
X488551Y167603D01*
X489472Y167985D01*
X490264Y168592D01*
X490871Y169384D01*
X491253Y170306D01*
X491383Y171295D01*
X491253Y172284D01*
X490871Y173205D01*
X490264Y173997D01*
X489472Y174604D01*
X488551Y174986D01*
X487562Y175116D01*
D02*
G37*
G36*
X477562D02*
X476572Y174986D01*
X475651Y174604D01*
X474859Y173997D01*
X474252Y173205D01*
X473870Y172284D01*
X473740Y171295D01*
X473870Y170306D01*
X474252Y169384D01*
X474859Y168592D01*
X475651Y167985D01*
X476572Y167603D01*
X477562Y167473D01*
X478551Y167603D01*
X479472Y167985D01*
X480264Y168592D01*
X480871Y169384D01*
X481253Y170306D01*
X481383Y171295D01*
X481253Y172284D01*
X480871Y173205D01*
X480264Y173997D01*
X479472Y174604D01*
X478551Y174986D01*
X477562Y175116D01*
D02*
G37*
G36*
X467562D02*
X466572Y174986D01*
X465651Y174604D01*
X464859Y173997D01*
X464252Y173205D01*
X463870Y172284D01*
X463740Y171295D01*
X463870Y170306D01*
X464252Y169384D01*
X464859Y168592D01*
X465651Y167985D01*
X466572Y167603D01*
X467562Y167473D01*
X468551Y167603D01*
X469472Y167985D01*
X470264Y168592D01*
X470871Y169384D01*
X471253Y170306D01*
X471383Y171295D01*
X471253Y172284D01*
X470871Y173205D01*
X470264Y173997D01*
X469472Y174604D01*
X468551Y174986D01*
X467562Y175116D01*
D02*
G37*
G36*
X457562D02*
X456572Y174986D01*
X455651Y174604D01*
X454859Y173997D01*
X454252Y173205D01*
X453870Y172284D01*
X453740Y171295D01*
X453870Y170306D01*
X454252Y169384D01*
X454859Y168592D01*
X455651Y167985D01*
X456572Y167603D01*
X457562Y167473D01*
X458551Y167603D01*
X459472Y167985D01*
X460264Y168592D01*
X460871Y169384D01*
X461253Y170306D01*
X461383Y171295D01*
X461253Y172284D01*
X460871Y173205D01*
X460264Y173997D01*
X459472Y174604D01*
X458551Y174986D01*
X457562Y175116D01*
D02*
G37*
G36*
X447562D02*
X446572Y174986D01*
X445651Y174604D01*
X444859Y173997D01*
X444252Y173205D01*
X443870Y172284D01*
X443740Y171295D01*
X443870Y170306D01*
X444252Y169384D01*
X444859Y168592D01*
X445651Y167985D01*
X446572Y167603D01*
X447562Y167473D01*
X448551Y167603D01*
X449472Y167985D01*
X450264Y168592D01*
X450871Y169384D01*
X451253Y170306D01*
X451383Y171295D01*
X451253Y172284D01*
X450871Y173205D01*
X450264Y173997D01*
X449472Y174604D01*
X448551Y174986D01*
X447562Y175116D01*
D02*
G37*
G36*
X324298Y169165D02*
X323869Y169079D01*
X323505Y168836D01*
X323262Y168473D01*
X323177Y168043D01*
X323262Y167614D01*
X323505Y167250D01*
X323869Y167007D01*
X324298Y166922D01*
X324728Y167007D01*
X325092Y167250D01*
X325335Y167614D01*
X325420Y168043D01*
X325335Y168473D01*
X325092Y168836D01*
X324728Y169079D01*
X324298Y169165D01*
D02*
G37*
G36*
X549252Y168452D02*
X548823Y168366D01*
X548459Y168123D01*
X548216Y167759D01*
X548130Y167330D01*
X548216Y166901D01*
X548459Y166537D01*
X548823Y166294D01*
X549252Y166209D01*
X549681Y166294D01*
X550045Y166537D01*
X550288Y166901D01*
X550373Y167330D01*
X550288Y167759D01*
X550045Y168123D01*
X549681Y168366D01*
X549252Y168452D01*
D02*
G37*
G36*
X313043Y168193D02*
X312614Y168108D01*
X312250Y167865D01*
X312007Y167501D01*
X311922Y167072D01*
X312007Y166642D01*
X312250Y166279D01*
X312614Y166035D01*
X313043Y165950D01*
X313473Y166035D01*
X313836Y166279D01*
X314079Y166642D01*
X314165Y167072D01*
X314079Y167501D01*
X313836Y167865D01*
X313473Y168108D01*
X313043Y168193D01*
D02*
G37*
G36*
X331028Y167025D02*
X330598Y166939D01*
X330235Y166696D01*
X329991Y166332D01*
X329906Y165903D01*
X329991Y165474D01*
X330235Y165110D01*
X330598Y164867D01*
X331028Y164782D01*
X331457Y164867D01*
X331821Y165110D01*
X332064Y165474D01*
X332149Y165903D01*
X332064Y166332D01*
X331821Y166696D01*
X331457Y166939D01*
X331028Y167025D01*
D02*
G37*
G36*
X362268Y163027D02*
X361839Y162942D01*
X361475Y162699D01*
X361232Y162335D01*
X361146Y161906D01*
X361232Y161477D01*
X361475Y161113D01*
X361839Y160870D01*
X362268Y160784D01*
X362697Y160870D01*
X363061Y161113D01*
X363304Y161477D01*
X363389Y161906D01*
X363304Y162335D01*
X363061Y162699D01*
X362697Y162942D01*
X362268Y163027D01*
D02*
G37*
G36*
X299405Y157061D02*
X298976Y156976D01*
X298612Y156733D01*
X298369Y156369D01*
X298284Y155940D01*
X298369Y155511D01*
X298612Y155147D01*
X298976Y154904D01*
X299405Y154818D01*
X299834Y154904D01*
X300198Y155147D01*
X300441Y155511D01*
X300527Y155940D01*
X300441Y156369D01*
X300198Y156733D01*
X299834Y156976D01*
X299405Y157061D01*
D02*
G37*
G36*
X291531D02*
X291102Y156976D01*
X290738Y156733D01*
X290495Y156369D01*
X290409Y155940D01*
X290495Y155511D01*
X290738Y155147D01*
X291102Y154904D01*
X291531Y154818D01*
X291960Y154904D01*
X292324Y155147D01*
X292567Y155511D01*
X292653Y155940D01*
X292567Y156369D01*
X292324Y156733D01*
X291960Y156976D01*
X291531Y157061D01*
D02*
G37*
G36*
X283657D02*
X283228Y156976D01*
X282864Y156733D01*
X282621Y156369D01*
X282535Y155940D01*
X282621Y155511D01*
X282864Y155147D01*
X283228Y154904D01*
X283657Y154818D01*
X284086Y154904D01*
X284450Y155147D01*
X284693Y155511D01*
X284778Y155940D01*
X284693Y156369D01*
X284450Y156733D01*
X284086Y156976D01*
X283657Y157061D01*
D02*
G37*
G36*
X275783D02*
X275354Y156976D01*
X274990Y156733D01*
X274747Y156369D01*
X274661Y155940D01*
X274747Y155511D01*
X274990Y155147D01*
X275354Y154904D01*
X275783Y154818D01*
X276212Y154904D01*
X276576Y155147D01*
X276819Y155511D01*
X276905Y155940D01*
X276819Y156369D01*
X276576Y156733D01*
X276212Y156976D01*
X275783Y157061D01*
D02*
G37*
G36*
X267909D02*
X267480Y156976D01*
X267116Y156733D01*
X266873Y156369D01*
X266787Y155940D01*
X266873Y155511D01*
X267116Y155147D01*
X267480Y154904D01*
X267909Y154818D01*
X268338Y154904D01*
X268702Y155147D01*
X268945Y155511D01*
X269030Y155940D01*
X268945Y156369D01*
X268702Y156733D01*
X268338Y156976D01*
X267909Y157061D01*
D02*
G37*
G36*
X260035D02*
X259606Y156976D01*
X259242Y156733D01*
X258999Y156369D01*
X258913Y155940D01*
X258999Y155511D01*
X259242Y155147D01*
X259606Y154904D01*
X260035Y154818D01*
X260464Y154904D01*
X260828Y155147D01*
X261071Y155511D01*
X261157Y155940D01*
X261071Y156369D01*
X260828Y156733D01*
X260464Y156976D01*
X260035Y157061D01*
D02*
G37*
G36*
X252155Y157056D02*
X251726Y156970D01*
X251362Y156727D01*
X251119Y156363D01*
X251034Y155934D01*
X251119Y155505D01*
X251362Y155141D01*
X251726Y154898D01*
X252155Y154813D01*
X252584Y154898D01*
X252948Y155141D01*
X253191Y155505D01*
X253277Y155934D01*
X253191Y156363D01*
X252948Y156727D01*
X252584Y156970D01*
X252155Y157056D01*
D02*
G37*
G36*
X374751Y321840D02*
X374322Y321754D01*
X373958Y321511D01*
X373715Y321147D01*
X373629Y320718D01*
X373715Y320289D01*
X373958Y319925D01*
X374322Y319682D01*
X374751Y319597D01*
X375180Y319682D01*
X375544Y319925D01*
X375787Y320289D01*
X375872Y320718D01*
X375787Y321147D01*
X375544Y321511D01*
X375180Y321754D01*
X374751Y321840D01*
D02*
G37*
G36*
X379739Y312036D02*
X379310Y311951D01*
X378946Y311708D01*
X378703Y311344D01*
X378618Y310914D01*
X378703Y310485D01*
X378946Y310121D01*
X379310Y309878D01*
X379739Y309793D01*
X380169Y309878D01*
X380532Y310121D01*
X380775Y310485D01*
X380861Y310914D01*
X380775Y311344D01*
X380532Y311708D01*
X380169Y311951D01*
X379739Y312036D01*
D02*
G37*
G36*
X392324Y307491D02*
X391895Y307406D01*
X391531Y307163D01*
X391288Y306799D01*
X391203Y306370D01*
X391288Y305941D01*
X391531Y305577D01*
X391895Y305334D01*
X392324Y305248D01*
X392754Y305334D01*
X393117Y305577D01*
X393361Y305941D01*
X393446Y306370D01*
X393361Y306799D01*
X393117Y307163D01*
X392754Y307406D01*
X392324Y307491D01*
D02*
G37*
G36*
X389175D02*
X388746Y307406D01*
X388382Y307163D01*
X388139Y306799D01*
X388053Y306370D01*
X388139Y305941D01*
X388382Y305577D01*
X388746Y305334D01*
X389175Y305248D01*
X389604Y305334D01*
X389968Y305577D01*
X390211Y305941D01*
X390296Y306370D01*
X390211Y306799D01*
X389968Y307163D01*
X389604Y307406D01*
X389175Y307491D01*
D02*
G37*
G36*
X379726D02*
X379297Y307406D01*
X378933Y307163D01*
X378690Y306799D01*
X378605Y306370D01*
X378690Y305941D01*
X378933Y305577D01*
X379297Y305334D01*
X379726Y305248D01*
X380155Y305334D01*
X380519Y305577D01*
X380762Y305941D01*
X380848Y306370D01*
X380762Y306799D01*
X380519Y307163D01*
X380155Y307406D01*
X379726Y307491D01*
D02*
G37*
G36*
X376576D02*
X376147Y307406D01*
X375783Y307163D01*
X375540Y306799D01*
X375455Y306370D01*
X375540Y305941D01*
X375783Y305577D01*
X376147Y305334D01*
X376576Y305248D01*
X377006Y305334D01*
X377369Y305577D01*
X377613Y305941D01*
X377698Y306370D01*
X377613Y306799D01*
X377369Y307163D01*
X377006Y307406D01*
X376576Y307491D01*
D02*
G37*
G36*
X386025Y304342D02*
X385596Y304257D01*
X385232Y304013D01*
X384989Y303649D01*
X384904Y303220D01*
X384989Y302791D01*
X385232Y302427D01*
X385596Y302184D01*
X386025Y302099D01*
X386455Y302184D01*
X386818Y302427D01*
X387062Y302791D01*
X387147Y303220D01*
X387062Y303649D01*
X386818Y304013D01*
X386455Y304257D01*
X386025Y304342D01*
D02*
G37*
G36*
X382876D02*
X382447Y304257D01*
X382083Y304013D01*
X381839Y303649D01*
X381754Y303220D01*
X381839Y302791D01*
X382083Y302427D01*
X382447Y302184D01*
X382876Y302099D01*
X383305Y302184D01*
X383669Y302427D01*
X383912Y302791D01*
X383997Y303220D01*
X383912Y303649D01*
X383669Y304013D01*
X383305Y304257D01*
X382876Y304342D01*
D02*
G37*
G36*
X392324Y301192D02*
X391895Y301107D01*
X391531Y300864D01*
X391288Y300500D01*
X391203Y300071D01*
X391288Y299641D01*
X391531Y299278D01*
X391895Y299035D01*
X392324Y298949D01*
X392754Y299035D01*
X393117Y299278D01*
X393361Y299641D01*
X393446Y300071D01*
X393361Y300500D01*
X393117Y300864D01*
X392754Y301107D01*
X392324Y301192D01*
D02*
G37*
G36*
X389175D02*
X388746Y301107D01*
X388382Y300864D01*
X388139Y300500D01*
X388053Y300071D01*
X388139Y299641D01*
X388382Y299278D01*
X388746Y299035D01*
X389175Y298949D01*
X389604Y299035D01*
X389968Y299278D01*
X390211Y299641D01*
X390296Y300071D01*
X390211Y300500D01*
X389968Y300864D01*
X389604Y301107D01*
X389175Y301192D01*
D02*
G37*
G36*
X386025D02*
X385596Y301107D01*
X385232Y300864D01*
X384989Y300500D01*
X384904Y300071D01*
X384989Y299641D01*
X385232Y299278D01*
X385596Y299035D01*
X386025Y298949D01*
X386455Y299035D01*
X386818Y299278D01*
X387062Y299641D01*
X387147Y300071D01*
X387062Y300500D01*
X386818Y300864D01*
X386455Y301107D01*
X386025Y301192D01*
D02*
G37*
G36*
X382876D02*
X382447Y301107D01*
X382083Y300864D01*
X381839Y300500D01*
X381754Y300071D01*
X381839Y299641D01*
X382083Y299278D01*
X382447Y299035D01*
X382876Y298949D01*
X383305Y299035D01*
X383669Y299278D01*
X383912Y299641D01*
X383997Y300071D01*
X383912Y300500D01*
X383669Y300864D01*
X383305Y301107D01*
X382876Y301192D01*
D02*
G37*
G36*
X386025Y298043D02*
X385596Y297957D01*
X385232Y297714D01*
X384989Y297350D01*
X384904Y296921D01*
X384989Y296492D01*
X385232Y296128D01*
X385596Y295885D01*
X386025Y295799D01*
X386455Y295885D01*
X386818Y296128D01*
X387062Y296492D01*
X387147Y296921D01*
X387062Y297350D01*
X386818Y297714D01*
X386455Y297957D01*
X386025Y298043D01*
D02*
G37*
G36*
X392324Y294893D02*
X391895Y294808D01*
X391531Y294565D01*
X391288Y294201D01*
X391203Y293772D01*
X391288Y293342D01*
X391531Y292978D01*
X391895Y292735D01*
X392324Y292650D01*
X392754Y292735D01*
X393117Y292978D01*
X393361Y293342D01*
X393446Y293772D01*
X393361Y294201D01*
X393117Y294565D01*
X392754Y294808D01*
X392324Y294893D01*
D02*
G37*
G36*
X389175D02*
X388746Y294808D01*
X388382Y294565D01*
X388139Y294201D01*
X388053Y293772D01*
X388139Y293342D01*
X388382Y292978D01*
X388746Y292735D01*
X389175Y292650D01*
X389604Y292735D01*
X389968Y292978D01*
X390211Y293342D01*
X390296Y293772D01*
X390211Y294201D01*
X389968Y294565D01*
X389604Y294808D01*
X389175Y294893D01*
D02*
G37*
G36*
X408073Y291743D02*
X407643Y291658D01*
X407279Y291415D01*
X407036Y291051D01*
X406951Y290622D01*
X407036Y290193D01*
X407279Y289829D01*
X407643Y289586D01*
X408073Y289500D01*
X408502Y289586D01*
X408866Y289829D01*
X409109Y290193D01*
X409194Y290622D01*
X409109Y291051D01*
X408866Y291415D01*
X408502Y291658D01*
X408073Y291743D01*
D02*
G37*
G36*
X404923D02*
X404494Y291658D01*
X404130Y291415D01*
X403887Y291051D01*
X403801Y290622D01*
X403887Y290193D01*
X404130Y289829D01*
X404494Y289586D01*
X404923Y289500D01*
X405352Y289586D01*
X405716Y289829D01*
X405959Y290193D01*
X406044Y290622D01*
X405959Y291051D01*
X405716Y291415D01*
X405352Y291658D01*
X404923Y291743D01*
D02*
G37*
G36*
X392324D02*
X391895Y291658D01*
X391531Y291415D01*
X391288Y291051D01*
X391203Y290622D01*
X391288Y290193D01*
X391531Y289829D01*
X391895Y289586D01*
X392324Y289500D01*
X392754Y289586D01*
X393117Y289829D01*
X393361Y290193D01*
X393446Y290622D01*
X393361Y291051D01*
X393117Y291415D01*
X392754Y291658D01*
X392324Y291743D01*
D02*
G37*
G36*
X401773Y288594D02*
X401344Y288508D01*
X400980Y288265D01*
X400737Y287901D01*
X400652Y287472D01*
X400737Y287043D01*
X400980Y286679D01*
X401344Y286436D01*
X401773Y286351D01*
X402203Y286436D01*
X402566Y286679D01*
X402809Y287043D01*
X402895Y287472D01*
X402809Y287901D01*
X402566Y288265D01*
X402203Y288508D01*
X401773Y288594D01*
D02*
G37*
G36*
X395474D02*
X395045Y288508D01*
X394681Y288265D01*
X394438Y287901D01*
X394353Y287472D01*
X394438Y287043D01*
X394681Y286679D01*
X395045Y286436D01*
X395474Y286351D01*
X395903Y286436D01*
X396267Y286679D01*
X396510Y287043D01*
X396596Y287472D01*
X396510Y287901D01*
X396267Y288265D01*
X395903Y288508D01*
X395474Y288594D01*
D02*
G37*
G36*
X408073Y285444D02*
X407643Y285359D01*
X407279Y285116D01*
X407036Y284752D01*
X406951Y284323D01*
X407036Y283893D01*
X407279Y283530D01*
X407643Y283286D01*
X408073Y283201D01*
X408502Y283286D01*
X408866Y283530D01*
X409109Y283893D01*
X409194Y284323D01*
X409109Y284752D01*
X408866Y285116D01*
X408502Y285359D01*
X408073Y285444D01*
D02*
G37*
G36*
X398624D02*
X398195Y285359D01*
X397831Y285116D01*
X397587Y284752D01*
X397502Y284323D01*
X397587Y283893D01*
X397831Y283530D01*
X398195Y283286D01*
X398624Y283201D01*
X399053Y283286D01*
X399417Y283530D01*
X399660Y283893D01*
X399745Y284323D01*
X399660Y284752D01*
X399417Y285116D01*
X399053Y285359D01*
X398624Y285444D01*
D02*
G37*
G36*
X411222Y282295D02*
X410793Y282209D01*
X410429Y281966D01*
X410186Y281602D01*
X410101Y281173D01*
X410186Y280744D01*
X410429Y280380D01*
X410793Y280137D01*
X411222Y280051D01*
X411651Y280137D01*
X412015Y280380D01*
X412258Y280744D01*
X412344Y281173D01*
X412258Y281602D01*
X412015Y281966D01*
X411651Y282209D01*
X411222Y282295D01*
D02*
G37*
G36*
X408073D02*
X407643Y282209D01*
X407279Y281966D01*
X407036Y281602D01*
X406951Y281173D01*
X407036Y280744D01*
X407279Y280380D01*
X407643Y280137D01*
X408073Y280051D01*
X408502Y280137D01*
X408866Y280380D01*
X409109Y280744D01*
X409194Y281173D01*
X409109Y281602D01*
X408866Y281966D01*
X408502Y282209D01*
X408073Y282295D01*
D02*
G37*
G36*
X401773D02*
X401344Y282209D01*
X400980Y281966D01*
X400737Y281602D01*
X400652Y281173D01*
X400737Y280744D01*
X400980Y280380D01*
X401344Y280137D01*
X401773Y280051D01*
X402203Y280137D01*
X402566Y280380D01*
X402809Y280744D01*
X402895Y281173D01*
X402809Y281602D01*
X402566Y281966D01*
X402203Y282209D01*
X401773Y282295D01*
D02*
G37*
G36*
X395474D02*
X395045Y282209D01*
X394681Y281966D01*
X394438Y281602D01*
X394353Y281173D01*
X394438Y280744D01*
X394681Y280380D01*
X395045Y280137D01*
X395474Y280051D01*
X395903Y280137D01*
X396267Y280380D01*
X396510Y280744D01*
X396596Y281173D01*
X396510Y281602D01*
X396267Y281966D01*
X395903Y282209D01*
X395474Y282295D01*
D02*
G37*
G36*
X411222Y279145D02*
X410793Y279060D01*
X410429Y278817D01*
X410186Y278453D01*
X410101Y278023D01*
X410186Y277594D01*
X410429Y277230D01*
X410793Y276987D01*
X411222Y276902D01*
X411651Y276987D01*
X412015Y277230D01*
X412258Y277594D01*
X412344Y278023D01*
X412258Y278453D01*
X412015Y278817D01*
X411651Y279060D01*
X411222Y279145D01*
D02*
G37*
G36*
X408073Y275995D02*
X407643Y275910D01*
X407279Y275667D01*
X407036Y275303D01*
X406951Y274874D01*
X407036Y274445D01*
X407279Y274081D01*
X407643Y273838D01*
X408073Y273752D01*
X408502Y273838D01*
X408866Y274081D01*
X409109Y274445D01*
X409194Y274874D01*
X409109Y275303D01*
X408866Y275667D01*
X408502Y275910D01*
X408073Y275995D01*
D02*
G37*
G36*
X401773D02*
X401344Y275910D01*
X400980Y275667D01*
X400737Y275303D01*
X400652Y274874D01*
X400737Y274445D01*
X400980Y274081D01*
X401344Y273838D01*
X401773Y273752D01*
X402203Y273838D01*
X402566Y274081D01*
X402809Y274445D01*
X402895Y274874D01*
X402809Y275303D01*
X402566Y275667D01*
X402203Y275910D01*
X401773Y275995D01*
D02*
G37*
G36*
X398624D02*
X398195Y275910D01*
X397831Y275667D01*
X397587Y275303D01*
X397502Y274874D01*
X397587Y274445D01*
X397831Y274081D01*
X398195Y273838D01*
X398624Y273752D01*
X399053Y273838D01*
X399417Y274081D01*
X399660Y274445D01*
X399745Y274874D01*
X399660Y275303D01*
X399417Y275667D01*
X399053Y275910D01*
X398624Y275995D01*
D02*
G37*
G36*
X411222Y272846D02*
X410793Y272760D01*
X410429Y272517D01*
X410186Y272153D01*
X410101Y271724D01*
X410186Y271295D01*
X410429Y270931D01*
X410793Y270688D01*
X411222Y270603D01*
X411651Y270688D01*
X412015Y270931D01*
X412258Y271295D01*
X412344Y271724D01*
X412258Y272153D01*
X412015Y272517D01*
X411651Y272760D01*
X411222Y272846D01*
D02*
G37*
G36*
X408073D02*
X407643Y272760D01*
X407279Y272517D01*
X407036Y272153D01*
X406951Y271724D01*
X407036Y271295D01*
X407279Y270931D01*
X407643Y270688D01*
X408073Y270603D01*
X408502Y270688D01*
X408866Y270931D01*
X409109Y271295D01*
X409194Y271724D01*
X409109Y272153D01*
X408866Y272517D01*
X408502Y272760D01*
X408073Y272846D01*
D02*
G37*
G36*
X401773D02*
X401344Y272760D01*
X400980Y272517D01*
X400737Y272153D01*
X400652Y271724D01*
X400737Y271295D01*
X400980Y270931D01*
X401344Y270688D01*
X401773Y270603D01*
X402203Y270688D01*
X402566Y270931D01*
X402809Y271295D01*
X402895Y271724D01*
X402809Y272153D01*
X402566Y272517D01*
X402203Y272760D01*
X401773Y272846D01*
D02*
G37*
G36*
X395474D02*
X395045Y272760D01*
X394681Y272517D01*
X394438Y272153D01*
X394353Y271724D01*
X394438Y271295D01*
X394681Y270931D01*
X395045Y270688D01*
X395474Y270603D01*
X395903Y270688D01*
X396267Y270931D01*
X396510Y271295D01*
X396596Y271724D01*
X396510Y272153D01*
X396267Y272517D01*
X395903Y272760D01*
X395474Y272846D01*
D02*
G37*
G36*
X408073Y269696D02*
X407643Y269611D01*
X407279Y269368D01*
X407036Y269004D01*
X406951Y268575D01*
X407036Y268145D01*
X407279Y267782D01*
X407643Y267538D01*
X408073Y267453D01*
X408502Y267538D01*
X408866Y267782D01*
X409109Y268145D01*
X409194Y268575D01*
X409109Y269004D01*
X408866Y269368D01*
X408502Y269611D01*
X408073Y269696D01*
D02*
G37*
G36*
X401773D02*
X401344Y269611D01*
X400980Y269368D01*
X400737Y269004D01*
X400652Y268575D01*
X400737Y268145D01*
X400980Y267782D01*
X401344Y267538D01*
X401773Y267453D01*
X402203Y267538D01*
X402566Y267782D01*
X402809Y268145D01*
X402895Y268575D01*
X402809Y269004D01*
X402566Y269368D01*
X402203Y269611D01*
X401773Y269696D01*
D02*
G37*
G36*
X398624D02*
X398195Y269611D01*
X397831Y269368D01*
X397587Y269004D01*
X397502Y268575D01*
X397587Y268145D01*
X397831Y267782D01*
X398195Y267538D01*
X398624Y267453D01*
X399053Y267538D01*
X399417Y267782D01*
X399660Y268145D01*
X399745Y268575D01*
X399660Y269004D01*
X399417Y269368D01*
X399053Y269611D01*
X398624Y269696D01*
D02*
G37*
G36*
X411222Y266547D02*
X410793Y266461D01*
X410429Y266218D01*
X410186Y265854D01*
X410101Y265425D01*
X410186Y264996D01*
X410429Y264632D01*
X410793Y264389D01*
X411222Y264303D01*
X411651Y264389D01*
X412015Y264632D01*
X412258Y264996D01*
X412344Y265425D01*
X412258Y265854D01*
X412015Y266218D01*
X411651Y266461D01*
X411222Y266547D01*
D02*
G37*
G36*
X401773D02*
X401344Y266461D01*
X400980Y266218D01*
X400737Y265854D01*
X400652Y265425D01*
X400737Y264996D01*
X400980Y264632D01*
X401344Y264389D01*
X401773Y264303D01*
X402203Y264389D01*
X402566Y264632D01*
X402809Y264996D01*
X402895Y265425D01*
X402809Y265854D01*
X402566Y266218D01*
X402203Y266461D01*
X401773Y266547D01*
D02*
G37*
G36*
X346179Y303991D02*
X345749Y303906D01*
X345386Y303663D01*
X345143Y303299D01*
X345057Y302870D01*
X345143Y302441D01*
X345386Y302077D01*
X345749Y301834D01*
X346179Y301748D01*
X346608Y301834D01*
X346972Y302077D01*
X347215Y302441D01*
X347300Y302870D01*
X347215Y303299D01*
X346972Y303663D01*
X346608Y303906D01*
X346179Y303991D01*
D02*
G37*
G36*
X321252Y229980D02*
X320822Y229895D01*
X320458Y229652D01*
X320215Y229288D01*
X320130Y228859D01*
X320215Y228430D01*
X320458Y228066D01*
X320822Y227823D01*
X321252Y227737D01*
X321681Y227823D01*
X322044Y228066D01*
X322288Y228430D01*
X322373Y228859D01*
X322288Y229288D01*
X322044Y229652D01*
X321681Y229895D01*
X321252Y229980D01*
D02*
G37*
%LPD*%
D76*
X222279Y374342D02*
D03*
D77*
X240783Y386153D02*
D03*
D78*
Y362530D02*
D03*
D80*
X263155Y206584D02*
D03*
X247344Y201862D02*
D03*
X228454Y153404D02*
D03*
X229276Y172910D02*
D03*
Y192416D02*
D03*
X228865Y209048D02*
D03*
X209975Y201656D02*
D03*
X209359Y180918D02*
D03*
Y161207D02*
D03*
X189894Y152994D02*
D03*
X190510Y172089D02*
D03*
X190716Y190979D02*
D03*
X191537Y211307D02*
D03*
Y235946D02*
D03*
X191742Y255862D02*
D03*
X191537Y277011D02*
D03*
Y298981D02*
D03*
X191742Y322388D02*
D03*
X192358Y348464D02*
D03*
Y373104D02*
D03*
X206279Y364069D02*
D03*
Y383986D02*
D03*
X316950Y348054D02*
D03*
X294159Y347849D02*
D03*
X274653Y348054D02*
D03*
X256584Y348259D02*
D03*
X237489Y348670D02*
D03*
X227838Y343126D02*
D03*
X246523Y342715D02*
D03*
X265002Y342510D02*
D03*
X284098D02*
D03*
X304899Y342855D02*
D03*
D82*
X507935Y310768D02*
D03*
X397159Y210425D02*
D03*
X453754Y195852D02*
D03*
X398856Y327916D02*
D03*
X359577Y342138D02*
D03*
X387868Y317931D02*
D03*
X528291Y239478D02*
D03*
X371164Y227130D02*
D03*
X389137Y216065D02*
D03*
X412679Y229664D02*
D03*
X425659Y308133D02*
D03*
X422135Y246774D02*
D03*
X411222Y284323D02*
D03*
X398624Y271724D02*
D03*
X411222Y274874D02*
D03*
X395474Y284323D02*
D03*
X417521Y274874D02*
D03*
X411222Y290622D02*
D03*
X398624Y281173D02*
D03*
X373118Y257528D02*
D03*
X408073Y278023D02*
D03*
X426970Y271724D02*
D03*
X420671Y259126D02*
D03*
X398624Y287472D02*
D03*
X434830Y285899D02*
D03*
X392268Y271639D02*
D03*
X404923Y287472D02*
D03*
X411222Y262275D02*
D03*
X382876Y268575D02*
D03*
X414372Y271724D02*
D03*
X420671Y293772D02*
D03*
X414372Y265425D02*
D03*
Y281173D02*
D03*
X395474Y268575D02*
D03*
Y262275D02*
D03*
X386025Y259126D02*
D03*
X408073Y293772D02*
D03*
X395474Y290622D02*
D03*
X408073Y265425D02*
D03*
X426970Y293772D02*
D03*
X411222Y268575D02*
D03*
Y255976D02*
D03*
Y293772D02*
D03*
X414372Y300071D02*
D03*
X417521Y284323D02*
D03*
X398624Y265425D02*
D03*
X401773Y262275D02*
D03*
X390787Y248437D02*
D03*
X401773Y252827D02*
D03*
X414372Y287472D02*
D03*
X423820Y284323D02*
D03*
X417521Y262275D02*
D03*
X435002Y254401D02*
D03*
X408073Y287472D02*
D03*
X401773Y284323D02*
D03*
X408073Y300071D02*
D03*
X395474Y274874D02*
D03*
X434037Y262275D02*
D03*
X356107Y291787D02*
D03*
X451804Y199826D02*
D03*
X358281Y246675D02*
D03*
X348411Y256070D02*
D03*
X355940Y396409D02*
D03*
X391066Y396480D02*
D03*
X390066Y327833D02*
D03*
X398025Y332561D02*
D03*
X385995Y327702D02*
D03*
X381897Y327833D02*
D03*
X381792Y331589D02*
D03*
X384865Y331642D02*
D03*
X375855Y310966D02*
D03*
X370727Y320808D02*
D03*
X505459Y382737D02*
D03*
X517699Y334587D02*
D03*
X522347Y301832D02*
D03*
X503246Y314631D02*
D03*
X511560Y282846D02*
D03*
X545995Y185943D02*
D03*
X380663Y168471D02*
D03*
X252070Y188208D02*
D03*
X326114Y325085D02*
D03*
X326169Y329142D02*
D03*
X331172Y329087D02*
D03*
X331117Y325251D02*
D03*
X337953Y325196D02*
D03*
Y329253D02*
D03*
X341678Y332866D02*
D03*
X335008Y332811D02*
D03*
X335072Y310666D02*
D03*
X282569Y278691D02*
D03*
X211758Y338053D02*
D03*
X318019Y228979D02*
D03*
X320851Y225852D02*
D03*
X324408Y229102D02*
D03*
X321624Y232400D02*
D03*
X343800Y305100D02*
D03*
X350727Y298432D02*
D03*
X348267Y300763D02*
D03*
X356356Y324647D02*
D03*
X352468Y324517D02*
D03*
X348875Y328012D02*
D03*
X352534Y327979D02*
D03*
X356225Y328600D02*
D03*
X356029Y331900D02*
D03*
X398230Y343081D02*
D03*
X389939Y343198D02*
D03*
X408739Y342225D02*
D03*
X405391Y347090D02*
D03*
X405313Y351878D02*
D03*
X410996Y345728D02*
D03*
X386083Y336697D02*
D03*
X383916Y342148D02*
D03*
X354458Y335794D02*
D03*
Y339333D02*
D03*
X357866Y344248D02*
D03*
X354130Y343134D02*
D03*
X337484Y342522D02*
D03*
X342560Y354627D02*
D03*
X342657Y349323D02*
D03*
X342723Y342164D02*
D03*
X339371Y338878D02*
D03*
X380257Y342341D02*
D03*
X334765Y338955D02*
D03*
X335452Y346996D02*
D03*
X351127Y340371D02*
D03*
X324104Y191140D02*
D03*
X371450Y218921D02*
D03*
X374213Y209509D02*
D03*
X433182Y215266D02*
D03*
X401773Y296921D02*
D03*
X437019Y318748D02*
D03*
X440714Y270257D02*
D03*
X346168Y347097D02*
D03*
Y352097D02*
D03*
X356168Y347097D02*
D03*
X361168D02*
D03*
Y352097D02*
D03*
X371168Y347097D02*
D03*
X371191Y377169D02*
D03*
X376168Y347097D02*
D03*
Y352097D02*
D03*
X381191Y362170D02*
D03*
Y372169D02*
D03*
Y367169D02*
D03*
X386168Y347097D02*
D03*
X401264Y362146D02*
D03*
Y372146D02*
D03*
Y367146D02*
D03*
X346168Y357097D02*
D03*
X366191Y362170D02*
D03*
X351191D02*
D03*
X366191Y372169D02*
D03*
Y367169D02*
D03*
X351191D02*
D03*
Y372169D02*
D03*
X391168Y347097D02*
D03*
Y352097D02*
D03*
X529322Y321941D02*
D03*
X426364Y220643D02*
D03*
X401228Y197831D02*
D03*
X475634Y373091D02*
D03*
M02*
