G04*
G04 #@! TF.GenerationSoftware,Altium Limited,Altium Designer,20.1.11 (218)*
G04*
G04 Layer_Physical_Order=1*
G04 Layer_Color=255*
%FSLAX25Y25*%
%MOIN*%
G70*
G04*
G04 #@! TF.SameCoordinates,731B5D3F-845C-401C-AC73-029E605C2F8B*
G04*
G04*
G04 #@! TF.FilePolarity,Positive*
G04*
G01*
G75*
%ADD18C,0.00500*%
%ADD22C,0.01000*%
%ADD23R,0.02756X0.02362*%
%ADD24R,0.02362X0.02756*%
%ADD25R,0.02362X0.02362*%
%ADD26R,0.02362X0.02362*%
G04:AMPARAMS|DCode=27|XSize=63.39mil|YSize=24.02mil|CornerRadius=3mil|HoleSize=0mil|Usage=FLASHONLY|Rotation=90.000|XOffset=0mil|YOffset=0mil|HoleType=Round|Shape=RoundedRectangle|*
%AMROUNDEDRECTD27*
21,1,0.06339,0.01801,0,0,90.0*
21,1,0.05738,0.02402,0,0,90.0*
1,1,0.00600,0.00901,0.02869*
1,1,0.00600,0.00901,-0.02869*
1,1,0.00600,-0.00901,-0.02869*
1,1,0.00600,-0.00901,0.02869*
%
%ADD27ROUNDEDRECTD27*%
G04:AMPARAMS|DCode=28|XSize=42mil|YSize=10mil|CornerRadius=2.5mil|HoleSize=0mil|Usage=FLASHONLY|Rotation=90.000|XOffset=0mil|YOffset=0mil|HoleType=Round|Shape=RoundedRectangle|*
%AMROUNDEDRECTD28*
21,1,0.04200,0.00500,0,0,90.0*
21,1,0.03700,0.01000,0,0,90.0*
1,1,0.00500,0.00250,0.01850*
1,1,0.00500,0.00250,-0.01850*
1,1,0.00500,-0.00250,-0.01850*
1,1,0.00500,-0.00250,0.01850*
%
%ADD28ROUNDEDRECTD28*%
G04:AMPARAMS|DCode=29|XSize=23.62mil|YSize=74.8mil|CornerRadius=5.91mil|HoleSize=0mil|Usage=FLASHONLY|Rotation=90.000|XOffset=0mil|YOffset=0mil|HoleType=Round|Shape=RoundedRectangle|*
%AMROUNDEDRECTD29*
21,1,0.02362,0.06299,0,0,90.0*
21,1,0.01181,0.07480,0,0,90.0*
1,1,0.01181,0.03150,0.00591*
1,1,0.01181,0.03150,-0.00591*
1,1,0.01181,-0.03150,-0.00591*
1,1,0.01181,-0.03150,0.00591*
%
%ADD29ROUNDEDRECTD29*%
%ADD30R,0.02165X0.01181*%
%ADD31R,0.03150X0.03150*%
%ADD32R,0.05512X0.03150*%
%ADD33R,0.02559X0.03543*%
%ADD34R,0.03543X0.02559*%
G04:AMPARAMS|DCode=35|XSize=56mil|YSize=9mil|CornerRadius=2.25mil|HoleSize=0mil|Usage=FLASHONLY|Rotation=0.000|XOffset=0mil|YOffset=0mil|HoleType=Round|Shape=RoundedRectangle|*
%AMROUNDEDRECTD35*
21,1,0.05600,0.00450,0,0,0.0*
21,1,0.05150,0.00900,0,0,0.0*
1,1,0.00450,0.02575,-0.00225*
1,1,0.00450,-0.02575,-0.00225*
1,1,0.00450,-0.02575,0.00225*
1,1,0.00450,0.02575,0.00225*
%
%ADD35ROUNDEDRECTD35*%
%ADD36C,0.01614*%
%ADD37R,0.03937X0.04331*%
%ADD38R,0.05709X0.10827*%
%ADD39R,0.03937X0.10827*%
G04:AMPARAMS|DCode=40|XSize=108mil|YSize=29mil|CornerRadius=7.25mil|HoleSize=0mil|Usage=FLASHONLY|Rotation=90.000|XOffset=0mil|YOffset=0mil|HoleType=Round|Shape=RoundedRectangle|*
%AMROUNDEDRECTD40*
21,1,0.10800,0.01450,0,0,90.0*
21,1,0.09350,0.02900,0,0,90.0*
1,1,0.01450,0.00725,0.04675*
1,1,0.01450,0.00725,-0.04675*
1,1,0.01450,-0.00725,-0.04675*
1,1,0.01450,-0.00725,0.04675*
%
%ADD40ROUNDEDRECTD40*%
%ADD41R,0.03150X0.05512*%
%ADD42C,0.03100*%
%ADD72C,0.01155*%
%ADD73C,0.03000*%
%ADD74C,0.00800*%
%ADD75C,0.06378*%
%ADD76O,0.08858X0.17717*%
%ADD77O,0.17717X0.08858*%
%ADD78O,0.19685X0.09843*%
%ADD79C,0.04134*%
%ADD80C,0.03000*%
%ADD81C,0.01800*%
G36*
X345291Y329198D02*
X339010Y322917D01*
X323779D01*
X323617Y334856D01*
X324068Y335312D01*
X330423D01*
X330630Y335226D01*
X340766D01*
X340973Y335312D01*
X345291D01*
Y329198D01*
D02*
G37*
G36*
X344530Y358910D02*
Y339640D01*
X340766Y335876D01*
X330630D01*
Y350880D01*
X332440D01*
X333468Y349852D01*
X333858Y349592D01*
X334317Y349501D01*
X334545D01*
X335026Y349180D01*
X335611Y349064D01*
X336196Y349180D01*
X336692Y349512D01*
X337024Y350008D01*
X337140Y350593D01*
X337024Y351178D01*
X336692Y351674D01*
X336196Y352006D01*
X335611Y352122D01*
X335026Y352006D01*
X334870Y351902D01*
X334814D01*
X334138Y352578D01*
Y355230D01*
X330630D01*
Y358036D01*
X344161Y359247D01*
X344530Y358910D01*
D02*
G37*
G36*
X359982Y333736D02*
Y325399D01*
X356552Y321969D01*
X351946D01*
Y322034D01*
X346588Y327392D01*
X346652Y333753D01*
X346661Y333759D01*
X359947D01*
X359982Y333736D01*
D02*
G37*
G36*
X363761Y345466D02*
Y344566D01*
X362126Y342931D01*
X361907Y342785D01*
X361761Y342566D01*
X359947Y340751D01*
Y334408D01*
X346661D01*
X346318Y334751D01*
Y340023D01*
X348032D01*
X353475Y345466D01*
X363761Y345466D01*
D02*
G37*
G36*
X419061Y354267D02*
X418944Y353969D01*
X418763Y353767D01*
X412395D01*
Y351860D01*
X410708Y350173D01*
X410333Y350099D01*
X409837Y349767D01*
X409505Y349271D01*
X409389Y348686D01*
X409505Y348101D01*
X409837Y347604D01*
X410333Y347273D01*
X410918Y347157D01*
X411504Y347273D01*
X412000Y347604D01*
X412331Y348101D01*
X412406Y348476D01*
X413348Y349418D01*
X418865D01*
X419107Y349418D01*
X419365Y349025D01*
Y342587D01*
X412425Y335647D01*
X407415D01*
Y339500D01*
X405547Y341368D01*
X387877D01*
X384486Y344760D01*
X384677Y345222D01*
X398424D01*
X401499Y348297D01*
Y354447D01*
X418964D01*
X419061Y354267D01*
D02*
G37*
G36*
X388133Y340195D02*
X392065D01*
Y334683D01*
X392048Y334643D01*
X376542D01*
Y339227D01*
X377347Y340032D01*
X377608Y340421D01*
X377699Y340880D01*
Y341275D01*
X378020Y341756D01*
X378136Y342341D01*
X378020Y342926D01*
X377688Y343422D01*
X377192Y343754D01*
X376607Y343870D01*
X376022Y343754D01*
X375525Y343422D01*
X375194Y342926D01*
X375078Y342341D01*
X375194Y341756D01*
X375298Y341600D01*
Y341378D01*
X374845Y340924D01*
X372193D01*
Y334643D01*
X370303D01*
Y344328D01*
X370262Y344369D01*
X369957Y344705D01*
X370178Y345205D01*
X383123D01*
X388133Y340195D01*
D02*
G37*
G36*
X406766Y339231D02*
Y335647D01*
X406940Y335228D01*
Y332765D01*
X406562Y332387D01*
X403269D01*
X401836Y333821D01*
Y333855D01*
X401645Y334314D01*
X401186Y334504D01*
X396758D01*
X396406Y334859D01*
X396447Y340457D01*
X405519Y340478D01*
X406766Y339231D01*
D02*
G37*
G36*
X401186Y333552D02*
X405758Y328980D01*
X400924Y324146D01*
X400664Y323757D01*
X400573Y323297D01*
Y323104D01*
X397745D01*
X397549Y323566D01*
X397555Y323604D01*
X398026Y323919D01*
X398358Y324415D01*
X398474Y325000D01*
X398358Y325585D01*
X398026Y326081D01*
X397530Y326413D01*
X396945Y326529D01*
X396359Y326413D01*
X395863Y326081D01*
X395650Y325763D01*
X395079Y325627D01*
X395030Y325627D01*
X379690D01*
X379342Y325986D01*
X379581Y333834D01*
X379634Y333855D01*
X401186D01*
Y333552D01*
D02*
G37*
D18*
X419096Y267000D02*
X420671Y265425D01*
X425395Y270149D02*
X426970Y268575D01*
X437402Y303324D02*
X439192Y305115D01*
X429761Y302205D02*
X430874Y303318D01*
X432306D02*
X432312Y303324D01*
X430874Y303318D02*
X432306D01*
X432312Y303324D02*
X437402D01*
X433050Y311021D02*
X439192D01*
X425659Y305059D02*
Y308133D01*
X425395Y304795D02*
X425659Y305059D01*
X427465Y306322D02*
Y312288D01*
X427068Y305925D02*
X427465Y306322D01*
X428545Y308102D02*
X432731Y312288D01*
X428545Y304795D02*
Y308102D01*
X430126Y308098D02*
X433050Y311021D01*
X430126Y303984D02*
Y308098D01*
X429347Y303205D02*
X430126Y303984D01*
X427519Y303205D02*
X429347D01*
X427068Y304266D02*
Y305925D01*
X423820Y312166D02*
X423942Y312288D01*
X423820Y308102D02*
Y312166D01*
X426037Y303235D02*
X427068Y304266D01*
X437178Y274874D02*
X437783Y275479D01*
X439262D01*
X426970Y274874D02*
X437178D01*
X437018Y273740D02*
X439192D01*
X435002Y271724D02*
X437018Y273740D01*
X413214Y292915D02*
Y293334D01*
X414378Y294498D02*
Y296935D01*
X413214Y293334D02*
X414378Y294498D01*
X415427Y293766D02*
X417534D01*
X414372Y292711D02*
X415427Y293766D01*
X414372Y290622D02*
Y292711D01*
X412797Y292197D02*
Y292498D01*
X413214Y292915D01*
X411222Y296921D02*
X412797Y295346D01*
X370570Y248250D02*
X375164Y252844D01*
X378809D01*
X370570Y281388D02*
X377422D01*
X377647Y281163D01*
X379093D01*
X379708Y278685D02*
Y280548D01*
X379093Y281163D02*
X379708Y280548D01*
X431695Y254401D02*
X435002D01*
X395474Y284323D02*
X397049Y282748D01*
X408073Y278023D02*
X409647Y276449D01*
X406498Y270149D02*
X408073Y268575D01*
X398624Y262275D02*
X400199Y263850D01*
X409647Y289047D02*
X411222Y290622D01*
X395474Y262275D02*
X397049Y263850D01*
X389175Y287472D02*
X390750Y285897D01*
X386025Y284323D02*
X387600Y282748D01*
X398624Y274874D02*
X400199Y276449D01*
X425395D02*
X426970Y274874D01*
X403348Y292197D02*
X404923Y290622D01*
X389175D02*
X390750Y289047D01*
X379726Y284323D02*
X381301Y285897D01*
X412797Y263850D02*
X414372Y262275D01*
X398624Y259126D02*
X400199Y260701D01*
X382876Y303220D02*
X384451Y301645D01*
X415946Y285897D02*
X417521Y287472D01*
X401773Y259126D02*
X403348Y260701D01*
X382876Y287472D02*
X384451Y285897D01*
X415946Y282748D02*
X417521Y284323D01*
X412797Y279598D02*
X414372Y281173D01*
X406498Y267000D02*
X408073Y265425D01*
X395474Y300071D02*
X397049Y298496D01*
X379726Y306370D02*
X381301Y304795D01*
X402876Y293813D02*
X404889D01*
X406498Y282748D02*
X408073Y284323D01*
X412797Y260701D02*
X414372Y259126D01*
X422135Y246774D02*
X422246Y246884D01*
X398624Y300071D02*
X400199Y298496D01*
X401773Y265425D02*
X403348Y267000D01*
X412797D02*
X414372Y265425D01*
X425395Y267000D02*
X426970Y265425D01*
X409647Y292197D02*
X411222Y293772D01*
X376576D02*
X378151Y292197D01*
X386025Y300071D02*
X387600Y298496D01*
X432703Y305804D02*
X434988D01*
X403348Y289047D02*
X404923Y287472D01*
X406498Y289047D02*
X408073Y290622D01*
X386025Y287472D02*
X387600Y285897D01*
X412797D02*
X414372Y287472D01*
X409647Y267000D02*
X411222Y265425D01*
X379726Y293772D02*
X381301Y292197D01*
X376576Y306370D02*
X378151Y304795D01*
X398624Y287472D02*
X400199Y285897D01*
X401773Y284323D02*
X403348Y282748D01*
X392268Y271668D02*
X393899Y273299D01*
X398624Y306370D02*
X400199Y304795D01*
X419096Y279598D02*
X420671Y281173D01*
X425395Y263850D02*
X426970Y262275D01*
X415946Y257551D02*
X417521Y255976D01*
X382876Y252827D02*
X384451Y254401D01*
X392324Y300071D02*
X393899Y298496D01*
X414372Y300071D02*
X415946Y301645D01*
X392324Y306370D02*
X393899Y304795D01*
X415946Y289047D02*
X417521Y290622D01*
X401773Y271724D02*
X403348Y273299D01*
X422246Y263850D02*
X423820Y262275D01*
X395474Y281173D02*
X397049Y279598D01*
X409647Y273299D02*
X411222Y271724D01*
X389175Y265425D02*
X390750Y267000D01*
X379726Y262275D02*
X381301Y263850D01*
X373118Y257528D02*
X373141Y257551D01*
X415946Y254401D02*
X417521Y252827D01*
X392324Y287472D02*
X393899Y285897D01*
X419096Y270149D02*
X420671Y268575D01*
X422246Y267000D02*
X423820Y265425D01*
X401773Y262275D02*
X403348Y263850D01*
X382876Y300071D02*
X384451Y298496D01*
X411222Y278023D02*
X412797Y276449D01*
X425395Y260701D02*
X426970Y259126D01*
X431695Y251252D02*
X435002D01*
X395474Y293772D02*
X397049Y292197D01*
X415946Y279598D02*
X417521Y281173D01*
X422246Y260701D02*
X423820Y259126D01*
X406498Y292197D02*
X408073Y293772D01*
X420671Y296921D02*
X422246Y298496D01*
Y270149D02*
X423820Y268575D01*
X425395Y257551D02*
X426970Y255976D01*
X398624Y296921D02*
X400199Y295346D01*
X398624Y284323D02*
X400199Y282748D01*
X422246D02*
X423820Y284323D01*
X381301Y279598D02*
X382876Y281173D01*
X426970D02*
X428545Y279598D01*
X409647Y270149D02*
X411222Y268575D01*
X414372Y271724D02*
X415946Y270149D01*
X412797Y282748D02*
X414372Y284323D01*
X415946Y276449D02*
X417521Y274874D01*
X395474Y271724D02*
X397049Y273299D01*
X376576Y284323D02*
X378151Y285897D01*
X401773Y287472D02*
X403348Y285897D01*
X409647D02*
X411222Y287472D01*
X415946Y263850D02*
X417521Y262275D01*
X401773Y255976D02*
X403348Y257551D01*
X419096D02*
X420671Y255976D01*
X401769Y292706D02*
X402876Y293813D01*
X389175Y284323D02*
X390750Y282748D01*
X386025Y274874D02*
X387600Y276449D01*
X406498Y247945D02*
Y251252D01*
X376576Y249677D02*
X378151Y251252D01*
X395474Y287472D02*
X397049Y285897D01*
X382876Y284323D02*
X384451Y282748D01*
X428545Y279598D02*
X428545D01*
X398624Y271724D02*
X400199Y273299D01*
X390750Y251252D02*
X390769Y251233D01*
X392324Y293772D02*
X393899Y292197D01*
X392324Y284323D02*
X393899Y282748D01*
X390769Y248456D02*
Y251233D01*
X431695Y301645D02*
X435002D01*
X386025Y303220D02*
X387600Y301645D01*
X428545Y263850D02*
X430120Y262275D01*
X395474Y303220D02*
X397049Y301645D01*
X395474Y306370D02*
X397049Y304795D01*
X422246Y273299D02*
X423820Y271724D01*
X398624Y268575D02*
X400199Y270149D01*
X430120Y262275D02*
X434037D01*
X406498Y298496D02*
X408073Y300071D01*
X409647Y263850D02*
X411222Y262275D01*
X419096Y260701D02*
X420671Y259126D01*
X392324Y255976D02*
X393899Y257551D01*
X382876Y296921D02*
X384451Y295346D01*
X398624Y303220D02*
X400199Y301645D01*
X382876Y281173D02*
X384451Y279598D01*
X422246Y276449D02*
X423820Y274874D01*
X400199Y254401D02*
X401773Y252827D01*
X431695Y304795D02*
X432703Y305804D01*
X406498Y273299D02*
X408073Y271724D01*
X382876Y268575D02*
X384451Y270149D01*
X431695D02*
X431780Y270235D01*
X386025Y259126D02*
X387600Y260701D01*
X389175Y293772D02*
X390750Y292197D01*
X401773Y281173D02*
X403348Y279598D01*
X395474Y274874D02*
X397049Y276449D01*
X415946Y273299D02*
X417521Y271724D01*
X392268Y271639D02*
Y271668D01*
X395474Y265425D02*
X397049Y267000D01*
X415946Y260701D02*
X417521Y259126D01*
X401773Y274874D02*
X403348Y276449D01*
X398624Y265425D02*
X400199Y267000D01*
X390769Y248456D02*
X390787Y248437D01*
X426970Y293772D02*
X428545Y295346D01*
X406498Y285897D02*
X408073Y287472D01*
X406498Y279598D02*
X408073Y281173D01*
X409647Y279598D02*
X411222Y281173D01*
X395474Y268575D02*
X397049Y270149D01*
X409647Y260701D02*
X411222Y259126D01*
X395474Y290622D02*
X397049Y289047D01*
X411222Y274874D02*
X412797Y273299D01*
X431780Y270235D02*
X436912D01*
X419096Y263850D02*
X420671Y262275D01*
X389175Y306370D02*
X390750Y304795D01*
X422246Y279598D02*
X423820Y281173D01*
X419096Y276449D02*
X420671Y274874D01*
X412797Y270149D02*
X414372Y268575D01*
X415946Y267000D02*
X417521Y265425D01*
X389175Y300071D02*
X390750Y298496D01*
X425395Y289047D02*
X426970Y290622D01*
X382876D02*
X384451Y289047D01*
X419096Y292197D02*
X420671Y293772D01*
X395474Y296921D02*
X397049Y295346D01*
X386025Y296921D02*
X387600Y295346D01*
X401773Y268575D02*
X403348Y270149D01*
X398624Y293772D02*
X400199Y292197D01*
X379726Y300071D02*
X381301Y298496D01*
X401769Y290617D02*
Y292706D01*
X398624Y281173D02*
X400199Y279598D01*
X425395Y273299D02*
X426970Y271724D01*
X392324Y290622D02*
X393899Y289047D01*
X400199D02*
X401769Y290617D01*
X412797Y289047D02*
X414372Y290622D01*
X419096Y273299D02*
X420671Y271724D01*
X376576Y300071D02*
X378151Y298496D01*
X409647Y282748D02*
X411222Y284323D01*
X406498Y276449D02*
X408073Y274874D01*
X386025Y290622D02*
X387600Y289047D01*
X392849Y244390D02*
X393747Y245288D01*
X396472D01*
X398641Y247457D01*
X435978Y252831D02*
X439192Y249617D01*
X430218Y252831D02*
X435978D01*
X428648Y254401D02*
X430218Y252831D01*
X382892Y274890D02*
X384451Y276449D01*
X374495Y274715D02*
X374670Y274890D01*
X382892D01*
X370570Y272982D02*
X373275D01*
X374533Y271724D02*
X379726D01*
X373275Y272982D02*
X374533Y271724D01*
X408070Y309991D02*
X410077Y311997D01*
X408070Y303218D02*
Y309991D01*
X406498Y301645D02*
X408070Y303218D01*
X411222Y308102D02*
Y311502D01*
Y303220D02*
Y308102D01*
Y311502D02*
X411810Y312090D01*
Y312288D01*
X374844Y255976D02*
X379726D01*
X420061Y249223D02*
X420671Y249833D01*
X401773Y308102D02*
Y312288D01*
Y303220D02*
Y308102D01*
X370570Y278182D02*
X370570D01*
X371314Y278014D02*
X371554Y278014D01*
X374686D01*
X370570Y278182D02*
X371314Y278014D01*
X370570Y276449D02*
X374844D01*
X386949Y222812D02*
X391520D01*
X391570Y222862D01*
X370570Y252100D02*
X370968D01*
X370570Y259585D02*
X374385D01*
X370570Y261318D02*
X374227D01*
X370570Y263051D02*
X374045D01*
X370570Y264784D02*
X374204D01*
X370570Y250367D02*
X370810D01*
X370968Y252100D02*
X374844Y255976D01*
X370810Y250367D02*
X374844Y254401D01*
X374385Y259585D02*
X374844Y259126D01*
X374227Y261318D02*
X374844Y260701D01*
X374045Y263051D02*
X374844Y263850D01*
X374204Y264784D02*
X374844Y265425D01*
X377746Y244390D02*
X381301Y247945D01*
X370570Y268416D02*
X374686D01*
X370570Y266683D02*
X374527D01*
X370570Y270149D02*
X374844D01*
X374527Y266683D02*
X374844Y267000D01*
X374686Y268416D02*
X374844Y268575D01*
X370570Y274715D02*
X374495D01*
X400230Y244390D02*
X403458Y247618D01*
X403153Y244390D02*
X404596Y245833D01*
X406896D01*
X408884Y247821D02*
Y248301D01*
X406896Y245833D02*
X408884Y247821D01*
X408934Y245656D02*
X411222Y247945D01*
X424348Y244390D02*
Y247417D01*
X418328Y244390D02*
Y247394D01*
X415468Y244390D02*
X415946Y244868D01*
X406791Y244390D02*
X408057Y245656D01*
X420061Y244390D02*
Y249223D01*
X413017Y244390D02*
X414372Y245745D01*
Y252827D01*
X415946Y244868D02*
Y247945D01*
X423820D02*
X424348Y247417D01*
X408057Y245656D02*
X408934D01*
X409242Y244390D02*
X412797Y247945D01*
X418328Y247394D02*
X418470Y247537D01*
X428545Y254401D02*
X428648D01*
X428545Y251252D02*
X435407Y244390D01*
X436812Y263614D02*
X439192D01*
X436496Y267080D02*
X439192D01*
X436654Y265347D02*
X439192D01*
X436971Y261881D02*
X439192D01*
X435002Y259126D02*
X439192Y254935D01*
X438581Y260701D02*
X439192Y260090D01*
X435002Y260701D02*
X438581D01*
X435002Y263850D02*
X436971Y261881D01*
X435002Y265425D02*
X436812Y263614D01*
X435002Y267000D02*
X436654Y265347D01*
X435002Y268575D02*
X436496Y267080D01*
X435495Y279105D02*
X439192D01*
X436574Y277372D02*
X439192D01*
X435002Y279598D02*
X435495Y279105D01*
X435923Y278023D02*
X436574Y277372D01*
X437534Y289047D02*
X437693Y288889D01*
X435002Y287472D02*
X437814D01*
X435002Y282748D02*
X438356D01*
X437693Y288889D02*
X439192D01*
X435704Y284305D02*
X439192D01*
X438131Y287156D02*
X439192D01*
X438532Y282572D02*
X439192D01*
X438840Y281191D02*
X439192Y280838D01*
X436700Y300071D02*
X439192Y302563D01*
X435002Y300071D02*
X436700D01*
X437577Y298496D02*
X439192Y300111D01*
X435002Y298496D02*
X437577D01*
X436878Y295346D02*
X439192Y297660D01*
X435002Y295346D02*
X436878D01*
X437755Y293772D02*
X439192Y295209D01*
X435002Y293772D02*
X437755D01*
X438631Y292197D02*
X439192Y292758D01*
X435002Y292197D02*
X438631D01*
X435002Y290622D02*
X439192D01*
X435002Y289047D02*
X437534D01*
X435756Y281191D02*
X438840D01*
X438356Y282748D02*
X438532Y282572D01*
X437814Y287472D02*
X438131Y287156D01*
X406498Y310977D02*
X407809Y312288D01*
X404910Y311465D02*
X405734Y312288D01*
X403348Y312129D02*
X403507Y312288D01*
X410077Y311997D02*
Y312288D01*
X413543Y310748D02*
Y312288D01*
X412797Y308102D02*
Y310002D01*
X415276Y309707D02*
Y312288D01*
X414372Y308102D02*
Y308802D01*
X415946Y308102D02*
X417009Y309165D01*
X418743Y308456D02*
X419096Y308102D01*
X403348D02*
Y312129D01*
X404910Y308183D02*
Y311465D01*
X420476Y308297D02*
Y312288D01*
Y308297D02*
X420671Y308102D01*
X422209Y308139D02*
Y312288D01*
Y308139D02*
X422246Y308102D01*
X412797Y310002D02*
X413543Y310748D01*
X414372Y308802D02*
X415276Y309707D01*
X417009Y309165D02*
Y312288D01*
X406498Y308516D02*
Y310977D01*
X418743Y308456D02*
Y312288D01*
X406498Y308102D02*
X406498Y308516D01*
X431695Y279598D02*
X435002D01*
X404910Y296934D02*
Y308183D01*
X426970Y300071D02*
Y302657D01*
X408089Y249096D02*
Y255959D01*
X423803Y253458D02*
X424280Y252980D01*
X425395Y279598D02*
X426496Y278497D01*
X426037Y302589D02*
Y303235D01*
X422246Y301645D02*
X423820Y303220D01*
X428545Y270149D02*
X430120Y268575D01*
X431695Y267000D02*
X435002D01*
X412797Y247945D02*
Y251252D01*
X431695Y292197D02*
X435002D01*
X430120Y259126D02*
X435002D01*
X426223Y252823D02*
X426952Y252094D01*
Y247953D02*
Y252094D01*
X428545Y282748D02*
X430102Y281191D01*
X428545Y260701D02*
X430120Y259126D01*
X412797Y254401D02*
X414372Y252827D01*
X430120Y271724D02*
X435002D01*
X409647Y254401D02*
X411222Y252827D01*
X381301Y247945D02*
Y251252D01*
X403348Y304795D02*
Y308102D01*
X430120Y268575D02*
X435002D01*
X401773Y303220D02*
X403348Y301645D01*
X374844Y260701D02*
X378151D01*
X378809Y252844D02*
X379841Y253876D01*
X422246Y253601D02*
X423820Y252026D01*
X431695Y289047D02*
X435002D01*
X430120Y300071D02*
X435002D01*
X425395Y298496D02*
X426970Y300071D01*
X411222Y247945D02*
Y252827D01*
X428545Y285897D02*
X430120Y287472D01*
X431695Y295346D02*
X435002D01*
X404949Y249598D02*
Y262301D01*
X374844Y265425D02*
X379726D01*
X428545Y267000D02*
X430120Y265425D01*
X406498Y257551D02*
X408089Y255959D01*
X420671Y249833D02*
Y252827D01*
X379726Y255976D02*
X381301Y257551D01*
X430120Y287472D02*
X435002D01*
X430120Y265425D02*
X435002D01*
X430102Y281191D02*
X435756D01*
X380153Y254188D02*
X381088D01*
X379938Y277041D02*
X380407D01*
X386043Y278041D02*
X387600Y279598D01*
X374844Y259126D02*
X379726D01*
X380352Y278041D02*
X386043D01*
X426952Y247053D02*
X428394Y245612D01*
X420671Y303220D02*
Y308102D01*
X428394Y243364D02*
Y245612D01*
X379783Y278611D02*
X380352Y278041D01*
X404949Y262301D02*
X406498Y263850D01*
X428545Y298496D02*
X430120Y300071D01*
X414372Y303220D02*
Y308102D01*
X415946Y304795D02*
Y308102D01*
X408089Y249096D02*
X408884Y248301D01*
X424280Y252980D02*
X424437Y252823D01*
X381088Y254188D02*
X381301Y254401D01*
X419096Y301645D02*
X420671Y303220D01*
X412797Y304795D02*
Y308102D01*
X431695Y260701D02*
X435002D01*
X431695Y298496D02*
X435002D01*
X423820Y247945D02*
Y252026D01*
X425395Y301947D02*
X426037Y302589D01*
X406498Y304795D02*
Y308102D01*
X424437Y252823D02*
X426223D01*
X374686Y278014D02*
X378965D01*
X409647Y301645D02*
X411222Y303220D01*
X422246Y257551D02*
X423803Y255994D01*
X380999Y276449D02*
X381301D01*
X428847Y301645D02*
X429406Y302205D01*
X374844Y254401D02*
X378151D01*
X379841Y253876D02*
X380153Y254188D01*
X418470Y247537D02*
Y250402D01*
X419096Y304795D02*
Y308102D01*
X379726Y259126D02*
X381301Y260701D01*
X378965Y278014D02*
X379200Y277779D01*
X426970Y278023D02*
X435923D01*
X379708Y278685D02*
X379783Y278611D01*
X430120Y293772D02*
X435002D01*
X404910Y296934D02*
X406498Y295346D01*
X374844Y267000D02*
X378151D01*
X374844Y270149D02*
X378151D01*
X379200Y277779D02*
X379938Y277041D01*
X423820Y303220D02*
Y308102D01*
X426952Y247053D02*
Y247953D01*
X419096Y254401D02*
X420671Y252827D01*
X428545Y289047D02*
X430120Y290622D01*
X428545Y301645D02*
X428847D01*
X422246Y304795D02*
Y308102D01*
X431695Y263850D02*
X435002D01*
X422246Y253601D02*
Y254401D01*
X374844Y268575D02*
X379726D01*
X426496Y278497D02*
X426970Y278023D01*
X431695Y282748D02*
X435002D01*
X415946Y247945D02*
Y251252D01*
X419096Y251028D02*
Y251252D01*
X428545Y292197D02*
X430120Y293772D01*
X429406Y302205D02*
X429761D01*
X374844Y276449D02*
X378151D01*
X426970Y302657D02*
X427519Y303205D01*
X412797Y301645D02*
X414372Y303220D01*
X403458Y247618D02*
Y248107D01*
X379726Y268575D02*
X381301Y270149D01*
X423803Y253458D02*
Y255994D01*
X425395Y301645D02*
Y301947D01*
X374844Y263850D02*
X378151D01*
X380407Y277041D02*
X380999Y276449D01*
X403458Y248107D02*
X404949Y249598D01*
X398641Y247457D02*
Y255993D01*
X418470Y250402D02*
X419096Y251028D01*
X379726Y271724D02*
X381301Y273299D01*
X425395Y282748D02*
X426952Y284305D01*
X379726Y265425D02*
X381301Y267000D01*
X428545Y273299D02*
X430120Y271724D01*
X426952Y284305D02*
X435704D01*
X430120Y290622D02*
X435002D01*
X398641Y255993D02*
X400199Y257551D01*
D22*
X400668Y236419D02*
X400668Y236418D01*
X400668Y236419D02*
Y239631D01*
X400667Y239632D02*
X400668Y239631D01*
X396731Y236418D02*
X397197Y236883D01*
Y239460D01*
X397350Y239613D01*
X546140Y218138D02*
X546268Y218010D01*
X542916Y218138D02*
X546140D01*
X359577Y340598D02*
Y342138D01*
X357638Y338659D02*
X359577Y340598D01*
X526240Y371089D02*
X526315Y371164D01*
X520907Y371089D02*
X526240D01*
X374516Y227076D02*
X374570Y227022D01*
X371218Y227076D02*
X374516D01*
X371164Y227130D02*
X371218Y227076D01*
X386268Y218193D02*
X386949Y218875D01*
X386268Y216609D02*
Y218193D01*
X385674Y216015D02*
X386268Y216609D01*
X385674Y215798D02*
Y216015D01*
X389137Y216065D02*
X391520Y218447D01*
Y218875D01*
X375452Y273308D02*
X378142D01*
X406498Y260701D02*
X409647Y257551D01*
X422246Y246884D02*
Y251252D01*
X374345Y279602D02*
X378148D01*
X378142Y273308D02*
X378151Y273299D01*
X409647Y304795D02*
Y307947D01*
X431695Y285898D02*
X434829D01*
X434830Y285899D01*
X374342Y279605D02*
X374345Y279602D01*
X431695Y285897D02*
X431695Y285898D01*
X409647Y257551D02*
X411222Y255976D01*
X373141Y257551D02*
X378151D01*
X378148Y279602D02*
X378151Y279598D01*
X375444Y273317D02*
X375452Y273308D01*
X409640Y307954D02*
X409647Y307947D01*
X353700Y387082D02*
X355931Y389313D01*
X353700Y384790D02*
Y387082D01*
X353592Y384682D02*
X353700Y384790D01*
X393716Y379609D02*
Y379621D01*
X388727Y374621D02*
X393716Y379609D01*
X388860Y387165D02*
X391049Y389354D01*
X388860Y385833D02*
Y387165D01*
X388707Y385680D02*
X388860Y385833D01*
X348407Y369930D02*
X348716Y369621D01*
X344688Y369930D02*
X348407D01*
X344535Y370083D02*
X344688Y369930D01*
X346191Y367158D02*
X348716Y364633D01*
X381191Y352158D02*
X383716Y349633D01*
X381191Y357158D02*
X383716Y354633D01*
X396191Y352158D02*
X398716Y349633D01*
X396191Y357158D02*
X398716Y354633D01*
X393716Y369621D02*
X398716Y374621D01*
X366098Y396462D02*
X366129Y396493D01*
X366098Y393236D02*
Y396462D01*
X360893Y393332D02*
X360928Y393297D01*
X360893Y393332D02*
Y396447D01*
X360857Y396482D02*
X360893Y396447D01*
X355931Y393250D02*
X355935Y393254D01*
Y396405D01*
X355940Y396409D01*
X338455Y390523D02*
X338484Y390493D01*
X342169D01*
X348716Y379621D02*
Y387884D01*
X346106Y390493D02*
X348716Y387884D01*
X328788Y374730D02*
X328836Y374682D01*
X328788Y374730D02*
Y378089D01*
X328740Y378137D02*
X328788Y378089D01*
X332773Y374682D02*
X348656D01*
X348716Y374621D01*
X375931Y393297D02*
X375938Y393290D01*
X375931Y393297D02*
Y396297D01*
X375924Y396304D02*
X375931Y396297D01*
X381101Y393290D02*
X381114Y393303D01*
Y396408D01*
X381127Y396421D01*
X386011Y393202D02*
X386054Y393245D01*
Y396408D01*
X386097Y396450D01*
X396499Y393190D02*
X396526Y393164D01*
X396499Y393190D02*
Y396366D01*
X396474Y396392D02*
X396499Y396366D01*
X391049Y393291D02*
X391057Y393299D01*
Y396471D01*
X391066Y396480D01*
X386011Y389265D02*
X386101Y389175D01*
Y382259D02*
Y389175D01*
Y382259D02*
X386191Y382170D01*
X391049Y389354D02*
X391120Y389283D01*
Y382241D02*
Y389283D01*
Y382241D02*
X391191Y382170D01*
Y362158D02*
X393716Y359633D01*
X391191Y367158D02*
X393716Y364633D01*
X351191Y352158D02*
X353716Y349633D01*
X351191Y357158D02*
X353716Y354633D01*
X358728Y369621D02*
X363716Y364633D01*
X358716Y369621D02*
Y369658D01*
X361191Y372133D02*
Y372158D01*
X358716Y369621D02*
X358728D01*
X388727D02*
X391252Y372146D01*
X376179Y357097D02*
X378704Y359621D01*
X376179Y362097D02*
X378704Y364621D01*
X376191Y372158D02*
X378716Y369633D01*
X373716Y369609D02*
X376240Y367085D01*
X371191Y382158D02*
X373716Y379633D01*
X361191Y372158D02*
X363716Y369633D01*
X361191Y362158D02*
X363716Y359633D01*
X366191Y357158D02*
X368716Y354633D01*
X366191Y352158D02*
X368716Y349633D01*
X414570Y343325D02*
X415751D01*
X412320Y345575D02*
X414570Y343325D01*
X411149Y345575D02*
X412320D01*
X410996Y345728D02*
X411149Y345575D01*
X361168Y347108D02*
X361179Y347097D01*
X382635Y337568D02*
Y338750D01*
X380410Y340975D02*
X382635Y338750D01*
X380410Y340975D02*
Y342188D01*
X380257Y342341D02*
X380410Y342188D01*
X330754Y338703D02*
X330881Y338829D01*
X334638D01*
X334765Y338955D01*
X330782Y344787D02*
X331963D01*
X334019Y346843D01*
X335299D01*
X335452Y346996D01*
X357638Y337478D02*
Y338659D01*
X351043Y337604D02*
X351127Y337688D01*
Y340371D01*
X346179Y352097D02*
X348704Y354621D01*
X356227Y352126D02*
Y352129D01*
X356188Y362122D02*
X356202D01*
X353716Y369621D02*
Y369633D01*
X361179Y352097D02*
X363704Y354621D01*
X371191Y377158D02*
X373716Y374633D01*
X376179Y352097D02*
X378704Y354621D01*
X346179Y347097D02*
X348704Y349621D01*
X346179Y357097D02*
X348704Y359621D01*
X361179Y347097D02*
X363704Y349621D01*
X371179Y347097D02*
X373704Y349621D01*
X376179Y347097D02*
X378704Y349621D01*
X386179Y347097D02*
X388704Y349621D01*
X386191Y382158D02*
X388716Y379633D01*
X356227Y352129D02*
X358716Y354618D01*
Y354621D01*
X366191Y362158D02*
X368716Y359633D01*
X351191Y362158D02*
X353716Y359633D01*
X356202Y362122D02*
X358702Y359621D01*
X358716D01*
X366191Y372158D02*
X368716Y369633D01*
X351191Y372158D02*
X353716Y369633D01*
X351191Y372158D02*
Y372169D01*
X391179Y352097D02*
X393704Y354621D01*
X398727Y359621D02*
X401252Y362146D01*
X381191Y362158D02*
X383716Y359633D01*
X398727Y369621D02*
X401252Y372146D01*
X381191Y372158D02*
X383716Y369633D01*
X356179Y347097D02*
X358704Y349621D01*
X366191Y367158D02*
X368716Y364633D01*
X351191Y367158D02*
X353716Y364633D01*
X398727Y364621D02*
X401252Y367146D01*
X391179Y347097D02*
X393704Y349621D01*
X381191Y367158D02*
X383716Y364633D01*
X391191Y382158D02*
X393716Y379633D01*
D23*
X542916Y214201D02*
D03*
Y218138D02*
D03*
X542585Y186027D02*
D03*
Y182090D02*
D03*
X450541Y192365D02*
D03*
Y196302D02*
D03*
X429623Y220091D02*
D03*
Y224028D02*
D03*
X396526Y389228D02*
D03*
Y393164D02*
D03*
X375938Y389353D02*
D03*
Y393290D02*
D03*
X360928Y389360D02*
D03*
Y393297D02*
D03*
X535559Y236732D02*
D03*
Y240669D02*
D03*
D24*
X396731Y236418D02*
D03*
X400668D02*
D03*
X416318Y233212D02*
D03*
X412381D02*
D03*
X342898Y161876D02*
D03*
X346835D02*
D03*
X332773Y374682D02*
D03*
X328836D02*
D03*
D25*
X436374Y215307D02*
D03*
X440311D02*
D03*
X514119Y334604D02*
D03*
X510182D02*
D03*
X510079Y330114D02*
D03*
X514016D02*
D03*
X495821Y319407D02*
D03*
X499758D02*
D03*
X499832Y314536D02*
D03*
X495895D02*
D03*
X501520Y303741D02*
D03*
X497583D02*
D03*
X501242Y299443D02*
D03*
X497305D02*
D03*
X501223Y290731D02*
D03*
X497286D02*
D03*
X501432Y286900D02*
D03*
X497495D02*
D03*
X458806Y181477D02*
D03*
X454869D02*
D03*
X373363Y235106D02*
D03*
X369426D02*
D03*
X359261Y214093D02*
D03*
X363198D02*
D03*
X374570Y227022D02*
D03*
X378507D02*
D03*
X374740Y222282D02*
D03*
X378677D02*
D03*
X378520Y217400D02*
D03*
X374583D02*
D03*
Y212584D02*
D03*
X378520D02*
D03*
X380695Y165387D02*
D03*
X384631D02*
D03*
X334470Y165866D02*
D03*
X338407D02*
D03*
X278397Y194543D02*
D03*
X274460D02*
D03*
X346106Y390493D02*
D03*
X342169D02*
D03*
D26*
X519065Y301851D02*
D03*
Y297914D02*
D03*
X507967Y307669D02*
D03*
Y303732D02*
D03*
X508398Y282937D02*
D03*
Y286874D02*
D03*
X400192Y210381D02*
D03*
Y214318D02*
D03*
X391520Y218875D02*
D03*
Y222812D02*
D03*
X386949D02*
D03*
Y218875D02*
D03*
X324099Y188054D02*
D03*
Y184116D02*
D03*
X312987Y170076D02*
D03*
Y174013D02*
D03*
X268728Y198456D02*
D03*
Y194519D02*
D03*
X391049Y389354D02*
D03*
Y393291D02*
D03*
X386011Y389265D02*
D03*
Y393202D02*
D03*
X381101Y389353D02*
D03*
Y393290D02*
D03*
X366098Y389299D02*
D03*
Y393236D02*
D03*
X355931Y389313D02*
D03*
Y393250D02*
D03*
X293517Y198112D02*
D03*
Y194175D02*
D03*
X428982Y232834D02*
D03*
Y228897D02*
D03*
X332191Y310768D02*
D03*
Y306831D02*
D03*
X285802Y278652D02*
D03*
Y274715D02*
D03*
X292089Y281711D02*
D03*
Y277774D02*
D03*
D27*
X529411Y298879D02*
D03*
X534411D02*
D03*
X539411D02*
D03*
X544411D02*
D03*
Y327265D02*
D03*
X539411D02*
D03*
X534411D02*
D03*
X529411D02*
D03*
D28*
X454386Y188727D02*
D03*
X456386D02*
D03*
X458386D02*
D03*
X460386D02*
D03*
Y199927D02*
D03*
X458386D02*
D03*
X456386D02*
D03*
X454386D02*
D03*
D29*
X431697Y167777D02*
D03*
Y172777D02*
D03*
Y177777D02*
D03*
Y182777D02*
D03*
Y187777D02*
D03*
Y192777D02*
D03*
Y197777D02*
D03*
Y202777D02*
D03*
X394295Y167777D02*
D03*
Y172777D02*
D03*
Y177777D02*
D03*
Y182777D02*
D03*
Y187777D02*
D03*
Y192777D02*
D03*
Y197777D02*
D03*
Y202777D02*
D03*
D30*
X352555Y161966D02*
D03*
X358067D02*
D03*
D31*
X324242Y177977D02*
D03*
Y172072D02*
D03*
D32*
X415751Y343325D02*
D03*
Y351593D02*
D03*
X330782Y344787D02*
D03*
Y353055D02*
D03*
D33*
X404488Y337821D02*
D03*
X410197D02*
D03*
X531217Y236830D02*
D03*
X525508D02*
D03*
D34*
X389825Y331829D02*
D03*
Y337538D02*
D03*
X350767Y331710D02*
D03*
Y337419D02*
D03*
X330754Y332994D02*
D03*
Y338703D02*
D03*
D35*
X520907Y386889D02*
D03*
Y384889D02*
D03*
Y382889D02*
D03*
Y380989D02*
D03*
Y378989D02*
D03*
Y376989D02*
D03*
Y375089D02*
D03*
Y373089D02*
D03*
Y371089D02*
D03*
Y369089D02*
D03*
Y367189D02*
D03*
Y365189D02*
D03*
Y363189D02*
D03*
Y361289D02*
D03*
Y359289D02*
D03*
Y357289D02*
D03*
X470107D02*
D03*
Y359289D02*
D03*
Y361289D02*
D03*
Y363189D02*
D03*
Y365189D02*
D03*
Y367189D02*
D03*
Y369089D02*
D03*
Y371089D02*
D03*
Y373089D02*
D03*
Y375089D02*
D03*
Y376989D02*
D03*
Y378989D02*
D03*
Y380989D02*
D03*
Y382889D02*
D03*
Y384889D02*
D03*
Y386889D02*
D03*
D36*
X378151Y304795D02*
D03*
X381301D02*
D03*
X384451D02*
D03*
X387600D02*
D03*
X390750D02*
D03*
X393899D02*
D03*
X397049D02*
D03*
X400199D02*
D03*
X403348D02*
D03*
X406498D02*
D03*
X409647D02*
D03*
X412797D02*
D03*
X415946D02*
D03*
X419096D02*
D03*
X422246D02*
D03*
X425395D02*
D03*
X428545D02*
D03*
X431695D02*
D03*
X378151Y301645D02*
D03*
X381301D02*
D03*
X384451D02*
D03*
X387600D02*
D03*
X390750D02*
D03*
X393899D02*
D03*
X397049D02*
D03*
X400199D02*
D03*
X403348D02*
D03*
X406498D02*
D03*
X409647D02*
D03*
X412797D02*
D03*
X415946D02*
D03*
X419096D02*
D03*
X422246D02*
D03*
X425395D02*
D03*
X428545D02*
D03*
X431695D02*
D03*
X378151Y298496D02*
D03*
X381301D02*
D03*
X384451D02*
D03*
X387600D02*
D03*
X390750D02*
D03*
X393899D02*
D03*
X397049D02*
D03*
X400199D02*
D03*
X403348D02*
D03*
X406498D02*
D03*
X409647D02*
D03*
X412797D02*
D03*
X415946D02*
D03*
X419096D02*
D03*
X422246D02*
D03*
X425395D02*
D03*
X428545D02*
D03*
X431695D02*
D03*
X378151Y295346D02*
D03*
X381301D02*
D03*
X384451D02*
D03*
X387600D02*
D03*
X390750D02*
D03*
X393899D02*
D03*
X397049D02*
D03*
X400199D02*
D03*
X403348D02*
D03*
X406498D02*
D03*
X409647D02*
D03*
X412797D02*
D03*
X415946D02*
D03*
X419096D02*
D03*
X422246D02*
D03*
X425395D02*
D03*
X428545D02*
D03*
X431695D02*
D03*
X378151Y292197D02*
D03*
X381301D02*
D03*
X384451D02*
D03*
X387600D02*
D03*
X390750D02*
D03*
X393899D02*
D03*
X397049D02*
D03*
X400199D02*
D03*
X403348D02*
D03*
X406498D02*
D03*
X409647D02*
D03*
X412797D02*
D03*
X415946D02*
D03*
X419096D02*
D03*
X422246D02*
D03*
X425395D02*
D03*
X428545D02*
D03*
X431695D02*
D03*
X378151Y289047D02*
D03*
X381301D02*
D03*
X384451D02*
D03*
X387600D02*
D03*
X390750D02*
D03*
X393899D02*
D03*
X397049D02*
D03*
X400199D02*
D03*
X403348D02*
D03*
X406498D02*
D03*
X409647D02*
D03*
X412797D02*
D03*
X415946D02*
D03*
X419096D02*
D03*
X422246D02*
D03*
X425395D02*
D03*
X428545D02*
D03*
X431695D02*
D03*
X378151Y285897D02*
D03*
X381301D02*
D03*
X384451D02*
D03*
X387600D02*
D03*
X390750D02*
D03*
X393899D02*
D03*
X397049D02*
D03*
X400199D02*
D03*
X403348D02*
D03*
X406498D02*
D03*
X409647D02*
D03*
X412797D02*
D03*
X415946D02*
D03*
X419096D02*
D03*
X422246D02*
D03*
X425395D02*
D03*
X428545D02*
D03*
X431695D02*
D03*
X378151Y282748D02*
D03*
X381301D02*
D03*
X384451D02*
D03*
X387600D02*
D03*
X390750D02*
D03*
X393899D02*
D03*
X397049D02*
D03*
X400199D02*
D03*
X403348D02*
D03*
X406498D02*
D03*
X409647D02*
D03*
X412797D02*
D03*
X415946D02*
D03*
X419096D02*
D03*
X422246D02*
D03*
X425395D02*
D03*
X428545D02*
D03*
X431695D02*
D03*
X378151Y279598D02*
D03*
X381301D02*
D03*
X384451D02*
D03*
X387600D02*
D03*
X390750D02*
D03*
X393899D02*
D03*
X397049D02*
D03*
X400199D02*
D03*
X403348D02*
D03*
X406498D02*
D03*
X409647D02*
D03*
X412797D02*
D03*
X415946D02*
D03*
X419096D02*
D03*
X422246D02*
D03*
X425395D02*
D03*
X428545D02*
D03*
X431695D02*
D03*
X378151Y276449D02*
D03*
X381301D02*
D03*
X384451D02*
D03*
X387600D02*
D03*
X390750D02*
D03*
X393899D02*
D03*
X397049D02*
D03*
X400199D02*
D03*
X403348D02*
D03*
X406498D02*
D03*
X409647D02*
D03*
X412797D02*
D03*
X415946D02*
D03*
X419096D02*
D03*
X422246D02*
D03*
X425395D02*
D03*
X428545D02*
D03*
X431695D02*
D03*
X378151Y273299D02*
D03*
X381301D02*
D03*
X384451D02*
D03*
X387600D02*
D03*
X390750D02*
D03*
X393899D02*
D03*
X397049D02*
D03*
X400199D02*
D03*
X403348D02*
D03*
X406498D02*
D03*
X409647D02*
D03*
X412797D02*
D03*
X415946D02*
D03*
X419096D02*
D03*
X422246D02*
D03*
X425395D02*
D03*
X428545D02*
D03*
X431695D02*
D03*
X378151Y270149D02*
D03*
X381301D02*
D03*
X384451D02*
D03*
X387600D02*
D03*
X390750D02*
D03*
X393899D02*
D03*
X397049D02*
D03*
X400199D02*
D03*
X403348D02*
D03*
X406498D02*
D03*
X409647D02*
D03*
X412797D02*
D03*
X415946D02*
D03*
X419096D02*
D03*
X422246D02*
D03*
X425395D02*
D03*
X428545D02*
D03*
X431695D02*
D03*
X378151Y267000D02*
D03*
X381301D02*
D03*
X384451D02*
D03*
X387600D02*
D03*
X390750D02*
D03*
X393899D02*
D03*
X397049D02*
D03*
X400199D02*
D03*
X403348D02*
D03*
X406498D02*
D03*
X409647D02*
D03*
X412797D02*
D03*
X415946D02*
D03*
X419096D02*
D03*
X422246D02*
D03*
X425395D02*
D03*
X428545D02*
D03*
X431695D02*
D03*
X378151Y263850D02*
D03*
X381301D02*
D03*
X384451D02*
D03*
X387600D02*
D03*
X390750D02*
D03*
X393899D02*
D03*
X397049D02*
D03*
X400199D02*
D03*
X403348D02*
D03*
X406498D02*
D03*
X409647D02*
D03*
X412797D02*
D03*
X415946D02*
D03*
X419096D02*
D03*
X422246D02*
D03*
X425395D02*
D03*
X428545D02*
D03*
X431695D02*
D03*
X378151Y260701D02*
D03*
X381301D02*
D03*
X384451D02*
D03*
X387600D02*
D03*
X390750D02*
D03*
X393899D02*
D03*
X397049D02*
D03*
X400199D02*
D03*
X403348D02*
D03*
X406498D02*
D03*
X409647D02*
D03*
X412797D02*
D03*
X415946D02*
D03*
X419096D02*
D03*
X422246D02*
D03*
X425395D02*
D03*
X428545D02*
D03*
X431695D02*
D03*
X378151Y257551D02*
D03*
X381301D02*
D03*
X384451D02*
D03*
X387600D02*
D03*
X390750D02*
D03*
X393899D02*
D03*
X397049D02*
D03*
X400199D02*
D03*
X403348D02*
D03*
X406498D02*
D03*
X409647D02*
D03*
X412797D02*
D03*
X415946D02*
D03*
X419096D02*
D03*
X422246D02*
D03*
X425395D02*
D03*
X428545D02*
D03*
X431695D02*
D03*
X378151Y254401D02*
D03*
X381301D02*
D03*
X384451D02*
D03*
X387600D02*
D03*
X390750D02*
D03*
X393899D02*
D03*
X397049D02*
D03*
X400199D02*
D03*
X403348D02*
D03*
X406498D02*
D03*
X409647D02*
D03*
X412797D02*
D03*
X415946D02*
D03*
X419096D02*
D03*
X422246D02*
D03*
X425395D02*
D03*
X428545D02*
D03*
X431695D02*
D03*
X378151Y251252D02*
D03*
X381301D02*
D03*
X384451D02*
D03*
X387600D02*
D03*
X390750D02*
D03*
X393899D02*
D03*
X397049D02*
D03*
X400199D02*
D03*
X403348D02*
D03*
X406498D02*
D03*
X409647D02*
D03*
X412797D02*
D03*
X415946D02*
D03*
X419096D02*
D03*
X422246D02*
D03*
X425395D02*
D03*
X428545D02*
D03*
X431695D02*
D03*
D37*
X434183Y220121D02*
D03*
Y227601D02*
D03*
X440089Y220121D02*
D03*
Y227601D02*
D03*
D38*
X362091Y173644D02*
D03*
X346540D02*
D03*
X362091Y200219D02*
D03*
X346540D02*
D03*
D39*
X299405Y180678D02*
D03*
Y163907D02*
D03*
X291531Y180678D02*
D03*
Y163907D02*
D03*
X283657Y180678D02*
D03*
Y163907D02*
D03*
X275783Y180678D02*
D03*
Y163907D02*
D03*
X267909Y180678D02*
D03*
Y163907D02*
D03*
X260035Y180678D02*
D03*
Y163907D02*
D03*
X252161Y180678D02*
D03*
Y163907D02*
D03*
D40*
X250678Y319125D02*
D03*
X245678Y314325D02*
D03*
X240678Y319125D02*
D03*
X235678Y314325D02*
D03*
X230678Y319125D02*
D03*
X225678Y314325D02*
D03*
X220678Y319125D02*
D03*
X215678Y314325D02*
D03*
X210678Y319125D02*
D03*
X205678Y314325D02*
D03*
X250678Y241510D02*
D03*
X245678Y236710D02*
D03*
X240678Y241510D02*
D03*
X235678Y236710D02*
D03*
X230678Y241510D02*
D03*
X225678Y236710D02*
D03*
X220678Y241510D02*
D03*
X215678Y236710D02*
D03*
X210678Y241510D02*
D03*
X205678Y236710D02*
D03*
D41*
X382635Y337568D02*
D03*
X374368D02*
D03*
X358038Y337255D02*
D03*
X366305D02*
D03*
X203370Y343051D02*
D03*
X211638D02*
D03*
D42*
X348716Y349621D02*
D03*
Y354621D02*
D03*
Y359621D02*
D03*
Y364621D02*
D03*
Y369621D02*
D03*
Y374621D02*
D03*
Y379621D02*
D03*
X353716Y349621D02*
D03*
Y354621D02*
D03*
Y359621D02*
D03*
Y364621D02*
D03*
Y369621D02*
D03*
Y374621D02*
D03*
Y379621D02*
D03*
X358716Y349621D02*
D03*
Y354621D02*
D03*
Y359621D02*
D03*
Y364621D02*
D03*
Y369621D02*
D03*
Y374621D02*
D03*
Y379621D02*
D03*
X363716Y349621D02*
D03*
Y354621D02*
D03*
Y359621D02*
D03*
Y364621D02*
D03*
Y369621D02*
D03*
Y374621D02*
D03*
Y379621D02*
D03*
X368716Y349621D02*
D03*
Y354621D02*
D03*
Y359621D02*
D03*
Y364621D02*
D03*
Y369621D02*
D03*
Y374621D02*
D03*
Y379621D02*
D03*
X373716Y349621D02*
D03*
Y354621D02*
D03*
Y359621D02*
D03*
Y364621D02*
D03*
Y369621D02*
D03*
Y374621D02*
D03*
Y379621D02*
D03*
X378716Y349621D02*
D03*
Y354621D02*
D03*
Y359621D02*
D03*
Y364621D02*
D03*
Y369621D02*
D03*
Y374621D02*
D03*
Y379621D02*
D03*
X383716Y349621D02*
D03*
Y354621D02*
D03*
Y359621D02*
D03*
Y364621D02*
D03*
Y369621D02*
D03*
Y374621D02*
D03*
Y379621D02*
D03*
X388716Y349621D02*
D03*
Y354621D02*
D03*
Y359621D02*
D03*
Y364621D02*
D03*
Y369621D02*
D03*
Y374621D02*
D03*
Y379621D02*
D03*
X393716Y349621D02*
D03*
Y354621D02*
D03*
Y359621D02*
D03*
Y364621D02*
D03*
Y369621D02*
D03*
Y374621D02*
D03*
Y379621D02*
D03*
X398716Y349621D02*
D03*
Y354621D02*
D03*
Y359621D02*
D03*
Y364621D02*
D03*
Y369621D02*
D03*
Y379621D02*
D03*
Y374621D02*
D03*
D72*
X349936Y228008D02*
G03*
X349936Y225777I1115J-1115D01*
G01*
X352653Y220829D02*
G03*
X352653Y223060I-1115J1115D01*
G01*
X350422Y220829D02*
G03*
X352653Y220829I1115J1115D01*
G01*
X342048Y229203D02*
G03*
X339817Y229203I-1115J-1115D01*
G01*
D02*
G03*
X339817Y226972I1115J-1115D01*
G01*
X348900Y215658D02*
G03*
X348900Y217889I-1115J1115D01*
G01*
X346669Y215658D02*
G03*
X348900Y215658I1115J1115D01*
G01*
X340794Y221533D02*
G03*
X338563Y221533I-1115J-1115D01*
G01*
D02*
G03*
X338563Y219303I1115J-1115D01*
G01*
X344438Y211197D02*
G03*
X344438Y213427I-1115J1115D01*
G01*
X342207Y211197D02*
G03*
X344438Y211197I1115J1115D01*
G01*
X336332Y217072D02*
G03*
X334101Y217072I-1115J-1115D01*
G01*
D02*
G03*
X334101Y214841I1115J-1115D01*
G01*
X339976Y206735D02*
G03*
X339976Y208966I-1115J1115D01*
G01*
X337745Y206735D02*
G03*
X339976Y206735I1115J1115D01*
G01*
X331870Y212610D02*
G03*
X329639Y212610I-1115J-1115D01*
G01*
D02*
G03*
X329639Y210379I1115J-1115D01*
G01*
X335514Y202273D02*
G03*
X335514Y204504I-1115J1115D01*
G01*
X333283Y202273D02*
G03*
X335514Y202273I1115J1115D01*
G01*
X327408Y208148D02*
G03*
X325178Y208148I-1115J-1115D01*
G01*
D02*
G03*
X325178Y205917I1115J-1115D01*
G01*
X325396Y203468D02*
G03*
X325396Y205699I-1115J1115D01*
G01*
X332723Y231579D02*
G03*
X334954Y231579I1115J1115D01*
G01*
X329297Y235005D02*
G03*
X327066Y235005I-1115J-1115D01*
G01*
D02*
G03*
X327066Y232774I1115J-1115D01*
G01*
X336149Y221460D02*
G03*
X336149Y223691I-1115J1115D01*
G01*
X333918Y221460D02*
G03*
X336149Y221460I1115J1115D01*
G01*
X327856Y227523D02*
G03*
X325625Y227523I-1115J-1115D01*
G01*
D02*
G03*
X325625Y225292I1115J-1115D01*
G01*
X331687Y216998D02*
G03*
X331687Y219229I-1115J1115D01*
G01*
X329456Y216998D02*
G03*
X331687Y216998I1115J1115D01*
G01*
X323241Y223214D02*
G03*
X321010Y223214I-1115J-1115D01*
G01*
D02*
G03*
X321010Y220983I1115J-1115D01*
G01*
X327225Y212537D02*
G03*
X327225Y214767I-1115J1115D01*
G01*
X324995Y212537D02*
G03*
X327225Y212537I1115J1115D01*
G01*
X317069Y220462D02*
G03*
X314839Y220462I-1115J-1115D01*
G01*
D02*
G03*
X314839Y218231I1115J-1115D01*
G01*
X322764Y208075D02*
G03*
X322764Y210306I-1115J1115D01*
G01*
X320533Y208075D02*
G03*
X322764Y208075I1115J1115D01*
G01*
X312608Y216000D02*
G03*
X310377Y216000I-1115J-1115D01*
G01*
D02*
G03*
X310377Y213769I1115J-1115D01*
G01*
X312645Y209270D02*
G03*
X312645Y211501I-1115J1115D01*
G01*
X292225Y219795D02*
G03*
X294456Y219795I1115J1115D01*
G01*
X288799Y223221D02*
G03*
X286568Y223221I-1115J-1115D01*
G01*
D02*
G03*
X286568Y220990I1115J-1115D01*
G01*
X293421Y211907D02*
G03*
X293421Y214138I-1115J1115D01*
G01*
X291190Y211907D02*
G03*
X293421Y211907I1115J1115D01*
G01*
X284337Y218759D02*
G03*
X282106Y218759I-1115J-1115D01*
G01*
D02*
G03*
X282106Y216529I1115J-1115D01*
G01*
X288959Y207445D02*
G03*
X288959Y209676I-1115J1115D01*
G01*
X286728Y207445D02*
G03*
X288959Y207445I1115J1115D01*
G01*
X279875Y214298D02*
G03*
X277644Y214298I-1115J-1115D01*
G01*
D02*
G03*
X277644Y212067I1115J-1115D01*
G01*
X284497Y202983D02*
G03*
X284497Y205214I-1115J1115D01*
G01*
X282266Y202983D02*
G03*
X284497Y202983I1115J1115D01*
G01*
X275413Y209836D02*
G03*
X273182Y209836I-1115J-1115D01*
G01*
D02*
G03*
X273182Y207605I1115J-1115D01*
G01*
X276608Y201948D02*
G03*
X276608Y204179I-1115J1115D01*
G01*
X349936Y228008D02*
X352478Y230550D01*
X349936Y225777D02*
X349936Y225777D01*
X352653Y223060D01*
X342048Y229203D02*
X350422Y220829D01*
X339817Y226972D02*
X348900Y217889D01*
X348900Y215658D02*
X348900Y215658D01*
X340794Y221533D02*
X346669Y215658D01*
X338563Y219303D02*
X344438Y213427D01*
X336332Y217072D02*
X342207Y211197D01*
X334101Y214841D02*
X339976Y208966D01*
X331870Y212610D02*
X337745Y206735D01*
X329639Y210379D02*
X335514Y204504D01*
X335514Y202273D02*
X335514Y202273D01*
X327408Y208148D02*
X333283Y202273D01*
X325178Y205917D02*
X325396Y205699D01*
X324987Y203060D02*
X325396Y203468D01*
X324294Y202367D02*
X324987Y203060D01*
X334954Y231579D02*
X337083Y233707D01*
X332723Y231579D02*
X332723Y231579D01*
X329297Y235005D02*
X332723Y231579D01*
X327066Y232774D02*
X336149Y223691D01*
X336149Y221460D02*
X336149Y221460D01*
X327856Y227523D02*
X333918Y221460D01*
X325625Y225292D02*
X331687Y219229D01*
X323241Y223214D02*
X329456Y216998D01*
X321010Y220983D02*
X327225Y214767D01*
X317069Y220462D02*
X324995Y212537D01*
X314839Y218231D02*
X322764Y210306D01*
X322764Y208075D02*
X322764Y208075D01*
X312608Y216000D02*
X320533Y208075D01*
X310377Y213769D02*
X312645Y211501D01*
X312237Y208861D02*
X312645Y209270D01*
X337083Y233707D02*
X338513Y235137D01*
X306658Y203282D02*
X312237Y208861D01*
X294456Y219795D02*
X297453Y222792D01*
X292225Y219795D02*
X292225Y219795D01*
X288799Y223221D02*
X292225Y219795D01*
X286568Y220990D02*
X293421Y214138D01*
X284337Y218759D02*
X291190Y211907D01*
X282106Y216529D02*
X288959Y209676D01*
X279875Y214298D02*
X286728Y207445D01*
X277644Y212067D02*
X284497Y205214D01*
X284497Y202983D02*
X284497Y202983D01*
X275413Y209836D02*
X282266Y202983D01*
X273182Y207605D02*
X276608Y204179D01*
X276200Y201540D02*
X276608Y201948D01*
X297453Y222792D02*
X297588Y222928D01*
X418839Y213075D02*
X429138Y202777D01*
X418839Y213075D02*
Y238515D01*
X418328Y239027D02*
X418839Y238515D01*
X420910Y220794D02*
X436553Y205151D01*
X420061Y242852D02*
X420910Y242003D01*
Y220794D02*
Y242003D01*
X460386Y188727D02*
X462757D01*
X462903Y188582D01*
X507935Y307701D02*
X507967Y307669D01*
X507935Y307701D02*
Y310768D01*
X397160Y210426D02*
X400147D01*
X397159Y210425D02*
X397160Y210426D01*
X451267Y193092D02*
X453731D01*
X450541Y192365D02*
X451267Y193092D01*
X451105Y195738D02*
X453640D01*
X453754Y195852D01*
X450541Y196302D02*
X451105Y195738D01*
X387950Y233208D02*
X396658Y241917D01*
X387950Y231555D02*
Y233208D01*
X396658Y241917D02*
X400680D01*
X527664Y239478D02*
X528291D01*
X525508Y237322D02*
X527664Y239478D01*
X324242Y177977D02*
X326944Y175275D01*
X327013D01*
X328162Y174126D01*
Y161565D02*
X332808Y156919D01*
X328162Y161565D02*
Y174126D01*
X332808Y156919D02*
X503367D01*
X514365Y167917D02*
Y266219D01*
X503367Y156919D02*
X514365Y167917D01*
X412381Y233212D02*
X412571Y233023D01*
Y229773D02*
Y233023D01*
Y229773D02*
X412679Y229664D01*
X415903Y232797D02*
X416318Y233212D01*
X415903Y229267D02*
Y232797D01*
X415794Y229158D02*
X415903Y229267D01*
X298982Y215127D02*
X307163D01*
X321098Y228859D02*
X321252D01*
X320815Y228576D02*
X321098Y228859D01*
X320612Y228576D02*
X320815D01*
X307163Y215127D02*
X320612Y228576D01*
X439192Y311021D02*
X440780D01*
X514629Y384870D01*
X520660D01*
X439547Y313252D02*
X513165Y386870D01*
X433695Y313252D02*
X439547D01*
X427465Y312288D02*
Y314875D01*
X469860Y357270D01*
X423942Y312288D02*
Y316052D01*
X473341Y275479D02*
X497305Y299443D01*
X439262Y275479D02*
X473341D01*
X439192Y273740D02*
X480296D01*
X497286Y290731D01*
X530101Y310986D02*
X544411Y325296D01*
X524259Y310986D02*
X530101D01*
X512716Y299443D02*
X524259Y310986D01*
X501242Y299443D02*
X512716D01*
X544411Y325296D02*
Y327265D01*
X529411Y298879D02*
Y300848D01*
Y298498D02*
Y298879D01*
Y300848D02*
X535192Y306629D01*
X544922D01*
X549153Y302398D01*
Y290259D02*
Y302398D01*
X529627Y270733D02*
X549153Y290259D01*
X444713Y270733D02*
X529627D01*
X497319Y286723D02*
X497495Y286900D01*
X497319Y283729D02*
Y286723D01*
X497210Y283620D02*
X497319Y283729D01*
X364608Y242288D02*
X370570Y248250D01*
X321395Y242288D02*
X364608D01*
X361364Y281388D02*
X370570D01*
X335921Y306831D02*
X361364Y281388D01*
X369395Y235137D02*
X369426Y235106D01*
X338513Y235137D02*
X369395D01*
X383566Y235106D02*
X392849Y244390D01*
X373363Y235106D02*
X383566D01*
X439192Y249617D02*
X460386Y228423D01*
Y199927D02*
Y228423D01*
X470107Y378989D02*
X474190D01*
X474953Y379752D01*
X475106D01*
X539411Y327265D02*
Y329233D01*
X533628Y335017D02*
X539411Y329233D01*
X532031Y335017D02*
X533628D01*
X531923Y335125D02*
X532031Y335017D01*
X451804Y199826D02*
X456285D01*
X469870Y373081D02*
X475624D01*
X520907Y382889D02*
X520939Y382857D01*
X526648D01*
X526680Y382825D01*
X513165Y386870D02*
X520660D01*
X514016Y330114D02*
X514044Y330142D01*
X517779D01*
X517807Y330171D01*
X517681Y334604D02*
X517699Y334587D01*
X514119Y334604D02*
X517681D01*
X544411Y298879D02*
X544418Y298871D01*
Y292765D02*
Y298871D01*
Y292765D02*
X544426Y292758D01*
X519065Y301851D02*
X519074Y301841D01*
X522337D01*
X522347Y301832D01*
X499832Y314536D02*
X499879Y314583D01*
X503198D01*
X503246Y314631D01*
X499758Y319407D02*
X499775Y319390D01*
X503144D01*
X503161Y319372D01*
X508398Y282937D02*
X508444Y282892D01*
X511514D01*
X511560Y282846D01*
X525508Y236830D02*
Y237322D01*
X535559Y236732D02*
X539686D01*
X540608Y237654D01*
X540762D01*
X535559Y240669D02*
X536124Y240104D01*
X538106D01*
X538684Y239527D01*
X538837D01*
X546356Y214177D02*
X546362Y214171D01*
X543260Y214177D02*
X546356D01*
X543254Y214182D02*
X543260Y214177D01*
X542585Y182090D02*
X545615D01*
X546062Y182536D01*
X546215D01*
X542585Y186027D02*
X542626Y185985D01*
X545953D01*
X545995Y185943D01*
X454783Y181562D02*
X454869Y181477D01*
X452011Y181562D02*
X454783D01*
X451925Y181648D02*
X452011Y181562D01*
X456285Y199826D02*
X456386Y199927D01*
X454293Y188634D02*
X454386Y188727D01*
X452221Y188634D02*
X454293D01*
X431674Y172800D02*
X431697Y172777D01*
X425178Y172800D02*
X431674D01*
X425155Y172823D02*
X425178Y172800D01*
X396854Y172777D02*
X399848Y169783D01*
X399126Y165176D02*
X399848Y165898D01*
X384843Y165176D02*
X399126D01*
X399848Y165898D02*
Y169783D01*
X394295Y172777D02*
X396854D01*
X391736D02*
X394295D01*
X384631Y165387D02*
X384843Y165176D01*
X380679Y165403D02*
X380695Y165387D01*
X380679Y165403D02*
Y168455D01*
X380663Y168471D02*
X380679Y168455D01*
X400147Y210426D02*
X400192Y210381D01*
X397992Y216504D02*
X408217Y226728D01*
X389438Y207950D02*
X397992Y216504D01*
X398006D02*
X400192Y214318D01*
X397992Y216504D02*
X398006D01*
X312987Y170076D02*
X313015Y170048D01*
Y167100D02*
Y170048D01*
Y167100D02*
X313043Y167072D01*
X299405Y180678D02*
X306322D01*
X312987Y174013D01*
X299405Y155940D02*
Y163907D01*
X291531Y155940D02*
Y163907D01*
X283657Y155940D02*
Y163907D01*
X275783Y155940D02*
Y163907D01*
X267909Y155940D02*
Y163907D01*
X260035Y155940D02*
Y163907D01*
X252155Y163901D02*
X252161Y163907D01*
X252155Y155934D02*
Y163901D01*
X252070Y180770D02*
X252161Y180678D01*
X252070Y180770D02*
Y188208D01*
X239277Y233112D02*
X239387D01*
X235678Y236710D02*
X239277Y233112D01*
X215678Y236319D02*
X219567Y232430D01*
X215678Y236319D02*
Y236710D01*
X332191Y310768D02*
X332242Y310717D01*
X335021D01*
X335072Y310666D01*
X292089Y277774D02*
X292098Y277783D01*
X295061D01*
X295070Y277793D01*
X285782Y278672D02*
X285802Y278652D01*
X282589Y278672D02*
X285782D01*
X282569Y278691D02*
X282589Y278672D01*
X211638Y343051D02*
X211698Y342991D01*
Y338113D02*
Y342991D01*
Y338113D02*
X211758Y338053D01*
X210678Y319125D02*
X210700Y319147D01*
Y326683D01*
X210723Y326706D01*
X275783Y180678D02*
X276183Y181079D01*
Y187219D01*
X273116Y198456D02*
X276200Y201540D01*
X268728Y198456D02*
X273116D01*
X308951Y222928D02*
X324845Y238821D01*
X297588Y222928D02*
X308951D01*
X305387Y202012D02*
X306658Y203282D01*
X320040Y198112D02*
X324294Y202367D01*
X352478Y230550D02*
X353462Y231534D01*
X276183Y187219D02*
X290976Y202012D01*
X305387D01*
X293517Y198112D02*
X320040D01*
X353462Y231534D02*
X377751D01*
X278397Y194543D02*
X298982Y215127D01*
X267909Y180678D02*
Y187991D01*
X274460Y194543D01*
X283657Y180678D02*
Y184123D01*
X292953Y193419D01*
Y193610D01*
X293517Y194175D01*
X260035Y180678D02*
Y184123D01*
X264775Y188864D01*
Y190566D01*
X268728Y194519D01*
X465346Y386870D02*
X469860D01*
X324845Y238821D02*
X381274D01*
X323635Y240555D02*
X373911D01*
X311541Y228461D02*
X323635Y240555D01*
X209977Y228461D02*
X311541D01*
X228244Y230194D02*
X309301D01*
X321395Y242288D01*
X325281Y250367D02*
X370570D01*
X309908Y234994D02*
X325281Y250367D01*
X246503Y234994D02*
X309908D01*
X357513Y314204D02*
X398742D01*
X346179Y302870D02*
X357513Y314204D01*
X332191Y306831D02*
X335921D01*
X356118Y278683D02*
X370570Y278182D01*
X336084Y297743D02*
X355642Y278700D01*
X356118Y278683D01*
X330673Y297743D02*
X336084D01*
X349214Y276449D02*
X370570D01*
X329642Y290448D02*
X335215D01*
X349214Y276449D01*
X342339Y274715D02*
X370570D01*
X324714Y283651D02*
X333403D01*
X342339Y274715D01*
X502587Y330114D02*
X510079D01*
X460564Y288091D02*
X502587Y330114D01*
X459468Y288091D02*
X460564D01*
X410918Y348686D02*
X413825Y351593D01*
X415751D01*
X374368Y337568D02*
Y338750D01*
X376498Y340880D01*
Y342232D01*
X376607Y342341D01*
X330782Y353055D02*
X331963D01*
X334317Y350701D01*
X335503D01*
X335611Y350593D01*
X365906Y337478D02*
Y338659D01*
X362989Y341576D02*
X365906Y338659D01*
X362989Y341576D02*
Y341703D01*
X510130Y334553D02*
X510182Y334604D01*
X510130Y330166D02*
Y334553D01*
X510079Y330114D02*
X510130Y330166D01*
X324099Y191135D02*
X324104Y191140D01*
X324099Y188054D02*
Y191135D01*
X324170Y178049D02*
X324242Y177977D01*
X324170Y178049D02*
Y184045D01*
X324099Y184116D02*
X324170Y184045D01*
X324242Y168099D02*
X324298Y168043D01*
X324242Y168099D02*
Y172072D01*
X331028Y165903D02*
X331064Y165866D01*
X334470D01*
X342898Y161876D02*
Y162073D01*
X339669Y165302D02*
X342898Y162073D01*
X338971Y165302D02*
X339669D01*
X338407Y165866D02*
X338971Y165302D01*
X346835Y161876D02*
Y173349D01*
X346540Y173644D02*
X346835Y173349D01*
X352529Y161940D02*
X352555Y161966D01*
X346898Y161940D02*
X352529D01*
X346835Y161876D02*
X346898Y161940D01*
X358067Y161966D02*
X358093Y161940D01*
X362234D01*
X362268Y161906D01*
X346540Y173644D02*
Y200219D01*
X362010Y173725D02*
X362091Y173644D01*
X362010Y173725D02*
Y182146D01*
X362051Y200179D02*
X362091Y200219D01*
X362051Y191687D02*
Y200179D01*
X372347Y215164D02*
X374583Y217400D01*
X371693Y215164D02*
X372347D01*
X371585Y215056D02*
X371693Y215164D01*
X371450Y218992D02*
X374740Y222282D01*
X371450Y218921D02*
Y218992D01*
X374322Y212323D02*
X374583Y212584D01*
X374322Y209617D02*
Y212323D01*
X374213Y209509D02*
X374322Y209617D01*
X378520Y212584D02*
Y217400D01*
X240678Y241510D02*
Y245460D01*
X210678Y241510D02*
Y245460D01*
X230002Y264784D01*
X205678Y232760D02*
X209977Y228461D01*
X373911Y240555D02*
X377746Y244390D01*
X245678Y235819D02*
Y236710D01*
X254802Y259585D02*
X370570D01*
X230678Y245460D02*
X246535Y261318D01*
X225678Y232760D02*
Y236710D01*
X250678Y241510D02*
Y245460D01*
X240678D02*
X254802Y259585D01*
X246535Y261318D02*
X370570D01*
X220678Y241510D02*
Y245460D01*
X238268Y263051D01*
X370570D01*
X250678Y245460D02*
X257318Y252100D01*
X370570D01*
X230678Y241510D02*
Y245460D01*
X230002Y264784D02*
X370570D01*
X245678Y235819D02*
X246503Y234994D01*
X225678Y232760D02*
X228244Y230194D01*
X205678Y232760D02*
Y236710D01*
X326207Y272982D02*
X370570D01*
X246503Y310266D02*
X288923D01*
X326207Y272982D01*
X319694Y270149D02*
X370570D01*
X248977Y297075D02*
X292768D01*
X319694Y270149D01*
X311402Y268416D02*
X370570D01*
X298107Y281711D02*
X311402Y268416D01*
X292089Y281711D02*
X298107D01*
X235678Y310375D02*
X248977Y297075D01*
X254341Y281711D02*
X292089D01*
X251337Y274715D02*
X285802D01*
X293834Y266683D02*
X370570D01*
X235678Y310375D02*
Y314325D01*
X245678Y311091D02*
X246503Y310266D01*
X245678Y311091D02*
Y314325D01*
X215678Y310375D02*
Y314325D01*
X285802Y274715D02*
X293834Y266683D01*
X215678Y310375D02*
X251337Y274715D01*
X225678Y310375D02*
X254341Y281711D01*
X225678Y310375D02*
Y314325D01*
X291818Y316547D02*
X324714Y283651D01*
X294449Y325641D02*
X329642Y290448D01*
X251503Y316547D02*
X291818D01*
X250678Y317372D02*
Y319125D01*
Y317372D02*
X251503Y316547D01*
X243244Y325641D02*
X294449D01*
X234978Y327375D02*
X301042D01*
X330673Y297743D01*
X220678Y323075D02*
X226711Y329108D01*
X230678Y319125D02*
Y323075D01*
X308733Y329108D02*
X331010Y306831D01*
X226711Y329108D02*
X308733D01*
X230678Y323075D02*
X234978Y327375D01*
X331010Y306831D02*
X332191D01*
X220678Y319125D02*
Y323075D01*
X240678Y319125D02*
Y323075D01*
X243244Y325641D01*
X378507Y227022D02*
X395136Y243650D01*
X377943Y226457D02*
X378507Y227022D01*
X373096Y224580D02*
X376069D01*
X395136Y243650D02*
X399490D01*
X400230Y244390D01*
X346540Y202778D02*
X357291Y213529D01*
X358697D02*
X359261Y214093D01*
X400680Y241917D02*
X403153Y244390D01*
X368429Y219325D02*
Y219913D01*
X377943Y226453D02*
Y226457D01*
X368429Y219913D02*
X373096Y224580D01*
X376069D02*
X377943Y226453D01*
X363198Y214093D02*
X368429Y219325D01*
X378677Y222282D02*
X387950Y231555D01*
X357291Y213529D02*
X358697D01*
X346540Y200219D02*
Y202778D01*
X382666Y217400D02*
X382681Y217414D01*
X378520Y217400D02*
X382666D01*
X391570Y222862D02*
X394810D01*
X394861Y222913D01*
X403174Y240773D02*
X406791Y244390D01*
X385972Y209385D02*
X403174Y226587D01*
Y240773D01*
X405631Y240779D02*
X409242Y244390D01*
X387705Y208667D02*
X405631Y226594D01*
Y240779D01*
X420061Y242852D02*
Y244390D01*
X429138Y202777D02*
X431697D01*
X394295D02*
X396854D01*
X408217Y239590D02*
X413017Y244390D01*
X424348Y219807D02*
Y244390D01*
X418328Y239027D02*
Y244390D01*
X409950Y238872D02*
X415468Y244390D01*
X389438Y195075D02*
Y207950D01*
X391736Y192777D02*
X394295D01*
X389438Y195075D02*
X391736Y192777D01*
X408217Y226728D02*
Y239590D01*
X396854Y202777D02*
X409950Y215873D01*
Y238872D01*
X431697Y167777D02*
X434256D01*
X438287Y171808D01*
Y205869D01*
X424348Y219807D02*
X438287Y205869D01*
X385972Y173541D02*
Y209385D01*
X391736Y167777D02*
X394295D01*
X385972Y173541D02*
X391736Y167777D01*
X431697Y197777D02*
X434256D01*
X436553Y200075D02*
Y205151D01*
X434256Y197777D02*
X436553Y200075D01*
X387705Y176808D02*
Y208667D01*
Y176808D02*
X391736Y172777D01*
X477481Y171295D02*
X477562D01*
X469151Y179624D02*
X477481Y171295D01*
X460658Y179624D02*
X469151D01*
X458241Y182041D02*
X460658Y179624D01*
X458241Y182041D02*
Y182867D01*
X457955Y183153D02*
X458241Y182867D01*
X457955Y183153D02*
Y183168D01*
X456386Y184737D02*
X457955Y183168D01*
X458502Y186578D02*
Y188611D01*
X435407Y244390D02*
X458386Y221411D01*
Y199927D02*
Y221411D01*
X475795Y183061D02*
X487562Y171295D01*
X462019Y183061D02*
X475795D01*
X458502Y186578D02*
X462019Y183061D01*
X458386Y188727D02*
X458502Y188611D01*
X456386Y184737D02*
Y188727D01*
X436353Y215286D02*
X436374Y215307D01*
X433203Y215286D02*
X436353D01*
X433182Y215266D02*
X433203Y215286D01*
X440089Y220121D02*
X440311Y219898D01*
Y215307D02*
Y219898D01*
X428418Y233399D02*
X428982Y232834D01*
X428418Y233399D02*
Y234097D01*
X428394Y234121D02*
X428418Y234097D01*
X428394Y234121D02*
Y243364D01*
X430278Y227601D02*
X434183D01*
X428982Y228897D02*
X430278Y227601D01*
X531217Y236830D02*
X531266Y236781D01*
X439192Y267080D02*
X479612D01*
X439192Y263614D02*
X474567D01*
X439192Y265347D02*
X477110D01*
X439192Y261881D02*
X472204D01*
X509338Y180902D02*
Y184789D01*
X439192Y254935D02*
X509338Y184789D01*
X477873Y221409D02*
X508474D01*
X439192Y260090D02*
X477873Y221409D01*
X472204Y261881D02*
X508419Y225666D01*
X474567Y263614D02*
X508386Y229795D01*
X477110Y265347D02*
X508315Y234142D01*
X479612Y267080D02*
X508362Y238330D01*
X535510Y236781D02*
X535559Y236732D01*
X531266Y236781D02*
X535510D01*
X501445Y286887D02*
X508386D01*
X495821Y319407D02*
X495858Y319370D01*
X501524Y303736D02*
X507963D01*
X439192Y277372D02*
X471215D01*
X514554Y303732D02*
X523541Y312719D01*
X439192Y279105D02*
X460464D01*
X495895Y314536D01*
X507967Y303732D02*
X514554D01*
X501520Y303741D02*
X501524Y303736D01*
X534411Y321142D02*
Y327265D01*
X507963Y303736D02*
X507967Y303732D01*
X525988Y312719D02*
X534411Y321142D01*
X523541Y312719D02*
X525988D01*
X529375Y286874D02*
X539411Y296911D01*
X508398Y286874D02*
X529375D01*
X539411Y296911D02*
Y298879D01*
X508386Y286887D02*
X508398Y286874D01*
X501432Y286900D02*
X501445Y286887D01*
X519065Y297914D02*
X528827D01*
X529411Y298498D01*
X495858Y314573D02*
Y319370D01*
Y314573D02*
X495895Y314536D01*
X471215Y277372D02*
X497583Y303741D01*
X528231Y290731D02*
X534411Y296911D01*
Y298879D01*
X501223Y290731D02*
X528231D01*
X439192Y288889D02*
X440225D01*
X439192Y284305D02*
X441168D01*
X432731Y312288D02*
X433695Y313252D01*
X439192Y287156D02*
X440943D01*
X439192Y282572D02*
X441886D01*
X439192Y280838D02*
X444228D01*
X439192Y305115D02*
X515048Y380970D01*
X439192Y302563D02*
X515600Y378970D01*
X516051Y376970D02*
X520660D01*
X439192Y300111D02*
X516051Y376970D01*
X516602Y375070D02*
X520660D01*
X439192Y297660D02*
X516602Y375070D01*
X439192Y295209D02*
X517053Y373070D01*
X439192Y292758D02*
X515504Y369070D01*
X439507Y290622D02*
X516056Y367170D01*
X440225Y288889D02*
X516507Y365170D01*
X444228Y280838D02*
X520660Y357270D01*
X441886Y282572D02*
X516148Y356835D01*
X441168Y284305D02*
X505348Y348485D01*
X440943Y287156D02*
X516958Y363170D01*
X515048Y380970D02*
X520660D01*
X515600Y378970D02*
X520660D01*
X517053Y373070D02*
X520660D01*
X515504Y369070D02*
X520660D01*
X516056Y367170D02*
X520660D01*
X439192Y290622D02*
X439507D01*
X516507Y365170D02*
X520660D01*
X517960Y359270D02*
X520660D01*
X516148Y357458D02*
X517960Y359270D01*
X516148Y356835D02*
Y357458D01*
X517509Y361270D02*
X520660D01*
X505348Y349109D02*
X517509Y361270D01*
X505348Y348485D02*
Y349109D01*
X516958Y363170D02*
X520660D01*
X406075Y312630D02*
Y322697D01*
X407809Y312288D02*
X408343Y312823D01*
X403507Y312288D02*
X404000Y312782D01*
Y323073D01*
X405734Y312288D02*
X406075Y312630D01*
X408343Y312823D02*
Y322514D01*
X404000Y323073D02*
X465797Y384870D01*
X406075Y322697D02*
X466082Y382703D01*
X469693D02*
X469860Y382870D01*
X410077Y312288D02*
Y321796D01*
X466800Y380970D02*
X469860D01*
X401773Y323297D02*
X465346Y386870D01*
X465797Y384870D02*
X469860D01*
X466082Y382703D02*
X469693D01*
X466158Y363170D02*
X469860D01*
X420476Y317488D02*
X466158Y363170D01*
X420476Y312288D02*
Y317488D01*
X466709Y361270D02*
X469860D01*
X422209Y316770D02*
X466709Y361270D01*
X422209Y312288D02*
Y316770D01*
X467160Y359270D02*
X469860D01*
X423942Y316052D02*
X467160Y359270D01*
X465251Y376970D02*
X469860D01*
X410077Y321796D02*
X465251Y376970D01*
X464253Y371070D02*
X469860D01*
X413543Y320360D02*
X464253Y371070D01*
X413543Y312288D02*
Y320360D01*
X464705Y369070D02*
X469860D01*
X415276Y319642D02*
X464705Y369070D01*
X415276Y312288D02*
Y319642D01*
X465802Y375070D02*
X469860D01*
X411810Y321078D02*
X465802Y375070D01*
X411810Y312288D02*
Y321078D01*
X465256Y367170D02*
X469860D01*
X417009Y318924D02*
X465256Y367170D01*
X417009Y312288D02*
Y318924D01*
X408343Y322514D02*
X466800Y380970D01*
X465707Y365170D02*
X469860D01*
X418743Y318206D02*
X465707Y365170D01*
X418743Y312288D02*
Y318206D01*
X401773Y312288D02*
Y323297D01*
X355931Y387727D02*
Y389313D01*
X366098Y387727D02*
Y389299D01*
X360928Y387727D02*
Y389360D01*
X379475Y387727D02*
X381101Y389353D01*
X375938Y389353D02*
X376212Y389079D01*
Y387727D02*
Y389079D01*
X529366Y327220D02*
X529411Y327265D01*
X529366Y321986D02*
Y327220D01*
X529322Y321941D02*
X529366Y321986D01*
X429171Y223577D02*
X429623Y224028D01*
X426473Y223577D02*
X429171D01*
X426364Y223468D02*
X426473Y223577D01*
X429180Y220534D02*
X429623Y220091D01*
X426473Y220534D02*
X429180D01*
X426364Y220643D02*
X426473Y220534D01*
X429623Y220091D02*
X434154D01*
X434183Y220121D01*
X429623Y224028D02*
X436713D01*
X440089Y227404D01*
Y227601D01*
X394295Y197777D02*
X394322Y197804D01*
X401201D01*
X401228Y197831D01*
X469860Y373070D02*
X469870Y373081D01*
X475624D02*
X475634Y373091D01*
D73*
X235861Y362530D02*
X240783D01*
X228468Y355137D02*
X235861Y362530D01*
X214275Y355137D02*
X228468D01*
X203370Y344232D02*
X214275Y355137D01*
X530284Y226175D02*
X534880D01*
X542916Y218138D01*
X404488Y334409D02*
X405503Y333395D01*
X404488Y334409D02*
Y337821D01*
X203370Y320482D02*
Y343051D01*
Y320482D02*
X205678Y318175D01*
Y314325D02*
Y318175D01*
X203370Y343051D02*
Y344232D01*
X520913Y235546D02*
X530284Y226175D01*
X520913Y235546D02*
Y261700D01*
D74*
X396526Y380896D02*
Y389228D01*
X396166Y380536D02*
X396526Y380896D01*
X396166Y377071D02*
Y380536D01*
X393716Y374621D02*
X396166Y377071D01*
X353716Y374621D02*
X356216Y372121D01*
Y367121D02*
Y372121D01*
Y367121D02*
X358716Y364621D01*
X383716Y374621D02*
X386216Y372121D01*
Y367121D02*
Y372121D01*
Y367121D02*
X388716Y364621D01*
X371266Y367071D02*
X373716Y364621D01*
X371266Y367071D02*
Y372071D01*
X369706Y373631D02*
X371266Y372071D01*
X363716Y379621D02*
Y379664D01*
X361233Y377104D02*
X363716Y374621D01*
X366098Y382047D02*
Y387727D01*
X360928Y383355D02*
Y387727D01*
Y383355D02*
X361233Y383050D01*
X376212Y377125D02*
X378716Y374621D01*
Y386968D02*
X379475Y387727D01*
X355931Y382004D02*
X356192Y381743D01*
X355931Y382004D02*
Y387727D01*
X363716Y379664D02*
X366098Y382047D01*
X378716Y379621D02*
Y386968D01*
X356192Y377145D02*
Y381743D01*
X361233Y377104D02*
Y383050D01*
X376212Y377125D02*
Y387727D01*
X356192Y377145D02*
X358716Y374621D01*
D75*
X447562Y171295D02*
D03*
X457562D02*
D03*
X467562D02*
D03*
X477562D02*
D03*
X487562D02*
D03*
X497562D02*
D03*
D76*
X222279Y374342D02*
D03*
D77*
X240783Y386153D02*
D03*
D78*
Y362530D02*
D03*
D79*
X295468Y172293D02*
D03*
X256098D02*
D03*
D80*
X263155Y206584D02*
D03*
X247344Y201862D02*
D03*
X228454Y153404D02*
D03*
X229276Y172910D02*
D03*
Y192416D02*
D03*
X228865Y209048D02*
D03*
X209975Y201656D02*
D03*
X209359Y180918D02*
D03*
Y161207D02*
D03*
X189894Y152994D02*
D03*
X190510Y172089D02*
D03*
X190716Y190979D02*
D03*
X191537Y211307D02*
D03*
Y235946D02*
D03*
X191742Y255862D02*
D03*
X191537Y277011D02*
D03*
Y298981D02*
D03*
X191742Y322388D02*
D03*
X192358Y348464D02*
D03*
Y373104D02*
D03*
X206279Y364069D02*
D03*
Y383986D02*
D03*
X316950Y348054D02*
D03*
X294159Y347849D02*
D03*
X274653Y348054D02*
D03*
X256584Y348259D02*
D03*
X237489Y348670D02*
D03*
X227838Y343126D02*
D03*
X246523Y342715D02*
D03*
X265002Y342510D02*
D03*
X284098D02*
D03*
X304899Y342855D02*
D03*
D81*
X462903Y188582D02*
D03*
X507935Y310768D02*
D03*
X397159Y210425D02*
D03*
X453731Y193092D02*
D03*
X453754Y195852D02*
D03*
X398856Y327916D02*
D03*
X359577Y342138D02*
D03*
X397350Y239613D02*
D03*
X400667Y239632D02*
D03*
X391120Y317970D02*
D03*
X387868Y317931D02*
D03*
X528291Y239478D02*
D03*
X526315Y371164D02*
D03*
X514365Y266219D02*
D03*
X371164Y227130D02*
D03*
X385674Y215798D02*
D03*
X389137Y216065D02*
D03*
X415794Y229158D02*
D03*
X412679Y229664D02*
D03*
X401271Y335744D02*
D03*
X398247Y335788D02*
D03*
X401293Y338723D02*
D03*
X398203Y338811D02*
D03*
X405503Y333395D02*
D03*
X420671Y265425D02*
D03*
X426970Y268575D02*
D03*
X425659Y308133D02*
D03*
X425715Y310916D02*
D03*
X497210Y283620D02*
D03*
X417534Y293766D02*
D03*
X414378Y296935D02*
D03*
X411222Y296921D02*
D03*
X398624Y306370D02*
D03*
X382876Y252827D02*
D03*
X376576Y293772D02*
D03*
X395474Y281173D02*
D03*
X408073D02*
D03*
X423820D02*
D03*
X398624Y268575D02*
D03*
X401773D02*
D03*
X389175Y265425D02*
D03*
X422135Y246774D02*
D03*
X420671Y255976D02*
D03*
X408073Y290622D02*
D03*
X411222Y284323D02*
D03*
X398624Y274874D02*
D03*
X401773Y271724D02*
D03*
X426970Y255976D02*
D03*
X382876Y290622D02*
D03*
X395474Y296921D02*
D03*
X386025D02*
D03*
X389175Y300071D02*
D03*
X408073Y274874D02*
D03*
X398624Y271724D02*
D03*
X411222Y274874D02*
D03*
X420671Y268575D02*
D03*
X426970Y262275D02*
D03*
X382876Y296921D02*
D03*
X389175Y290622D02*
D03*
X395474Y284323D02*
D03*
X374342Y279605D02*
D03*
X386025Y274874D02*
D03*
X417521D02*
D03*
X408073Y271724D02*
D03*
X411222Y265425D02*
D03*
X401773Y255976D02*
D03*
X411222Y290622D02*
D03*
X382876Y284323D02*
D03*
X398624Y281173D02*
D03*
Y262275D02*
D03*
X420671D02*
D03*
X373118Y257528D02*
D03*
X389175Y293772D02*
D03*
X411222Y287472D02*
D03*
X389175Y284323D02*
D03*
X408073Y278023D02*
D03*
X426970Y271724D02*
D03*
Y265425D02*
D03*
X420671Y259126D02*
D03*
X398624Y296921D02*
D03*
X420671Y296921D02*
D03*
X398624Y287472D02*
D03*
X434830Y285899D02*
D03*
X420671Y281173D02*
D03*
X401773Y274874D02*
D03*
X392268Y271639D02*
D03*
X414372Y262275D02*
D03*
X401773Y259126D02*
D03*
X392324Y255976D02*
D03*
X417521Y252827D02*
D03*
X382876Y300071D02*
D03*
X379726D02*
D03*
X404923Y287472D02*
D03*
X426970Y281173D02*
D03*
X411222Y278023D02*
D03*
X436912Y270235D02*
D03*
X411222Y262275D02*
D03*
X398624Y259126D02*
D03*
X426970D02*
D03*
X398624Y293772D02*
D03*
X434988Y305804D02*
D03*
X386025Y287472D02*
D03*
X408073Y284323D02*
D03*
X395474Y271724D02*
D03*
X382876Y268575D02*
D03*
X414372Y271724D02*
D03*
X395474Y265425D02*
D03*
X401773D02*
D03*
X420671Y293772D02*
D03*
X395474D02*
D03*
X376576Y306370D02*
D03*
X389175D02*
D03*
X382876Y287472D02*
D03*
X401773D02*
D03*
Y281173D02*
D03*
X411222Y271724D02*
D03*
X423820D02*
D03*
X408073Y268575D02*
D03*
X414372Y265425D02*
D03*
X423820D02*
D03*
X392324Y290622D02*
D03*
X426970D02*
D03*
X379726Y284323D02*
D03*
X386025D02*
D03*
X414372Y281173D02*
D03*
X395474Y268575D02*
D03*
Y262275D02*
D03*
X411222Y259126D02*
D03*
X435002Y251252D02*
D03*
X386025Y290622D02*
D03*
X376576Y284323D02*
D03*
X417521Y271724D02*
D03*
X386025Y259126D02*
D03*
X406498Y247945D02*
D03*
X408073Y293772D02*
D03*
X404923Y290622D02*
D03*
X379726Y293772D02*
D03*
X392324Y300071D02*
D03*
X395474Y303220D02*
D03*
Y290622D02*
D03*
X420671Y274874D02*
D03*
X408073Y265425D02*
D03*
X414372Y259126D02*
D03*
X417521D02*
D03*
Y255976D02*
D03*
X426970Y293772D02*
D03*
X417521Y290622D02*
D03*
X395474Y287472D02*
D03*
X411222Y281173D02*
D03*
X423820Y274874D02*
D03*
X411222Y268575D02*
D03*
X417521Y265425D02*
D03*
X423820Y262275D02*
D03*
X435002Y301645D02*
D03*
X398624Y303220D02*
D03*
X409640Y307954D02*
D03*
X386025Y303220D02*
D03*
X392324Y306370D02*
D03*
X417521Y287472D02*
D03*
X392324Y284323D02*
D03*
X382876Y281173D02*
D03*
X423820Y268575D02*
D03*
X411222Y255976D02*
D03*
Y293772D02*
D03*
X398624Y300071D02*
D03*
X414372D02*
D03*
X379726Y306370D02*
D03*
X398624Y284323D02*
D03*
X414372D02*
D03*
X417521D02*
D03*
X420671Y271724D02*
D03*
X398624Y265425D02*
D03*
X401773Y262275D02*
D03*
X390787Y248437D02*
D03*
X376576Y249677D02*
D03*
X401773Y252827D02*
D03*
X404889Y293813D02*
D03*
X389175Y287472D02*
D03*
X392324D02*
D03*
X414372D02*
D03*
X423820Y284323D02*
D03*
X375444Y273317D02*
D03*
X417521Y262275D02*
D03*
X423820Y259126D02*
D03*
X435002Y254401D02*
D03*
X395474Y300071D02*
D03*
X376576D02*
D03*
X408073Y287472D02*
D03*
X401773Y284323D02*
D03*
X417521Y281173D02*
D03*
X414372Y268575D02*
D03*
X392324Y293772D02*
D03*
X408073Y300071D02*
D03*
X386025D02*
D03*
X382876Y303220D02*
D03*
X395474Y274874D02*
D03*
X379726Y262275D02*
D03*
X395474Y306370D02*
D03*
X434037Y262275D02*
D03*
X475106Y379752D02*
D03*
X531923Y335125D02*
D03*
X353592Y384682D02*
D03*
X388707Y385680D02*
D03*
X351191Y377158D02*
D03*
X344535Y370083D02*
D03*
X346191Y367169D02*
D03*
X381191Y352169D02*
D03*
Y357170D02*
D03*
X396191Y352169D02*
D03*
Y357170D02*
D03*
X356107Y291787D02*
D03*
X360081Y302226D02*
D03*
X451804Y199826D02*
D03*
X354266Y246368D02*
D03*
X358281Y246675D02*
D03*
X348411Y256070D02*
D03*
X344816D02*
D03*
X366129Y396493D02*
D03*
X360857Y396482D02*
D03*
X355940Y396409D02*
D03*
X338455Y390523D02*
D03*
X328740Y378137D02*
D03*
X375924Y396304D02*
D03*
X381127Y396421D02*
D03*
X386097Y396450D02*
D03*
X396474Y396392D02*
D03*
X391066Y396480D02*
D03*
X391191Y362170D02*
D03*
Y367169D02*
D03*
X351191Y352169D02*
D03*
Y357170D02*
D03*
X391264Y372146D02*
D03*
X376168Y357097D02*
D03*
Y362097D02*
D03*
X376191Y372169D02*
D03*
X376240Y367073D02*
D03*
X371191Y382170D02*
D03*
X361191Y372169D02*
D03*
Y367169D02*
D03*
Y362170D02*
D03*
X366191Y357170D02*
D03*
Y352169D02*
D03*
X390066Y327833D02*
D03*
X398025Y332561D02*
D03*
X385995Y327702D02*
D03*
X381897Y327833D02*
D03*
X381792Y331589D02*
D03*
X384865Y331642D02*
D03*
X396945Y325000D02*
D03*
X379739Y310914D02*
D03*
X375855Y310966D02*
D03*
X370727Y320808D02*
D03*
X374751Y320718D02*
D03*
X526680Y382825D02*
D03*
X505459Y382737D02*
D03*
X517807Y330171D02*
D03*
X517699Y334587D02*
D03*
X544426Y292758D02*
D03*
X522347Y301832D02*
D03*
X503246Y314631D02*
D03*
X503161Y319372D02*
D03*
X444713Y270733D02*
D03*
X511560Y282846D02*
D03*
X549252Y167330D02*
D03*
X553166Y260427D02*
D03*
X540762Y237654D02*
D03*
X538837Y239527D02*
D03*
X546362Y214171D02*
D03*
X546215Y182536D02*
D03*
X545995Y185943D02*
D03*
X451925Y181648D02*
D03*
X452221Y188634D02*
D03*
X425155Y172823D02*
D03*
X380663Y168471D02*
D03*
X313043Y167072D02*
D03*
X299405Y155940D02*
D03*
X291531D02*
D03*
X283657D02*
D03*
X275783D02*
D03*
X267909D02*
D03*
X260035D02*
D03*
X252155Y155934D02*
D03*
X252070Y188208D02*
D03*
X239387Y233112D02*
D03*
X219567Y232430D02*
D03*
X326114Y325085D02*
D03*
X326169Y329142D02*
D03*
X331172Y329087D02*
D03*
X331117Y325251D02*
D03*
X337953Y325196D02*
D03*
Y329253D02*
D03*
X341678Y332866D02*
D03*
X335008Y332811D02*
D03*
X335072Y310666D02*
D03*
X295070Y277793D02*
D03*
X282569Y278691D02*
D03*
X211758Y338053D02*
D03*
X210723Y326706D02*
D03*
X377751Y231534D02*
D03*
X318019Y228979D02*
D03*
X320851Y225852D02*
D03*
X324408Y229102D02*
D03*
X321624Y232400D02*
D03*
X398742Y314204D02*
D03*
X343800Y305100D02*
D03*
X350727Y298432D02*
D03*
X348267Y300763D02*
D03*
X321252Y228859D02*
D03*
X346179Y302870D02*
D03*
X546268Y218010D02*
D03*
X520913Y261700D02*
D03*
X459468Y288091D02*
D03*
X356356Y324647D02*
D03*
X352468Y324517D02*
D03*
X348875Y328012D02*
D03*
X352534Y327979D02*
D03*
X356225Y328600D02*
D03*
X356029Y331900D02*
D03*
X398230Y343081D02*
D03*
X389939Y343198D02*
D03*
X408739Y342225D02*
D03*
X405391Y347090D02*
D03*
X405313Y351878D02*
D03*
X410996Y345728D02*
D03*
X410918Y348686D02*
D03*
X386083Y336697D02*
D03*
X383916Y342148D02*
D03*
X354458Y335794D02*
D03*
Y339333D02*
D03*
X357866Y344248D02*
D03*
X354130Y343134D02*
D03*
X337484Y342522D02*
D03*
X342560Y354627D02*
D03*
X342657Y349323D02*
D03*
X342723Y342164D02*
D03*
X339371Y338878D02*
D03*
X376607Y342341D02*
D03*
X380257D02*
D03*
X334765Y338955D02*
D03*
X335611Y350593D02*
D03*
X335452Y346996D02*
D03*
X362989Y341703D02*
D03*
X351127Y340371D02*
D03*
X324104Y191140D02*
D03*
X324298Y168043D02*
D03*
X331028Y165903D02*
D03*
X362268Y161906D02*
D03*
X362010Y182146D02*
D03*
X362051Y191687D02*
D03*
X371450Y218921D02*
D03*
X371585Y215056D02*
D03*
X374213Y209509D02*
D03*
X381274Y238821D02*
D03*
X382681Y217414D02*
D03*
X394861Y222913D02*
D03*
X433182Y215266D02*
D03*
X509338Y180902D02*
D03*
X508474Y221409D02*
D03*
X508419Y225666D02*
D03*
X508386Y229795D02*
D03*
X508315Y234142D02*
D03*
X508362Y238330D02*
D03*
X369518Y257568D02*
D03*
X392331Y274871D02*
D03*
X387667Y248282D02*
D03*
X401810Y249119D02*
D03*
X401773Y300071D02*
D03*
Y296921D02*
D03*
X437309Y315804D02*
D03*
X437019Y318748D02*
D03*
X417521Y300071D02*
D03*
X411222D02*
D03*
X440714Y270257D02*
D03*
X422077Y243687D02*
D03*
X389188Y259115D02*
D03*
X346168Y347097D02*
D03*
Y352097D02*
D03*
X356168Y347097D02*
D03*
X356227Y352126D02*
D03*
X356188Y362122D02*
D03*
X361168Y347097D02*
D03*
Y352097D02*
D03*
X371168Y347097D02*
D03*
X371191Y377169D02*
D03*
X376168Y347097D02*
D03*
Y352097D02*
D03*
X381191Y362170D02*
D03*
Y372169D02*
D03*
Y367169D02*
D03*
Y377158D02*
D03*
X386168Y347097D02*
D03*
X401264Y362146D02*
D03*
Y372146D02*
D03*
Y367146D02*
D03*
X401252Y377146D02*
D03*
X346168Y357097D02*
D03*
X386191Y382170D02*
D03*
X366191Y362170D02*
D03*
X351191D02*
D03*
X366191Y372169D02*
D03*
Y367169D02*
D03*
X351191D02*
D03*
Y372169D02*
D03*
X366191Y377158D02*
D03*
X391168Y347097D02*
D03*
Y352097D02*
D03*
X529241Y318824D02*
D03*
X529322Y321941D02*
D03*
X426364Y223468D02*
D03*
Y220643D02*
D03*
X404410Y197834D02*
D03*
X401228Y197831D02*
D03*
X478883Y372990D02*
D03*
X475634Y373091D02*
D03*
M02*
