G04*
G04 #@! TF.GenerationSoftware,Altium Limited,Altium Designer,20.1.11 (218)*
G04*
G04 Layer_Physical_Order=4*
G04 Layer_Color=16711680*
%FSLAX25Y25*%
%MOIN*%
G70*
G04*
G04 #@! TF.SameCoordinates,731B5D3F-845C-401C-AC73-029E605C2F8B*
G04*
G04*
G04 #@! TF.FilePolarity,Positive*
G04*
G01*
G75*
%ADD18C,0.00500*%
%ADD22C,0.01000*%
%ADD23R,0.02756X0.02362*%
%ADD24R,0.02362X0.02756*%
%ADD25R,0.02362X0.02362*%
%ADD32R,0.05512X0.03150*%
%ADD41R,0.03150X0.05512*%
%ADD72C,0.01155*%
%ADD73C,0.03000*%
%ADD74C,0.00800*%
%ADD75C,0.06378*%
%ADD76O,0.08858X0.17717*%
%ADD77O,0.17717X0.08858*%
%ADD78O,0.19685X0.09843*%
%ADD79C,0.04134*%
%ADD80C,0.03000*%
%ADD81C,0.01800*%
%ADD83R,0.04331X0.05512*%
%ADD84R,0.03740X0.07480*%
%ADD85R,0.04331X0.01181*%
%ADD86R,0.12205X0.09055*%
%ADD87C,0.01200*%
%ADD88C,0.01207*%
G36*
X406940Y339301D02*
Y332765D01*
X406562Y332387D01*
X404491D01*
Y332447D01*
X400141D01*
Y332447D01*
X399644Y332452D01*
X399554Y332561D01*
X399438Y333146D01*
X399106Y333642D01*
X398610Y333974D01*
X398025Y334090D01*
X397439Y333974D01*
X397052Y333715D01*
X396402Y334366D01*
X396447Y340457D01*
X405761Y340479D01*
X406940Y339301D01*
D02*
G37*
D18*
X433865Y288501D02*
X436010Y290646D01*
X439446D01*
X426003Y288501D02*
X433865D01*
X423079Y291425D02*
X426003Y288501D01*
X421275Y291425D02*
X423079D01*
X417534Y293766D02*
X419099Y292201D01*
X420499D01*
X421275Y291425D01*
X438794Y287538D02*
X439192Y287936D01*
X424607Y287538D02*
X438794D01*
X422222Y289922D02*
X424607Y287538D01*
X417521Y290622D02*
X420068D01*
X420768Y289922D02*
X422222D01*
X420068Y290622D02*
X420768Y289922D01*
X428667Y244390D02*
Y250527D01*
X421638Y257556D02*
X428667Y250527D01*
X432687Y251204D02*
Y252741D01*
X425390Y257556D02*
X427872D01*
X432687Y252741D01*
X429953Y256901D02*
X439192D01*
X427977Y258877D02*
X429953Y256901D01*
X426970Y259126D02*
X427219Y258877D01*
X427977D01*
X419101Y258475D02*
X420021Y257556D01*
X419101Y267005D02*
X420671Y268575D01*
X419101Y258475D02*
Y267005D01*
X437111Y266995D02*
X437417Y266689D01*
X423820Y268575D02*
X425400Y266995D01*
X437111D01*
X426970Y268575D02*
X427123Y268422D01*
X388403Y280919D02*
Y281116D01*
X391361Y284074D01*
X392076D01*
X392324Y284323D01*
X392340Y280919D02*
Y281116D01*
X395474Y284250D01*
Y284323D01*
Y274874D02*
X396826Y276225D01*
X402852Y312288D02*
X410159Y304981D01*
X409651Y300925D02*
X410159Y301433D01*
Y304981D01*
X404889Y293813D02*
X409651Y298575D01*
Y300925D01*
X427643Y308133D02*
X428290Y307486D01*
X425659Y308133D02*
X427643D01*
X427783Y310916D02*
X428290Y311423D01*
X425715Y310916D02*
X427783D01*
X426376Y283728D02*
X439209D01*
X423820Y281173D02*
X426376Y283728D01*
X414378Y296935D02*
X417535D01*
X421501Y300901D01*
X423457D01*
X427394D02*
Y306590D01*
X428290Y307486D01*
X415735Y301433D02*
Y303399D01*
X414372Y300071D02*
X415735Y301433D01*
X406412Y281065D02*
X407964D01*
X404808Y275688D02*
Y279461D01*
X406412Y281065D01*
X401310Y290548D02*
Y290745D01*
Y290548D02*
X404137Y287721D01*
X404674D01*
X404923Y287472D01*
X400589Y282511D02*
X401773Y281326D01*
X400194Y282906D02*
Y284973D01*
X400589Y282511D02*
Y282511D01*
X400194Y282906D02*
X400589Y282511D01*
X399274Y285893D02*
X400194Y284973D01*
X418142Y247574D02*
Y250487D01*
X419447Y251792D02*
Y254051D01*
X418142Y250487D02*
X419447Y251792D01*
X420021Y257556D02*
X421638D01*
X432687Y251204D02*
X439192Y244699D01*
X423820Y259126D02*
X425390Y257556D01*
X429960Y258634D02*
X439192D01*
X423820Y262275D02*
X425390Y260705D01*
X427888D01*
X429960Y258634D01*
X420671Y262275D02*
X422251Y260696D01*
Y258475D02*
X430220Y250506D01*
Y246853D02*
Y250506D01*
X422251Y258475D02*
Y260696D01*
X420671Y271724D02*
X422251Y273304D01*
X428489D02*
X431786Y276601D01*
X422251Y273304D02*
X428489D01*
X425390Y270154D02*
X429592D01*
X432575Y273137D01*
X423820Y271724D02*
X425390Y270154D01*
X432575Y273137D02*
X442310D01*
X444713Y270733D01*
X420824Y281173D02*
X422476Y279522D01*
X428029D02*
X428591Y280083D01*
X422476Y279522D02*
X428029D01*
X370570Y293206D02*
X377884Y285893D01*
X399274D01*
X389231Y270649D02*
X391277D01*
X392268Y271639D01*
X402420Y273301D02*
X404808Y275688D01*
X391452Y273301D02*
X402420D01*
X390886Y272735D02*
X391452Y273301D01*
X383657Y272735D02*
X390886D01*
X370570Y285822D02*
X383657Y272735D01*
X397054Y298491D02*
Y309926D01*
Y298491D02*
X398624Y296921D01*
Y293772D02*
X400203Y295351D01*
Y301278D01*
X393933Y317222D02*
X396464Y319754D01*
X393933Y313047D02*
Y317222D01*
Y313047D02*
X397054Y309926D01*
X395725Y312849D02*
Y316073D01*
X397673Y318021D01*
X395725Y312849D02*
X400194Y308381D01*
Y302570D02*
Y308381D01*
X396892Y315216D02*
X397964Y316288D01*
X397975D01*
X396892Y313202D02*
X398942Y311152D01*
X396892Y313202D02*
Y315216D01*
X398942Y311152D02*
X400115D01*
X401807Y309460D01*
Y302882D02*
Y309460D01*
X400203Y301278D02*
X401807Y302882D01*
X398624Y300071D02*
X398872Y300319D01*
Y301249D01*
X400194Y302570D01*
X392753Y261940D02*
X393089Y262275D01*
X395474D01*
X390787Y245760D02*
Y248437D01*
X390237Y245210D02*
X390787Y245760D01*
X429188Y262275D02*
X431022Y260442D01*
X439192D01*
X426970Y262275D02*
X429188D01*
X435002Y254401D02*
X438239D01*
X432346Y276747D02*
X439192Y276617D01*
X431932Y276747D02*
X432346D01*
X439192Y276617D02*
X439192D01*
X431786Y276601D02*
X431932Y276747D01*
X439192Y278350D02*
X439192D01*
X427362Y278415D02*
X427776D01*
X439192Y278350D01*
X423820Y274874D02*
X427215Y278269D01*
X427362Y278415D01*
X428591Y280083D02*
X439192D01*
X420671Y281173D02*
X420824D01*
X409596Y243629D02*
X413151Y247184D01*
X411222Y259126D02*
X413151Y257197D01*
Y247184D02*
Y257197D01*
X414199Y244390D02*
X414199Y244390D01*
X414372Y259126D01*
X401773Y281173D02*
Y281326D01*
X407964Y281065D02*
X408073Y281173D01*
X394959Y242989D02*
Y253194D01*
X397741Y255976D01*
X393382Y253884D02*
X398624Y259126D01*
X393382Y244059D02*
Y253884D01*
X397741Y255976D02*
X401773D01*
X415933Y244390D02*
Y247408D01*
X417713Y244390D02*
Y247146D01*
X418142Y247574D01*
X438665Y265420D02*
X439192Y264893D01*
X437417Y266689D02*
X439192D01*
X427123Y268422D02*
X439192D01*
X419447Y244390D02*
Y247383D01*
X438432Y263853D02*
X439192Y263093D01*
X435161Y263853D02*
X438432D01*
X435162Y265420D02*
X438665D01*
X430220Y246853D02*
X432683Y244390D01*
X437821Y251252D02*
X438423Y250649D01*
X398872Y276012D02*
X400763Y277903D01*
X373069Y260393D02*
X373118Y260344D01*
X389231Y274586D02*
X389516Y274871D01*
X392331D01*
X400763Y277903D02*
Y278099D01*
X398872Y275123D02*
Y276012D01*
X398624Y274874D02*
X398872Y275123D01*
X396826Y276225D02*
Y278099D01*
X385515Y256281D02*
Y258264D01*
X386025Y258774D01*
Y259126D01*
X399280Y248915D02*
X399484Y249119D01*
X401810D01*
X399280Y252852D02*
X399306Y252827D01*
X401773D01*
X405057Y270318D02*
X405254D01*
X406749Y268823D01*
X407824D01*
X408073Y268575D01*
X405057Y266381D02*
X407116D01*
X408073Y265425D01*
X412358Y301206D02*
Y303173D01*
X411222Y300071D02*
X412358Y301206D01*
X408073Y302825D02*
X408421Y303173D01*
X408073Y300071D02*
Y302825D01*
X402840Y297988D02*
X404907D01*
X401773Y296921D02*
X402840Y297988D01*
X404710Y301925D02*
X404907D01*
X403104Y300319D02*
X404710Y301925D01*
X402022Y300319D02*
X403104D01*
X401773Y300071D02*
X402022Y300319D01*
X418315Y287914D02*
X420292D01*
X417873Y287472D02*
X418315Y287914D01*
X417521Y287472D02*
X417873D01*
X419946Y284323D02*
X420292Y283977D01*
X417521Y284323D02*
X419946D01*
X429769Y290622D02*
X430010Y290381D01*
X426970Y290622D02*
X429769D01*
X427868Y294318D02*
X430010D01*
X427322Y293772D02*
X427868Y294318D01*
X426970Y293772D02*
X427322D01*
X423289Y296921D02*
X423646Y297278D01*
X420671Y296921D02*
X423289D01*
X421453Y293341D02*
X423646D01*
X421023Y293772D02*
X421453Y293341D01*
X420671Y293772D02*
X421023D01*
X419672Y303202D02*
Y303399D01*
X417770Y301301D02*
X419672Y303202D01*
X417770Y300319D02*
Y301301D01*
X417521Y300071D02*
X417770Y300319D01*
X435002Y251252D02*
X437821D01*
X438239Y254401D02*
X438423Y254586D01*
X424788Y246774D02*
X424824Y246738D01*
X419447Y249904D02*
X420671Y251128D01*
Y255976D01*
X419447Y247383D02*
Y249904D01*
X417521Y255976D02*
X419447Y254051D01*
X415933Y247408D02*
Y257537D01*
X416355Y257959D02*
X417521Y259126D01*
X415933Y257537D02*
X416355Y257959D01*
X389188Y256546D02*
X389453Y256281D01*
X389188Y256546D02*
Y259115D01*
X422243Y263853D02*
X435161D01*
X420671Y265425D02*
X422243Y263853D01*
X435157Y265425D02*
X435162Y265420D01*
X428620Y265425D02*
X435157D01*
X426970D02*
X428620D01*
D22*
X419598Y277951D02*
X420279Y277270D01*
Y275482D02*
Y277270D01*
Y275482D02*
X420671Y275090D01*
Y274874D02*
Y275090D01*
X415661Y277754D02*
Y277951D01*
Y277754D02*
X417273Y276142D01*
Y275123D02*
Y276142D01*
Y275123D02*
X417521Y274874D01*
X391120Y317970D02*
Y320557D01*
X390932Y320745D02*
X391120Y320557D01*
X387868Y317931D02*
Y320646D01*
X387381Y321132D02*
X387868Y320646D01*
X406413Y257466D02*
X411222Y262275D01*
X406413Y256672D02*
Y257466D01*
X403764Y262428D02*
X404115Y262779D01*
X401926Y262428D02*
X403764D01*
X401773Y262275D02*
X401926Y262428D01*
X404115Y262779D02*
X404312D01*
X404179Y254438D02*
X406413Y256672D01*
X404179Y247399D02*
Y254438D01*
X402907Y246127D02*
X404179Y247399D01*
X398634Y244390D02*
X400371Y246127D01*
X402907D01*
X410968Y252161D02*
X411095Y252288D01*
Y255849D01*
X411222Y255976D01*
X406651Y251780D02*
X407031Y252161D01*
X406651Y248098D02*
Y251780D01*
X406498Y247945D02*
X406651Y248098D01*
X403972Y258984D02*
X404115Y258842D01*
X401915Y258984D02*
X403972D01*
X401773Y259126D02*
X401915Y258984D01*
X378890Y320718D02*
X379018Y320846D01*
X353592Y354761D02*
Y384682D01*
Y354761D02*
X356227Y352126D01*
X384374Y385680D02*
X388707D01*
X372637Y373943D02*
X384374Y385680D01*
X372637Y366538D02*
Y373943D01*
X370882Y364783D02*
X372637Y366538D01*
X356188Y362122D02*
X358849Y364783D01*
X370882D01*
X360081Y297200D02*
X360122Y297158D01*
X360081Y297200D02*
Y302226D01*
X392753Y265877D02*
X393052Y265578D01*
X395321D01*
X395474Y265425D01*
X386300Y245210D02*
X386981Y245891D01*
Y247379D01*
X387667Y248066D01*
Y248282D01*
X355341Y242317D02*
X355977D01*
X354266Y243391D02*
X355341Y242317D01*
X354266Y243391D02*
Y246368D01*
X346488Y257741D02*
Y260358D01*
X344816Y256070D02*
X346488Y257741D01*
X379747Y310922D02*
Y312222D01*
X379739Y310914D02*
X379747Y310922D01*
X375810Y311012D02*
Y312222D01*
Y311012D02*
X375855Y310966D01*
X390932Y320745D02*
X391318Y321132D01*
X550422Y217966D02*
X550466Y217921D01*
X546312Y217966D02*
X550422D01*
X546268Y218010D02*
X546312Y217966D01*
X373118Y257528D02*
Y260344D01*
X422135Y246774D02*
X424788D01*
D23*
X404893Y266374D02*
D03*
Y270311D02*
D03*
X404115Y262779D02*
D03*
Y258842D02*
D03*
X389231Y274586D02*
D03*
Y270649D02*
D03*
X392299Y265967D02*
D03*
Y262031D02*
D03*
X399280Y248915D02*
D03*
Y252852D02*
D03*
X425390Y243049D02*
D03*
Y246986D02*
D03*
X438057Y250289D02*
D03*
Y254226D02*
D03*
X414320Y268300D02*
D03*
Y272237D02*
D03*
X414462Y284115D02*
D03*
Y288052D02*
D03*
X420572Y287996D02*
D03*
Y284059D02*
D03*
X430010Y290381D02*
D03*
Y294318D02*
D03*
X423757Y297277D02*
D03*
Y293340D02*
D03*
X404907Y297988D02*
D03*
Y301925D02*
D03*
X428797Y311446D02*
D03*
Y307509D02*
D03*
X405081Y376193D02*
D03*
Y372256D02*
D03*
X384586Y374046D02*
D03*
Y370109D02*
D03*
X369294Y374220D02*
D03*
Y370283D02*
D03*
X348115Y374210D02*
D03*
Y370273D02*
D03*
X532451Y322038D02*
D03*
Y318101D02*
D03*
D24*
X401032Y290746D02*
D03*
X404969D02*
D03*
X402965Y284378D02*
D03*
X406903D02*
D03*
X407673Y278055D02*
D03*
X411610D02*
D03*
X392340Y280919D02*
D03*
X388403D02*
D03*
X396532Y278032D02*
D03*
X400469D02*
D03*
X389345Y255820D02*
D03*
X385408D02*
D03*
X369143Y260910D02*
D03*
X373080D02*
D03*
X386300Y245210D02*
D03*
X390237D02*
D03*
X397267Y242826D02*
D03*
X401204D02*
D03*
X407031Y252161D02*
D03*
X410968D02*
D03*
X436812Y271009D02*
D03*
X440750D02*
D03*
X419598Y277951D02*
D03*
X415661D02*
D03*
X412245Y303326D02*
D03*
X408308D02*
D03*
X419672Y303399D02*
D03*
X415735D02*
D03*
X375810Y314148D02*
D03*
X379747D02*
D03*
X387381Y321132D02*
D03*
X391318D02*
D03*
X479797Y376130D02*
D03*
X475860D02*
D03*
X401255Y201388D02*
D03*
X405192D02*
D03*
D25*
X427394Y300901D02*
D03*
X423457D02*
D03*
X509214Y382813D02*
D03*
X513151D02*
D03*
X516497Y191950D02*
D03*
X512560D02*
D03*
X516497Y196162D02*
D03*
X512560D02*
D03*
Y166676D02*
D03*
X516497D02*
D03*
Y200375D02*
D03*
X512560D02*
D03*
Y170888D02*
D03*
X516497D02*
D03*
Y204587D02*
D03*
X512560D02*
D03*
Y175101D02*
D03*
X516497D02*
D03*
Y208800D02*
D03*
X512560D02*
D03*
Y183525D02*
D03*
X516497D02*
D03*
Y213012D02*
D03*
X512560D02*
D03*
Y187738D02*
D03*
X516497D02*
D03*
Y217224D02*
D03*
X512560D02*
D03*
X516497Y242498D02*
D03*
X512560D02*
D03*
X516497Y246711D02*
D03*
X512560D02*
D03*
X516497Y250923D02*
D03*
X512560D02*
D03*
X516497Y255135D02*
D03*
X512560D02*
D03*
X516497Y179313D02*
D03*
X512560D02*
D03*
X516497Y221437D02*
D03*
X512560D02*
D03*
X516497Y225649D02*
D03*
X512560D02*
D03*
X516497Y229861D02*
D03*
X512560D02*
D03*
X516497Y234074D02*
D03*
X512560D02*
D03*
X516497Y238286D02*
D03*
X512560D02*
D03*
D32*
X346488Y260358D02*
D03*
Y252090D02*
D03*
X355977Y242317D02*
D03*
Y250584D02*
D03*
X414226Y224933D02*
D03*
Y233201D02*
D03*
D41*
X395259Y234439D02*
D03*
X403527D02*
D03*
X441409Y316716D02*
D03*
X433142D02*
D03*
X394049Y329091D02*
D03*
X402316D02*
D03*
D72*
X403527Y234439D02*
Y235620D01*
X400776Y238372D02*
X403527Y235620D01*
X400776Y238372D02*
Y239523D01*
X400667Y239632D02*
X400776Y239523D01*
X395259Y234439D02*
X396217Y235398D01*
Y238327D01*
X397350Y239459D01*
Y239613D01*
Y239757D02*
Y242743D01*
X397267Y242826D02*
X397350Y242743D01*
Y239613D02*
Y239757D01*
X397372Y239779D01*
X400667Y239632D02*
Y239926D01*
X400750Y240009D01*
Y242372D01*
X401204Y242826D01*
X509887Y290646D02*
X514365Y286168D01*
Y266219D02*
Y286168D01*
X439446Y290646D02*
X509887D01*
X439192Y287936D02*
X439348Y288091D01*
X428667Y243703D02*
X481408Y190963D01*
X428667Y243703D02*
Y244390D01*
X397267Y242826D02*
Y243022D01*
X398634Y244390D01*
X414226Y224933D02*
X414836D01*
X415794Y225891D01*
Y229158D01*
X413637Y233201D02*
X414226D01*
X412679Y232243D02*
X413637Y233201D01*
X412679Y229664D02*
Y232243D01*
X439192Y256901D02*
X439637D01*
X500375Y196162D01*
X401045Y314095D02*
X402852Y312288D01*
X398850Y314095D02*
X401045D01*
X398742Y314204D02*
X398850Y314095D01*
X497102Y283728D02*
X497210Y283620D01*
X439209Y283728D02*
X497102D01*
X439192Y244699D02*
X489462Y194429D01*
X510081D01*
X374751Y320718D02*
X378890D01*
X511715Y381377D02*
X513151Y382813D01*
X511715Y381372D02*
Y381377D01*
X454008Y323666D02*
X511715Y381372D01*
X405148Y323666D02*
X454008D01*
X396464Y319754D02*
X399565Y322854D01*
X403136Y325218D02*
X404354D01*
X404534Y325399D02*
X420753D01*
X404354Y325218D02*
X404534Y325399D01*
X399565Y322854D02*
X400773D01*
X420753Y325399D02*
X475106Y379752D01*
X400773Y322854D02*
X403136Y325218D01*
X529337Y337711D02*
X531923Y335125D01*
X510559Y337711D02*
X529337D01*
X405840Y321364D02*
X494211D01*
X510559Y337711D01*
X397673Y318021D02*
X399504D01*
X405148Y323666D01*
X397975Y316288D02*
X400764D01*
X405840Y321364D01*
X360241Y289654D02*
Y290238D01*
X358693Y291787D02*
X360241Y290238D01*
X356107Y291787D02*
X358693D01*
X439192Y260442D02*
X442384Y260352D01*
X498149Y204587D01*
X355977Y250584D02*
X357158D01*
X358116Y249626D01*
Y246993D02*
Y249626D01*
Y246993D02*
X358281Y246828D01*
Y246675D02*
Y246828D01*
X346488Y252090D02*
X347453D01*
X348411Y253048D01*
Y256070D01*
X394049Y327909D02*
Y329091D01*
Y327909D02*
X396945Y325013D01*
Y325000D02*
Y325013D01*
X379747Y312222D02*
Y314148D01*
X375810Y312222D02*
Y314148D01*
X366261Y320808D02*
X370727D01*
X513151Y382813D02*
X513157Y382819D01*
X526674D01*
X526680Y382825D01*
X505459Y382737D02*
X505535Y382813D01*
X509214D01*
X439192Y276617D02*
X482654D01*
X512560Y246711D01*
X439192Y278350D02*
X485133D01*
X512560Y250923D01*
X439192Y280083D02*
X487612D01*
X512560Y255135D01*
X549252Y167330D02*
X551930Y170008D01*
X557159D01*
X557077Y254024D02*
X557159D01*
X553166Y257934D02*
X557077Y254024D01*
X553166Y257934D02*
Y260427D01*
X544470Y239575D02*
X550466D01*
X544374Y239671D02*
X544470Y239575D01*
X539135Y239671D02*
X544374D01*
X538990Y239527D02*
X539135Y239671D01*
X538837Y239527D02*
X538990D01*
X550442Y237630D02*
X550466Y237606D01*
X540786Y237630D02*
X550442D01*
X540762Y237654D02*
X540786Y237630D01*
X550466Y213984D02*
Y215953D01*
Y212016D02*
Y213984D01*
Y210047D02*
Y212016D01*
X550440Y214010D02*
X550466Y213984D01*
X546676Y214010D02*
X550440D01*
X546515Y214171D02*
X546676Y214010D01*
X546362Y214171D02*
X546515D01*
X550466Y184457D02*
Y186425D01*
X550440Y186399D02*
X550466Y186425D01*
X546604Y186399D02*
X550440D01*
X546148Y185943D02*
X546604Y186399D01*
X545995Y185943D02*
X546148D01*
X550442Y182512D02*
X550466Y182488D01*
X546239Y182512D02*
X550442D01*
X546215Y182536D02*
X546239Y182512D01*
X383504Y231534D02*
X394959Y242989D01*
X377751Y231534D02*
X383504D01*
X346179Y274856D02*
Y302870D01*
X337287Y244894D02*
Y265964D01*
X346179Y274856D01*
X321252Y228859D02*
X337287Y244894D01*
X439348Y288091D02*
X459468D01*
X407629Y241662D02*
X409596Y243629D01*
X413885Y244043D02*
X414199Y244390D01*
X409551Y239709D02*
X413885Y244043D01*
X367209Y296567D02*
X370570Y293206D01*
X367328Y289064D02*
X370570Y285822D01*
X367328Y289064D02*
Y289654D01*
X367209Y296567D02*
Y297158D01*
X381274Y238821D02*
X388232D01*
X393382Y243971D01*
Y244059D01*
X407629Y228347D02*
Y241662D01*
X404616Y225333D02*
X407629Y228347D01*
X382681Y217414D02*
X390600Y225333D01*
X404616D01*
X409551Y226493D02*
Y239709D01*
X405971Y222913D02*
X409551Y226493D01*
X394861Y222913D02*
X405971D01*
X395259Y233258D02*
Y234439D01*
X417713Y242748D02*
X472965Y187496D01*
X417713Y242748D02*
Y244390D01*
X415933Y242077D02*
X472247Y185763D01*
X415933Y242077D02*
Y244390D01*
X472247Y185763D02*
X493472D01*
X472965Y187496D02*
X495952D01*
X508775Y178885D02*
X512560Y175101D01*
X516497Y234074D02*
X516875Y233695D01*
X516497Y242498D02*
X517061Y241934D01*
X548944Y176583D02*
X550466D01*
X419447Y243466D02*
X473683Y189230D01*
X500375Y196162D02*
X512560D01*
X516576Y196242D02*
X550440D01*
X419447Y243466D02*
Y244390D01*
X517061Y241934D02*
X518823D01*
X508320Y215491D02*
X510081D01*
X432683Y244390D02*
X484377Y192696D01*
X439192Y258634D02*
X440354D01*
X510081Y194429D02*
X512560Y191950D01*
X493472Y185763D02*
X512560Y166676D01*
X440354Y258634D02*
X498614Y200375D01*
X512560D01*
X495952Y187496D02*
X512560Y170888D01*
X498149Y204587D02*
X512560D01*
X496670Y189230D02*
X507014Y178885D01*
X473683Y189230D02*
X496670D01*
X507014Y178885D02*
X508775D01*
X459021Y262339D02*
X512560Y208800D01*
X442292Y262339D02*
X459021D01*
X440573Y262757D02*
X442292Y262339D01*
X439192Y263093D02*
X440573Y262757D01*
X505122Y190963D02*
X512560Y183525D01*
X481408Y190963D02*
X505122D01*
X459596Y264214D02*
X508320Y215491D01*
X441987Y264214D02*
X459596D01*
X510081Y215491D02*
X512560Y213012D01*
X440912Y264476D02*
X441987Y264214D01*
X439192Y264893D02*
X440912Y264476D01*
X484377Y192696D02*
X507602D01*
X512560Y187738D01*
X509037Y217224D02*
X512560D01*
X441252Y266194D02*
X460068D01*
X509037Y217224D01*
X439214Y266689D02*
X441252Y266194D01*
X439192Y266689D02*
X439214D01*
X440377Y268258D02*
X440395Y268240D01*
X486818D02*
X512560Y242498D01*
X440096Y268258D02*
X440377D01*
X440395Y268240D02*
X486818D01*
X518336Y231701D02*
X550466D01*
X516497Y229861D02*
X518336Y231701D01*
X525578Y188394D02*
X550466D01*
X516497Y179313D02*
X525578Y188394D01*
X516875Y233695D02*
X550440D01*
X550466Y233669D01*
X520580Y229732D02*
X550466D01*
X516497Y225649D02*
X520580Y229732D01*
X522824Y227764D02*
X550466D01*
X516497Y221437D02*
X522824Y227764D01*
X539037Y166676D02*
X548944Y176583D01*
X516497Y166676D02*
X539037D01*
X524160Y178551D02*
X550466D01*
X516497Y170888D02*
X524160Y178551D01*
X521916Y180520D02*
X550466D01*
X516497Y175101D02*
X521916Y180520D01*
X527611Y206110D02*
X550466D01*
X516497Y217224D02*
X527611Y206110D01*
X518823Y241934D02*
X519213Y241543D01*
X550466D01*
X519696Y243512D02*
X550466D01*
X516497Y246711D02*
X519696Y243512D01*
X521940Y245480D02*
X550466D01*
X516497Y250923D02*
X521940Y245480D01*
X523334Y190362D02*
X550466D01*
X516497Y183525D02*
X523334Y190362D01*
X521090Y192331D02*
X550466D01*
X516497Y187738D02*
X521090Y192331D01*
X518846Y194299D02*
X550466D01*
X516497Y191950D02*
X518846Y194299D01*
X516497Y196162D02*
X516576Y196242D01*
X550440D02*
X550466Y196268D01*
X518636Y198236D02*
X550466D01*
X516497Y200375D02*
X518636Y198236D01*
X520879Y200205D02*
X550466D01*
X516497Y204587D02*
X520879Y200205D01*
X523123Y202173D02*
X550466D01*
X516497Y208800D02*
X523123Y202173D01*
X525367Y204142D02*
X550466D01*
X516497Y213012D02*
X525367Y204142D01*
X516497Y255135D02*
X541257D01*
X548918Y247475D01*
X519145Y235638D02*
X550466D01*
X516497Y238286D02*
X519145Y235638D01*
X509338Y180902D02*
X510927Y179313D01*
X512560D01*
X508474Y221409D02*
X508502Y221437D01*
X512560D01*
X508419Y225666D02*
X508436Y225649D01*
X512560D01*
X508386Y229795D02*
X508452Y229861D01*
X512560D01*
X512526Y234108D02*
X512560Y234074D01*
X508349Y234108D02*
X512526D01*
X508315Y234142D02*
X508349Y234108D01*
X508362Y238330D02*
X508406Y238286D01*
X512560D01*
X369132Y260393D02*
X369410Y260115D01*
Y257677D02*
Y260115D01*
Y257677D02*
X369518Y257568D01*
X438293Y316716D02*
X441409D01*
X437381Y315804D02*
X438293Y316716D01*
X437309Y315804D02*
X437381D01*
X433142Y316716D02*
Y317790D01*
X434100Y318748D01*
X437019D01*
X424259Y243366D02*
X424824Y242801D01*
X422552Y243366D02*
X424259D01*
X422231Y243687D02*
X422552Y243366D01*
X422077Y243687D02*
X422231D01*
X531887Y318666D02*
X532451Y318101D01*
X529553Y318666D02*
X531887D01*
X529394Y318824D02*
X529553Y318666D01*
X529241Y318824D02*
X529394D01*
X532403Y321990D02*
X532451Y322038D01*
X529370Y321990D02*
X532403D01*
X529322Y321941D02*
X529370Y321990D01*
X405192Y198769D02*
Y201388D01*
X404410Y197987D02*
X405192Y198769D01*
X404410Y197834D02*
Y197987D01*
X401241Y201374D02*
X401255Y201388D01*
X401241Y197844D02*
Y201374D01*
X401228Y197831D02*
X401241Y197844D01*
X479069Y375470D02*
X479633Y376035D01*
X479069Y373329D02*
Y375470D01*
X478883Y373143D02*
X479069Y373329D01*
X478883Y372990D02*
Y373143D01*
X475665Y374752D02*
Y376004D01*
Y373122D02*
Y374752D01*
X475696Y374783D01*
D73*
X412762Y333395D02*
X471732Y392365D01*
X405503Y333395D02*
X412762D01*
X520913Y261700D02*
X540094Y280881D01*
Y377327D01*
X525057Y392365D02*
X540094Y377327D01*
X471732Y392365D02*
X525057D01*
X520913Y261700D02*
Y261864D01*
D74*
X348511Y370129D02*
X348708D01*
X348511Y374066D02*
X348708D01*
X368686Y370189D02*
X368883D01*
X368686Y374126D02*
X368883D01*
X381191Y372169D02*
X381382Y371978D01*
X381970D01*
X381191Y377158D02*
X381382Y376966D01*
Y376503D02*
Y376966D01*
X383940Y370009D02*
X384137D01*
X401264Y372146D02*
X401319Y372201D01*
X405025D01*
X405081Y372256D01*
X401252Y377146D02*
X401523D01*
X402475Y376193D01*
X405081D01*
X383940Y373946D02*
X384137D01*
X366191Y372169D02*
X366382Y371978D01*
X366897D01*
X368686Y370189D01*
X351000Y371978D02*
X351191Y372169D01*
X350557Y371978D02*
X351000D01*
X348708Y370129D02*
X350557Y371978D01*
X366191Y377158D02*
X366382Y376966D01*
Y376429D02*
Y376966D01*
Y376429D02*
X368686Y374126D01*
X351000Y376966D02*
X351191Y377158D01*
X351000Y376357D02*
Y376966D01*
X348708Y374066D02*
X351000Y376357D01*
X381970Y371978D02*
X383940Y370009D01*
X381382Y376503D02*
X383940Y373946D01*
D75*
X447562Y171295D02*
D03*
X457562D02*
D03*
X467562D02*
D03*
X477562D02*
D03*
X487562D02*
D03*
X497562D02*
D03*
D76*
X222279Y374342D02*
D03*
D77*
X240783Y386153D02*
D03*
D78*
Y362530D02*
D03*
D79*
X295468Y172293D02*
D03*
X256098D02*
D03*
D80*
X263155Y206584D02*
D03*
X247344Y201862D02*
D03*
X228454Y153404D02*
D03*
X229276Y172910D02*
D03*
Y192416D02*
D03*
X228865Y209048D02*
D03*
X209975Y201656D02*
D03*
X209359Y180918D02*
D03*
Y161207D02*
D03*
X189894Y152994D02*
D03*
X190510Y172089D02*
D03*
X190716Y190979D02*
D03*
X191537Y211307D02*
D03*
Y235946D02*
D03*
X191742Y255862D02*
D03*
X191537Y277011D02*
D03*
Y298981D02*
D03*
X191742Y322388D02*
D03*
X192358Y348464D02*
D03*
Y373104D02*
D03*
X206279Y364069D02*
D03*
Y383986D02*
D03*
X316950Y348054D02*
D03*
X294159Y347849D02*
D03*
X274653Y348054D02*
D03*
X256584Y348259D02*
D03*
X237489Y348670D02*
D03*
X227838Y343126D02*
D03*
X246523Y342715D02*
D03*
X265002Y342510D02*
D03*
X284098D02*
D03*
X304899Y342855D02*
D03*
D81*
X462903Y188582D02*
D03*
X507935Y310768D02*
D03*
X397159Y210425D02*
D03*
X453731Y193092D02*
D03*
X453754Y195852D02*
D03*
X398856Y327916D02*
D03*
X359577Y342138D02*
D03*
X397350Y239613D02*
D03*
X400667Y239632D02*
D03*
X391120Y317970D02*
D03*
X387868Y317931D02*
D03*
X528291Y239478D02*
D03*
X526315Y371164D02*
D03*
X514365Y266219D02*
D03*
X371164Y227130D02*
D03*
X385674Y215798D02*
D03*
X389137Y216065D02*
D03*
X415794Y229158D02*
D03*
X412679Y229664D02*
D03*
X401271Y335744D02*
D03*
X398247Y335788D02*
D03*
X401293Y338723D02*
D03*
X398203Y338811D02*
D03*
X405503Y333395D02*
D03*
X420671Y265425D02*
D03*
X426970Y268575D02*
D03*
X425659Y308133D02*
D03*
X425715Y310916D02*
D03*
X497210Y283620D02*
D03*
X417534Y293766D02*
D03*
X414378Y296935D02*
D03*
X411222Y296921D02*
D03*
X398624Y306370D02*
D03*
X382876Y252827D02*
D03*
X376576Y293772D02*
D03*
X395474Y281173D02*
D03*
X408073D02*
D03*
X423820D02*
D03*
X398624Y268575D02*
D03*
X401773D02*
D03*
X389175Y265425D02*
D03*
X422135Y246774D02*
D03*
X420671Y255976D02*
D03*
X408073Y290622D02*
D03*
X411222Y284323D02*
D03*
X398624Y274874D02*
D03*
X401773Y271724D02*
D03*
X426970Y255976D02*
D03*
X382876Y290622D02*
D03*
X395474Y296921D02*
D03*
X386025D02*
D03*
X389175Y300071D02*
D03*
X408073Y274874D02*
D03*
X398624Y271724D02*
D03*
X411222Y274874D02*
D03*
X420671Y268575D02*
D03*
X426970Y262275D02*
D03*
X382876Y296921D02*
D03*
X389175Y290622D02*
D03*
X395474Y284323D02*
D03*
X374342Y279605D02*
D03*
X386025Y274874D02*
D03*
X417521D02*
D03*
X408073Y271724D02*
D03*
X411222Y265425D02*
D03*
X401773Y255976D02*
D03*
X411222Y290622D02*
D03*
X382876Y284323D02*
D03*
X398624Y281173D02*
D03*
Y262275D02*
D03*
X420671D02*
D03*
X373118Y257528D02*
D03*
X389175Y293772D02*
D03*
X411222Y287472D02*
D03*
X389175Y284323D02*
D03*
X408073Y278023D02*
D03*
X426970Y271724D02*
D03*
Y265425D02*
D03*
X420671Y259126D02*
D03*
X398624Y296921D02*
D03*
X420671Y296921D02*
D03*
X398624Y287472D02*
D03*
X434830Y285899D02*
D03*
X420671Y281173D02*
D03*
X401773Y274874D02*
D03*
X392268Y271639D02*
D03*
X414372Y262275D02*
D03*
X401773Y259126D02*
D03*
X392324Y255976D02*
D03*
X417521Y252827D02*
D03*
X382876Y300071D02*
D03*
X379726D02*
D03*
X404923Y287472D02*
D03*
X426970Y281173D02*
D03*
X411222Y278023D02*
D03*
X436912Y270235D02*
D03*
X411222Y262275D02*
D03*
X398624Y259126D02*
D03*
X426970D02*
D03*
X398624Y293772D02*
D03*
X434988Y305804D02*
D03*
X386025Y287472D02*
D03*
X408073Y284323D02*
D03*
X395474Y271724D02*
D03*
X382876Y268575D02*
D03*
X414372Y271724D02*
D03*
X395474Y265425D02*
D03*
X401773D02*
D03*
X420671Y293772D02*
D03*
X395474D02*
D03*
X376576Y306370D02*
D03*
X389175D02*
D03*
X382876Y287472D02*
D03*
X401773D02*
D03*
Y281173D02*
D03*
X411222Y271724D02*
D03*
X423820D02*
D03*
X408073Y268575D02*
D03*
X414372Y265425D02*
D03*
X423820D02*
D03*
X392324Y290622D02*
D03*
X426970D02*
D03*
X379726Y284323D02*
D03*
X386025D02*
D03*
X414372Y281173D02*
D03*
X395474Y268575D02*
D03*
Y262275D02*
D03*
X411222Y259126D02*
D03*
X435002Y251252D02*
D03*
X386025Y290622D02*
D03*
X376576Y284323D02*
D03*
X417521Y271724D02*
D03*
X386025Y259126D02*
D03*
X406498Y247945D02*
D03*
X408073Y293772D02*
D03*
X404923Y290622D02*
D03*
X379726Y293772D02*
D03*
X392324Y300071D02*
D03*
X395474Y303220D02*
D03*
Y290622D02*
D03*
X420671Y274874D02*
D03*
X408073Y265425D02*
D03*
X414372Y259126D02*
D03*
X417521D02*
D03*
Y255976D02*
D03*
X426970Y293772D02*
D03*
X417521Y290622D02*
D03*
X395474Y287472D02*
D03*
X411222Y281173D02*
D03*
X423820Y274874D02*
D03*
X411222Y268575D02*
D03*
X417521Y265425D02*
D03*
X423820Y262275D02*
D03*
X435002Y301645D02*
D03*
X398624Y303220D02*
D03*
X409640Y307954D02*
D03*
X386025Y303220D02*
D03*
X392324Y306370D02*
D03*
X417521Y287472D02*
D03*
X392324Y284323D02*
D03*
X382876Y281173D02*
D03*
X423820Y268575D02*
D03*
X411222Y255976D02*
D03*
Y293772D02*
D03*
X398624Y300071D02*
D03*
X414372D02*
D03*
X379726Y306370D02*
D03*
X398624Y284323D02*
D03*
X414372D02*
D03*
X417521D02*
D03*
X420671Y271724D02*
D03*
X398624Y265425D02*
D03*
X401773Y262275D02*
D03*
X390787Y248437D02*
D03*
X376576Y249677D02*
D03*
X401773Y252827D02*
D03*
X404889Y293813D02*
D03*
X389175Y287472D02*
D03*
X392324D02*
D03*
X414372D02*
D03*
X423820Y284323D02*
D03*
X375444Y273317D02*
D03*
X417521Y262275D02*
D03*
X423820Y259126D02*
D03*
X435002Y254401D02*
D03*
X395474Y300071D02*
D03*
X376576D02*
D03*
X408073Y287472D02*
D03*
X401773Y284323D02*
D03*
X417521Y281173D02*
D03*
X414372Y268575D02*
D03*
X392324Y293772D02*
D03*
X408073Y300071D02*
D03*
X386025D02*
D03*
X382876Y303220D02*
D03*
X395474Y274874D02*
D03*
X379726Y262275D02*
D03*
X395474Y306370D02*
D03*
X434037Y262275D02*
D03*
X475106Y379752D02*
D03*
X531923Y335125D02*
D03*
X353592Y384682D02*
D03*
X388707Y385680D02*
D03*
X351191Y377158D02*
D03*
X344535Y370083D02*
D03*
X346191Y367169D02*
D03*
X381191Y352169D02*
D03*
Y357170D02*
D03*
X396191Y352169D02*
D03*
Y357170D02*
D03*
X356107Y291787D02*
D03*
X360081Y302226D02*
D03*
X451804Y199826D02*
D03*
X354266Y246368D02*
D03*
X358281Y246675D02*
D03*
X348411Y256070D02*
D03*
X344816D02*
D03*
X366129Y396493D02*
D03*
X360857Y396482D02*
D03*
X355940Y396409D02*
D03*
X338455Y390523D02*
D03*
X328740Y378137D02*
D03*
X375924Y396304D02*
D03*
X381127Y396421D02*
D03*
X386097Y396450D02*
D03*
X396474Y396392D02*
D03*
X391066Y396480D02*
D03*
X391191Y362170D02*
D03*
Y367169D02*
D03*
X351191Y352169D02*
D03*
Y357170D02*
D03*
X391264Y372146D02*
D03*
X376168Y357097D02*
D03*
Y362097D02*
D03*
X376191Y372169D02*
D03*
X376240Y367073D02*
D03*
X371191Y382170D02*
D03*
X361191Y372169D02*
D03*
Y367169D02*
D03*
Y362170D02*
D03*
X366191Y357170D02*
D03*
Y352169D02*
D03*
X390066Y327833D02*
D03*
X398025Y332561D02*
D03*
X385995Y327702D02*
D03*
X381897Y327833D02*
D03*
X381792Y331589D02*
D03*
X384865Y331642D02*
D03*
X396945Y325000D02*
D03*
X379739Y310914D02*
D03*
X375855Y310966D02*
D03*
X370727Y320808D02*
D03*
X374751Y320718D02*
D03*
X526680Y382825D02*
D03*
X505459Y382737D02*
D03*
X517807Y330171D02*
D03*
X517699Y334587D02*
D03*
X544426Y292758D02*
D03*
X522347Y301832D02*
D03*
X503246Y314631D02*
D03*
X503161Y319372D02*
D03*
X444713Y270733D02*
D03*
X511560Y282846D02*
D03*
X549252Y167330D02*
D03*
X553166Y260427D02*
D03*
X540762Y237654D02*
D03*
X538837Y239527D02*
D03*
X546362Y214171D02*
D03*
X546215Y182536D02*
D03*
X545995Y185943D02*
D03*
X451925Y181648D02*
D03*
X452221Y188634D02*
D03*
X425155Y172823D02*
D03*
X380663Y168471D02*
D03*
X313043Y167072D02*
D03*
X299405Y155940D02*
D03*
X291531D02*
D03*
X283657D02*
D03*
X275783D02*
D03*
X267909D02*
D03*
X260035D02*
D03*
X252155Y155934D02*
D03*
X252070Y188208D02*
D03*
X239387Y233112D02*
D03*
X219567Y232430D02*
D03*
X326114Y325085D02*
D03*
X326169Y329142D02*
D03*
X331172Y329087D02*
D03*
X331117Y325251D02*
D03*
X337953Y325196D02*
D03*
Y329253D02*
D03*
X341678Y332866D02*
D03*
X335008Y332811D02*
D03*
X335072Y310666D02*
D03*
X295070Y277793D02*
D03*
X282569Y278691D02*
D03*
X211758Y338053D02*
D03*
X210723Y326706D02*
D03*
X377751Y231534D02*
D03*
X318019Y228979D02*
D03*
X320851Y225852D02*
D03*
X324408Y229102D02*
D03*
X321624Y232400D02*
D03*
X398742Y314204D02*
D03*
X343800Y305100D02*
D03*
X350727Y298432D02*
D03*
X348267Y300763D02*
D03*
X321252Y228859D02*
D03*
X346179Y302870D02*
D03*
X546268Y218010D02*
D03*
X520913Y261700D02*
D03*
X459468Y288091D02*
D03*
X356356Y324647D02*
D03*
X352468Y324517D02*
D03*
X348875Y328012D02*
D03*
X352534Y327979D02*
D03*
X356225Y328600D02*
D03*
X356029Y331900D02*
D03*
X398230Y343081D02*
D03*
X389939Y343198D02*
D03*
X408739Y342225D02*
D03*
X405391Y347090D02*
D03*
X405313Y351878D02*
D03*
X410996Y345728D02*
D03*
X410918Y348686D02*
D03*
X386083Y336697D02*
D03*
X383916Y342148D02*
D03*
X354458Y335794D02*
D03*
Y339333D02*
D03*
X357866Y344248D02*
D03*
X354130Y343134D02*
D03*
X337484Y342522D02*
D03*
X342560Y354627D02*
D03*
X342657Y349323D02*
D03*
X342723Y342164D02*
D03*
X339371Y338878D02*
D03*
X376607Y342341D02*
D03*
X380257D02*
D03*
X334765Y338955D02*
D03*
X335611Y350593D02*
D03*
X335452Y346996D02*
D03*
X362989Y341703D02*
D03*
X351127Y340371D02*
D03*
X324104Y191140D02*
D03*
X324298Y168043D02*
D03*
X331028Y165903D02*
D03*
X362268Y161906D02*
D03*
X362010Y182146D02*
D03*
X362051Y191687D02*
D03*
X371450Y218921D02*
D03*
X371585Y215056D02*
D03*
X374213Y209509D02*
D03*
X381274Y238821D02*
D03*
X382681Y217414D02*
D03*
X394861Y222913D02*
D03*
X433182Y215266D02*
D03*
X509338Y180902D02*
D03*
X508474Y221409D02*
D03*
X508419Y225666D02*
D03*
X508386Y229795D02*
D03*
X508315Y234142D02*
D03*
X508362Y238330D02*
D03*
X369518Y257568D02*
D03*
X392331Y274871D02*
D03*
X387667Y248282D02*
D03*
X401810Y249119D02*
D03*
X401773Y300071D02*
D03*
Y296921D02*
D03*
X437309Y315804D02*
D03*
X437019Y318748D02*
D03*
X417521Y300071D02*
D03*
X411222D02*
D03*
X440714Y270257D02*
D03*
X422077Y243687D02*
D03*
X389188Y259115D02*
D03*
X346168Y347097D02*
D03*
Y352097D02*
D03*
X356168Y347097D02*
D03*
X356227Y352126D02*
D03*
X356188Y362122D02*
D03*
X361168Y347097D02*
D03*
Y352097D02*
D03*
X371168Y347097D02*
D03*
X371191Y377169D02*
D03*
X376168Y347097D02*
D03*
Y352097D02*
D03*
X381191Y362170D02*
D03*
Y372169D02*
D03*
Y367169D02*
D03*
Y377158D02*
D03*
X386168Y347097D02*
D03*
X401264Y362146D02*
D03*
Y372146D02*
D03*
Y367146D02*
D03*
X401252Y377146D02*
D03*
X346168Y357097D02*
D03*
X386191Y382170D02*
D03*
X366191Y362170D02*
D03*
X351191D02*
D03*
X366191Y372169D02*
D03*
Y367169D02*
D03*
X351191D02*
D03*
Y372169D02*
D03*
X366191Y377158D02*
D03*
X391168Y347097D02*
D03*
Y352097D02*
D03*
X529241Y318824D02*
D03*
X529322Y321941D02*
D03*
X426364Y223468D02*
D03*
Y220643D02*
D03*
X404410Y197834D02*
D03*
X401228Y197831D02*
D03*
X478883Y372990D02*
D03*
X475634Y373091D02*
D03*
D83*
X360241Y289654D02*
D03*
X367328D02*
D03*
X360122Y297158D02*
D03*
X367209D02*
D03*
D84*
X379018Y320846D02*
D03*
X366223D02*
D03*
D85*
X550466Y247449D02*
D03*
Y245480D02*
D03*
Y243512D02*
D03*
Y241543D02*
D03*
Y239575D02*
D03*
Y237606D02*
D03*
Y235638D02*
D03*
Y233669D02*
D03*
Y231701D02*
D03*
Y229732D02*
D03*
Y227764D02*
D03*
Y225795D02*
D03*
Y223827D02*
D03*
Y221858D02*
D03*
Y219890D02*
D03*
Y217921D02*
D03*
Y215953D02*
D03*
Y213984D02*
D03*
Y212016D02*
D03*
Y210047D02*
D03*
Y208079D02*
D03*
Y206110D02*
D03*
Y204142D02*
D03*
Y202173D02*
D03*
Y200205D02*
D03*
Y198236D02*
D03*
Y196268D02*
D03*
Y194299D02*
D03*
Y192331D02*
D03*
Y190362D02*
D03*
Y188394D02*
D03*
Y186425D02*
D03*
Y184457D02*
D03*
Y182488D02*
D03*
Y180520D02*
D03*
Y178551D02*
D03*
Y176583D02*
D03*
D86*
X557159Y170008D02*
D03*
Y254024D02*
D03*
D87*
X402316Y328991D02*
Y329091D01*
X401241Y327916D02*
X402316Y328991D01*
X398856Y327916D02*
X401241D01*
D88*
X439192Y268422D02*
X439716D01*
X439732Y268406D01*
X439949D01*
X440096Y268258D01*
M02*
